Project Version="3.2.2" TempoMode="FamiStudio" Name="Batman: The Video Game" Author="Kodaka Naoki, Hara Nobuyuki" Copyright="1989 Sunsoft"
	DPCMSample Name="BM Bass Drum" Data="5155112dadadaad55d5ad52fedffffe51510000000000051252aa52a52added5efeeefededdeedefeedadaad525aa512a2a52522251122525152a52d5555aa52aa52552aa5552d525552d52aaaad5adaadaaddadad5adadaad5ad5aa55552aaaa52aaa55552aa5555555aaad5555552d5555ad55555552aa55a52a55552555525552a55aa55555555aaaa55ad52ad52aaadaa55552aaaaaa5555552d555aaad55aad5aadaaad55aaad5555aaaaaaa55555552aaaa5555552aaaa5555552aa555255552aaaa555552aaad2aaad555aaaa"
	DPCMSample Name="BM Tom 1" Data="a5aa5aff0eaf125000000020f2ffffffffffffff5a52a000000000000002555affdeefffffffffffe5aaa510022100000000000555afddfefedfffffdff5eead21505a11102000100021025aaafeefefffedaeffafddf5aea5150051000000010055ed2f5adad2effafffffded1ef51d10022a111102a02225a51d1525a5e5dd5dfeefffffeee5551505521021100a0100a1521a5fdaf2dfdaff5afeffdefadd5502521000210505102d11a2552eaaeafeafffafffdeeafd2d22a05a0501500202105505a5eaaeefaaf5de5fadfdf55f2d5aa0f0d502500a010220522552add55efdefdefedef5df22f12d512525110222025022a5aaad2d5af2faeddedeadeafadaaa52d155251a2250155150151d12d1ad52ed2dd5fdafdafedd555552d12a552a520a212250525515aaaaed2deadeedddf2ef5aad5a5551251251a2222512512a555d2dd2dadaf5af2af2ddaaadad52e25a2d25522a52a2aa1522aaaaaad25d25ad2aed5ae5edafaed5ad5aaad2ad112251025051150552adaad5ad2fdaefddddd2eead2d55255151250a511122a5252aaaaaadaddddaafa5ed5d5a55aa2f5151551521a52a52552aaa552aaaad5adadadadd2daae52e555525a52d15552a5552aa5552aa5ad2d5555a5ad2d5555552aadaaada55aaad5555555552aa55552552a5525555552affffffffffffffff"
	DPCMSample Name="BM Tom 2" Data="a5aaaa5a5ffff5100000000fffffff2fa00fff5f000f50000010f00002dffffffd50a50eefa5efffffff0002a5000000005001adfffffffffe251105dad52dfd52510000005a02e5ef25daeffffffdaa51aa20005efa055d001010ee50deaaeeaeffeeeff52d5525220112505555502d11155aadeddffeedee55d515aaa11222111152a5255fa1ea522ad55affdfffd512ed51225010101512a5d52aef55ded2ad55a52efdefd555512252222501222522dddd2daeedddaddda2aaaa5addd555111002512512aad2aeaaafdadafedaddae50a52aa512eadaa5000212a2aadadaeedaedaefd5555aada52522ad25102ad55da000555aaadddafdeedaddad525512aaa5115122a52ea255555a512aadafdddafdd5a5555aaaa2122522222aa55ad2aad5adad552d555afefd5ad52a225555122251252aa52aaadaddadadad2daaaad55ded55aa5251111125225a5555aaad555ddadaedaaadaaaa55555aad525122511111adaa5555adaddadad5aedad555aa51252d55552a5251111252ad5aeedaed5ad5daaad5aeaaa55252551252aa555252a55225aad5dafddddaaad52d5aa52a525252555252552aaaaaa55555555aeeeeedaed552a552552a525251525252aaadaad5aad5552dadaadadddad5aa525251122552aa55255552ad555adddad5aadaaaa55aadad55255525112252555"
	DPCMMapping Note="C1" Sample="BM Bass Drum" Pitch="15" Loop="False"
	DPCMMapping Note="C#1" Sample="BM Tom 1" Pitch="15" Loop="False"
	DPCMMapping Note="D1" Sample="BM Tom 2" Pitch="15" Loop="False"
	DPCMMapping Note="D#1" Sample="BM Tom 2" Pitch="14" Loop="False"
	DPCMMapping Note="E1" Sample="BM Tom 2" Pitch="12" Loop="False"
	Instrument Name="BM Echo"
		Envelope Type="Volume" Length="1" Values="5"
		Envelope Type="Pitch" Length="21" Loop="5" Values="1,1,1,1,1,1,1,0,0,-1,-1,-2,-2,-3,-3,-2,-2,-1,-1,0,0"
		Envelope Type="DutyCycle" Length="1" Values="1"
	Instrument Name="BM Lead"
		Envelope Type="Volume" Length="12" Values="3,10,10,10,10,9,9,1,5,4,4,3"
		Envelope Type="Pitch" Length="23" Loop="7" Values="1,1,1,1,1,1,1,0,0,1,1,2,2,3,3,2,2,1,1,0,0,-1,-1"
		Envelope Type="DutyCycle" Length="1" Values="1"
	Instrument Name="BM Lead Alt"
		Envelope Type="Volume" Length="11" Values="3,9,9,9,8,8,1,5,4,4,3"
		Envelope Type="Pitch" Length="23" Loop="7" Values="1,1,1,1,1,1,1,0,0,1,1,2,2,3,3,2,2,1,1,0,0,-1,-1"
		Envelope Type="DutyCycle" Length="1" Values="1"
	Instrument Name="BM Lead Fade"
		Envelope Type="Volume" Length="5" Values="1,5,4,4,3"
		Envelope Type="Pitch" Length="20" Loop="0" Values="0,0,1,1,2,2,3,3,2,2,1,1,0,0,-1,-1,-2,-2,-1,-1"
		Envelope Type="DutyCycle" Length="1" Values="1"
	Instrument Name="BM Lead Quick"
		Envelope Type="Volume" Length="7" Loop="0" Values="4,9,9,9,1,5,4"
		Envelope Type="Pitch" Length="23" Loop="7" Values="1,1,1,1,1,1,1,0,0,1,1,2,2,3,3,2,2,1,1,0,0,-1,-1"
		Envelope Type="DutyCycle" Length="1" Values="1"
	Instrument Name="BM Lead Quick Loud"
		Envelope Type="Volume" Length="7" Loop="0" Values="4,10,10,10,1,5,4"
		Envelope Type="Pitch" Length="23" Loop="7" Values="1,1,1,1,1,1,1,0,0,1,1,2,2,3,3,2,2,1,1,0,0,-1,-1"
		Envelope Type="DutyCycle" Length="1" Values="1"
	Instrument Name="BM Lead Rise"
		Envelope Type="Volume" Length="9" Values="5,5,5,6,6,7,7,8,8"
		Envelope Type="Pitch" Length="23" Loop="7" Values="1,1,1,1,1,1,1,0,0,1,1,2,2,3,3,2,2,1,1,0,0,-1,-1"
		Envelope Type="DutyCycle" Length="1" Values="1"
	Instrument Name="BM Lead SteadyVol"
		Envelope Type="Volume" Length="10" Values="8,10,10,10,10,9,9,9,9,8"
		Envelope Type="Pitch" Length="23" Loop="7" Values="1,1,1,1,1,1,1,0,0,1,1,2,2,3,3,2,2,1,1,0,0,-1,-1"
		Envelope Type="DutyCycle" Length="1" Values="1"
	Instrument Name="BM Lead Sustain"
		Envelope Type="Volume" Length="10" Values="9,9,9,9,9,8,8,8,8,7"
		Envelope Type="Pitch" Length="23" Loop="7" Values="1,1,1,1,1,1,1,0,0,1,1,2,2,3,3,2,2,1,1,0,0,-1,-1"
		Envelope Type="DutyCycle" Length="1" Values="1"
	Instrument Name="BM Maracas"
		Envelope Type="Volume" Length="28" Values="5,5,4,3,1,0,0,3,3,2,1,0,0,0,7,7,6,5,2,1,1,3,3,2,2,1,0,0"
	Instrument Name="BM Snare"
		Envelope Type="Volume" Length="5" Values="7,6,5,4,3"
	Instrument Name="BM Tri"
	Instrument Name="BM TriPitch1"
		Envelope Type="Pitch" Length="1" Values="1"
	Song Name="bat - stage 1" Length="34" LoopPoint="2" PatternLength="8" BeatLength="4" NoteLength="14" Groove="14" GroovePaddingMode="Middle"
		Channel Type="Square1"
			Pattern Name="Pattern 14"
			Pattern Name="Stop"
				Note Time="0" Value="Stop"
			Pattern Name="Pattern 1"
				Note Time="7" Value="B2" Duration="7" Instrument="BM Lead Quick"
				Note Time="14" Value="F#3" Duration="7" Instrument="BM Lead Quick"
				Note Time="21" Value="D3" Duration="7" Instrument="BM Lead Quick"
				Note Time="28" Value="G3" Duration="7" Instrument="BM Lead Quick"
				Note Time="35" Value="F#3" Duration="7" Instrument="BM Lead Quick"
				Note Time="42" Value="D3" Duration="7" Instrument="BM Lead Quick"
				Note Time="49" Value="B2" Duration="112" Instrument="BM Lead Sustain"
			Pattern Name="Pattern 2"
				Note Time="49" Value="B2" Duration="14" Instrument="BM Lead Fade" Attack="False"
				Note Time="63" Value="A#2" Duration="21" Instrument="BM Lead Alt"
				Note Time="84" Value="B2" Duration="14" Instrument="BM Lead Alt"
				Note Time="98" Value="C#3" Duration="14" Instrument="BM Lead Alt"
			Pattern Name="Pattern 3"
				Note Time="0" Value="D3" Duration="14" Instrument="BM Lead Alt"
				Note Time="14" Value="E3" Duration="7" Instrument="BM Lead Alt"
				Note Time="21" Value="F#3" Duration="140" Instrument="BM Lead Sustain"
			Pattern Name="Pattern 4"
				Note Time="49" Value="F#3" Duration="14" Instrument="BM Lead Fade"
				Note Time="63" Value="A3" Duration="21" Instrument="BM Lead Alt"
				Note Time="84" Value="G3" Duration="14" Instrument="BM Lead Alt"
				Note Time="98" Value="F#3" Duration="14" Instrument="BM Lead Alt"
			Pattern Name="Pattern 5"
				Note Time="0" Value="E3" Duration="21" Instrument="BM Lead Alt"
				Note Time="21" Value="C3" Duration="21" Instrument="BM Lead Alt"
				Note Time="42" Value="G2" Duration="119" Instrument="BM Lead Sustain"
			Pattern Name="Pattern 6"
				Note Time="49" Value="G2" Duration="14" Instrument="BM Lead Fade"
				Note Time="63" Value="C3" Duration="7" Instrument="BM Lead Quick"
				Note Time="70" Value="D3" Duration="7" Instrument="BM Lead Quick"
				Note Time="77" Value="E3" Duration="7" Instrument="BM Lead Quick"
				Note Time="84" Value="F#3" Duration="7" Instrument="BM Lead Quick"
				Note Time="91" Value="G3" Duration="7" Instrument="BM Lead Quick"
				Note Time="98" Value="A3" Duration="7" Instrument="BM Lead Quick"
				Note Time="105" Value="G3" Duration="7" Instrument="BM Lead Quick"
			Pattern Name="Pattern 7"
				Note Time="0" Value="F#3" Duration="98" Instrument="BM Lead Sustain"
				Note Time="98" Value="F#3" Duration="14" Instrument="BM Lead Fade"
			Pattern Name="Pattern 8"
				Note Time="14" Value="A3" Duration="14" Instrument="BM Lead Rise"
				Note Time="28" Value="A3" Duration="14" Instrument="BM Lead Fade"
				Note Time="42" Value="A3" Duration="7" Instrument="BM Lead"
				Note Time="49" Value="A3" Duration="14" Instrument="BM Lead Fade"
				Note Time="63" Value="G3" Duration="7" Instrument="BM Lead Quick Loud"
				Note Time="70" Value="F#3" Duration="7" Instrument="BM Lead Quick Loud"
				Note Time="77" Value="E3" Duration="7" Instrument="BM Lead Quick Loud"
				Note Time="84" Value="F#3" Duration="7" Instrument="BM Lead Quick Loud"
				Note Time="91" Value="E3" Duration="7" Instrument="BM Lead Quick Loud"
				Note Time="98" Value="D3" Duration="7" Instrument="BM Lead Quick Loud"
				Note Time="105" Value="C#3" Duration="7" Instrument="BM Lead Quick Loud"
			Pattern Name="Pattern 9"
				Note Time="14" Value="A3" Duration="14" Instrument="BM Lead Rise"
				Note Time="28" Value="A3" Duration="14" Instrument="BM Lead Fade"
				Note Time="42" Value="A3" Duration="21" Instrument="BM Lead"
				Note Time="63" Value="F#3" Duration="7" Instrument="BM Lead Quick Loud"
				Note Time="70" Value="E3" Duration="7" Instrument="BM Lead Quick Loud"
				Note Time="77" Value="F#3" Duration="7" Instrument="BM Lead Quick Loud"
				Note Time="84" Value="D3" Duration="7" Instrument="BM Lead Quick Loud"
				Note Time="91" Value="E3" Duration="7" Instrument="BM Lead Quick Loud"
				Note Time="98" Value="C#3" Duration="7" Instrument="BM Lead Quick Loud"
				Note Time="105" Value="D3" Duration="7" Instrument="BM Lead Quick Loud"
			Pattern Name="Pattern 10"
				Note Time="0" Value="B2" Duration="21" Instrument="BM Lead"
				Note Time="21" Value="F#3" Duration="21" Instrument="BM Lead"
				Note Time="42" Value="B3" Duration="14" Instrument="BM Lead"
				Note Time="56" Value="C#4" Duration="14" Instrument="BM Lead"
				Note Time="70" Value="D4" Duration="7" Instrument="BM Lead Quick Loud"
				Note Time="77" Value="B3" Duration="21" Instrument="BM Lead"
				Note Time="98" Value="D4" Duration="14" Instrument="BM Lead"
			Pattern Name="Pattern 11"
				Note Time="0" Value="C#4" Duration="21" Instrument="BM Lead"
				Note Time="21" Value="D4" Duration="21" Instrument="BM Lead"
				Note Time="42" Value="E4" Duration="14" Instrument="BM Lead"
				Note Time="56" Value="A3" Duration="7" Instrument="BM Lead Quick Loud"
				Note Time="63" Value="A3" Duration="14" Instrument="BM Lead"
				Note Time="77" Value="B3" Duration="21" Instrument="BM Lead"
				Note Time="98" Value="C#4" Duration="14" Instrument="BM Lead"
			Pattern Name="Pattern 12"
				Note Time="0" Value="D4" Duration="7" Instrument="BM Lead Quick Loud"
				Note Time="7" Value="B3" Duration="7" Instrument="BM Lead Quick Loud"
				Note Time="14" Value="G3" Duration="7" Instrument="BM Lead Quick Loud"
				Note Time="21" Value="B3" Duration="7" Instrument="BM Lead Quick Loud"
				Note Time="28" Value="G3" Duration="7" Instrument="BM Lead Quick Loud"
				Note Time="35" Value="D3" Duration="7" Instrument="BM Lead Quick Loud"
				Note Time="42" Value="G3" Duration="7" Instrument="BM Lead Quick Loud"
				Note Time="49" Value="D3" Duration="7" Instrument="BM Lead Quick Loud"
				Note Time="56" Value="B2" Duration="7" Instrument="BM Lead Quick Loud"
				Note Time="63" Value="D3" Duration="7" Instrument="BM Lead Quick Loud"
				Note Time="70" Value="B2" Duration="7" Instrument="BM Lead Quick Loud"
				Note Time="77" Value="G2" Duration="7" Instrument="BM Lead Quick Loud"
				Note Time="84" Value="G3" Duration="7" Instrument="BM Lead Quick Loud"
				Note Time="91" Value="G2" Duration="7" Instrument="BM Lead Quick Loud"
				Note Time="98" Value="A2" Duration="7" Instrument="BM Lead Quick Loud"
				Note Time="105" Value="G2" Duration="7" Instrument="BM Lead Quick Loud"
			Pattern Name="Pattern 13"
				Note Time="0" Value="F#2" Duration="7" Instrument="BM Lead Quick Loud"
				Note Time="7" Value="C#3" Duration="7" Instrument="BM Lead Quick Loud"
				Note Time="14" Value="F#3" Duration="7" Instrument="BM Lead Quick Loud"
				Note Time="21" Value="C#4" Duration="7" Instrument="BM Lead Quick Loud"
				Note Time="28" Value="F#4" Duration="7" Instrument="BM Lead Quick Loud"
				Note Time="35" Value="E4" Duration="7" Instrument="BM Lead Quick Loud"
				Note Time="42" Value="D4" Duration="7" Instrument="BM Lead Quick Loud"
				Note Time="49" Value="E4" Duration="7" Instrument="BM Lead Quick Loud"
				Note Time="56" Value="D4" Duration="7" Instrument="BM Lead Quick Loud"
				Note Time="63" Value="C#4" Duration="7" Instrument="BM Lead Quick Loud"
				Note Time="70" Value="B3" Duration="7" Instrument="BM Lead Quick Loud"
				Note Time="77" Value="C#4" Duration="7" Instrument="BM Lead Quick Loud"
				Note Time="84" Value="B3" Duration="7" Instrument="BM Lead Quick Loud"
				Note Time="91" Value="A#3" Duration="7" Instrument="BM Lead Quick Loud"
				Note Time="98" Value="G#3" Duration="7" Instrument="BM Lead Quick Loud"
				Note Time="105" Value="A#3" Duration="7" Instrument="BM Lead Quick Loud"
			Pattern Name="Pattern 18"
				Note Time="0" Value="B3" Duration="14" Instrument="BM Lead Quick Loud"
				Note Time="14" Value="F#3" Duration="7" Instrument="BM Lead Quick Loud"
				Note Time="21" Value="C#4" Duration="14" Instrument="BM Lead Quick Loud"
				Note Time="35" Value="F#3" Duration="7" Instrument="BM Lead Quick Loud"
				Note Time="42" Value="D4" Duration="14" Instrument="BM Lead Quick Loud"
				Note Time="56" Value="F#3" Duration="7" Instrument="BM Lead Quick Loud"
				Note Time="63" Value="E4" Duration="7" Instrument="BM Lead Quick Loud"
				Note Time="70" Value="D4" Duration="7" Instrument="BM Lead Quick Loud"
				Note Time="77" Value="E4" Duration="7" Instrument="BM Lead Quick Loud"
				Note Time="84" Value="F#4" Duration="14" Instrument="BM Lead SteadyVol"
				Note Time="98" Value="F#4" Duration="14" Instrument="BM Lead Fade"
			Pattern Name="Pattern 15"
				Note Time="0" Value="B3" Duration="14" Instrument="BM Lead Quick Loud"
				Note Time="14" Value="G3" Duration="7" Instrument="BM Lead Quick Loud"
				Note Time="21" Value="C#4" Duration="14" Instrument="BM Lead Quick Loud"
				Note Time="35" Value="G3" Duration="7" Instrument="BM Lead Quick Loud"
				Note Time="42" Value="D4" Duration="14" Instrument="BM Lead Quick Loud"
				Note Time="56" Value="G3" Duration="7" Instrument="BM Lead Quick Loud"
				Note Time="63" Value="E4" Duration="7" Instrument="BM Lead Quick Loud"
				Note Time="70" Value="D4" Duration="7" Instrument="BM Lead Quick Loud"
				Note Time="77" Value="E4" Duration="7" Instrument="BM Lead Quick Loud"
				Note Time="84" Value="F#4" Duration="14" Instrument="BM Lead SteadyVol"
				Note Time="98" Value="F#4" Duration="14" Instrument="BM Lead Fade"
			Pattern Name="Pattern 16"
				Note Time="0" Value="C#4" Duration="14" Instrument="BM Lead Quick Loud"
				Note Time="14" Value="A3" Duration="7" Instrument="BM Lead Quick Loud"
				Note Time="21" Value="D4" Duration="14" Instrument="BM Lead Quick Loud"
				Note Time="35" Value="A3" Duration="7" Instrument="BM Lead Quick Loud"
				Note Time="42" Value="E4" Duration="14" Instrument="BM Lead Quick Loud"
				Note Time="56" Value="A3" Duration="7" Instrument="BM Lead Quick Loud"
				Note Time="63" Value="F#4" Duration="7" Instrument="BM Lead Quick Loud"
				Note Time="70" Value="E4" Duration="7" Instrument="BM Lead Quick Loud"
				Note Time="77" Value="F#4" Duration="7" Instrument="BM Lead Quick Loud"
				Note Time="84" Value="G4" Duration="7" Instrument="BM Lead Quick Loud"
				Note Time="91" Value="F#4" Duration="7" Instrument="BM Lead Quick Loud"
				Note Time="98" Value="E4" Duration="7" Instrument="BM Lead Quick Loud"
				Note Time="105" Value="G4" Duration="7" Instrument="BM Lead Quick Loud"
			Pattern Name="Pattern 17"
				Note Time="0" Value="F#4" Duration="21" Instrument="BM Lead"
				Note Time="21" Value="G4" Duration="21" Instrument="BM Lead"
				Note Time="42" Value="F#4" Duration="21" Instrument="BM Lead"
				Note Time="63" Value="C#4" Duration="7" Instrument="BM Lead Quick Loud"
				Note Time="70" Value="D4" Duration="7" Instrument="BM Lead Quick Loud"
				Note Time="77" Value="E4" Duration="7" Instrument="BM Lead Quick Loud"
				Note Time="84" Value="F#4" Duration="7" Instrument="BM Lead Quick Loud"
				Note Time="91" Value="E4" Duration="7" Instrument="BM Lead Quick Loud"
				Note Time="98" Value="D4" Duration="7" Instrument="BM Lead Quick Loud"
				Note Time="105" Value="C#4" Duration="7" Instrument="BM Lead Quick Loud"
			Pattern Name="Pattern 19"
				Note Time="0" Value="E4" Duration="14" Instrument="BM Lead Quick Loud"
				Note Time="14" Value="A3" Duration="7" Instrument="BM Lead Quick Loud"
				Note Time="21" Value="F#4" Duration="14" Instrument="BM Lead Quick Loud"
				Note Time="35" Value="A3" Duration="7" Instrument="BM Lead Quick Loud"
				Note Time="42" Value="G4" Duration="14" Instrument="BM Lead Quick Loud"
				Note Time="56" Value="A3" Duration="7" Instrument="BM Lead Quick Loud"
				Note Time="63" Value="A4" Duration="7" Instrument="BM Lead Quick Loud"
				Note Time="70" Value="G4" Duration="7" Instrument="BM Lead Quick Loud"
				Note Time="77" Value="A4" Duration="7" Instrument="BM Lead Quick Loud"
				Note Time="84" Value="F#4" Duration="7" Instrument="BM Lead Quick Loud"
				Note Time="91" Value="G4" Duration="7" Instrument="BM Lead Quick Loud"
				Note Time="98" Value="E4" Duration="7" Instrument="BM Lead Quick Loud"
				Note Time="105" Value="F#4" Duration="7" Instrument="BM Lead Quick Loud"
			Pattern Name="Pattern 20"
				Note Time="0" Value="D4" Duration="21" Instrument="BM Lead"
				Note Time="21" Value="E4" Duration="21" Instrument="BM Lead"
				Note Time="42" Value="F#4" Duration="14" Instrument="BM Lead"
				Note Time="56" Value="E4" Duration="21" Instrument="BM Lead"
				Note Time="77" Value="D4" Duration="21" Instrument="BM Lead"
				Note Time="98" Value="C#4" Duration="14" Instrument="BM Lead"
			Pattern Name="Pattern 21"
				Note Time="0" Value="B3" Duration="210" Instrument="BM Lead SteadyVol"
			Pattern Name="Pattern 22"
				Note Time="98" Value="B3" Duration="14" Instrument="BM Lead Fade"
			PatternInstance Time="0" Pattern="Pattern 14"
			PatternInstance Time="2" Pattern="Stop"
			PatternInstance Time="4" Pattern="Pattern 1"
			PatternInstance Time="5" Pattern="Pattern 2"
			PatternInstance Time="6" Pattern="Pattern 3"
			PatternInstance Time="7" Pattern="Pattern 4"
			PatternInstance Time="8" Pattern="Pattern 5"
			PatternInstance Time="9" Pattern="Pattern 6"
			PatternInstance Time="10" Pattern="Pattern 7"
			PatternInstance Time="11" Pattern="Pattern 8"
			PatternInstance Time="12" Pattern="Pattern 1"
			PatternInstance Time="13" Pattern="Pattern 2"
			PatternInstance Time="14" Pattern="Pattern 3"
			PatternInstance Time="15" Pattern="Pattern 4"
			PatternInstance Time="16" Pattern="Pattern 5"
			PatternInstance Time="17" Pattern="Pattern 6"
			PatternInstance Time="18" Pattern="Pattern 7"
			PatternInstance Time="19" Pattern="Pattern 9"
			PatternInstance Time="20" Pattern="Pattern 10"
			PatternInstance Time="21" Pattern="Pattern 11"
			PatternInstance Time="22" Pattern="Pattern 12"
			PatternInstance Time="23" Pattern="Pattern 13"
			PatternInstance Time="24" Pattern="Pattern 18"
			PatternInstance Time="25" Pattern="Pattern 15"
			PatternInstance Time="26" Pattern="Pattern 16"
			PatternInstance Time="27" Pattern="Pattern 17"
			PatternInstance Time="28" Pattern="Pattern 18"
			PatternInstance Time="29" Pattern="Pattern 15"
			PatternInstance Time="30" Pattern="Pattern 19"
			PatternInstance Time="31" Pattern="Pattern 20"
			PatternInstance Time="32" Pattern="Pattern 21"
			PatternInstance Time="33" Pattern="Pattern 22"
		Channel Type="Square2"
			Pattern Name="Stop"
				Note Time="0" Value="Stop"
			Pattern Name="Pattern 1"
				Note Time="16" Value="B2" Duration="7" Instrument="BM Echo"
				Note Time="23" Value="F#3" Duration="7" Instrument="BM Echo"
				Note Time="30" Value="D3" Duration="7" Instrument="BM Echo"
				Note Time="37" Value="G3" Duration="7" Instrument="BM Echo"
				Note Time="44" Value="F#3" Duration="7" Instrument="BM Echo"
				Note Time="51" Value="D3" Duration="7" Instrument="BM Echo"
				Note Time="58" Value="B2" Duration="126" Instrument="BM Echo"
			Pattern Name="Pattern 2"
				Note Time="72" Value="A#2" Duration="21" Instrument="BM Echo"
				Note Time="93" Value="B2" Duration="14" Instrument="BM Echo"
				Note Time="107" Value="C#3" Duration="14" Instrument="BM Echo"
			Pattern Name="Pattern 3"
				Note Time="9" Value="D3" Duration="14" Instrument="BM Echo"
				Note Time="23" Value="E3" Duration="7" Instrument="BM Echo"
				Note Time="30" Value="F#3" Duration="154" Instrument="BM Echo"
			Pattern Name="Pattern 4"
				Note Time="72" Value="A3" Duration="21" Instrument="BM Echo"
				Note Time="93" Value="G3" Duration="14" Instrument="BM Echo"
				Note Time="107" Value="F#3" Duration="14" Instrument="BM Echo"
			Pattern Name="Pattern 5"
				Note Time="9" Value="E3" Duration="21" Instrument="BM Echo"
				Note Time="30" Value="C3" Duration="21" Instrument="BM Echo"
				Note Time="51" Value="G2" Duration="133" Instrument="BM Echo"
			Pattern Name="Pattern 6"
				Note Time="72" Value="C3" Duration="7" Instrument="BM Echo"
				Note Time="79" Value="D3" Duration="7" Instrument="BM Echo"
				Note Time="86" Value="E3" Duration="7" Instrument="BM Echo"
				Note Time="93" Value="F#3" Duration="7" Instrument="BM Echo"
				Note Time="100" Value="G3" Duration="7" Instrument="BM Echo"
				Note Time="107" Value="A3" Duration="7" Instrument="BM Echo"
			Pattern Name="Pattern 7"
				Note Time="2" Value="G3" Duration="7" Instrument="BM Echo"
				Note Time="9" Value="F#3" Duration="112" Instrument="BM Echo"
			Pattern Name="Pattern 8"
				Note Time="14" Value="E3" Duration="14" Instrument="BM Lead Rise"
				Note Time="28" Value="E3" Duration="14" Instrument="BM Lead Fade"
				Note Time="42" Value="E3" Duration="16" Instrument="BM Lead SteadyVol"
				Note Time="58" Value="E3" Duration="14" Instrument="BM Lead Fade"
				Note Time="72" Value="G3" Duration="7" Instrument="BM Echo"
				Note Time="79" Value="F#3" Duration="7" Instrument="BM Echo"
				Note Time="86" Value="E3" Duration="7" Instrument="BM Echo"
				Note Time="93" Value="F#3" Duration="7" Instrument="BM Echo"
				Note Time="100" Value="E3" Duration="7" Instrument="BM Echo"
				Note Time="107" Value="D3" Duration="7" Instrument="BM Echo"
			Pattern Name="Pattern 9"
				Note Time="2" Value="C#3" Duration="7" Instrument="BM Echo"
				Note Time="16" Value="B2" Duration="7" Instrument="BM Echo"
				Note Time="23" Value="F#3" Duration="7" Instrument="BM Echo"
				Note Time="30" Value="D3" Duration="7" Instrument="BM Echo"
				Note Time="37" Value="G3" Duration="7" Instrument="BM Echo"
				Note Time="44" Value="F#3" Duration="7" Instrument="BM Echo"
				Note Time="51" Value="D3" Duration="7" Instrument="BM Echo"
				Note Time="58" Value="B2" Duration="126" Instrument="BM Echo"
			Pattern Name="Pattern 10"
				Note Time="14" Value="E3" Duration="14" Instrument="BM Lead Rise"
				Note Time="28" Value="E3" Duration="14" Instrument="BM Lead Fade"
				Note Time="42" Value="E3" Duration="16" Instrument="BM Lead SteadyVol"
				Note Time="58" Value="E3" Duration="14" Instrument="BM Lead Fade"
				Note Time="72" Value="F#3" Duration="7" Instrument="BM Echo"
				Note Time="79" Value="E3" Duration="7" Instrument="BM Echo"
				Note Time="86" Value="F#3" Duration="7" Instrument="BM Echo"
				Note Time="93" Value="D3" Duration="7" Instrument="BM Echo"
				Note Time="100" Value="E3" Duration="7" Instrument="BM Echo"
				Note Time="107" Value="C#3" Duration="7" Instrument="BM Echo"
			Pattern Name="Pattern 11"
				Note Time="2" Value="D3" Duration="7" Instrument="BM Echo"
				Note Time="9" Value="B2" Duration="21" Instrument="BM Echo"
				Note Time="30" Value="F#3" Duration="21" Instrument="BM Echo"
				Note Time="51" Value="B3" Duration="14" Instrument="BM Echo"
				Note Time="65" Value="C#4" Duration="14" Instrument="BM Echo"
				Note Time="79" Value="D4" Duration="7" Instrument="BM Echo"
				Note Time="86" Value="B3" Duration="21" Instrument="BM Echo"
				Note Time="107" Value="D4" Duration="14" Instrument="BM Echo"
			Pattern Name="Pattern 12"
				Note Time="9" Value="C#4" Duration="21" Instrument="BM Echo"
				Note Time="30" Value="D4" Duration="21" Instrument="BM Echo"
				Note Time="51" Value="E4" Duration="14" Instrument="BM Echo"
				Note Time="65" Value="A3" Duration="21" Instrument="BM Echo"
				Note Time="86" Value="B3" Duration="21" Instrument="BM Echo"
				Note Time="107" Value="C#4" Duration="14" Instrument="BM Echo"
			Pattern Name="Pattern 13"
				Note Time="9" Value="D4" Duration="7" Instrument="BM Echo"
				Note Time="16" Value="B3" Duration="7" Instrument="BM Echo"
				Note Time="23" Value="G3" Duration="7" Instrument="BM Echo"
				Note Time="30" Value="B3" Duration="7" Instrument="BM Echo"
				Note Time="37" Value="G3" Duration="7" Instrument="BM Echo"
				Note Time="44" Value="D3" Duration="7" Instrument="BM Echo"
				Note Time="51" Value="G3" Duration="7" Instrument="BM Echo"
				Note Time="58" Value="D3" Duration="7" Instrument="BM Echo"
				Note Time="65" Value="B2" Duration="7" Instrument="BM Echo"
				Note Time="72" Value="D3" Duration="7" Instrument="BM Echo"
				Note Time="79" Value="B2" Duration="7" Instrument="BM Echo"
				Note Time="86" Value="G2" Duration="7" Instrument="BM Echo"
				Note Time="93" Value="G3" Duration="7" Instrument="BM Echo"
				Note Time="100" Value="G2" Duration="7" Instrument="BM Echo"
				Note Time="107" Value="A2" Duration="7" Instrument="BM Echo"
			Pattern Name="Pattern 14"
				Note Time="2" Value="G2" Duration="7" Instrument="BM Echo"
				Note Time="9" Value="F#2" Duration="7" Instrument="BM Echo"
				Note Time="16" Value="C#3" Duration="7" Instrument="BM Echo"
				Note Time="23" Value="F#3" Duration="7" Instrument="BM Echo"
				Note Time="30" Value="C#4" Duration="7" Instrument="BM Echo"
				Note Time="37" Value="F#4" Duration="7" Instrument="BM Echo"
				Note Time="44" Value="E4" Duration="7" Instrument="BM Echo"
				Note Time="51" Value="D4" Duration="7" Instrument="BM Echo"
				Note Time="58" Value="E4" Duration="7" Instrument="BM Echo"
				Note Time="65" Value="D4" Duration="7" Instrument="BM Echo"
				Note Time="72" Value="C#4" Duration="7" Instrument="BM Echo"
				Note Time="79" Value="B3" Duration="7" Instrument="BM Echo"
				Note Time="86" Value="C#4" Duration="7" Instrument="BM Echo"
				Note Time="93" Value="B3" Duration="7" Instrument="BM Echo"
				Note Time="100" Value="A#3" Duration="7" Instrument="BM Echo"
				Note Time="107" Value="G#3" Duration="7" Instrument="BM Echo"
			Pattern Name="Pattern 15"
				Note Time="2" Value="A#3" Duration="7" Instrument="BM Echo"
				Note Time="9" Value="B3" Duration="14" Instrument="BM Echo"
				Note Time="23" Value="F#3" Duration="7" Instrument="BM Echo"
				Note Time="30" Value="C#4" Duration="14" Instrument="BM Echo"
				Note Time="44" Value="F#3" Duration="7" Instrument="BM Echo"
				Note Time="51" Value="D4" Duration="14" Instrument="BM Echo"
				Note Time="65" Value="F#3" Duration="7" Instrument="BM Echo"
				Note Time="72" Value="E4" Duration="7" Instrument="BM Echo"
				Note Time="79" Value="D4" Duration="7" Instrument="BM Echo"
				Note Time="86" Value="E4" Duration="7" Instrument="BM Echo"
				Note Time="93" Value="F#4" Duration="28" Instrument="BM Echo"
			Pattern Name="Pattern 16"
				Note Time="9" Value="B3" Duration="14" Instrument="BM Echo"
				Note Time="23" Value="G3" Duration="7" Instrument="BM Echo"
				Note Time="30" Value="C#4" Duration="14" Instrument="BM Echo"
				Note Time="44" Value="G3" Duration="7" Instrument="BM Echo"
				Note Time="51" Value="D4" Duration="14" Instrument="BM Echo"
				Note Time="65" Value="G3" Duration="7" Instrument="BM Echo"
				Note Time="72" Value="E4" Duration="7" Instrument="BM Echo"
				Note Time="79" Value="D4" Duration="7" Instrument="BM Echo"
				Note Time="86" Value="E4" Duration="7" Instrument="BM Echo"
				Note Time="93" Value="F#4" Duration="28" Instrument="BM Echo"
			Pattern Name="Pattern 17"
				Note Time="9" Value="C#4" Duration="14" Instrument="BM Echo"
				Note Time="23" Value="A3" Duration="7" Instrument="BM Echo"
				Note Time="30" Value="D4" Duration="14" Instrument="BM Echo"
				Note Time="44" Value="A3" Duration="7" Instrument="BM Echo"
				Note Time="51" Value="E4" Duration="14" Instrument="BM Echo"
				Note Time="65" Value="A3" Duration="7" Instrument="BM Echo"
				Note Time="72" Value="F#4" Duration="7" Instrument="BM Echo"
				Note Time="79" Value="E4" Duration="7" Instrument="BM Echo"
				Note Time="86" Value="F#4" Duration="7" Instrument="BM Echo"
				Note Time="93" Value="G4" Duration="7" Instrument="BM Echo"
				Note Time="100" Value="F#4" Duration="7" Instrument="BM Echo"
				Note Time="107" Value="E4" Duration="5" Instrument="BM Echo"
			Pattern Name="Pattern 18"
				Note Time="0" Value="C#4" Duration="21" Instrument="BM Echo"
				Note Time="21" Value="D4" Duration="21" Instrument="BM Echo"
				Note Time="42" Value="C#4" Duration="37" Instrument="BM Echo"
				Note Time="79" Value="D4" Duration="7" Instrument="BM Echo"
				Note Time="86" Value="E4" Duration="7" Instrument="BM Echo"
				Note Time="93" Value="F#4" Duration="7" Instrument="BM Echo"
				Note Time="100" Value="E4" Duration="7" Instrument="BM Echo"
				Note Time="107" Value="D4" Duration="7" Instrument="BM Echo"
			Pattern Name="Pattern 19"
				Note Time="2" Value="C#4" Duration="7" Instrument="BM Echo"
				Note Time="9" Value="B3" Duration="14" Instrument="BM Echo"
				Note Time="23" Value="F#3" Duration="7" Instrument="BM Echo"
				Note Time="30" Value="C#4" Duration="14" Instrument="BM Echo"
				Note Time="44" Value="F#3" Duration="7" Instrument="BM Echo"
				Note Time="51" Value="D4" Duration="14" Instrument="BM Echo"
				Note Time="65" Value="F#3" Duration="7" Instrument="BM Echo"
				Note Time="72" Value="E4" Duration="7" Instrument="BM Echo"
				Note Time="79" Value="D4" Duration="7" Instrument="BM Echo"
				Note Time="86" Value="E4" Duration="7" Instrument="BM Echo"
				Note Time="93" Value="F#4" Duration="28" Instrument="BM Echo"
			Pattern Name="Pattern 20"
				Note Time="9" Value="B3" Duration="14" Instrument="BM Echo"
				Note Time="23" Value="G3" Duration="7" Instrument="BM Echo"
				Note Time="30" Value="C#4" Duration="14" Instrument="BM Echo"
				Note Time="44" Value="G3" Duration="7" Instrument="BM Echo"
				Note Time="51" Value="D4" Duration="14" Instrument="BM Echo"
				Note Time="65" Value="G3" Duration="7" Instrument="BM Echo"
				Note Time="72" Value="E4" Duration="7" Instrument="BM Echo"
				Note Time="79" Value="D4" Duration="7" Instrument="BM Echo"
				Note Time="86" Value="E4" Duration="7" Instrument="BM Echo"
				Note Time="93" Value="F#4" Duration="28" Instrument="BM Echo"
			Pattern Name="Pattern 21"
				Note Time="9" Value="E4" Duration="14" Instrument="BM Echo"
				Note Time="23" Value="A3" Duration="7" Instrument="BM Echo"
				Note Time="30" Value="F#4" Duration="14" Instrument="BM Echo"
				Note Time="44" Value="A3" Duration="7" Instrument="BM Echo"
				Note Time="51" Value="G4" Duration="14" Instrument="BM Echo"
				Note Time="65" Value="A3" Duration="7" Instrument="BM Echo"
				Note Time="72" Value="A4" Duration="7" Instrument="BM Echo"
				Note Time="79" Value="G4" Duration="7" Instrument="BM Echo"
				Note Time="86" Value="A4" Duration="7" Instrument="BM Echo"
				Note Time="93" Value="F#4" Duration="7" Instrument="BM Echo"
				Note Time="100" Value="G4" Duration="7" Instrument="BM Echo"
				Note Time="107" Value="E4" Duration="5" Instrument="BM Echo"
			Pattern Name="Pattern 22"
				Note Time="0" Value="A3" Duration="56" Instrument="BM Echo"
				Note Time="56" Value="A#3" Duration="56" Instrument="BM Echo"
			Pattern Name="Pattern 23"
				Note Time="0" Value="B3" Duration="224" Instrument="BM Echo"
			PatternInstance Time="2" Pattern="Stop"
			PatternInstance Time="4" Pattern="Pattern 1"
			PatternInstance Time="5" Pattern="Pattern 2"
			PatternInstance Time="6" Pattern="Pattern 3"
			PatternInstance Time="7" Pattern="Pattern 4"
			PatternInstance Time="8" Pattern="Pattern 5"
			PatternInstance Time="9" Pattern="Pattern 6"
			PatternInstance Time="10" Pattern="Pattern 7"
			PatternInstance Time="11" Pattern="Pattern 8"
			PatternInstance Time="12" Pattern="Pattern 9"
			PatternInstance Time="13" Pattern="Pattern 2"
			PatternInstance Time="14" Pattern="Pattern 3"
			PatternInstance Time="15" Pattern="Pattern 4"
			PatternInstance Time="16" Pattern="Pattern 5"
			PatternInstance Time="17" Pattern="Pattern 6"
			PatternInstance Time="18" Pattern="Pattern 7"
			PatternInstance Time="19" Pattern="Pattern 10"
			PatternInstance Time="20" Pattern="Pattern 11"
			PatternInstance Time="21" Pattern="Pattern 12"
			PatternInstance Time="22" Pattern="Pattern 13"
			PatternInstance Time="23" Pattern="Pattern 14"
			PatternInstance Time="24" Pattern="Pattern 15"
			PatternInstance Time="25" Pattern="Pattern 16"
			PatternInstance Time="26" Pattern="Pattern 17"
			PatternInstance Time="27" Pattern="Pattern 18"
			PatternInstance Time="28" Pattern="Pattern 19"
			PatternInstance Time="29" Pattern="Pattern 20"
			PatternInstance Time="30" Pattern="Pattern 21"
			PatternInstance Time="31" Pattern="Pattern 22"
			PatternInstance Time="32" Pattern="Pattern 23"
		Channel Type="Triangle"
			Pattern Name="Pattern 1"
				Note Time="0" Value="B2" Duration="4" Instrument="BM TriPitch1"
				Note Time="7" Value="B2" Duration="4" Instrument="BM TriPitch1"
				Note Time="14" Value="D3" Duration="4" Instrument="BM TriPitch1"
				Note Time="21" Value="B2" Duration="4" Instrument="BM TriPitch1"
				Note Time="28" Value="E3" Duration="4" Instrument="BM TriPitch1"
				Note Time="35" Value="A2" Duration="4" Instrument="BM TriPitch1"
				Note Time="42" Value="D3" Duration="4" Instrument="BM TriPitch1"
				Note Time="49" Value="B2" Duration="4" Instrument="BM TriPitch1"
				Note Time="56" Value="B2" Duration="4" Instrument="BM TriPitch1"
				Note Time="63" Value="B2" Duration="4" Instrument="BM TriPitch1"
				Note Time="70" Value="D3" Duration="4" Instrument="BM TriPitch1"
				Note Time="77" Value="B2" Duration="4" Instrument="BM TriPitch1"
				Note Time="84" Value="E3" Duration="4" Instrument="BM TriPitch1"
				Note Time="91" Value="A2" Duration="4" Instrument="BM TriPitch1"
				Note Time="98" Value="D3" Duration="4" Instrument="BM TriPitch1"
				Note Time="105" Value="B2" Duration="4" Instrument="BM TriPitch1"
			Pattern Name="Pattern 2"
				Note Time="0" Value="B2" Duration="4" Instrument="BM TriPitch1"
				Note Time="7" Value="B2" Duration="4" Instrument="BM TriPitch1"
				Note Time="14" Value="D3" Duration="4" Instrument="BM TriPitch1"
				Note Time="21" Value="B2" Duration="4" Instrument="BM TriPitch1"
				Note Time="28" Value="E3" Duration="4" Instrument="BM TriPitch1"
				Note Time="35" Value="A2" Duration="4" Instrument="BM TriPitch1"
				Note Time="42" Value="D3" Duration="4" Instrument="BM TriPitch1"
				Note Time="49" Value="B2" Duration="4" Instrument="BM TriPitch1"
				Note Time="56" Value="B2" Duration="4" Instrument="BM TriPitch1"
				Note Time="63" Value="B2" Duration="4" Instrument="BM TriPitch1"
				Note Time="70" Value="D3" Duration="4" Instrument="BM TriPitch1"
				Note Time="77" Value="B2" Duration="4" Instrument="BM TriPitch1"
				Note Time="84" Value="E3" Duration="4" Instrument="BM TriPitch1"
				Note Time="91" Value="A2" Duration="4" Instrument="BM TriPitch1"
				Note Time="98" Value="D3" Duration="4" Instrument="BM TriPitch1"
				Note Time="105" Value="B2" Duration="4" Instrument="BM TriPitch1"
			Pattern Name="Pattern 3"
				Note Time="0" Value="C3" Duration="4" Instrument="BM Tri"
				Note Time="7" Value="C3" Duration="4" Instrument="BM Tri"
				Note Time="14" Value="E3" Duration="4" Instrument="BM TriPitch1"
				Note Time="21" Value="C3" Duration="4" Instrument="BM Tri"
				Note Time="28" Value="G3" Duration="4" Instrument="BM TriPitch1"
				Note Time="35" Value="C3" Duration="4" Instrument="BM Tri"
				Note Time="42" Value="D3" Duration="4" Instrument="BM TriPitch1"
				Note Time="49" Value="C3" Duration="4" Instrument="BM Tri"
				Note Time="56" Value="C3" Duration="4" Instrument="BM Tri"
				Note Time="63" Value="C3" Duration="4" Instrument="BM Tri"
				Note Time="70" Value="E3" Duration="4" Instrument="BM TriPitch1"
				Note Time="77" Value="C3" Duration="4" Instrument="BM Tri"
				Note Time="84" Value="G3" Duration="4" Instrument="BM TriPitch1"
				Note Time="91" Value="C3" Duration="4" Instrument="BM Tri"
				Note Time="98" Value="D3" Duration="4" Instrument="BM TriPitch1"
				Note Time="105" Value="C3" Duration="4" Instrument="BM Tri"
			Pattern Name="Pattern 4"
				Note Time="0" Value="C3" Duration="4" Instrument="BM Tri"
				Note Time="7" Value="C3" Duration="4" Instrument="BM Tri"
				Note Time="14" Value="E3" Duration="4" Instrument="BM TriPitch1"
				Note Time="21" Value="C3" Duration="4" Instrument="BM Tri"
				Note Time="28" Value="G3" Duration="4" Instrument="BM TriPitch1"
				Note Time="35" Value="C3" Duration="4" Instrument="BM Tri"
				Note Time="42" Value="D3" Duration="4" Instrument="BM TriPitch1"
				Note Time="49" Value="C3" Duration="4" Instrument="BM Tri"
				Note Time="56" Value="C3" Duration="4" Instrument="BM Tri"
				Note Time="63" Value="C3" Duration="4" Instrument="BM Tri"
				Note Time="70" Value="E3" Duration="4" Instrument="BM TriPitch1"
				Note Time="77" Value="C3" Duration="4" Instrument="BM Tri"
				Note Time="84" Value="G3" Duration="4" Instrument="BM TriPitch1"
				Note Time="91" Value="C3" Duration="4" Instrument="BM Tri"
				Note Time="98" Value="D3" Duration="4" Instrument="BM TriPitch1"
				Note Time="105" Value="C3" Duration="4" Instrument="BM Tri"
			Pattern Name="Pattern 5"
				Note Time="0" Value="F#2" Duration="4" Instrument="BM Tri"
				Note Time="7" Value="F#2" Duration="4" Instrument="BM Tri"
				Note Time="14" Value="C#3" Duration="4" Instrument="BM Tri"
				Note Time="21" Value="F#2" Duration="4" Instrument="BM Tri"
				Note Time="28" Value="E3" Duration="4" Instrument="BM TriPitch1"
				Note Time="35" Value="F#2" Duration="4" Instrument="BM Tri"
				Note Time="42" Value="F#3" Duration="4" Instrument="BM TriPitch1"
				Note Time="49" Value="F#2" Duration="4" Instrument="BM Tri"
				Note Time="56" Value="F#2" Duration="4" Instrument="BM Tri"
				Note Time="63" Value="F#2" Duration="4" Instrument="BM Tri"
				Note Time="70" Value="C#3" Duration="4" Instrument="BM Tri"
				Note Time="77" Value="F#2" Duration="4" Instrument="BM Tri"
				Note Time="84" Value="E3" Duration="4" Instrument="BM TriPitch1"
				Note Time="91" Value="F#2" Duration="4" Instrument="BM Tri"
				Note Time="98" Value="F#3" Duration="4" Instrument="BM TriPitch1"
				Note Time="105" Value="F#2" Duration="4" Instrument="BM Tri"
			Pattern Name="Pattern 6"
				Note Time="0" Value="F#2" Duration="4" Instrument="BM Tri"
				Note Time="7" Value="F#2" Duration="4" Instrument="BM Tri"
				Note Time="14" Value="C#3" Duration="4" Instrument="BM Tri"
				Note Time="21" Value="F#2" Duration="4" Instrument="BM Tri"
				Note Time="28" Value="E3" Duration="4" Instrument="BM TriPitch1"
				Note Time="35" Value="F#2" Duration="4" Instrument="BM Tri"
				Note Time="42" Value="F#3" Duration="4" Instrument="BM TriPitch1"
				Note Time="49" Value="F#2" Duration="4" Instrument="BM Tri"
				Note Time="56" Value="F#2" Duration="4" Instrument="BM Tri"
				Note Time="63" Value="G3" Duration="4" Instrument="BM TriPitch1"
				Note Time="70" Value="F#3" Duration="4" Instrument="BM TriPitch1"
				Note Time="77" Value="E3" Duration="4" Instrument="BM TriPitch1"
				Note Time="84" Value="F#3" Duration="4" Instrument="BM TriPitch1"
				Note Time="91" Value="E3" Duration="4" Instrument="BM TriPitch1"
				Note Time="98" Value="D3" Duration="4" Instrument="BM TriPitch1"
				Note Time="105" Value="C#3" Duration="4" Instrument="BM Tri"
			Pattern Name="Pattern 7"
				Note Time="0" Value="F#2" Duration="4" Instrument="BM Tri"
				Note Time="7" Value="F#2" Duration="4" Instrument="BM Tri"
				Note Time="14" Value="C#3" Duration="4" Instrument="BM Tri"
				Note Time="21" Value="F#2" Duration="4" Instrument="BM Tri"
				Note Time="28" Value="E3" Duration="4" Instrument="BM TriPitch1"
				Note Time="35" Value="F#2" Duration="4" Instrument="BM Tri"
				Note Time="42" Value="F#3" Duration="4" Instrument="BM TriPitch1"
				Note Time="49" Value="F#2" Duration="4" Instrument="BM Tri"
				Note Time="56" Value="F#2" Duration="4" Instrument="BM Tri"
				Note Time="63" Value="F#3" Duration="4" Instrument="BM TriPitch1"
				Note Time="70" Value="E3" Duration="4" Instrument="BM TriPitch1"
				Note Time="77" Value="F#3" Duration="4" Instrument="BM TriPitch1"
				Note Time="84" Value="D3" Duration="4" Instrument="BM TriPitch1"
				Note Time="91" Value="E3" Duration="4" Instrument="BM TriPitch1"
				Note Time="98" Value="C#3" Duration="4" Instrument="BM Tri"
				Note Time="105" Value="D3" Duration="4" Instrument="BM TriPitch1"
			Pattern Name="Pattern 8"
				Note Time="0" Value="B2" Duration="4" Instrument="BM TriPitch1"
				Note Time="7" Value="B2" Duration="4" Instrument="BM TriPitch1"
				Note Time="14" Value="F#3" Duration="4" Instrument="BM TriPitch1"
				Note Time="21" Value="B2" Duration="4" Instrument="BM TriPitch1"
				Note Time="28" Value="G3" Duration="4" Instrument="BM TriPitch1"
				Note Time="35" Value="F#3" Duration="4" Instrument="BM TriPitch1"
				Note Time="42" Value="D3" Duration="4" Instrument="BM TriPitch1"
				Note Time="49" Value="F#2" Duration="4" Instrument="BM Tri"
				Note Time="56" Value="B2" Duration="4" Instrument="BM TriPitch1"
				Note Time="63" Value="B2" Duration="4" Instrument="BM Tri"
				Note Time="70" Value="F#3" Duration="4" Instrument="BM Tri"
				Note Time="77" Value="B2" Duration="4" Instrument="BM Tri"
				Note Time="84" Value="G3" Duration="4" Instrument="BM Tri"
				Note Time="91" Value="F#3" Duration="4" Instrument="BM Tri"
				Note Time="98" Value="D3" Duration="4" Instrument="BM Tri"
				Note Time="105" Value="F#2" Duration="4" Instrument="BM Tri"
			Pattern Name="Pattern 9"
				Note Time="0" Value="A2" Duration="4" Instrument="BM TriPitch1"
				Note Time="7" Value="A2" Duration="4" Instrument="BM TriPitch1"
				Note Time="14" Value="E3" Duration="4" Instrument="BM TriPitch1"
				Note Time="21" Value="A2" Duration="4" Instrument="BM TriPitch1"
				Note Time="28" Value="F#3" Duration="4" Instrument="BM TriPitch1"
				Note Time="35" Value="E3" Duration="4" Instrument="BM TriPitch1"
				Note Time="42" Value="C#3" Duration="4" Instrument="BM Tri"
				Note Time="49" Value="E2" Duration="4" Instrument="BM Tri"
				Note Time="56" Value="A2" Duration="4" Instrument="BM TriPitch1"
				Note Time="63" Value="A2" Duration="4" Instrument="BM TriPitch1"
				Note Time="70" Value="E3" Duration="4" Instrument="BM TriPitch1"
				Note Time="77" Value="A2" Duration="4" Instrument="BM TriPitch1"
				Note Time="84" Value="F#3" Duration="4" Instrument="BM TriPitch1"
				Note Time="91" Value="E3" Duration="4" Instrument="BM TriPitch1"
				Note Time="98" Value="C#3" Duration="4" Instrument="BM Tri"
				Note Time="105" Value="E2" Duration="4" Instrument="BM Tri"
			Pattern Name="Pattern 10"
				Note Time="0" Value="G2" Duration="4" Instrument="BM Tri"
				Note Time="7" Value="G2" Duration="4" Instrument="BM Tri"
				Note Time="14" Value="D3" Duration="4" Instrument="BM TriPitch1"
				Note Time="21" Value="G2" Duration="4" Instrument="BM Tri"
				Note Time="28" Value="E3" Duration="4" Instrument="BM TriPitch1"
				Note Time="35" Value="D3" Duration="4" Instrument="BM Tri"
				Note Time="42" Value="B2" Duration="4" Instrument="BM Tri"
				Note Time="49" Value="D2" Duration="4" Instrument="BM Tri"
				Note Time="56" Value="G2" Duration="4" Instrument="BM Tri"
				Note Time="63" Value="G2" Duration="4" Instrument="BM Tri"
				Note Time="70" Value="D3" Duration="4" Instrument="BM TriPitch1"
				Note Time="77" Value="G2" Duration="4" Instrument="BM Tri"
				Note Time="84" Value="E3" Duration="4" Instrument="BM TriPitch1"
				Note Time="91" Value="D3" Duration="4" Instrument="BM Tri"
				Note Time="98" Value="B2" Duration="4" Instrument="BM Tri"
				Note Time="105" Value="D2" Duration="4" Instrument="BM Tri"
			Pattern Name="Pattern 11"
				Note Time="0" Value="F#2" Duration="4" Instrument="BM Tri"
				Note Time="7" Value="F#2" Duration="4" Instrument="BM Tri"
				Note Time="14" Value="C#3" Duration="4" Instrument="BM Tri"
				Note Time="21" Value="F#2" Duration="4" Instrument="BM Tri"
				Note Time="28" Value="E3" Duration="4" Instrument="BM TriPitch1"
				Note Time="35" Value="F#2" Duration="4" Instrument="BM Tri"
				Note Time="42" Value="F#3" Duration="4" Instrument="BM TriPitch1"
				Note Time="49" Value="F#2" Duration="4" Instrument="BM Tri"
				Note Time="56" Value="F#2" Duration="4" Instrument="BM Tri"
				Note Time="63" Value="F#3" Duration="4" Instrument="BM TriPitch1"
				Note Time="70" Value="F#2" Duration="4" Instrument="BM Tri"
				Note Time="77" Value="F#2" Duration="4" Instrument="BM Tri"
				Note Time="84" Value="F#3" Duration="4" Instrument="BM TriPitch1"
				Note Time="91" Value="F#2" Duration="4" Instrument="BM Tri"
				Note Time="98" Value="F#3" Duration="4" Instrument="BM TriPitch1"
				Note Time="105" Value="F#2" Duration="4" Instrument="BM Tri"
			Pattern Name="Pattern 12"
				Note Time="0" Value="B2" Duration="4" Instrument="BM TriPitch1"
				Note Time="7" Value="B2" Duration="4" Instrument="BM TriPitch1"
				Note Time="14" Value="D3" Duration="4" Instrument="BM TriPitch1"
				Note Time="21" Value="B2" Duration="4" Instrument="BM TriPitch1"
				Note Time="28" Value="E3" Duration="4" Instrument="BM TriPitch1"
				Note Time="35" Value="B2" Duration="4" Instrument="BM TriPitch1"
				Note Time="42" Value="F#3" Duration="4" Instrument="BM TriPitch1"
				Note Time="49" Value="B2" Duration="4" Instrument="BM TriPitch1"
				Note Time="56" Value="B2" Duration="4" Instrument="BM TriPitch1"
				Note Time="63" Value="B2" Duration="4" Instrument="BM TriPitch1"
				Note Time="70" Value="D3" Duration="4" Instrument="BM TriPitch1"
				Note Time="77" Value="B2" Duration="4" Instrument="BM TriPitch1"
				Note Time="84" Value="E3" Duration="4" Instrument="BM TriPitch1"
				Note Time="91" Value="B2" Duration="4" Instrument="BM TriPitch1"
				Note Time="98" Value="F#3" Duration="4" Instrument="BM TriPitch1"
				Note Time="105" Value="B2" Duration="4" Instrument="BM TriPitch1"
			Pattern Name="Pattern 13"
				Note Time="0" Value="G2" Duration="4" Instrument="BM Tri"
				Note Time="7" Value="G2" Duration="4" Instrument="BM Tri"
				Note Time="14" Value="B2" Duration="4" Instrument="BM TriPitch1"
				Note Time="21" Value="G2" Duration="4" Instrument="BM Tri"
				Note Time="28" Value="C#3" Duration="4" Instrument="BM Tri"
				Note Time="35" Value="G2" Duration="4" Instrument="BM Tri"
				Note Time="42" Value="D3" Duration="4" Instrument="BM TriPitch1"
				Note Time="49" Value="G2" Duration="4" Instrument="BM Tri"
				Note Time="56" Value="G2" Duration="4" Instrument="BM Tri"
				Note Time="63" Value="G2" Duration="4" Instrument="BM Tri"
				Note Time="70" Value="B2" Duration="4" Instrument="BM TriPitch1"
				Note Time="77" Value="G2" Duration="4" Instrument="BM Tri"
				Note Time="84" Value="C#3" Duration="4" Instrument="BM Tri"
				Note Time="91" Value="G2" Duration="4" Instrument="BM Tri"
				Note Time="98" Value="D3" Duration="4" Instrument="BM TriPitch1"
				Note Time="105" Value="G2" Duration="4" Instrument="BM Tri"
			Pattern Name="Pattern 14"
				Note Time="0" Value="A2" Duration="4" Instrument="BM TriPitch1"
				Note Time="7" Value="A2" Duration="4" Instrument="BM Tri"
				Note Time="14" Value="C#3" Duration="4" Instrument="BM Tri"
				Note Time="21" Value="A2" Duration="4" Instrument="BM TriPitch1"
				Note Time="28" Value="D3" Duration="4" Instrument="BM TriPitch1"
				Note Time="35" Value="A2" Duration="4" Instrument="BM TriPitch1"
				Note Time="42" Value="E3" Duration="4" Instrument="BM TriPitch1"
				Note Time="49" Value="A2" Duration="4" Instrument="BM TriPitch1"
				Note Time="56" Value="A2" Duration="4" Instrument="BM TriPitch1"
				Note Time="63" Value="A2" Duration="4" Instrument="BM TriPitch1"
				Note Time="70" Value="C#3" Duration="4" Instrument="BM Tri"
				Note Time="77" Value="A2" Duration="4" Instrument="BM TriPitch1"
				Note Time="84" Value="D3" Duration="4" Instrument="BM TriPitch1"
				Note Time="91" Value="A2" Duration="4" Instrument="BM TriPitch1"
				Note Time="98" Value="E3" Duration="4" Instrument="BM TriPitch1"
				Note Time="105" Value="A2" Duration="4" Instrument="BM TriPitch1"
			Pattern Name="Pattern 15"
				Note Time="0" Value="F#3" Duration="4" Instrument="BM Tri"
				Note Time="7" Value="C#3" Duration="4" Instrument="BM Tri"
				Note Time="14" Value="F#2" Duration="4" Instrument="BM Tri"
				Note Time="21" Value="F#3" Duration="4" Instrument="BM TriPitch1"
				Note Time="28" Value="C#3" Duration="4" Instrument="BM Tri"
				Note Time="35" Value="F#2" Duration="4" Instrument="BM Tri"
				Note Time="42" Value="F#3" Duration="4" Instrument="BM TriPitch1"
				Note Time="49" Value="F#2" Duration="4" Instrument="BM Tri"
				Note Time="56" Value="F#2" Duration="4" Instrument="BM Tri"
				Note Time="63" Value="C#3" Duration="4" Instrument="BM Tri"
				Note Time="70" Value="D3" Duration="4" Instrument="BM TriPitch1"
				Note Time="77" Value="E3" Duration="4" Instrument="BM Tri"
				Note Time="84" Value="F#3" Duration="4" Instrument="BM Tri"
				Note Time="91" Value="E3" Duration="4" Instrument="BM Tri"
				Note Time="98" Value="D3" Duration="4" Instrument="BM Tri"
				Note Time="105" Value="C#3" Duration="4" Instrument="BM Tri"
			Pattern Name="Pattern 16"
				Note Time="0" Value="D3" Duration="4" Instrument="BM TriPitch1"
				Note Time="7" Value="A2" Duration="4" Instrument="BM TriPitch1"
				Note Time="14" Value="D2" Duration="4" Instrument="BM TriPitch1"
				Note Time="21" Value="D3" Duration="4" Instrument="BM TriPitch1"
				Note Time="28" Value="A2" Duration="4" Instrument="BM TriPitch1"
				Note Time="35" Value="D2" Duration="4" Instrument="BM TriPitch1"
				Note Time="42" Value="D3" Duration="4" Instrument="BM TriPitch1"
				Note Time="49" Value="D2" Duration="4" Instrument="BM TriPitch1"
				Note Time="56" Value="F#3" Duration="4" Instrument="BM TriPitch1"
				Note Time="63" Value="C#3" Duration="4" Instrument="BM Tri"
				Note Time="70" Value="F#2" Duration="4" Instrument="BM Tri"
				Note Time="77" Value="F#3" Duration="4" Instrument="BM TriPitch1"
				Note Time="84" Value="C#3" Duration="4" Instrument="BM Tri"
				Note Time="91" Value="F#2" Duration="4" Instrument="BM Tri"
				Note Time="98" Value="F#3" Duration="4" Instrument="BM TriPitch1"
				Note Time="105" Value="F#2" Duration="4" Instrument="BM Tri"
			PatternInstance Time="0" Pattern="Pattern 1"
			PatternInstance Time="1" Pattern="Pattern 2"
			PatternInstance Time="2" Pattern="Pattern 2"
			PatternInstance Time="3" Pattern="Pattern 2"
			PatternInstance Time="4" Pattern="Pattern 2"
			PatternInstance Time="5" Pattern="Pattern 2"
			PatternInstance Time="6" Pattern="Pattern 2"
			PatternInstance Time="7" Pattern="Pattern 2"
			PatternInstance Time="8" Pattern="Pattern 3"
			PatternInstance Time="9" Pattern="Pattern 4"
			PatternInstance Time="10" Pattern="Pattern 5"
			PatternInstance Time="11" Pattern="Pattern 6"
			PatternInstance Time="12" Pattern="Pattern 1"
			PatternInstance Time="13" Pattern="Pattern 2"
			PatternInstance Time="14" Pattern="Pattern 2"
			PatternInstance Time="15" Pattern="Pattern 2"
			PatternInstance Time="16" Pattern="Pattern 3"
			PatternInstance Time="17" Pattern="Pattern 4"
			PatternInstance Time="18" Pattern="Pattern 5"
			PatternInstance Time="19" Pattern="Pattern 7"
			PatternInstance Time="20" Pattern="Pattern 8"
			PatternInstance Time="21" Pattern="Pattern 9"
			PatternInstance Time="22" Pattern="Pattern 10"
			PatternInstance Time="23" Pattern="Pattern 11"
			PatternInstance Time="24" Pattern="Pattern 12"
			PatternInstance Time="25" Pattern="Pattern 13"
			PatternInstance Time="26" Pattern="Pattern 14"
			PatternInstance Time="27" Pattern="Pattern 15"
			PatternInstance Time="28" Pattern="Pattern 12"
			PatternInstance Time="29" Pattern="Pattern 13"
			PatternInstance Time="30" Pattern="Pattern 14"
			PatternInstance Time="31" Pattern="Pattern 16"
			PatternInstance Time="32" Pattern="Pattern 1"
			PatternInstance Time="33" Pattern="Pattern 2"
		Channel Type="Noise"
			Pattern Name="Pattern 1"
				Note Time="0" Value="F#3" Duration="28" Instrument="BM Maracas"
				Note Time="28" Value="F#3" Duration="28" Instrument="BM Maracas"
				Note Time="56" Value="F#3" Duration="28" Instrument="BM Maracas"
				Note Time="84" Value="F#3" Duration="28" Instrument="BM Maracas"
			Pattern Name="Pattern 2"
				Note Time="0" Value="F#3" Duration="28" Instrument="BM Maracas"
				Note Time="28" Value="F#3" Duration="84" Instrument="BM Maracas"
			Pattern Name="Pattern 3"
				Note Time="0" Value="F#3" Duration="11" Instrument="BM Maracas"
				Note Time="14" Value="G#3" Duration="5" Instrument="BM Maracas"
				Note Time="28" Value="F#3" Duration="11" Instrument="BM Maracas"
				Note Time="42" Value="G#3" Duration="5" Instrument="BM Maracas"
				Note Time="56" Value="F#3" Duration="11" Instrument="BM Maracas"
				Note Time="70" Value="G#3" Duration="5" Instrument="BM Maracas"
				Note Time="84" Value="F#3" Duration="11" Instrument="BM Maracas"
				Note Time="98" Value="G#3" Duration="5" Instrument="BM Maracas"
			Pattern Name="Pattern 4"
				Note Time="0" Value="F#3" Duration="11" Instrument="BM Maracas"
				Note Time="14" Value="G#3" Duration="5" Instrument="BM Maracas"
				Note Time="28" Value="F#3" Duration="11" Instrument="BM Maracas"
				Note Time="42" Value="G#3" Duration="5" Instrument="BM Maracas"
				Note Time="56" Value="G#3" Duration="1" Instrument="BM Snare"
				Note Time="57" Value="G#3" Duration="21" Instrument="BM Snare"
				Note Time="78" Value="G#3" Duration="21" Instrument="BM Snare"
				Note Time="99" Value="G#3" Duration="13" Instrument="BM Snare"
			Pattern Name="Pattern 5"
				Note Time="0" Value="G#3" Duration="1" Instrument="BM Snare"
				Note Time="1" Value="G#3" Duration="21" Instrument="BM Snare"
				Note Time="22" Value="G#3" Duration="21" Instrument="BM Snare"
				Note Time="43" Value="G#3" Duration="13" Instrument="BM Snare"
			PatternInstance Time="0" Pattern="Pattern 1"
			PatternInstance Time="1" Pattern="Pattern 1"
			PatternInstance Time="2" Pattern="Pattern 1"
			PatternInstance Time="3" Pattern="Pattern 2"
			PatternInstance Time="4" Pattern="Pattern 1"
			PatternInstance Time="5" Pattern="Pattern 1"
			PatternInstance Time="6" Pattern="Pattern 1"
			PatternInstance Time="7" Pattern="Pattern 1"
			PatternInstance Time="8" Pattern="Pattern 1"
			PatternInstance Time="9" Pattern="Pattern 1"
			PatternInstance Time="10" Pattern="Pattern 1"
			PatternInstance Time="11" Pattern="Pattern 2"
			PatternInstance Time="12" Pattern="Pattern 1"
			PatternInstance Time="13" Pattern="Pattern 1"
			PatternInstance Time="14" Pattern="Pattern 1"
			PatternInstance Time="15" Pattern="Pattern 1"
			PatternInstance Time="16" Pattern="Pattern 1"
			PatternInstance Time="17" Pattern="Pattern 1"
			PatternInstance Time="18" Pattern="Pattern 1"
			PatternInstance Time="19" Pattern="Pattern 2"
			PatternInstance Time="20" Pattern="Pattern 3"
			PatternInstance Time="21" Pattern="Pattern 3"
			PatternInstance Time="22" Pattern="Pattern 3"
			PatternInstance Time="23" Pattern="Pattern 4"
			PatternInstance Time="24" Pattern="Pattern 3"
			PatternInstance Time="25" Pattern="Pattern 3"
			PatternInstance Time="26" Pattern="Pattern 3"
			PatternInstance Time="27" Pattern="Pattern 5"
			PatternInstance Time="28" Pattern="Pattern 3"
			PatternInstance Time="29" Pattern="Pattern 3"
			PatternInstance Time="30" Pattern="Pattern 3"
			PatternInstance Time="31" Pattern="Pattern 5"
			PatternInstance Time="32" Pattern="Pattern 1"
			PatternInstance Time="33" Pattern="Pattern 1"
		Channel Type="DPCM"
			Pattern Name="Pattern 1"
				Note Time="0" Value="C1" Duration="56"
				Note Time="56" Value="C1" Duration="56"
			Pattern Name="Pattern 2"
				Note Time="0" Value="C1" Duration="56"
				Note Time="56" Value="C1" Duration="7"
				Note Time="63" Value="C#1" Duration="7"
				Note Time="70" Value="C#1" Duration="7"
				Note Time="77" Value="C#1" Duration="7"
				Note Time="84" Value="C#1" Duration="7"
				Note Time="91" Value="C1" Duration="7"
				Note Time="98" Value="C#1" Duration="7"
				Note Time="105" Value="C1" Duration="7"
			Pattern Name="Pattern 3"
				Note Time="0" Value="C1" Duration="14"
				Note Time="14" Value="C#1" Duration="14"
				Note Time="28" Value="C1" Duration="7"
				Note Time="35" Value="C1" Duration="7"
				Note Time="42" Value="C#1" Duration="14"
				Note Time="56" Value="C1" Duration="7"
				Note Time="63" Value="C1" Duration="7"
				Note Time="70" Value="C#1" Duration="7"
				Note Time="77" Value="C1" Duration="14"
				Note Time="91" Value="C1" Duration="7"
				Note Time="98" Value="C#1" Duration="14"
			Pattern Name="Pattern 4"
				Note Time="0" Value="C1" Duration="14"
				Note Time="14" Value="C#1" Duration="7"
				Note Time="21" Value="C1" Duration="7"
				Note Time="28" Value="C1" Duration="7"
				Note Time="35" Value="C1" Duration="7"
				Note Time="42" Value="C#1" Duration="7"
				Note Time="49" Value="C1" Duration="7"
				Note Time="56" Value="C1" Duration="4"
				Note Time="60" Value="D1" Duration="5"
				Note Time="65" Value="D1" Duration="5"
				Note Time="70" Value="D1" Duration="7"
				Note Time="77" Value="D1" Duration="7"
				Note Time="84" Value="D#1" Duration="7"
				Note Time="91" Value="D#1" Duration="7"
				Note Time="98" Value="E1" Duration="7"
				Note Time="105" Value="E1" Duration="7"
			Pattern Name="Pattern 5"
				Note Time="0" Value="C1" Duration="7"
				Note Time="7" Value="C1" Duration="7"
				Note Time="14" Value="C#1" Duration="14"
				Note Time="28" Value="C1" Duration="7"
				Note Time="35" Value="C1" Duration="7"
				Note Time="42" Value="C#1" Duration="7"
				Note Time="49" Value="C1" Duration="14"
				Note Time="63" Value="C1" Duration="7"
				Note Time="70" Value="C#1" Duration="7"
				Note Time="77" Value="C1" Duration="7"
				Note Time="84" Value="C1" Duration="7"
				Note Time="91" Value="C1" Duration="7"
				Note Time="98" Value="C#1" Duration="14"
			Pattern Name="Pattern 6"
				Note Time="0" Value="C1" Duration="7"
				Note Time="7" Value="C1" Duration="7"
				Note Time="14" Value="C#1" Duration="14"
				Note Time="28" Value="C1" Duration="7"
				Note Time="35" Value="C1" Duration="7"
				Note Time="42" Value="C#1" Duration="7"
				Note Time="49" Value="C1" Duration="7"
				Note Time="56" Value="C#1" Duration="7"
				Note Time="63" Value="C1" Duration="7"
				Note Time="70" Value="C1" Duration="7"
				Note Time="77" Value="C#1" Duration="7"
				Note Time="84" Value="C1" Duration="7"
				Note Time="91" Value="C1" Duration="7"
				Note Time="98" Value="C#1" Duration="7"
				Note Time="105" Value="C1" Duration="7"
			Pattern Name="Pattern 7"
				Note Time="0" Value="C1" Duration="7"
				Note Time="7" Value="C1" Duration="7"
				Note Time="14" Value="C#1" Duration="14"
				Note Time="28" Value="C1" Duration="7"
				Note Time="35" Value="C1" Duration="7"
				Note Time="42" Value="C#1" Duration="7"
				Note Time="49" Value="C1" Duration="14"
				Note Time="63" Value="C1" Duration="7"
				Note Time="70" Value="C#1" Duration="7"
				Note Time="77" Value="C1" Duration="7"
				Note Time="84" Value="C1" Duration="7"
				Note Time="91" Value="C#1" Duration="7"
				Note Time="98" Value="C#1" Duration="7"
				Note Time="105" Value="C1" Duration="7"
			Pattern Name="Pattern 8"
				Note Time="0" Value="C#1" Duration="7"
				Note Time="7" Value="D#1" Duration="7"
				Note Time="14" Value="E1" Duration="7"
				Note Time="21" Value="C#1" Duration="7"
				Note Time="28" Value="D#1" Duration="7"
				Note Time="35" Value="E1" Duration="7"
				Note Time="42" Value="C#1" Duration="7"
				Note Time="49" Value="E1" Duration="7"
				Note Time="56" Value="C#1" Duration="4"
				Note Time="60" Value="C#1" Duration="5"
				Note Time="65" Value="C#1" Duration="5"
				Note Time="70" Value="D1" Duration="7"
				Note Time="77" Value="D1" Duration="7"
				Note Time="84" Value="D#1" Duration="7"
				Note Time="91" Value="D#1" Duration="7"
				Note Time="98" Value="E1" Duration="7"
				Note Time="105" Value="E1" Duration="7"
			Pattern Name="Pattern 9"
				Note Time="0" Value="C1" Duration="4"
				Note Time="4" Value="D1" Duration="5"
				Note Time="9" Value="D1" Duration="5"
				Note Time="14" Value="D1" Duration="7"
				Note Time="21" Value="D1" Duration="7"
				Note Time="28" Value="D#1" Duration="7"
				Note Time="35" Value="D#1" Duration="7"
				Note Time="42" Value="E1" Duration="7"
				Note Time="49" Value="E1" Duration="7"
				Note Time="56" Value="C1" Duration="7"
				Note Time="63" Value="D1" Duration="7"
				Note Time="70" Value="D1" Duration="7"
				Note Time="77" Value="D1" Duration="7"
				Note Time="84" Value="D1" Duration="7"
				Note Time="91" Value="D1" Duration="7"
				Note Time="98" Value="D#1" Duration="14"
			PatternInstance Time="0" Pattern="Pattern 1"
			PatternInstance Time="1" Pattern="Pattern 1"
			PatternInstance Time="2" Pattern="Pattern 1"
			PatternInstance Time="3" Pattern="Pattern 2"
			PatternInstance Time="4" Pattern="Pattern 3"
			PatternInstance Time="5" Pattern="Pattern 3"
			PatternInstance Time="6" Pattern="Pattern 3"
			PatternInstance Time="7" Pattern="Pattern 3"
			PatternInstance Time="8" Pattern="Pattern 3"
			PatternInstance Time="9" Pattern="Pattern 3"
			PatternInstance Time="10" Pattern="Pattern 3"
			PatternInstance Time="11" Pattern="Pattern 4"
			PatternInstance Time="12" Pattern="Pattern 3"
			PatternInstance Time="13" Pattern="Pattern 3"
			PatternInstance Time="14" Pattern="Pattern 3"
			PatternInstance Time="15" Pattern="Pattern 3"
			PatternInstance Time="16" Pattern="Pattern 3"
			PatternInstance Time="17" Pattern="Pattern 3"
			PatternInstance Time="18" Pattern="Pattern 3"
			PatternInstance Time="19" Pattern="Pattern 4"
			PatternInstance Time="20" Pattern="Pattern 5"
			PatternInstance Time="21" Pattern="Pattern 5"
			PatternInstance Time="22" Pattern="Pattern 5"
			PatternInstance Time="23" Pattern="Pattern 6"
			PatternInstance Time="24" Pattern="Pattern 7"
			PatternInstance Time="25" Pattern="Pattern 7"
			PatternInstance Time="26" Pattern="Pattern 7"
			PatternInstance Time="27" Pattern="Pattern 8"
			PatternInstance Time="28" Pattern="Pattern 7"
			PatternInstance Time="29" Pattern="Pattern 7"
			PatternInstance Time="30" Pattern="Pattern 7"
			PatternInstance Time="31" Pattern="Pattern 8"
			PatternInstance Time="32" Pattern="Pattern 1"
			PatternInstance Time="33" Pattern="Pattern 9"
