Project Version="3.1.1" TempoMode="FamiStudio" Name="bloody"
	DPCMSample Name="CV BassDrum" Data="aaaaaaaaaaaff09e9ff006ae7c1b98f00003000c01ce018000000000000f1ffffbf3cff3efdeb8f9a6a224398143808619023851878615398ca6554d168ca3454590ca56225270d65316d354d74b374b5b6b56ceb55b5d59b6d5abd6b5d76b6dadaeb6d6b5b5aad6aaacaaa954a994a4a94a4a8a9254a549294a54a52952a54aa554a954aa952aaa94952aaa55552a5666aa9aaab55aadab5ab56b6b6b5ab5aab556aad55556aaaaaaaaaaaaaa955555"
	DPCMSample Name="CV Snare" Data="feffdeffe3ef8c444031370980186000c0202f3aa357ef9fafffdebf9ec924410900040018749bbf76ebcf7bdff381e268311c31886ac08f06d4c5c72f1d63a7d0fc63cfb8dc7633ee30e2d008388401421e7d9e7fe7ef3f7f3f87dc6318885311060d62033c3324e71ff8f0f3cf71ae1c8ecf08cec240e18e182cd191ed9f0fcfc7ccf53839b819478846d60458639c61798cf398f77827c70f8cf5862f918c71c721e1c407a62e8ae743cf9e1f9e71f363c318c3b0e0e30f08e0718c393999f1bc7476e2f3c79719c6370f09c6712388e0a9838b8cef0ddaf473ee1cdb8e761a2e31c39c5907a1c0f1199c583ce339e38eb8e71ce3a70d8ec239e62636198c7498cd4738b8f26eacb3b4e571278e8c8f8e1c6b298e1c2c68d931e3559738d3b1ce38f1d4b34ea962c9a8aca918e6519a73299e39d3659d58ba61da46aa3c52b131e0e5952accb29cacab39666accab8b55a6a6aa3c5a3938b954aa95aa655a9cc759b2aed4b1d463c5346a6569654c"
	DPCMMapping Note="C1" Sample="CV BassDrum" Pitch="15" Loop="False"
	DPCMMapping Note="C#1" Sample="CV Snare" Pitch="14" Loop="False"
	Instrument Name="CV Bass"
	Instrument Name="CV Harpsichord-Alt1"
		Envelope Type="Volume" Length="7" Values="7,6,5,5,4,4,3"
		Envelope Type="DutyCycle" Length="2" Values="2,0"
	Instrument Name="CV Harpsichord-Alt2"
		Envelope Type="Volume" Length="7" Values="8,7,6,6,5,5,4"
		Envelope Type="DutyCycle" Length="2" Values="1,0"
	Instrument Name="CV Harpsichord-Intro1"
		Envelope Type="Volume" Length="7" Values="6,6,5,4,4,3,2"
		Envelope Type="Arpeggio" Length="2" Values="-12,0"
	Instrument Name="CV Harpsichord-Intro2"
		Envelope Type="Volume" Length="7" Values="6,5,4,4,4,4,3"
		Envelope Type="DutyCycle" Length="2" Values="1,0"
	Instrument Name="CV Lead"
		Envelope Type="Volume" Length="22" Loop="20" Release="21" Values="4,5,5,5,5,4,4,4,4,4,4,4,4,4,4,4,4,4,4,4,3,2"
		Envelope Type="Pitch" Length="20" Loop="12" Values="0,0,0,0,0,0,0,0,0,0,0,0,0,0,1,1,0,0,-1,-1"
		Envelope Type="DutyCycle" Length="2" Values="0,1"
	Instrument Name="CV LeadOctave"
		Envelope Type="Volume" Length="12" Loop="10" Release="11" Values="8,8,6,5,5,5,5,4,4,4,3,2"
		Envelope Type="Arpeggio" Length="2" Values="-12,0"
		Envelope Type="DutyCycle" Length="3" Values="2,2,1"
	Instrument Name="CV LeadOctave2"
		Envelope Type="Volume" Length="18" Values="8,6,5,5,5,5,4,4,4,4,4,3,3,5,5,4,4,2"
		Envelope Type="Pitch" Length="20" Loop="12" Values="0,0,0,0,0,0,0,0,0,0,0,0,0,0,1,1,0,0,-1,-1"
		Envelope Type="DutyCycle" Length="2" Values="2,1"
	Instrument Name="CV LeadPreIntro1"
		Envelope Type="Volume" Length="6" Loop="4" Release="5" Values="8,7,6,6,5,2"
		Envelope Type="DutyCycle" Length="2" Values="2,0"
	Instrument Name="CV LeadPreIntro2"
		Envelope Type="Volume" Length="6" Loop="4" Release="5" Values="8,7,6,6,5,2"
		Envelope Type="DutyCycle" Length="2" Values="1,0"
	Instrument Name="CV Snare1"
		Envelope Type="Volume" Length="6" Values="14,8,3,4,3,1"
		Envelope Type="Arpeggio" Length="8" Values="0,8,10,11,10,11,12,14"
	Instrument Name="CV Snare2"
		Envelope Type="Volume" Length="4" Values="6,2,3,1"
		Envelope Type="Arpeggio" Length="3" Values="0,1,4"
	Instrument Name="CV VoiceFadeIn"
		Envelope Type="Volume" Length="18" Loop="14" Release="15" Values="2,2,2,2,3,3,3,3,4,4,4,4,5,5,6,5,5,4"
		Envelope Type="DutyCycle" Length="1" Values="1"
	Instrument Name="CV VoiceFadeIn2"
		Envelope Type="Volume" Length="7" Loop="5" Release="6" Values="4,5,6,7,7,8,2"
	Instrument Name="CV VoiceRelease"
		Envelope Type="Volume" Length="4" Loop="2" Release="3" Values="3,2,1,2"
	Instrument Name="CV VoiceShort"
		Envelope Type="Volume" Length="6" Values="4,5,5,5,5,4"
		Envelope Type="DutyCycle" Length="1" Values="1"
	Instrument Name="CV VoiceSoftAttack"
		Envelope Type="Volume" Length="6" Loop="4" Release="5" Values="7,8,7,6,5,2"
		Envelope Type="Pitch" Length="20" Loop="12" Values="0,0,0,0,0,0,0,0,0,0,0,0,0,0,1,1,0,0,-1,-1"
	Song Name="bloody" Length="10" LoopPoint="2" PatternLength="32" BeatLength="4" NoteLength="7" Groove="7" GroovePaddingMode="Middle"
		Channel Type="Square1"
			Pattern Name="Intro1"
				Note Time="0" Value="A#3" Duration="7" Instrument="CV Harpsichord-Intro1"
				Note Time="7" Value="F3" Duration="7" Instrument="CV Harpsichord-Intro1"
				Note Time="14" Value="F4" Duration="7" Instrument="CV Harpsichord-Intro1"
				Note Time="21" Value="F3" Duration="7" Instrument="CV Harpsichord-Intro1"
				Note Time="28" Value="D#4" Duration="7" Instrument="CV Harpsichord-Intro1"
				Note Time="35" Value="F3" Duration="7" Instrument="CV Harpsichord-Intro1"
				Note Time="42" Value="C#4" Duration="7" Instrument="CV Harpsichord-Intro1"
				Note Time="49" Value="F3" Duration="7" Instrument="CV Harpsichord-Intro1"
				Note Time="56" Value="C4" Duration="7" Instrument="CV Harpsichord-Intro1"
				Note Time="63" Value="F3" Duration="7" Instrument="CV Harpsichord-Intro1"
				Note Time="70" Value="C#4" Duration="7" Instrument="CV Harpsichord-Intro1"
				Note Time="77" Value="F3" Duration="7" Instrument="CV Harpsichord-Intro1"
				Note Time="84" Value="C4" Duration="7" Instrument="CV Harpsichord-Intro1"
				Note Time="91" Value="F3" Duration="7" Instrument="CV Harpsichord-Intro1"
				Note Time="98" Value="A#3" Duration="7" Instrument="CV Harpsichord-Intro1"
				Note Time="105" Value="F3" Duration="7" Instrument="CV Harpsichord-Intro1"
				Note Time="112" Value="C4" Duration="7" Instrument="CV Harpsichord-Intro1"
				Note Time="119" Value="F3" Duration="7" Instrument="CV Harpsichord-Intro1"
				Note Time="126" Value="C#4" Duration="7" Instrument="CV Harpsichord-Intro1"
				Note Time="133" Value="F3" Duration="7" Instrument="CV Harpsichord-Intro1"
				Note Time="140" Value="D#4" Duration="7" Instrument="CV Harpsichord-Intro1"
				Note Time="147" Value="F3" Duration="7" Instrument="CV Harpsichord-Intro1"
				Note Time="154" Value="C#4" Duration="7" Instrument="CV Harpsichord-Intro1"
				Note Time="161" Value="F3" Duration="7" Instrument="CV Harpsichord-Intro1"
				Note Time="168" Value="C4" Duration="7" Instrument="CV Harpsichord-Intro1"
				Note Time="175" Value="F3" Duration="7" Instrument="CV Harpsichord-Intro1"
				Note Time="182" Value="G#3" Duration="7" Instrument="CV Harpsichord-Intro1"
				Note Time="189" Value="F3" Duration="7" Instrument="CV Harpsichord-Intro1"
				Note Time="196" Value="C4" Duration="7" Instrument="CV Harpsichord-Intro1"
				Note Time="203" Value="F3" Duration="7" Instrument="CV Harpsichord-Intro1"
				Note Time="210" Value="A#3" Duration="7" Instrument="CV Harpsichord-Intro1"
				Note Time="217" Value="F3" Duration="7" Instrument="CV Harpsichord-Intro1"
			Pattern Name="Melody1"
				Note Time="0" Value="C4" Duration="14" Release="9" Instrument="CV Lead"
				Note Time="14" Value="D#4" Duration="7" Release="5" Instrument="CV Lead"
				Note Time="21" Value="C#4" Duration="14" Release="9" Instrument="CV Lead"
				Note Time="35" Value="C3" Duration="7" Release="6" Instrument="CV LeadOctave"
				Note Time="42" Value="A#2" Duration="7" Release="6" Instrument="CV LeadOctave"
				Note Time="49" Value="C3" Duration="7" Release="6" Instrument="CV LeadOctave"
				Note Time="56" Value="C#3" Duration="14" Release="10" Instrument="CV LeadOctave"
				Note Time="70" Value="D#3" Duration="14" Release="10" Instrument="CV LeadOctave"
				Note Time="84" Value="F3" Duration="28" Instrument="CV LeadOctave2"
				Note Time="112" Value="C4" Duration="21" Release="13" Instrument="CV Lead"
				Note Time="133" Value="F4" Duration="21" Release="13" Instrument="CV Lead"
				Note Time="154" Value="C#4" Duration="42" Release="25" Instrument="CV Lead"
				Note Time="196" Value="C4" Duration="14" Release="9" Instrument="CV Lead"
				Note Time="210" Value="A#3" Duration="14" Release="9" Instrument="CV Lead"
			Pattern Name="Melody2"
				Note Time="0" Value="C4" Duration="14" Release="9" Instrument="CV Lead"
				Note Time="14" Value="D#4" Duration="7" Release="5" Instrument="CV Lead"
				Note Time="21" Value="C#4" Duration="14" Release="9" Instrument="CV Lead"
				Note Time="35" Value="D#3" Duration="7" Release="6" Instrument="CV LeadOctave"
				Note Time="42" Value="C#3" Duration="7" Release="6" Instrument="CV LeadOctave"
				Note Time="49" Value="D#3" Duration="7" Release="6" Instrument="CV LeadOctave"
				Note Time="56" Value="F3" Duration="14" Release="10" Instrument="CV LeadOctave"
				Note Time="70" Value="F#3" Duration="14" Release="10" Instrument="CV LeadOctave"
				Note Time="84" Value="G#3" Duration="14" Release="10" Instrument="CV LeadOctave"
				Note Time="98" Value="A#3" Duration="14" Release="10" Instrument="CV LeadOctave"
				Note Time="112" Value="C4" Duration="13" Release="12" Instrument="CV VoiceFadeIn"
				Note Time="125" Value="C4" Duration="8" Instrument="CV VoiceRelease"
				Note Time="133" Value="C4" Duration="21" Release="16" Instrument="CV VoiceFadeIn"
				Note Time="154" Value="C4" Duration="14" Instrument="CV VoiceRelease"
				Note Time="168" Value="A#3" Duration="13" Instrument="CV VoiceFadeIn"
				Note Time="181" Value="A#3" Duration="8" Instrument="CV VoiceRelease"
				Note Time="189" Value="A#3" Duration="21" Release="16" Instrument="CV VoiceFadeIn"
				Note Time="210" Value="A#3" Duration="14" Instrument="CV VoiceRelease"
			Pattern Name="Melody3"
				Note Time="0" Value="C4" Duration="14" Release="9" Instrument="CV Lead"
				Note Time="14" Value="D#4" Duration="7" Release="5" Instrument="CV Lead"
				Note Time="21" Value="C#4" Duration="14" Release="9" Instrument="CV Lead"
				Note Time="35" Value="D#3" Duration="7" Release="6" Instrument="CV LeadOctave"
				Note Time="42" Value="C#3" Duration="7" Release="6" Instrument="CV LeadOctave"
				Note Time="49" Value="D#3" Duration="7" Release="6" Instrument="CV LeadOctave"
				Note Time="56" Value="F3" Duration="14" Release="10" Instrument="CV LeadOctave"
				Note Time="70" Value="F#3" Duration="14" Release="10" Instrument="CV LeadOctave"
				Note Time="84" Value="G#3" Duration="14" Release="10" Instrument="CV LeadOctave"
				Note Time="98" Value="A#3" Duration="14" Release="10" Instrument="CV LeadOctave"
				Note Time="112" Value="C4" Duration="13" Release="12" Instrument="CV VoiceFadeIn"
				Note Time="125" Value="C4" Duration="8" Instrument="CV VoiceRelease"
				Note Time="133" Value="C4" Duration="21" Release="16" Instrument="CV VoiceFadeIn"
				Note Time="154" Value="C4" Duration="14" Instrument="CV VoiceRelease"
				Note Time="168" Value="A3" Duration="9" Instrument="CV VoiceShort"
				Note Time="177" Value="A3" Duration="5" Instrument="CV VoiceRelease"
				Note Time="182" Value="A#3" Duration="9" Instrument="CV VoiceShort"
				Note Time="191" Value="A#3" Duration="5" Instrument="CV VoiceRelease"
				Note Time="196" Value="C4" Duration="9" Instrument="CV VoiceShort"
				Note Time="205" Value="C4" Duration="5" Instrument="CV VoiceRelease"
				Note Time="210" Value="D#4" Duration="9" Instrument="CV VoiceShort"
				Note Time="219" Value="D#4" Duration="5" Instrument="CV VoiceRelease"
			Pattern Name="Melody4"
				Note Time="0" Value="D#3" Duration="7" Release="6" Instrument="CV VoiceSoftAttack" Volume="15"
				Note Time="7" Value="D#3" Duration="8" Instrument="CV VoiceSoftAttack" Volume="8"
				Note Time="15" Value="D#3" Duration="6" Release="5" Instrument="CV VoiceRelease" Volume="15"
				Note Time="21" Value="C#3" Duration="7" Instrument="CV VoiceSoftAttack" Volume="12"
				Note Time="28" Value="C#3" Duration="14" Release="9" Instrument="CV VoiceFadeIn2"
				Note Time="42" Value="C#4" Duration="7" Instrument="CV VoiceSoftAttack"
				Note Time="49" Value="C#4" Duration="7" Release="4" Instrument="CV VoiceFadeIn2"
				Note Time="56" Value="D#3" Duration="7" Release="6" Instrument="CV VoiceSoftAttack" Volume="15"
				Note Time="63" Value="D#3" Duration="8" Instrument="CV VoiceFadeIn2"
				Note Time="71" Value="D#3" Duration="6" Release="5" Instrument="CV VoiceRelease"
				Note Time="77" Value="C#3" Duration="7" Instrument="CV VoiceSoftAttack" Volume="12"
				Note Time="84" Value="C#3" Duration="14" Release="9" Instrument="CV VoiceFadeIn2"
				Note Time="98" Value="C#4" Duration="7" Instrument="CV VoiceSoftAttack"
				Note Time="105" Value="C#4" Duration="7" Release="4" Instrument="CV VoiceFadeIn2"
				Note Time="112" Value="D#3" Duration="7" Release="6" Instrument="CV VoiceSoftAttack" Volume="15"
				Note Time="119" Value="D#3" Duration="8" Instrument="CV VoiceSoftAttack" Volume="8"
				Note Time="127" Value="D#3" Duration="6" Release="5" Instrument="CV VoiceRelease" Volume="15"
				Note Time="133" Value="C#3" Duration="7" Instrument="CV VoiceSoftAttack"
				Note Time="140" Value="C#3" Duration="14" Release="9" Instrument="CV VoiceFadeIn2"
				Note Time="154" Value="C#4" Duration="7" Instrument="CV VoiceSoftAttack"
				Note Time="161" Value="C#4" Duration="7" Release="4" Instrument="CV VoiceFadeIn2"
				Note Time="168" Value="C#3" Duration="7" Instrument="CV Harpsichord-Alt1"
				Note Time="175" Value="C#4" Duration="7" Instrument="CV Harpsichord-Alt1"
				Note Time="182" Value="C3" Duration="7" Instrument="CV Harpsichord-Alt1"
				Note Time="189" Value="C4" Duration="7" Instrument="CV Harpsichord-Alt1"
				Note Time="196" Value="A#2" Duration="7" Instrument="CV Harpsichord-Alt1"
				Note Time="203" Value="A#3" Duration="7" Instrument="CV Harpsichord-Alt1"
				Note Time="210" Value="G#2" Duration="7" Instrument="CV Harpsichord-Alt1"
				Note Time="217" Value="G#3" Duration="7" Instrument="CV Harpsichord-Alt1"
			Pattern Name="Melody5"
				Note Time="0" Value="D#3" Duration="7" Release="6" Instrument="CV VoiceSoftAttack"
				Note Time="7" Value="D#3" Duration="7" Instrument="CV VoiceSoftAttack" Volume="13"
				Note Time="14" Value="C#3" Duration="1" Instrument="CV VoiceSoftAttack" Attack="False"
				Note Time="15" Value="C#3" Duration="6" Instrument="CV VoiceSoftAttack"
				Note Time="21" Value="C#4" Duration="1" Instrument="CV VoiceSoftAttack" Attack="False"
				Note Time="22" Value="C#4" Duration="34" Release="25" Instrument="CV VoiceSoftAttack"
				Note Time="28" Volume="12"
				Note Time="32" Volume="13"
				Note Time="36" Volume="14"
				Note Time="40" Volume="15"
				Note Time="56" Value="D#3" Duration="7" Release="6" Instrument="CV VoiceSoftAttack"
				Note Time="63" Value="D#3" Duration="7" Instrument="CV VoiceSoftAttack" Volume="13"
				Note Time="70" Value="C#3" Duration="1" Instrument="CV VoiceSoftAttack" Attack="False"
				Note Time="71" Value="C#3" Duration="6" Instrument="CV VoiceSoftAttack"
				Note Time="77" Value="C#4" Duration="1" Instrument="CV VoiceSoftAttack" Attack="False"
				Note Time="78" Value="C#4" Duration="34" Release="25" Instrument="CV VoiceSoftAttack"
				Note Time="84" Volume="12"
				Note Time="88" Volume="13"
				Note Time="92" Volume="14"
				Note Time="96" Volume="15"
				Note Time="112" Value="D#3" Duration="7" Release="6" Instrument="CV VoiceSoftAttack"
				Note Time="119" Value="D#3" Duration="7" Instrument="CV VoiceSoftAttack" Volume="13"
				Note Time="126" Value="C#3" Duration="1" Instrument="CV VoiceSoftAttack" Attack="False"
				Note Time="127" Value="C#3" Duration="6" Instrument="CV VoiceSoftAttack"
				Note Time="133" Value="C#4" Duration="1" Instrument="CV VoiceSoftAttack" Attack="False"
				Note Time="134" Value="C#4" Duration="34" Release="25" Instrument="CV VoiceSoftAttack"
				Note Time="140" Volume="12"
				Note Time="144" Volume="13"
				Note Time="148" Volume="14"
				Note Time="152" Volume="15"
				Note Time="168" Value="C#4" Duration="14" Release="11" Instrument="CV LeadPreIntro1"
				Note Time="182" Value="D#4" Duration="14" Release="11" Instrument="CV LeadPreIntro1"
				Note Time="196" Value="C4" Duration="7" Release="6" Instrument="CV LeadPreIntro1"
				Note Time="203" Value="C#4" Duration="21" Release="16" Instrument="CV LeadPreIntro1"
			Pattern Name="Intro3"
				Note Time="0" Value="A#3" Duration="7" Instrument="CV Harpsichord-Intro1" Volume="15"
				Note Time="7" Value="F3" Duration="7" Instrument="CV Harpsichord-Intro1"
				Note Time="14" Value="F4" Duration="7" Instrument="CV Harpsichord-Intro1"
				Note Time="21" Value="F3" Duration="7" Instrument="CV Harpsichord-Intro1"
				Note Time="28" Value="D#4" Duration="7" Instrument="CV Harpsichord-Intro1"
				Note Time="35" Value="F3" Duration="7" Instrument="CV Harpsichord-Intro1"
				Note Time="42" Value="C#4" Duration="7" Instrument="CV Harpsichord-Intro1"
				Note Time="49" Value="F3" Duration="7" Instrument="CV Harpsichord-Intro1"
				Note Time="56" Value="C4" Duration="7" Instrument="CV Harpsichord-Intro1"
				Note Time="63" Value="F3" Duration="7" Instrument="CV Harpsichord-Intro1"
				Note Time="70" Value="C#4" Duration="7" Instrument="CV Harpsichord-Intro1"
				Note Time="77" Value="F3" Duration="7" Instrument="CV Harpsichord-Intro1"
				Note Time="84" Value="C4" Duration="7" Instrument="CV Harpsichord-Intro1"
				Note Time="91" Value="F3" Duration="7" Instrument="CV Harpsichord-Intro1"
				Note Time="98" Value="A#3" Duration="7" Instrument="CV Harpsichord-Intro1"
				Note Time="105" Value="F3" Duration="7" Instrument="CV Harpsichord-Intro1"
				Note Time="112" Value="C4" Duration="7" Instrument="CV Harpsichord-Intro1"
				Note Time="119" Value="F3" Duration="7" Instrument="CV Harpsichord-Intro1"
				Note Time="126" Value="C#4" Duration="7" Instrument="CV Harpsichord-Intro1"
				Note Time="133" Value="F3" Duration="7" Instrument="CV Harpsichord-Intro1"
				Note Time="140" Value="D#4" Duration="7" Instrument="CV Harpsichord-Intro1"
				Note Time="147" Value="F3" Duration="7" Instrument="CV Harpsichord-Intro1"
				Note Time="154" Value="C#4" Duration="7" Instrument="CV Harpsichord-Intro1"
				Note Time="161" Value="F3" Duration="7" Instrument="CV Harpsichord-Intro1"
				Note Time="168" Value="C4" Duration="7" Instrument="CV Harpsichord-Intro1"
				Note Time="175" Value="F3" Duration="7" Instrument="CV Harpsichord-Intro1"
				Note Time="182" Value="G#3" Duration="7" Instrument="CV Harpsichord-Intro1"
				Note Time="189" Value="F3" Duration="7" Instrument="CV Harpsichord-Intro1"
				Note Time="196" Value="C4" Duration="7" Instrument="CV Harpsichord-Intro1"
				Note Time="203" Value="F3" Duration="7" Instrument="CV Harpsichord-Intro1"
				Note Time="210" Value="A#3" Duration="7" Instrument="CV Harpsichord-Intro1"
				Note Time="217" Value="F3" Duration="7" Instrument="CV Harpsichord-Intro1"
			PatternInstance Time="0" Pattern="Intro1"
			PatternInstance Time="1" Pattern="Intro1"
			PatternInstance Time="2" Pattern="Melody1"
			PatternInstance Time="3" Pattern="Melody2"
			PatternInstance Time="4" Pattern="Melody1"
			PatternInstance Time="5" Pattern="Melody3"
			PatternInstance Time="6" Pattern="Melody4"
			PatternInstance Time="7" Pattern="Melody5"
			PatternInstance Time="8" Pattern="Intro3"
			PatternInstance Time="9" Pattern="Intro1"
		Channel Type="Square2"
			Pattern Name="Intro1"
				Note Time="0" Value="A#4" Duration="7" Instrument="CV Harpsichord-Intro2" FinePitch="1"
				Note Time="7" Value="F4" Duration="7" Instrument="CV Harpsichord-Intro2"
				Note Time="14" Value="F5" Duration="7" Instrument="CV Harpsichord-Intro2"
				Note Time="21" Value="F4" Duration="7" Instrument="CV Harpsichord-Intro2"
				Note Time="28" Value="D#5" Duration="7" Instrument="CV Harpsichord-Intro2"
				Note Time="35" Value="F4" Duration="7" Instrument="CV Harpsichord-Intro2"
				Note Time="42" Value="C#5" Duration="7" Instrument="CV Harpsichord-Intro2"
				Note Time="49" Value="F4" Duration="7" Instrument="CV Harpsichord-Intro2"
				Note Time="56" Value="C5" Duration="7" Instrument="CV Harpsichord-Intro2"
				Note Time="63" Value="F4" Duration="7" Instrument="CV Harpsichord-Intro2"
				Note Time="70" Value="C#5" Duration="7" Instrument="CV Harpsichord-Intro2"
				Note Time="77" Value="F4" Duration="7" Instrument="CV Harpsichord-Intro2"
				Note Time="84" Value="C5" Duration="7" Instrument="CV Harpsichord-Intro2"
				Note Time="91" Value="F4" Duration="7" Instrument="CV Harpsichord-Intro2"
				Note Time="98" Value="A#4" Duration="7" Instrument="CV Harpsichord-Intro2"
				Note Time="105" Value="F4" Duration="7" Instrument="CV Harpsichord-Intro2"
				Note Time="112" Value="C5" Duration="7" Instrument="CV Harpsichord-Intro2"
				Note Time="119" Value="F4" Duration="7" Instrument="CV Harpsichord-Intro2"
				Note Time="126" Value="C#5" Duration="7" Instrument="CV Harpsichord-Intro2"
				Note Time="133" Value="F4" Duration="7" Instrument="CV Harpsichord-Intro2"
				Note Time="140" Value="D#5" Duration="7" Instrument="CV Harpsichord-Intro2"
				Note Time="147" Value="F4" Duration="7" Instrument="CV Harpsichord-Intro2"
				Note Time="154" Value="C#5" Duration="7" Instrument="CV Harpsichord-Intro2"
				Note Time="161" Value="F4" Duration="7" Instrument="CV Harpsichord-Intro2"
				Note Time="168" Value="C5" Duration="7" Instrument="CV Harpsichord-Intro2"
				Note Time="175" Value="F4" Duration="7" Instrument="CV Harpsichord-Intro2"
				Note Time="182" Value="G#4" Duration="7" Instrument="CV Harpsichord-Intro2"
				Note Time="189" Value="F4" Duration="7" Instrument="CV Harpsichord-Intro2"
				Note Time="196" Value="C5" Duration="7" Instrument="CV Harpsichord-Intro2"
				Note Time="203" Value="F4" Duration="7" Instrument="CV Harpsichord-Intro2"
				Note Time="210" Value="A#4" Duration="7" Instrument="CV Harpsichord-Intro2"
				Note Time="217" Value="F4" Duration="7" Instrument="CV Harpsichord-Intro2"
			Pattern Name="Intro2"
				Note Time="0" Value="A#4" Duration="7" Instrument="CV Harpsichord-Intro2" Volume="15" FinePitch="1"
				Note Time="7" Value="F4" Duration="7" Instrument="CV Harpsichord-Intro2"
				Note Time="14" Value="F5" Duration="7" Instrument="CV Harpsichord-Intro2"
				Note Time="21" Value="F4" Duration="7" Instrument="CV Harpsichord-Intro2"
				Note Time="28" Value="D#5" Duration="7" Instrument="CV Harpsichord-Intro2"
				Note Time="35" Value="F4" Duration="7" Instrument="CV Harpsichord-Intro2"
				Note Time="42" Value="C#5" Duration="7" Instrument="CV Harpsichord-Intro2"
				Note Time="49" Value="F4" Duration="7" Instrument="CV Harpsichord-Intro2"
				Note Time="56" Value="C5" Duration="7" Instrument="CV Harpsichord-Intro2"
				Note Time="63" Value="F4" Duration="7" Instrument="CV Harpsichord-Intro2"
				Note Time="70" Value="C#5" Duration="7" Instrument="CV Harpsichord-Intro2"
				Note Time="77" Value="F4" Duration="7" Instrument="CV Harpsichord-Intro2"
				Note Time="84" Value="C5" Duration="7" Instrument="CV Harpsichord-Intro2"
				Note Time="91" Value="F4" Duration="7" Instrument="CV Harpsichord-Intro2"
				Note Time="98" Value="A#4" Duration="7" Instrument="CV Harpsichord-Intro2"
				Note Time="105" Value="F4" Duration="7" Instrument="CV Harpsichord-Intro2"
				Note Time="112" Value="C5" Duration="7" Instrument="CV Harpsichord-Intro2"
				Note Time="119" Value="F4" Duration="7" Instrument="CV Harpsichord-Intro2"
				Note Time="126" Value="C#5" Duration="7" Instrument="CV Harpsichord-Intro2"
				Note Time="133" Value="F4" Duration="7" Instrument="CV Harpsichord-Intro2"
				Note Time="140" Value="D#5" Duration="7" Instrument="CV Harpsichord-Intro2"
				Note Time="147" Value="F4" Duration="7" Instrument="CV Harpsichord-Intro2"
				Note Time="154" Value="C#5" Duration="7" Instrument="CV Harpsichord-Intro2"
				Note Time="161" Value="F4" Duration="7" Instrument="CV Harpsichord-Intro2"
				Note Time="168" Value="C5" Duration="7" Instrument="CV Harpsichord-Intro2"
				Note Time="175" Value="F4" Duration="7" Instrument="CV Harpsichord-Intro2"
				Note Time="182" Value="G#4" Duration="7" Instrument="CV Harpsichord-Intro2"
				Note Time="189" Value="F4" Duration="7" Instrument="CV Harpsichord-Intro2"
				Note Time="196" Value="C5" Duration="7" Instrument="CV Harpsichord-Intro2"
				Note Time="203" Value="F4" Duration="7" Instrument="CV Harpsichord-Intro2"
				Note Time="210" Value="A#4" Duration="7" Instrument="CV Harpsichord-Intro2"
				Note Time="217" Value="F4" Duration="7" Instrument="CV Harpsichord-Intro2"
			Pattern Name="Melody1"
				Note Time="0" Value="D#4" Duration="14" Release="9" Instrument="CV Lead" FinePitch="0"
				Note Time="14" Value="G#4" Duration="7" Release="5" Instrument="CV Lead"
				Note Time="21" Value="F4" Duration="63" Release="37" Instrument="CV Lead"
				Note Time="84" Value="D#4" Duration="14" Release="9" Instrument="CV Lead"
				Note Time="98" Value="C#4" Duration="14" Release="9" Instrument="CV Lead"
				Note Time="112" Value="D#4" Duration="21" Release="13" Instrument="CV Lead"
				Note Time="133" Value="G#4" Duration="21" Release="13" Instrument="CV Lead"
				Note Time="154" Value="F4" Duration="42" Release="25" Instrument="CV Lead"
				Note Time="196" Value="D#4" Duration="14" Release="9" Instrument="CV Lead"
				Note Time="210" Value="C#4" Duration="14" Release="9" Instrument="CV Lead"
			Pattern Name="Melody2"
				Note Time="0" Value="D#4" Duration="14" Release="9" Instrument="CV Lead"
				Note Time="14" Value="G#4" Duration="7" Release="5" Instrument="CV Lead"
				Note Time="21" Value="F4" Duration="63" Release="37" Instrument="CV Lead"
				Note Time="84" Value="D#4" Duration="14" Release="9" Instrument="CV Lead"
				Note Time="98" Value="F4" Duration="14" Release="9" Instrument="CV Lead"
				Note Time="112" Value="F#4" Duration="13" Release="12" Instrument="CV VoiceFadeIn"
				Note Time="125" Value="F#4" Duration="8" Instrument="CV VoiceRelease"
				Note Time="133" Value="G#4" Duration="21" Release="16" Instrument="CV VoiceFadeIn"
				Note Time="154" Value="G#4" Duration="14" Instrument="CV VoiceRelease"
				Note Time="168" Value="F4" Duration="13" Instrument="CV VoiceFadeIn"
				Note Time="181" Value="F4" Duration="8" Instrument="CV VoiceRelease"
				Note Time="189" Value="F#4" Duration="21" Release="16" Instrument="CV VoiceFadeIn"
				Note Time="210" Value="F#4" Duration="14" Instrument="CV VoiceRelease"
			Pattern Name="Melody3"
				Note Time="0" Value="D#4" Duration="14" Release="9" Instrument="CV Lead"
				Note Time="14" Value="G#4" Duration="7" Release="5" Instrument="CV Lead"
				Note Time="21" Value="F4" Duration="63" Release="37" Instrument="CV Lead"
				Note Time="84" Value="D#4" Duration="14" Release="9" Instrument="CV Lead"
				Note Time="98" Value="F4" Duration="14" Release="9" Instrument="CV Lead"
				Note Time="112" Value="F#4" Duration="13" Release="12" Instrument="CV VoiceFadeIn"
				Note Time="125" Value="F#4" Duration="8" Instrument="CV VoiceRelease"
				Note Time="133" Value="G#4" Duration="21" Release="16" Instrument="CV VoiceFadeIn"
				Note Time="154" Value="G#4" Duration="14" Instrument="CV VoiceRelease"
				Note Time="168" Value="F4" Duration="9" Instrument="CV VoiceShort"
				Note Time="177" Value="F4" Duration="5" Instrument="CV VoiceRelease"
				Note Time="182" Value="G4" Duration="9" Instrument="CV VoiceShort"
				Note Time="191" Value="G4" Duration="5" Instrument="CV VoiceRelease"
				Note Time="196" Value="A4" Duration="9" Instrument="CV VoiceShort"
				Note Time="205" Value="A4" Duration="5" Instrument="CV VoiceRelease"
				Note Time="210" Value="C5" Duration="9" Instrument="CV VoiceShort"
				Note Time="219" Value="C5" Duration="5" Instrument="CV VoiceRelease"
			Pattern Name="Melody4"
				Note Time="0" Value="C4" Duration="7" Release="6" Instrument="CV VoiceSoftAttack" Volume="15"
				Note Time="7" Value="C4" Duration="8" Instrument="CV VoiceSoftAttack" Volume="8"
				Note Time="15" Value="C4" Duration="6" Release="5" Instrument="CV VoiceRelease" Volume="15"
				Note Time="21" Value="A#3" Duration="7" Instrument="CV VoiceSoftAttack" Volume="12"
				Note Time="28" Value="A#3" Duration="14" Release="9" Instrument="CV VoiceFadeIn2"
				Note Time="42" Value="A#4" Duration="7" Instrument="CV VoiceSoftAttack"
				Note Time="49" Value="A#4" Duration="7" Release="4" Instrument="CV VoiceFadeIn2"
				Note Time="56" Value="C4" Duration="7" Release="6" Instrument="CV VoiceSoftAttack" Volume="15"
				Note Time="63" Value="C4" Duration="8" Instrument="CV VoiceFadeIn2"
				Note Time="71" Value="C4" Duration="6" Release="5" Instrument="CV VoiceRelease"
				Note Time="77" Value="A#3" Duration="7" Instrument="CV VoiceSoftAttack" Volume="12"
				Note Time="84" Value="A#3" Duration="14" Release="9" Instrument="CV VoiceFadeIn2"
				Note Time="98" Value="A#4" Duration="7" Instrument="CV VoiceSoftAttack"
				Note Time="105" Value="A#4" Duration="7" Release="4" Instrument="CV VoiceFadeIn2"
				Note Time="112" Value="C4" Duration="7" Release="6" Instrument="CV VoiceSoftAttack" Volume="15"
				Note Time="119" Value="C4" Duration="8" Instrument="CV VoiceSoftAttack" Volume="8"
				Note Time="127" Value="C4" Duration="6" Release="5" Instrument="CV VoiceRelease" Volume="15"
				Note Time="133" Value="A#3" Duration="7" Instrument="CV VoiceSoftAttack"
				Note Time="140" Value="A#3" Duration="14" Release="9" Instrument="CV VoiceFadeIn2"
				Note Time="154" Value="A#4" Duration="7" Instrument="CV VoiceSoftAttack"
				Note Time="161" Value="A#4" Duration="7" Release="4" Instrument="CV VoiceFadeIn2"
				Note Time="168" Value="C#4" Duration="7" Instrument="CV Harpsichord-Alt2" FinePitch="1"
				Note Time="175" Value="C#5" Duration="7" Instrument="CV Harpsichord-Alt2"
				Note Time="182" Value="C4" Duration="7" Instrument="CV Harpsichord-Alt2"
				Note Time="189" Value="C5" Duration="7" Instrument="CV Harpsichord-Alt2"
				Note Time="196" Value="A#3" Duration="7" Instrument="CV Harpsichord-Alt2"
				Note Time="203" Value="A#4" Duration="7" Instrument="CV Harpsichord-Alt2"
				Note Time="210" Value="G#3" Duration="7" Instrument="CV Harpsichord-Alt2"
				Note Time="217" Value="G#4" Duration="7" Instrument="CV Harpsichord-Alt2"
			Pattern Name="Melody5"
				Note Time="0" Value="C4" Duration="7" Release="6" Instrument="CV VoiceSoftAttack" FinePitch="0"
				Note Time="7" Value="C4" Duration="7" Instrument="CV VoiceSoftAttack" Volume="13"
				Note Time="14" Value="A#3" Duration="1" Instrument="CV VoiceSoftAttack" Attack="False"
				Note Time="15" Value="A#3" Duration="6" Instrument="CV VoiceSoftAttack"
				Note Time="21" Value="A#4" Duration="1" Instrument="CV VoiceSoftAttack" Attack="False"
				Note Time="22" Value="A#4" Duration="34" Release="25" Instrument="CV VoiceSoftAttack"
				Note Time="28" Volume="12"
				Note Time="32" Volume="13"
				Note Time="36" Volume="14"
				Note Time="40" Volume="15"
				Note Time="56" Value="C4" Duration="7" Release="6" Instrument="CV VoiceSoftAttack"
				Note Time="63" Value="C4" Duration="7" Instrument="CV VoiceSoftAttack" Volume="13"
				Note Time="70" Value="A#3" Duration="1" Instrument="CV VoiceSoftAttack" Attack="False"
				Note Time="71" Value="A#3" Duration="6" Instrument="CV VoiceSoftAttack"
				Note Time="77" Value="A#4" Duration="1" Instrument="CV VoiceSoftAttack" Attack="False"
				Note Time="78" Value="A#4" Duration="34" Release="25" Instrument="CV VoiceSoftAttack"
				Note Time="84" Volume="12"
				Note Time="88" Volume="13"
				Note Time="92" Volume="14"
				Note Time="96" Volume="15"
				Note Time="112" Value="C4" Duration="7" Release="6" Instrument="CV VoiceSoftAttack"
				Note Time="119" Value="C4" Duration="7" Instrument="CV VoiceSoftAttack" Volume="13"
				Note Time="126" Value="A#3" Duration="1" Instrument="CV VoiceSoftAttack" Attack="False"
				Note Time="127" Value="A#3" Duration="6" Instrument="CV VoiceSoftAttack"
				Note Time="133" Value="A#4" Duration="1" Instrument="CV VoiceSoftAttack" Attack="False"
				Note Time="134" Value="A#4" Duration="34" Release="25" Instrument="CV VoiceSoftAttack"
				Note Time="140" Volume="12"
				Note Time="144" Volume="13"
				Note Time="148" Volume="14"
				Note Time="152" Volume="15"
				Note Time="168" Value="C#5" Duration="14" Release="11" Instrument="CV LeadPreIntro2" FinePitch="1"
				Note Time="182" Value="D#5" Duration="14" Release="11" Instrument="CV LeadPreIntro2"
				Note Time="196" Value="C5" Duration="7" Release="6" Instrument="CV LeadPreIntro2"
				Note Time="203" Value="C#5" Duration="21" Release="16" Instrument="CV LeadPreIntro2"
			PatternInstance Time="0" Pattern="Intro1"
			PatternInstance Time="1" Pattern="Intro2"
			PatternInstance Time="2" Pattern="Melody1"
			PatternInstance Time="3" Pattern="Melody2"
			PatternInstance Time="4" Pattern="Melody1"
			PatternInstance Time="5" Pattern="Melody3"
			PatternInstance Time="6" Pattern="Melody4"
			PatternInstance Time="7" Pattern="Melody5"
			PatternInstance Time="8" Pattern="Intro2"
			PatternInstance Time="9" Pattern="Intro2"
		Channel Type="Triangle"
			Pattern Name="Intro1"
				Note Time="0" Value="A#2" Duration="112" Instrument="CV Bass"
				Note Time="112" Value="F2" Duration="56" Instrument="CV Bass"
				Note Time="168" Value="F3" Duration="56" Instrument="CV Bass"
			Pattern Name="Bass1"
				Note Time="0" Value="A#2" Duration="13" Instrument="CV Bass"
				Note Time="14" Value="A#3" Duration="6" Instrument="CV Bass"
				Note Time="21" Value="A#2" Duration="7" Instrument="CV Bass"
				Note Time="35" Value="A#2" Duration="7" Instrument="CV Bass"
				Note Time="42" Value="A#3" Duration="6" Instrument="CV Bass"
				Note Time="56" Value="A#2" Duration="13" Instrument="CV Bass"
				Note Time="70" Value="A#3" Duration="6" Instrument="CV Bass"
				Note Time="84" Value="A#2" Duration="6" Instrument="CV Bass"
				Note Time="98" Value="A#3" Duration="6" Instrument="CV Bass"
				Note Time="112" Value="G#2" Duration="13" Instrument="CV Bass"
				Note Time="126" Value="G#3" Duration="6" Instrument="CV Bass"
				Note Time="133" Value="G#2" Duration="6" Instrument="CV Bass"
				Note Time="147" Value="G#2" Duration="6" Instrument="CV Bass"
				Note Time="154" Value="G#3" Duration="7" Instrument="CV Bass"
				Note Time="168" Value="G#2" Duration="6" Instrument="CV Bass"
				Note Time="182" Value="G#3" Duration="6" Instrument="CV Bass"
				Note Time="196" Value="G#2" Duration="6" Instrument="CV Bass"
				Note Time="203" Value="G#2" Duration="6" Instrument="CV Bass"
				Note Time="210" Value="G#3" Duration="7" Instrument="CV Bass"
			Pattern Name="Bass2"
				Note Time="0" Value="F#2" Duration="13" Instrument="CV Bass"
				Note Time="14" Value="F#3" Duration="6" Instrument="CV Bass"
				Note Time="21" Value="F#2" Duration="6" Instrument="CV Bass"
				Note Time="35" Value="F#2" Duration="6" Instrument="CV Bass"
				Note Time="42" Value="F#3" Duration="6" Instrument="CV Bass"
				Note Time="56" Value="F#2" Duration="6" Instrument="CV Bass"
				Note Time="63" Value="F#2" Duration="6" Instrument="CV Bass"
				Note Time="70" Value="F#3" Duration="6" Instrument="CV Bass"
				Note Time="84" Value="F#2" Duration="7" Instrument="CV Bass"
				Note Time="98" Value="F#3" Duration="6" Instrument="CV Bass"
				Note Time="112" Value="F2" Duration="6" Instrument="CV Bass"
				Note Time="119" Value="F2" Duration="6" Instrument="CV Bass"
				Note Time="126" Value="F3" Duration="6" Instrument="CV Bass"
				Note Time="133" Value="F2" Duration="6" Instrument="CV Bass"
				Note Time="147" Value="F2" Duration="6" Instrument="CV Bass"
				Note Time="154" Value="F3" Duration="6" Instrument="CV Bass"
				Note Time="168" Value="F2" Duration="6" Instrument="CV Bass"
				Note Time="182" Value="F3" Duration="6" Instrument="CV Bass"
				Note Time="196" Value="F2" Duration="6" Instrument="CV Bass"
				Note Time="203" Value="F2" Duration="6" Instrument="CV Bass"
				Note Time="210" Value="F3" Duration="6" Instrument="CV Bass"
			Pattern Name="Bass3"
				Note Time="0" Value="A#2" Duration="13" Instrument="CV Bass"
				Note Time="14" Value="A#3" Duration="7" Instrument="CV Bass"
				Note Time="21" Value="A#2" Duration="6" Instrument="CV Bass"
				Note Time="35" Value="A#2" Duration="7" Instrument="CV Bass"
				Note Time="42" Value="A#3" Duration="6" Instrument="CV Bass"
				Note Time="56" Value="A#2" Duration="6" Instrument="CV Bass"
				Note Time="63" Value="A#2" Duration="6" Instrument="CV Bass"
				Note Time="70" Value="A#3" Duration="7" Instrument="CV Bass"
				Note Time="84" Value="A#2" Duration="7" Instrument="CV Bass"
				Note Time="98" Value="A#3" Duration="6" Instrument="CV Bass"
				Note Time="112" Value="G#2" Duration="13" Instrument="CV Bass"
				Note Time="126" Value="G#3" Duration="6" Instrument="CV Bass"
				Note Time="133" Value="G#2" Duration="6" Instrument="CV Bass"
				Note Time="147" Value="G#2" Duration="6" Instrument="CV Bass"
				Note Time="154" Value="G#3" Duration="6" Instrument="CV Bass"
				Note Time="168" Value="G#2" Duration="7" Instrument="CV Bass"
				Note Time="182" Value="G#3" Duration="6" Instrument="CV Bass"
				Note Time="196" Value="G#2" Duration="6" Instrument="CV Bass"
				Note Time="203" Value="G#2" Duration="6" Instrument="CV Bass"
				Note Time="210" Value="G#3" Duration="6" Instrument="CV Bass"
			Pattern Name="Bass4"
				Note Time="0" Value="F#2" Duration="13" Instrument="CV Bass"
				Note Time="14" Value="F#3" Duration="7" Instrument="CV Bass"
				Note Time="21" Value="F#2" Duration="6" Instrument="CV Bass"
				Note Time="35" Value="F#2" Duration="6" Instrument="CV Bass"
				Note Time="42" Value="F#3" Duration="6" Instrument="CV Bass"
				Note Time="56" Value="F#2" Duration="6" Instrument="CV Bass"
				Note Time="63" Value="F#2" Duration="6" Instrument="CV Bass"
				Note Time="70" Value="F#3" Duration="6" Instrument="CV Bass"
				Note Time="84" Value="F#2" Duration="6" Instrument="CV Bass"
				Note Time="98" Value="F#3" Duration="7" Instrument="CV Bass"
				Note Time="112" Value="F2" Duration="6" Instrument="CV Bass"
				Note Time="119" Value="F2" Duration="6" Instrument="CV Bass"
				Note Time="126" Value="F3" Duration="6" Instrument="CV Bass"
				Note Time="133" Value="F2" Duration="7" Instrument="CV Bass"
				Note Time="147" Value="F2" Duration="6" Instrument="CV Bass"
				Note Time="154" Value="F3" Duration="6" Instrument="CV Bass"
				Note Time="168" Value="F2" Duration="7" Instrument="CV Bass"
				Note Time="175" Value="F3" Duration="6" Instrument="CV Bass"
				Note Time="182" Value="G2" Duration="6" Instrument="CV Bass"
				Note Time="189" Value="G3" Duration="6" Instrument="CV Bass"
				Note Time="196" Value="A2" Duration="6" Instrument="CV Bass"
				Note Time="203" Value="A3" Duration="6" Instrument="CV Bass"
				Note Time="210" Value="C3" Duration="6" Instrument="CV Bass"
				Note Time="217" Value="C4" Duration="6" Instrument="CV Bass"
			Pattern Name="Bass5"
				Note Time="0" Value="A#2" Duration="20" Instrument="CV Bass"
				Note Time="21" Value="A#2" Duration="20" Instrument="CV Bass"
				Note Time="42" Value="A#2" Duration="6" Instrument="CV Bass"
				Note Time="49" Value="A#3" Duration="7" Instrument="CV Bass"
				Note Time="56" Value="G#2" Duration="20" Instrument="CV Bass"
				Note Time="77" Value="G#2" Duration="20" Instrument="CV Bass"
				Note Time="98" Value="G#2" Duration="7" Instrument="CV Bass"
				Note Time="105" Value="G#3" Duration="6" Instrument="CV Bass"
				Note Time="112" Value="F#2" Duration="20" Instrument="CV Bass"
				Note Time="133" Value="F#2" Duration="20" Instrument="CV Bass"
				Note Time="154" Value="F#2" Duration="6" Instrument="CV Bass"
				Note Time="161" Value="F#3" Duration="6" Instrument="CV Bass"
				Note Time="168" Value="G#2" Duration="20" Instrument="CV Bass"
				Note Time="189" Value="G#2" Duration="20" Instrument="CV Bass"
				Note Time="210" Value="G#2" Duration="6" Instrument="CV Bass"
				Note Time="217" Value="G#3" Duration="7" Instrument="CV Bass"
			Pattern Name="Bass6"
				Note Time="0" Value="A#2" Duration="20" Instrument="CV Bass"
				Note Time="21" Value="A#2" Duration="20" Instrument="CV Bass"
				Note Time="42" Value="A#2" Duration="6" Instrument="CV Bass"
				Note Time="49" Value="A#3" Duration="6" Instrument="CV Bass"
				Note Time="56" Value="G#2" Duration="20" Instrument="CV Bass"
				Note Time="77" Value="G#2" Duration="20" Instrument="CV Bass"
				Note Time="98" Value="G#2" Duration="13" Instrument="CV Bass"
				Note Time="112" Value="F#2" Duration="20" Instrument="CV Bass"
				Note Time="133" Value="F#2" Duration="20" Instrument="CV Bass"
				Note Time="154" Value="F#2" Duration="6" Instrument="CV Bass"
				Note Time="161" Value="F#3" Duration="6" Instrument="CV Bass"
				Note Time="168" Value="G#2" Duration="13" Instrument="CV Bass"
				Note Time="182" Value="G#3" Duration="13" Instrument="CV Bass"
				Note Time="196" Value="G#2" Duration="6" Instrument="CV Bass"
				Note Time="203" Value="G#2" Duration="6" Instrument="CV Bass"
				Note Time="210" Value="G#3" Duration="13" Instrument="CV Bass"
			PatternInstance Time="0" Pattern="Intro1"
			PatternInstance Time="1" Pattern="Intro1"
			PatternInstance Time="2" Pattern="Bass1"
			PatternInstance Time="3" Pattern="Bass2"
			PatternInstance Time="4" Pattern="Bass3"
			PatternInstance Time="5" Pattern="Bass4"
			PatternInstance Time="6" Pattern="Bass5"
			PatternInstance Time="7" Pattern="Bass6"
			PatternInstance Time="8" Pattern="Intro1"
			PatternInstance Time="9" Pattern="Intro1"
		Channel Type="Noise"
			Pattern Name="Intro1"
				Note Time="197" Value="G#2" Duration="8" Instrument="CV Snare1"
			Pattern Name="Intro2"
				Note Time="197" Value="G#2" Duration="8" Instrument="CV Snare1"
				Note Time="211" Value="G#2" Duration="6" Instrument="CV Snare1"
				Note Time="218" Value="G#2" Duration="8" Instrument="CV Snare1"
			Pattern Name="Drum1"
				Note Time="15" Value="G#2" Duration="8" Instrument="CV Snare1"
				Note Time="43" Value="G#2" Duration="8" Instrument="CV Snare1"
				Note Time="71" Value="G#2" Duration="8" Instrument="CV Snare1"
				Note Time="99" Value="G#2" Duration="8" Instrument="CV Snare1"
				Note Time="127" Value="G#2" Duration="8" Instrument="CV Snare1"
				Note Time="155" Value="G#2" Duration="8" Instrument="CV Snare1"
				Note Time="183" Value="G#2" Duration="8" Instrument="CV Snare1"
				Note Time="211" Value="G#2" Duration="6" Instrument="CV Snare1"
				Note Time="218" Value="G#2" Duration="8" Instrument="CV Snare1"
			Pattern Name="Drum2"
				Note Time="15" Value="G#2" Duration="8" Instrument="CV Snare1"
				Note Time="43" Value="G#2" Duration="8" Instrument="CV Snare1"
				Note Time="71" Value="G#2" Duration="8" Instrument="CV Snare1"
				Note Time="99" Value="G#2" Duration="8" Instrument="CV Snare1"
				Note Time="127" Value="G#2" Duration="8" Instrument="CV Snare1"
				Note Time="155" Value="G#2" Duration="6" Instrument="CV Snare1"
				Note Time="162" Value="G#2" Duration="8" Instrument="CV Snare1"
				Note Time="190" Value="G#2" Duration="8" Instrument="CV Snare1"
				Note Time="204" Value="G#2" Duration="6" Instrument="CV Snare1"
				Note Time="211" Value="G#2" Duration="6" Instrument="CV Snare1"
				Note Time="218" Value="G#2" Duration="8" Instrument="CV Snare1"
			Pattern Name="Drum3"
				Note Time="15" Value="G#2" Duration="8" Instrument="CV Snare1"
				Note Time="43" Value="G#2" Duration="8" Instrument="CV Snare1"
				Note Time="71" Value="G#2" Duration="8" Instrument="CV Snare1"
				Note Time="99" Value="G#2" Duration="6" Instrument="CV Snare1"
				Note Time="106" Value="G#2" Duration="8" Instrument="CV Snare1"
				Note Time="127" Value="G#2" Duration="8" Instrument="CV Snare1"
				Note Time="155" Value="G#2" Duration="8" Instrument="CV Snare1"
				Note Time="183" Value="G#2" Duration="8" Instrument="CV Snare1"
				Note Time="211" Value="G#2" Duration="6" Instrument="CV Snare1"
				Note Time="218" Value="G#2" Duration="8" Instrument="CV Snare1"
			Pattern Name="Drum4"
				Note Time="15" Value="G#2" Duration="8" Instrument="CV Snare1"
				Note Time="43" Value="G#2" Duration="8" Instrument="CV Snare1"
				Note Time="71" Value="G#2" Duration="8" Instrument="CV Snare1"
				Note Time="99" Value="G#2" Duration="6" Instrument="CV Snare1"
				Note Time="106" Value="G#2" Duration="8" Instrument="CV Snare1"
				Note Time="127" Value="G#2" Duration="8" Instrument="CV Snare1"
				Note Time="155" Value="G#2" Duration="8" Instrument="CV Snare1"
				Note Time="183" Value="G#2" Duration="6" Instrument="CV Snare1"
				Note Time="190" Value="G#2" Duration="8" Instrument="CV Snare1"
				Note Time="204" Value="G#2" Duration="6" Instrument="CV Snare1"
				Note Time="211" Value="G#2" Duration="6" Instrument="CV Snare1"
				Note Time="218" Value="G#2" Duration="8" Instrument="CV Snare1"
			Pattern Name="Intro3"
				Note Time="15" Value="F3" Duration="4" Instrument="CV Snare2"
				Note Time="22" Value="F3" Duration="4" Instrument="CV Snare2"
				Note Time="43" Value="F3" Duration="4" Instrument="CV Snare2"
				Note Time="50" Value="F3" Duration="4" Instrument="CV Snare2"
				Note Time="57" Value="F3" Duration="4" Instrument="CV Snare2"
				Note Time="71" Value="F3" Duration="4" Instrument="CV Snare2"
				Note Time="78" Value="F3" Duration="4" Instrument="CV Snare2"
				Note Time="99" Value="F3" Duration="4" Instrument="CV Snare2"
				Note Time="106" Value="F3" Duration="4" Instrument="CV Snare2"
				Note Time="113" Value="F3" Duration="4" Instrument="CV Snare2"
				Note Time="127" Value="F3" Duration="4" Instrument="CV Snare2"
				Note Time="134" Value="F3" Duration="4" Instrument="CV Snare2"
				Note Time="155" Value="F3" Duration="4" Instrument="CV Snare2"
				Note Time="162" Value="F3" Duration="4" Instrument="CV Snare2"
				Note Time="169" Value="F3" Duration="4" Instrument="CV Snare2"
				Note Time="183" Value="F3" Duration="4" Instrument="CV Snare2"
				Note Time="190" Value="F3" Duration="4" Instrument="CV Snare2"
				Note Time="211" Value="G#2" Duration="8" Instrument="CV Snare1"
			Pattern Name="Intro4"
				Note Time="15" Value="F3" Duration="4" Instrument="CV Snare2"
				Note Time="22" Value="F3" Duration="4" Instrument="CV Snare2"
				Note Time="43" Value="F3" Duration="4" Instrument="CV Snare2"
				Note Time="50" Value="F3" Duration="4" Instrument="CV Snare2"
				Note Time="57" Value="F3" Duration="4" Instrument="CV Snare2"
				Note Time="71" Value="F3" Duration="4" Instrument="CV Snare2"
				Note Time="78" Value="F3" Duration="4" Instrument="CV Snare2"
				Note Time="99" Value="F3" Duration="4" Instrument="CV Snare2"
				Note Time="106" Value="F3" Duration="4" Instrument="CV Snare2"
				Note Time="113" Value="F3" Duration="4" Instrument="CV Snare2"
				Note Time="127" Value="F3" Duration="4" Instrument="CV Snare2"
				Note Time="134" Value="F3" Duration="4" Instrument="CV Snare2"
				Note Time="155" Value="F3" Duration="4" Instrument="CV Snare2"
				Note Time="162" Value="F3" Duration="4" Instrument="CV Snare2"
				Note Time="169" Value="F3" Duration="4" Instrument="CV Snare2"
				Note Time="197" Value="G#2" Duration="8" Instrument="CV Snare1"
				Note Time="211" Value="G#2" Duration="6" Instrument="CV Snare1"
				Note Time="218" Value="G#2" Duration="6" Instrument="CV Snare1"
			PatternInstance Time="0" Pattern="Intro1"
			PatternInstance Time="1" Pattern="Intro2"
			PatternInstance Time="2" Pattern="Drum1"
			PatternInstance Time="3" Pattern="Drum1"
			PatternInstance Time="4" Pattern="Drum1"
			PatternInstance Time="5" Pattern="Drum2"
			PatternInstance Time="6" Pattern="Drum3"
			PatternInstance Time="7" Pattern="Drum4"
			PatternInstance Time="8" Pattern="Intro3"
			PatternInstance Time="9" Pattern="Intro4"
		Channel Type="DPCM"
			Pattern Name="Intro1"
				Note Time="0" Value="C1" Duration="112"
				Note Time="112" Value="C1" Duration="56"
				Note Time="168" Value="C1" Duration="28"
				Note Time="196" Value="C#1" Duration="28"
			Pattern Name="Intro2"
				Note Time="0" Value="C1" Duration="112"
				Note Time="112" Value="C1" Duration="56"
				Note Time="168" Value="C1" Duration="28"
				Note Time="196" Value="C#1" Duration="14"
				Note Time="210" Value="C#1" Duration="7"
				Note Time="217" Value="C#1" Duration="7"
			Pattern Name="Drum1"
				Note Time="0" Value="C1" Duration="14"
				Note Time="14" Value="C#1" Duration="7"
				Note Time="21" Value="C1" Duration="14"
				Note Time="35" Value="C1" Duration="7"
				Note Time="42" Value="C#1" Duration="14"
				Note Time="56" Value="C1" Duration="14"
				Note Time="70" Value="C#1" Duration="14"
				Note Time="84" Value="C1" Duration="7"
				Note Time="91" Value="C1" Duration="7"
				Note Time="98" Value="C#1" Duration="14"
				Note Time="112" Value="C1" Duration="14"
				Note Time="126" Value="C#1" Duration="7"
				Note Time="133" Value="C1" Duration="14"
				Note Time="147" Value="C1" Duration="7"
				Note Time="154" Value="C#1" Duration="14"
				Note Time="168" Value="C1" Duration="14"
				Note Time="182" Value="C#1" Duration="14"
				Note Time="196" Value="C1" Duration="7"
				Note Time="203" Value="C1" Duration="7"
				Note Time="210" Value="C#1" Duration="7"
				Note Time="217" Value="C#1" Duration="7"
			Pattern Name="Drum2"
				Note Time="0" Value="C1" Duration="14"
				Note Time="14" Value="C#1" Duration="7"
				Note Time="21" Value="C1" Duration="14"
				Note Time="35" Value="C1" Duration="7"
				Note Time="42" Value="C#1" Duration="14"
				Note Time="56" Value="C1" Duration="14"
				Note Time="70" Value="C#1" Duration="14"
				Note Time="84" Value="C1" Duration="7"
				Note Time="91" Value="C1" Duration="7"
				Note Time="98" Value="C#1" Duration="14"
				Note Time="112" Value="C1" Duration="14"
				Note Time="126" Value="C#1" Duration="7"
				Note Time="133" Value="C1" Duration="14"
				Note Time="147" Value="C1" Duration="7"
				Note Time="154" Value="C#1" Duration="14"
				Note Time="168" Value="C1" Duration="14"
				Note Time="182" Value="C#1" Duration="14"
				Note Time="196" Value="C1" Duration="14"
				Note Time="210" Value="C#1" Duration="7"
				Note Time="217" Value="C#1" Duration="7"
			Pattern Name="Drum3"
				Note Time="0" Value="C1" Duration="14"
				Note Time="14" Value="C#1" Duration="7"
				Note Time="21" Value="C1" Duration="14"
				Note Time="35" Value="C1" Duration="7"
				Note Time="42" Value="C#1" Duration="14"
				Note Time="56" Value="C1" Duration="14"
				Note Time="70" Value="C#1" Duration="14"
				Note Time="84" Value="C1" Duration="7"
				Note Time="91" Value="C1" Duration="7"
				Note Time="98" Value="C#1" Duration="14"
				Note Time="112" Value="C1" Duration="14"
				Note Time="126" Value="C#1" Duration="7"
				Note Time="133" Value="C1" Duration="14"
				Note Time="147" Value="C1" Duration="7"
				Note Time="154" Value="C#1" Duration="7"
				Note Time="161" Value="C#1" Duration="7"
				Note Time="168" Value="C1" Duration="14"
				Note Time="182" Value="C1" Duration="7"
				Note Time="189" Value="C#1" Duration="7"
				Note Time="196" Value="C1" Duration="7"
				Note Time="203" Value="C#1" Duration="7"
				Note Time="210" Value="C#1" Duration="7"
				Note Time="217" Value="C#1" Duration="7"
			Pattern Name="Drum4"
				Note Time="0" Value="C1" Duration="14"
				Note Time="14" Value="C#1" Duration="7"
				Note Time="21" Value="C1" Duration="14"
				Note Time="35" Value="C1" Duration="7"
				Note Time="42" Value="C#1" Duration="14"
				Note Time="56" Value="C1" Duration="14"
				Note Time="70" Value="C#1" Duration="7"
				Note Time="77" Value="C1" Duration="14"
				Note Time="91" Value="C1" Duration="7"
				Note Time="98" Value="C#1" Duration="7"
				Note Time="105" Value="C#1" Duration="7"
				Note Time="112" Value="C1" Duration="14"
				Note Time="126" Value="C#1" Duration="7"
				Note Time="133" Value="C1" Duration="14"
				Note Time="147" Value="C1" Duration="7"
				Note Time="154" Value="C#1" Duration="14"
				Note Time="168" Value="C1" Duration="14"
				Note Time="182" Value="C#1" Duration="7"
				Note Time="189" Value="C1" Duration="14"
				Note Time="203" Value="C1" Duration="7"
				Note Time="210" Value="C#1" Duration="7"
				Note Time="217" Value="C#1" Duration="7"
			Pattern Name="Drum5"
				Note Time="0" Value="C1" Duration="14"
				Note Time="14" Value="C#1" Duration="7"
				Note Time="21" Value="C1" Duration="14"
				Note Time="35" Value="C1" Duration="7"
				Note Time="42" Value="C#1" Duration="14"
				Note Time="56" Value="C1" Duration="14"
				Note Time="70" Value="C#1" Duration="7"
				Note Time="77" Value="C1" Duration="14"
				Note Time="91" Value="C1" Duration="7"
				Note Time="98" Value="C#1" Duration="7"
				Note Time="105" Value="C#1" Duration="7"
				Note Time="112" Value="C1" Duration="14"
				Note Time="126" Value="C#1" Duration="7"
				Note Time="133" Value="C1" Duration="14"
				Note Time="147" Value="C1" Duration="7"
				Note Time="154" Value="C#1" Duration="7"
				Note Time="161" Value="C1" Duration="14"
				Note Time="175" Value="C1" Duration="7"
				Note Time="182" Value="C#1" Duration="7"
				Note Time="189" Value="C#1" Duration="7"
				Note Time="196" Value="C1" Duration="7"
				Note Time="203" Value="C#1" Duration="7"
				Note Time="210" Value="C#1" Duration="7"
				Note Time="217" Value="C#1" Duration="7"
			Pattern Name="Intro3"
				Note Time="0" Value="C1" Duration="28"
				Note Time="28" Value="C1" Duration="56"
				Note Time="84" Value="C1" Duration="56"
				Note Time="140" Value="C1" Duration="56"
				Note Time="196" Value="C1" Duration="14"
				Note Time="210" Value="C#1" Duration="14"
			Pattern Name="Intro4"
				Note Time="0" Value="C1" Duration="28"
				Note Time="28" Value="C1" Duration="56"
				Note Time="84" Value="C1" Duration="56"
				Note Time="140" Value="C1" Duration="42"
				Note Time="182" Value="C1" Duration="7"
				Note Time="189" Value="C1" Duration="7"
				Note Time="196" Value="C#1" Duration="14"
				Note Time="210" Value="C#1" Duration="7"
				Note Time="217" Value="C#1" Duration="7"
			PatternInstance Time="0" Pattern="Intro1"
			PatternInstance Time="1" Pattern="Intro2"
			PatternInstance Time="2" Pattern="Drum1"
			PatternInstance Time="3" Pattern="Drum1"
			PatternInstance Time="4" Pattern="Drum2"
			PatternInstance Time="5" Pattern="Drum3"
			PatternInstance Time="6" Pattern="Drum4"
			PatternInstance Time="7" Pattern="Drum5"
			PatternInstance Time="8" Pattern="Intro3"
			PatternInstance Time="9" Pattern="Intro4"
