Project Version="3.1.1" TempoMode="FamiStudio" Name="New Project" Author="mcgrew" Copyright="2021"
	DPCMSample Name="BM Tom 2" Data="a5aaaa5a5ffff5100000000fffffff2fa00fff5f000f50000010f00002dffffffd50a50eefa5efffffff0002a5000000005001adfffffffffe251105dad52dfd52510000005a02e5ef25daeffffffdaa51aa20005efa055d001010ee50deaaeeaeffeeeff52d5525220112505555502d11155aadeddffeedee55d515aaa11222111152a5255fa1ea522ad55affdfffd512ed51225010101512a5d52aef55ded2ad55a52efdefd555512252222501222522dddd2daeedddaddda2aaaa5addd555111002512512aad2aeaaafdadafedaddae50a52aa512eadaa5000212a2aadadaeedaedaefd5555aada52522ad25102ad55da000555aaadddafdeedaddad525512aaa5115122a52ea255555a512aadafdddafdd5a5555aaaa2122522222aa55ad2aad5adad552d555afefd5ad52a225555122251252aa52aaadaddadadad2daaaad55ded55aa5251111125225a5555aaad555ddadaedaaadaaaa55555aad525122511111adaa5555adaddadad5aedad555aa51252d55552a5251111252ad5aeedaed5ad5daaad5aeaaa55252551252aa555252a55225aad5dafddddaaad52d5aa52a525252555252552aaaaaa55555555aeeeeedaed552a552552a525251525252aaadaad5aad5552dadaadadddad5aa525251122552aa55255552ad555adddad5aadaaaa55aadad55255525112252555"
	DPCMSample Name="NG Bass Drum" Data="9a719699a3699699f9889d9b99cd66dacab0b344cb711c833cf8070001f807c01fc00342f687185ff3a5eb3f93dfbfe4bdf97d8bb737f37c9cf91ca5139766996a54624449c1129178046a3202330b461a9391615a145b2699cc64e51695ab95e31c6b99cbcb99e669d66c369bcba939dbb872b95c4e2da793e5a9e1cc65b15a5539a9b552ab5255995956e5645a5959665655555599558e656999b29c2c479333d5545559a6a6cac9d44c5699e5a89acaaa2653d358a5a92c4d65a93295c5cc94a92a5395692acb325355d53835d5d2acaa6596abd4ac955935abaa5655b5aaaa5a5535abaa6a565555b5aaaa9aa965595555555555555555559665666aaaaa"
	DPCMMapping Note="D1" Sample="BM Tom 2" Pitch="15" Loop="False"
	DPCMMapping Note="D#1" Sample="BM Tom 2" Pitch="14" Loop="False"
	DPCMMapping Note="E1" Sample="BM Tom 2" Pitch="12" Loop="False"
	DPCMMapping Note="F1" Sample="NG Bass Drum" Pitch="15" Loop="False"
	Instrument Name="NP Lead1 B"
		Envelope Type="Volume" Length="45" Loop="8" Release="9" Values="15,13,11,10,9,8,7,6,6,4,3,2,1,0,0,0,0,0,2,4,6,5,4,3,2,1,0,0,1,3,5,4,3,2,1,0,0,0,0,2,4,3,2,1,0"
		Envelope Type="DutyCycle" Length="1" Values="1"
	Instrument Name="NP NoiseCrash"
		Envelope Type="Volume" Length="30" Values="8,9,10,10,10,9,9,8,8,7,7,6,6,5,5,5,4,4,4,3,3,3,2,2,2,2,1,1,1,0"
	Instrument Name="NP NoiseHiHat"
		Envelope Type="Volume" Length="6" Values="5,4,3,2,1,0"
	Instrument Name="NP Rhythm 1"
		Envelope Type="Volume" Length="4" Values="9,7,5,4"
		Envelope Type="DutyCycle" Length="1" Values="1"
	Instrument Name="NP Rhythm 1 Mute"
		Envelope Type="Volume" Length="11" Values="14,13,11,9,7,3,3,2,2,1,0"
		Envelope Type="DutyCycle" Length="1" Values="1"
	Instrument Name="NP Tri"
	Song Name="Danger and Determination" Length="24" LoopPoint="0" PatternLength="16" BeatLength="4" NoteLength="10" Groove="10" GroovePaddingMode="Middle"
		Channel Type="Square1"
			Pattern Name="Pattern 1"
				Note Time="0" Value="B1" Duration="20" Instrument="NP Rhythm 1"
				Note Time="20" Value="B1" Duration="10" Instrument="NP Rhythm 1 Mute"
				Note Time="30" Value="B1" Duration="10" Instrument="NP Rhythm 1 Mute"
				Note Time="40" Value="B1" Duration="10" Instrument="NP Rhythm 1 Mute"
				Note Time="50" Value="B1" Duration="10" Instrument="NP Rhythm 1 Mute"
				Note Time="60" Value="B1" Duration="10" Instrument="NP Rhythm 1 Mute"
				Note Time="70" Value="B1" Duration="30" Instrument="NP Rhythm 1"
				Note Time="100" Value="B1" Duration="10" Instrument="NP Rhythm 1 Mute"
				Note Time="110" Value="B1" Duration="10" Instrument="NP Rhythm 1 Mute"
				Note Time="120" Value="B1" Duration="10" Instrument="NP Rhythm 1 Mute"
				Note Time="130" Value="B1" Duration="10" Instrument="NP Rhythm 1 Mute"
				Note Time="140" Value="B1" Duration="10" Instrument="NP Rhythm 1 Mute"
				Note Time="150" Value="B1" Duration="30" Instrument="NP Rhythm 1"
			Pattern Name="Pattern 2"
				Note Time="20" Value="B1" Duration="10" Instrument="NP Rhythm 1 Mute"
				Note Time="30" Value="B1" Duration="10" Instrument="NP Rhythm 1 Mute"
				Note Time="40" Value="B1" Duration="10" Instrument="NP Rhythm 1 Mute"
				Note Time="50" Value="B1" Duration="10" Instrument="NP Rhythm 1 Mute"
				Note Time="60" Value="B1" Duration="10" Instrument="NP Rhythm 1 Mute"
				Note Time="70" Value="A2" Duration="20" Instrument="NP Rhythm 1"
				Note Time="90" Value="G2" Duration="20" Instrument="NP Rhythm 1"
				Note Time="110" Value="F#2" Duration="20" Instrument="NP Rhythm 1"
				Note Time="130" Value="D2" Duration="30" Instrument="NP Rhythm 1"
			PatternInstance Time="0" Pattern="Pattern 1"
			PatternInstance Time="1" Pattern="Pattern 2"
			PatternInstance Time="2" Pattern="Pattern 1"
			PatternInstance Time="3" Pattern="Pattern 2"
			PatternInstance Time="4" Pattern="Pattern 1"
			PatternInstance Time="5" Pattern="Pattern 2"
			PatternInstance Time="6" Pattern="Pattern 1"
			PatternInstance Time="7" Pattern="Pattern 2"
			PatternInstance Time="8" Pattern="Pattern 1"
			PatternInstance Time="9" Pattern="Pattern 2"
			PatternInstance Time="10" Pattern="Pattern 1"
			PatternInstance Time="11" Pattern="Pattern 2"
			PatternInstance Time="12" Pattern="Pattern 1"
			PatternInstance Time="13" Pattern="Pattern 2"
			PatternInstance Time="14" Pattern="Pattern 1"
			PatternInstance Time="15" Pattern="Pattern 2"
			PatternInstance Time="16" Pattern="Pattern 1"
			PatternInstance Time="17" Pattern="Pattern 2"
			PatternInstance Time="18" Pattern="Pattern 1"
			PatternInstance Time="19" Pattern="Pattern 2"
			PatternInstance Time="20" Pattern="Pattern 1"
			PatternInstance Time="21" Pattern="Pattern 2"
			PatternInstance Time="22" Pattern="Pattern 1"
			PatternInstance Time="23" Pattern="Pattern 2"
		Channel Type="Square2"
			Pattern Name="Pattern 1"
				Note Time="0" Value="E1" Duration="20" Instrument="NP Rhythm 1"
				Note Time="20" Value="E1" Duration="10" Instrument="NP Rhythm 1 Mute"
				Note Time="30" Value="E1" Duration="10" Instrument="NP Rhythm 1 Mute"
				Note Time="40" Value="E1" Duration="10" Instrument="NP Rhythm 1 Mute"
				Note Time="50" Value="E1" Duration="10" Instrument="NP Rhythm 1 Mute"
				Note Time="60" Value="E1" Duration="10" Instrument="NP Rhythm 1 Mute"
				Note Time="70" Value="E1" Duration="30" Instrument="NP Rhythm 1"
				Note Time="100" Value="E1" Duration="10" Instrument="NP Rhythm 1 Mute"
				Note Time="110" Value="E1" Duration="10" Instrument="NP Rhythm 1 Mute"
				Note Time="120" Value="E1" Duration="10" Instrument="NP Rhythm 1 Mute"
				Note Time="130" Value="E1" Duration="10" Instrument="NP Rhythm 1 Mute"
				Note Time="140" Value="E1" Duration="10" Instrument="NP Rhythm 1 Mute"
				Note Time="150" Value="E1" Duration="30" Instrument="NP Rhythm 1"
			Pattern Name="Pattern 2"
				Note Time="20" Value="E1" Duration="10" Instrument="NP Rhythm 1 Mute"
				Note Time="30" Value="E1" Duration="10" Instrument="NP Rhythm 1 Mute"
				Note Time="40" Value="E1" Duration="10" Instrument="NP Rhythm 1 Mute"
				Note Time="50" Value="E1" Duration="10" Instrument="NP Rhythm 1 Mute"
				Note Time="60" Value="E1" Duration="10" Instrument="NP Rhythm 1 Mute"
				Note Time="70" Value="D2" Duration="20" Instrument="NP Rhythm 1"
				Note Time="90" Value="C2" Duration="20" Instrument="NP Rhythm 1"
				Note Time="110" Value="B1" Duration="20" Instrument="NP Rhythm 1"
				Note Time="130" Value="G1" Duration="30" Instrument="NP Rhythm 1"
			Pattern Name="Pattern 3"
				Note Time="0" Value="E3" Duration="40" Instrument="NP Lead1 B"
				Note Time="40" Value="G3" Duration="10" Instrument="NP Lead1 B"
				Note Time="50" Value="A3" Duration="10" Instrument="NP Lead1 B"
				Note Time="60" Value="B3" Duration="10" Instrument="NP Lead1 B"
				Note Time="70" Value="A3" Duration="20" Instrument="NP Lead1 B"
				Note Time="90" Value="G3" Duration="20" Instrument="NP Lead1 B"
				Note Time="110" Value="F#3" Duration="20" Instrument="NP Lead1 B"
				Note Time="130" Value="E3" Duration="20" Instrument="NP Lead1 B"
				Note Time="150" Value="D3" Duration="20" Instrument="NP Lead1 B"
			Pattern Name="Pattern 6"
				Note Time="10" Value="D3" Duration="30" Instrument="NP Lead1 B"
				Note Time="40" Value="C3" Duration="20" Instrument="NP Lead1 B"
				Note Time="60" Value="C3" Duration="10" Instrument="NP Lead1 B"
				Note Time="70" Value="E3" Duration="90" Release="20" Instrument="NP Lead1 B"
			Pattern Name="Pattern 7"
				Note Time="0" Value="E3" Duration="40" Instrument="NP Lead1 B"
				Note Time="40" Value="B3" Duration="20" Instrument="NP Lead1 B"
				Note Time="60" Value="A3" Duration="10" Instrument="NP Lead1 B"
				Note Time="70" Value="G3" Duration="20" Instrument="NP Lead1 B"
				Note Time="90" Value="F#3" Duration="20" Instrument="NP Lead1 B"
				Note Time="110" Value="G3" Duration="20" Instrument="NP Lead1 B"
				Note Time="130" Value="A3" Duration="30" Instrument="NP Lead1 B"
			Pattern Name="Pattern 8"
				Note Time="0" Value="F#3" Duration="20" Instrument="NP Lead1 B"
				Note Time="20" Value="F#3" Duration="10" Instrument="NP Lead1 B"
				Note Time="30" Value="F#3" Duration="10" Instrument="NP Lead1 B"
				Note Time="40" Value="D3" Duration="20" Instrument="NP Lead1 B"
				Note Time="60" Value="D3" Duration="10" Instrument="NP Lead1 B"
				Note Time="70" Value="E3" Duration="90" Release="20" Instrument="NP Lead1 B"
			Pattern Name="Pattern 4"
				Note Time="0" Value="B3" Duration="40" Release="10" Instrument="NP Lead1 B"
				Note Time="40" Value="A3" Duration="40" Release="10" Instrument="NP Lead1 B"
				Note Time="80" Value="G3" Duration="40" Release="10" Instrument="NP Lead1 B"
				Note Time="120" Value="D3" Duration="20" Instrument="NP Lead1 B"
				Note Time="140" Value="E3" Duration="20" Instrument="NP Lead1 B"
			Pattern Name="Pattern 5"
				Note Time="0" Value="G3" Duration="20" Instrument="NP Lead1 B"
				Note Time="20" Value="A3" Duration="30" Release="10" Instrument="NP Lead1 B"
				Note Time="50" Value="D3" Duration="20" Release="10" Instrument="NP Lead1 B"
				Note Time="70" Value="D3" Duration="90" Release="20" Instrument="NP Lead1 B"
			Pattern Name="Pattern 9"
				Note Time="0" Value="G3" Duration="40" Release="10" Instrument="NP Lead1 B"
				Note Time="40" Value="C3" Duration="20" Release="10" Instrument="NP Lead1 B"
				Note Time="60" Value="C3" Duration="80" Release="20" Instrument="NP Lead1 B"
				Note Time="140" Value="G2" Duration="10" Instrument="NP Lead1 B"
				Note Time="150" Value="A2" Duration="20" Instrument="NP Lead1 B"
			Pattern Name="Pattern 10"
				Note Time="10" Value="C3" Duration="20" Instrument="NP Lead1 B"
				Note Time="30" Value="D3" Duration="20" Instrument="NP Lead1 B"
				Note Time="50" Value="E3" Duration="20" Instrument="NP Lead1 B"
				Note Time="70" Value="D3" Duration="90" Release="20" Instrument="NP Lead1 B"
			Pattern Name="Pattern 11"
				Note Time="10" Value="C3" Duration="20" Instrument="NP Lead1 B"
				Note Time="30" Value="G3" Duration="20" Instrument="NP Lead1 B"
				Note Time="50" Value="E3" Duration="20" Instrument="NP Lead1 B"
				Note Time="70" Value="D3" Duration="90" Release="20" Instrument="NP Lead1 B"
			PatternInstance Time="0" Pattern="Pattern 1"
			PatternInstance Time="1" Pattern="Pattern 2"
			PatternInstance Time="2" Pattern="Pattern 1"
			PatternInstance Time="3" Pattern="Pattern 2"
			PatternInstance Time="4" Pattern="Pattern 3"
			PatternInstance Time="5" Pattern="Pattern 6"
			PatternInstance Time="6" Pattern="Pattern 7"
			PatternInstance Time="7" Pattern="Pattern 8"
			PatternInstance Time="8" Pattern="Pattern 3"
			PatternInstance Time="9" Pattern="Pattern 6"
			PatternInstance Time="10" Pattern="Pattern 7"
			PatternInstance Time="11" Pattern="Pattern 8"
			PatternInstance Time="12" Pattern="Pattern 1"
			PatternInstance Time="13" Pattern="Pattern 2"
			PatternInstance Time="14" Pattern="Pattern 1"
			PatternInstance Time="15" Pattern="Pattern 2"
			PatternInstance Time="16" Pattern="Pattern 4"
			PatternInstance Time="17" Pattern="Pattern 5"
			PatternInstance Time="18" Pattern="Pattern 9"
			PatternInstance Time="19" Pattern="Pattern 10"
			PatternInstance Time="20" Pattern="Pattern 4"
			PatternInstance Time="21" Pattern="Pattern 5"
			PatternInstance Time="22" Pattern="Pattern 9"
			PatternInstance Time="23" Pattern="Pattern 11"
		Channel Type="Triangle"
			Pattern Name="Pattern 1"
				Note Time="0" Value="E2" Duration="19" Instrument="NP Tri"
				Note Time="20" Value="E2" Duration="4" Instrument="NP Tri"
				Note Time="30" Value="E2" Duration="4" Instrument="NP Tri"
				Note Time="40" Value="E2" Duration="4" Instrument="NP Tri"
				Note Time="50" Value="E2" Duration="4" Instrument="NP Tri"
				Note Time="60" Value="E2" Duration="4" Instrument="NP Tri"
				Note Time="70" Value="E2" Duration="29" Instrument="NP Tri"
				Note Time="100" Value="E2" Duration="4" Instrument="NP Tri"
				Note Time="110" Value="E2" Duration="4" Instrument="NP Tri"
				Note Time="120" Value="E2" Duration="4" Instrument="NP Tri"
				Note Time="130" Value="E2" Duration="4" Instrument="NP Tri"
				Note Time="140" Value="E2" Duration="5" Instrument="NP Tri"
				Note Time="150" Value="E2" Duration="29" Instrument="NP Tri"
			Pattern Name="Pattern 2"
				Note Time="20" Value="E2" Duration="4" Instrument="NP Tri"
				Note Time="30" Value="E2" Duration="4" Instrument="NP Tri"
				Note Time="40" Value="E2" Duration="4" Instrument="NP Tri"
				Note Time="50" Value="E2" Duration="4" Instrument="NP Tri"
				Note Time="60" Value="E2" Duration="4" Instrument="NP Tri"
				Note Time="70" Value="D3" Duration="20" Instrument="NP Tri"
				Note Time="90" Value="C3" Duration="20" Instrument="NP Tri"
				Note Time="110" Value="B2" Duration="20" Instrument="NP Tri"
				Note Time="130" Value="G2" Duration="29" Instrument="NP Tri"
			PatternInstance Time="0" Pattern="Pattern 1"
			PatternInstance Time="1" Pattern="Pattern 2"
			PatternInstance Time="2" Pattern="Pattern 1"
			PatternInstance Time="3" Pattern="Pattern 2"
			PatternInstance Time="4" Pattern="Pattern 1"
			PatternInstance Time="5" Pattern="Pattern 2"
			PatternInstance Time="6" Pattern="Pattern 1"
			PatternInstance Time="7" Pattern="Pattern 2"
			PatternInstance Time="8" Pattern="Pattern 1"
			PatternInstance Time="9" Pattern="Pattern 2"
			PatternInstance Time="10" Pattern="Pattern 1"
			PatternInstance Time="11" Pattern="Pattern 2"
			PatternInstance Time="12" Pattern="Pattern 1"
			PatternInstance Time="13" Pattern="Pattern 2"
			PatternInstance Time="14" Pattern="Pattern 1"
			PatternInstance Time="15" Pattern="Pattern 2"
			PatternInstance Time="16" Pattern="Pattern 1"
			PatternInstance Time="17" Pattern="Pattern 2"
			PatternInstance Time="18" Pattern="Pattern 1"
			PatternInstance Time="19" Pattern="Pattern 2"
			PatternInstance Time="20" Pattern="Pattern 1"
			PatternInstance Time="21" Pattern="Pattern 2"
			PatternInstance Time="22" Pattern="Pattern 1"
			PatternInstance Time="23" Pattern="Pattern 2"
		Channel Type="Noise"
			Pattern Name="Pattern 1"
				Note Time="0" Value="C2" Duration="10" Instrument="NP NoiseHiHat"
				Note Time="10" Value="C2" Duration="10" Instrument="NP NoiseHiHat"
				Note Time="20" Value="C2" Duration="10" Instrument="NP NoiseHiHat"
				Note Time="30" Value="C2" Duration="10" Instrument="NP NoiseHiHat"
				Note Time="40" Value="C2" Duration="10" Instrument="NP NoiseHiHat"
				Note Time="50" Value="C2" Duration="10" Instrument="NP NoiseHiHat"
				Note Time="60" Value="C2" Duration="10" Instrument="NP NoiseHiHat"
				Note Time="70" Value="C2" Duration="10" Instrument="NP NoiseHiHat"
				Note Time="80" Value="C2" Duration="10" Instrument="NP NoiseHiHat"
				Note Time="90" Value="C2" Duration="10" Instrument="NP NoiseHiHat"
				Note Time="100" Value="C2" Duration="10" Instrument="NP NoiseHiHat"
				Note Time="110" Value="C2" Duration="10" Instrument="NP NoiseHiHat"
				Note Time="120" Value="C2" Duration="10" Instrument="NP NoiseHiHat"
				Note Time="130" Value="C2" Duration="10" Instrument="NP NoiseHiHat"
				Note Time="140" Value="C2" Duration="10" Instrument="NP NoiseHiHat"
				Note Time="150" Value="C2" Duration="10" Instrument="NP NoiseHiHat"
			Pattern Name="Pattern 2"
				Note Time="0" Value="C2" Duration="10" Instrument="NP NoiseHiHat"
				Note Time="10" Value="C2" Duration="10" Instrument="NP NoiseHiHat"
				Note Time="20" Value="C2" Duration="10" Instrument="NP NoiseHiHat"
				Note Time="30" Value="C2" Duration="10" Instrument="NP NoiseHiHat"
				Note Time="40" Value="C2" Duration="10" Instrument="NP NoiseHiHat"
				Note Time="50" Value="C2" Duration="10" Instrument="NP NoiseHiHat"
				Note Time="60" Value="C2" Duration="10" Instrument="NP NoiseHiHat"
				Note Time="70" Value="C2" Duration="10" Instrument="NP NoiseHiHat"
				Note Time="80" Value="C2" Duration="10" Instrument="NP NoiseHiHat"
				Note Time="90" Value="C2" Duration="10" Instrument="NP NoiseHiHat"
				Note Time="100" Value="C2" Duration="10" Instrument="NP NoiseHiHat"
				Note Time="110" Value="C2" Duration="5" Instrument="NP NoiseHiHat"
				Note Time="115" Value="C2" Duration="5" Instrument="NP NoiseHiHat"
				Note Time="120" Value="C2" Duration="10" Instrument="NP NoiseHiHat"
				Note Time="130" Value="C#2" Duration="20" Instrument="NP NoiseCrash"
				Note Time="150" Value="C2" Duration="10" Instrument="NP NoiseHiHat"
			PatternInstance Time="0" Pattern="Pattern 1"
			PatternInstance Time="1" Pattern="Pattern 1"
			PatternInstance Time="2" Pattern="Pattern 1"
			PatternInstance Time="3" Pattern="Pattern 1"
			PatternInstance Time="4" Pattern="Pattern 1"
			PatternInstance Time="5" Pattern="Pattern 1"
			PatternInstance Time="6" Pattern="Pattern 1"
			PatternInstance Time="7" Pattern="Pattern 2"
			PatternInstance Time="8" Pattern="Pattern 1"
			PatternInstance Time="9" Pattern="Pattern 1"
			PatternInstance Time="10" Pattern="Pattern 1"
			PatternInstance Time="11" Pattern="Pattern 2"
			PatternInstance Time="12" Pattern="Pattern 1"
			PatternInstance Time="13" Pattern="Pattern 1"
			PatternInstance Time="14" Pattern="Pattern 1"
			PatternInstance Time="15" Pattern="Pattern 1"
			PatternInstance Time="16" Pattern="Pattern 1"
			PatternInstance Time="17" Pattern="Pattern 1"
			PatternInstance Time="18" Pattern="Pattern 1"
			PatternInstance Time="19" Pattern="Pattern 2"
			PatternInstance Time="20" Pattern="Pattern 1"
			PatternInstance Time="21" Pattern="Pattern 1"
			PatternInstance Time="22" Pattern="Pattern 1"
			PatternInstance Time="23" Pattern="Pattern 2"
		Channel Type="DPCM"
			Pattern Name="Pattern 1"
				Note Time="0" Value="F1" Duration="40"
				Note Time="40" Value="F1" Duration="40"
				Note Time="80" Value="F1" Duration="40"
				Note Time="120" Value="F1" Duration="40"
			Pattern Name="Pattern 3"
				Note Time="0" Value="F1" Duration="40"
				Note Time="40" Value="F1" Duration="40"
				Note Time="80" Value="F1" Duration="20"
				Note Time="100" Value="D1" Duration="10"
				Note Time="110" Value="D#1" Duration="5"
				Note Time="115" Value="D#1" Duration="5"
				Note Time="120" Value="E1" Duration="40"
			PatternInstance Time="0" Pattern="Pattern 1"
			PatternInstance Time="1" Pattern="Pattern 1"
			PatternInstance Time="2" Pattern="Pattern 1"
			PatternInstance Time="3" Pattern="Pattern 1"
			PatternInstance Time="4" Pattern="Pattern 1"
			PatternInstance Time="5" Pattern="Pattern 1"
			PatternInstance Time="6" Pattern="Pattern 1"
			PatternInstance Time="7" Pattern="Pattern 3"
			PatternInstance Time="8" Pattern="Pattern 1"
			PatternInstance Time="9" Pattern="Pattern 1"
			PatternInstance Time="10" Pattern="Pattern 1"
			PatternInstance Time="11" Pattern="Pattern 3"
			PatternInstance Time="12" Pattern="Pattern 1"
			PatternInstance Time="13" Pattern="Pattern 1"
			PatternInstance Time="14" Pattern="Pattern 1"
			PatternInstance Time="15" Pattern="Pattern 1"
			PatternInstance Time="16" Pattern="Pattern 1"
			PatternInstance Time="17" Pattern="Pattern 1"
			PatternInstance Time="18" Pattern="Pattern 1"
			PatternInstance Time="19" Pattern="Pattern 3"
			PatternInstance Time="20" Pattern="Pattern 1"
			PatternInstance Time="21" Pattern="Pattern 1"
			PatternInstance Time="22" Pattern="Pattern 1"
			PatternInstance Time="23" Pattern="Pattern 3"
