Project Version="3.1.1" TempoMode="FamiStudio"
	DPCMSample Name="Sample 1" Data="b50b505bff00f84fff0f000000ffbfa000ffff0b40ff00bf05ff00faffff00a808ff00fb0a5f000000f0ff450af4ffff00fb05faa5bf00f0ffff0f0005ff00af0faf000000f0ff0a0a70ffff07f0a7b057f40f00ffff0f0aa5f00ff005748f000000ff5fa800ffffb7007f087f85ff00f0ffff80b004f700f50ffb000000f0ff8504faffbf00fa077aa7f80f00ffff0f088bf00f50bf700b0000b0ff0f8850ffff0b50bf50774aff00f8ffff044044bf00ffa455000000bfff8440fbff4f807b455b4bfb0a50ffff8f0088fa04f4a7550a000040ff7f0874ffff08b4abaab55a4f40fbffff00805847a8b75a45000000f7ff45a0fbff8ba0b5aa55ab5b0a5affff0b80a0b54875b5a5080000f0ff578474ff5f8a54b55a55bb4a547bff5f848054a5b45aab440000a0f77f45a4f7774b4a55ab555baba4b4f7ff8a08a8a454abb54a080000f5f7aba4ba7b57a5aaaa5ab5b5a4aaf57f5744444a4ab55a550a0800a8775f555a77b755aaaaaa555b4baabafbbb4a44a4a454ab554504084075775b555b77abaaaaaa55b555a55a7bbf554aa4444ab55aa5880008aa5bb7aab55b57abaaaa5a555b55aa75f7b54a4a4aa44aabaa8a808048b575b5b5b55bb5aaaaaa55ab55a5b5755faba4a444aaaaaa4a440888aab5555b5bb755abaaaa55b55a555abb5b57554a4a54aaaa4a8a0884a455abb5b55b5b55abaa5a55ab5555b5bbb5554aa5a4a4aa4aa58880a454ab5a5bbbb555b5aa5a55b55a5555b75babaa544a4aaaaaa4444448aaaa5ab5755b5b55abaa55b5aa55555bbbb5aa4a4aaaa4aa548a8488a4aaaa55bbb5b555b5aa5a55ab5a55b5755bab4aa5a44aaa4a4a8a8848a5aa555b5b5b5b55abaa55b5aa5555bbb55555a54aaaa4aaa444a488545555b5b5b5b555abaa5a55ab5a555b5b5b5555aaa454aa548a44a4a85455b55ab7555bb5aa5a55abaa55b5b5b55555aa544aa54a4a8a448a4a55555b5b5bab55abaa55b5aa5a555b5bab55aa4aaa54aaa4448a44a54a55abb5b5b55ab5aa5a55ab5a55abb5b5aaaa4aa54aa5548a448a54aa54b5555b5bab55ab5a55b5aa55b5b55aabaaaa54aaa44a4a8a444aa5aab45a5b5bb55ab5aa55b5aa5a555b5bb5aaaa54aa54aaa4a448a454aaaaaab5b5555b55ab5a55ab5a55abb555abaa4aa54aa54a8aa4484aa5aaaab5555bab55abaa55abaa55b55a5b55ab4a55aa544a4a4aa4a454aaaa555babb55ab5aa55b5aa5a555bb555b54a55aa54aaa4a4484a4aa5aa5aabb555ab55ab5a55ab5a55abb55a555555aa4aa5548aa444aa54aa5ab5b55aab55b55a55abaa55b55aab555555a54aa54a4a4aa4a44aa55ab55a5bb55ab5aa55b5aa55555bb55a5555a5aa54aaa4444a4aaa5455555bb555ab55ab5a55ab5a55ab55ab5555a5aa54a5a4a4a4a45aaaa5"
	DPCMSample Name="Sample 10" Data="140000f8ffffead6f5fbbf53550900402212bd5ddffe5f140a11282249a9e8a77bf9075ba51ec003e8857ba127f9097b5a19b96855a84251c15ef57fadabfe5611e91545a82e04da2454e8d7b1aacfd6467ba21ef181aae043e5813ee11f7c457ab041e9a1b6a4527e455ffa15aa5235215400a4aaffffef79feefa24e5f01a45404951305a187e7c01ffa577ea15fe8857f8117e8131ef993fe817ba149b0c05f90a4fc09e9ef7a056d151512100004b4ffffbfd7bf87cefe042cb401e8c005a02bb5a43dd82ffd41bfe88776920af802f6426b57652bc92b2a28ba1650975c22eebf2a5daa34c948a00040c9fff74b7f6b2dfd234baa0ba48a17d025f4489f68abf6aa2dfa0bfe24aaa8a8aaa0ad5abd2a5df425a052d54255ad22ddb6beaaaea4a24da2040800adfedbffe955f52bbfd00b94283592aa544a575525fd2abd56557d6a530ad5482d522dfa9eb4f42625a23e05aaaa15d895bdf65355c9aae0292a0008f468ff7d55fd977eda0fa88894a22aa24a555655b55afaaa7655f52a2d41ad505549faabe44afe9444b95254aa4a55897ae95fbd511bc5aa3a01109052edefd6beab76e9af5254515592122aa92ad116b59576b5575a6b4bd12aa91595925e5591fe5555a42529d1a6524556ea57eda65e45525b1512420449bb5fef6bbbeaeb5595945455159092aa5215b5aa5aeb17b5976a4b2569952a11bbaa0a7dabaa6a952c25156955a944afb5b5b72a2557554512019054adbfefd6eeaa5fb557489154494955a52aa455b4abbab54dedca2e49555505a96e457ca9abaa53555529aa4a2a8aaa56557f55556a55555521025449a9fd6d5d77d5ddad54a5525255a2a4a84a955a55b5da2bdaadae5255d512a95aa55455abb5aaaaaaaa285555a9a4aaaada6f55555555559584208952496ff76ddd56bfaa2a95aa92a8225589aaaa2ab56ab7546bd74a55ad522a5525555555dd555555555592958a542d2a5af753d5aaaaaaaa2a8902924aa5765fd7da57772b555329a58aaaa894aa2a55555b5555bfaaaa6a5555a5a452d592aaddaaaaaaaaa2554a52ad8aaad2adadd5aa545555554449441555badbb6eeb6ad5a5555555295524aa9aa52aa6a4d95baabaaaeaaaaaa524ad54a55b556b5aaaaaaaa4a925a5524a96aadbbaaaaaa55555594245194aab4ebb6bbaeba6a55559552554a92aa2a51b555a95aebaa56abaaaa2a55b12a5555adaaadaaaaaa2a15a53a15a94ad5eaae5555d5aaaa2a119144a4aada6eedb65bb5ad5555a992aa44559592d45aa9aa555b555b55555555a9554aa56a55b5abaaaaaa92aaaaaa444995eaaeb6aaaab5aa5615454424a9aaaa6dbb6d6d555badaa2a552aa9aa4a4a55555555b5aab56ab5aaaaaaaa2aaaaa2a55dbaaaaaaaa4aaaaaaa92a454d5b6d5aaaad6aaaaaa528a28a948555d77dbd656b5555555a9525529a95455aaaaaa6ab5aa555b555555554a5555aa5aadaa56555555aaaa2a494aa96a6d6d55555d5555552992a492aaa86a7dadadadd5aa56554a5595524a55a5aaaaaa5aabaa5657555555aaaaaaa4aa5655ad56555595aaaa2a294aa55a5babaa565b55555525a288aa54aa5a776bdd55b55aab52a9aa4aaa944aa5aa2a55abaaea6a55abaaaa5455a5545555ab6a555555555555555452aaaaaeaa56ad5a5555559544522a2555adb56e6b6bd5aaaaaaaa5455a554aa5455555555adaa55ab5555555595545555adaaaa565555555555554a94aaaad5aa6aad5aabaaaa4a9424a9525555b5bbd5daaaadaaaa2a55559554aa5255555555ab56d5aa55555555a5aa5255d5aadaaaaaaaaaaaaa5225455555ab55b5aa6aad6a552549114555aaaaaedb6aebaa56abaa2a5555aa52a54a55555555b5aa566b5555559554a9545555d556abaaaaaaaaaa4a8aaa52d5aa5a5555ab55b5aa2a298aa44aa9aa56b7b6d65555b5aaaa5455a92a95aaaaaaaaaaaa5a55abaaaaaaaa2a55555555556b555555555555554a4a555555b5aaaa5a5b55555549928a92aaaa6a6d5b5bad6aadaaaa5255a952a5aa4a5555555555ab565555555555aaaa2a55d556555555555555554a4a555555adaa5ad55655555529894aaaaa5455dd5ad75a55ad5555aaaa52a5aa5455aaaaaaaa56adaa5655555595aaaa5255b55aadaa"
	DPCMSample Name="Sample 11" Data="020000ffffffffffff7fa902000000a8eeffff4f0901000080f1e7ff7ff8871f60001ee8c1797ee8fd19185a840a50c0befbff77ff4d94af004813819420f0b34a7b5d175fe1431ecce0a13ae8a55f7c841789e0a14daaea159f7e429aaa21290044f9ffb7edbf17ad5e84921444932278ea165ffca947bff4c15e70c0159a7ad156eaa4122bba2495fa14ffb625395522410000e4ff7f9fffa5f74f50f0805a1890165bf4855efaa5477ed1a50a7ca0075edbd455ba5408ba056c6a09fadfd2a552952aa00024bedfeb57dbf48b25da828a966885adb45255b7b265afb44a258a562a2d6b55b5d24ba496a52a5585d575ab2d55aa22950480d557ffab557df2259748a9aaa8684957aad25bda56d52dad2455c92ada6a3daaf64829b50aa9b4e0955d5f555555d22225005265ff7e55bff6da0ba228952252495549bd545f555bf5a29554a9aa8a76a556f625a25552d24ab25255bf6a558baaaa022488e4bdb77dadaebd4a4992aa2a294aa552a5adbad555adad5495d48aaa5c5569b752a955a9aa5449b4ca5e5de995aa5429410211edaddfb6d5f6aa2a15a92a514555a5aaaadabaa5aeaa2ba9aaaa125b55d255adaaa94aaaa45552a5b6b5ad55aaaa2a4911a4a4babb6b5bedaa5b94aaa452524555aaa55aad6d55ad5aa9aa2ad15a556555555daaaa12555511555bb5575555555555011191babe5bafd5f6aa4aaa922aa9544a556a55adaeaa5557aaaa155555555555d5aaaaaa2aa9aa445555b5bbaaaaaaaaaa14124929edba6b5bed56555555a42aa952455555b5adaadaaaaa5655a9aaaaaaaaaaaaaaaaaaaa2a295549555f555555555595a8884a957a5b5b57ddaaaaaa94aa542aa9aa54555ba55d5555b5aaaa4a95aaaa6a55555555559552558ad4adb556555555558988a4a4d6ddd6b6556d5555a5aa52a954a55255abaaba565555555555aaaa52d5aa55555555a554558aaa5ab5adaaaaaaaaaa92484a95dad66d6d55abaaaaaa54a954a55255abaa5a556d55555595aaaa54b5aa5655555595aaaaa44a5575adaaaa5555554a254a5595dab66d556d555555a5aa54954a555555b5aa5a555555555555555555d5aaaaaaaaaaaa5229a5d6aa5555b5aaaaaa24955455a5b66db5aaadaaaa4a95aa2a95aaaaaaaaaa5655adaaaaaaaaaaaa54b5aaaaaaaaaaaaaa945455ad56555555abaa4a1295aaaa6abb56adb6aaaa2a5555aa4a55555555555555adaaaaaaaaaaaaaaaaaaaaaaaaaaaaaa4aa5aaaa5655d5aaaaaaaa9294545555ed6ad56ad5aaaa4a5595aaaa525555555555adaaaaaaaaaaaaaaaaaaaaaaaaaaaaaaaa54aaaa6a5555b5aaaaaa2a492955a9bada5ab5aa55ab2a5595aaaa5255a5aa56555555555555555555555555555555555555552955b5aa56555555abaa92924aa5aab5b555ad5a555555a9aaaa5455a9aaaaaa5655adaaaaaaaaaaaaaaaaaaaaaaaaaaaaaa525555555555b5aa5655a9524aaa54d5d656b56a55abaa4a55a5aaaaaaaaaaaaaaaaaaaaaaaaaaaaaaaaaaaaaaaaaaaaaaaaaa545555555555d5aa56952aa9a42a556dad55ad5a5555555555aaaaaaaaaaaaaaaaaaaaaaaaaaaaaaaaaaaaaaaaaaaaaaaaaa4a5555555555d5aa5655954a2955aaaada6ab5aa6a55555555aaaaaaaaaaaaaaaaaaaaaaaaaaaaaaaaaaaaaaaaaaaaaaaaaa2a55555555555555d5aaaa2a95942a55b5b65ab5aaaaaaaaaaaaaaaaaa54555555555555adaaaaaaaaaaaaaaaaaaaaaaaaaaaa4a5555555555d5aaaaaaaa2aa554a9aadaaa55abaa55555555a5aaaaaaaaaaaaaaaa"
	DPCMSample Name="Sample 12" Data="0a0000fafffffffeff7f95000000806effff2f5104002281f8e9ff1f36e9011678d087767eb16d195c1ac52214eaeaffbffb5fa55a02101b044948e84da69f77e5099f7ca882257978a51f3ae1a1a01a7a85922f75f91155a545440044feffdbfe7ea9e909924444564478e9c5a77af9e42b1beac5012f6974d35eec5194047f50a516e9bb4e695545050100e4ffdff67f75fe121516a8a4041ab9d4875efae1d35e7a54a1077ab176d5166d15107a055aa9a4fd6dae924515400000fafff77fb7faa3492628d10a155ad2895df5f4a58f7ca2522a4dd2b2aeaa55af80aa2aa2d68adabd5cab949628410028fff6af2ffdea450f2452859494dc4aa57de9deaa2dad2255a5aa2a7aabaa2b2a651595d4222bbdae6a5555b2200288acfcf7adfddad52b29225522225a95aa65d5abae6aa75695542aa2bea925bf22d24aa5944a5595fd74558baaaa082088da77db77757d4b258a542992d42aaad2a5575db55da52ad2a594eaaaaa5daad48a2a2aa5a2227f756b8b545b8580204877df5fdd76afaa2449a9a492aa545555b56ee996ba2a55552565b5a45755b552951a69a5925a6ded56916b25254190a4eebdd56d6fb545a94a4aa4aa54b4526b55ebd2ab9e2aa952545da49756b5525555a9aa4445adfaaaaaaa559512408952fbeeae6b7b55255551455552aad24aadb6aaae1e55b5125555a5aad65a555595a4aa2aa952adafaaaaaa6a5510515455edd6d6eaadaa2a955425a554525555bbaa6aabaa5a55a9aaaaaaaaaa5555555255455549d56e555555d5aa540451aab4bb6e5beb555555a2aa8a2aaa5255d596da5555b5aaaa4a5555a95a55d5aaaa2a2555254ab7b6555555abaa88949494ba5bdbd55ab5aa2aa5aa8a2a5552755555575555abaaaaaaaa545555adaaaaaa4a55a5a8aad65555d5aaaa2a2289945ad776576bad5655a952a95255525555d55a55b5aaaaaaaaaaaaaaaaaa5a5555a9aa2a4955555b55b5aa56552aa248aa6adbb6b55a6b5595aa52aaaa94aaaaaa6a55b55655555555aaaaaaaa55555595aaaa4aa9546d5555b55555552a894855d5765d5dd55655a5aa54952a555555555555b5aaaaaaaaaaaaaaaaaaaa6a55a5aaaa4aaaaa5ad5aa6a5555559224a5aa6adbd66aad555555a92aa5aa4a55555555b56a5555555555a5aa6a55d5aaaa4a55a54a55555555ad5655559514a554a5b6abd556ab6a55a5aa52a92a5555555555b55655555555a9aaaaaa5655555555952a55aa6a55d5aa5555552549295555eb6aadb5aa5655aa2a55aaaaaaaaaaaaaaaa56555555a5aaaaaaaa5555555555952a55555555ad6a5555554a5452a96aeb5aab6aabaaaa4a5595aaaaaaaaaaaaaa6a55555555aaaaaaaaaaaaaaaaaaaaaa52a96a555555ab5a55a5524a4a55d5b655adb5aaaaaa5255a9aaaaaaaaaaaaaa5a55555555a9aaaaaa555555555555aa5255555555d5aa5655a99252aaaa6a6dd556b5aaaaaaaa54a5aaaaaaaaaaaaaa555555555555555555555555555555aaaaaaaaaaaa5ad5aaaaa48a2a5555ad556bd5aa555595aaaa54aaaaaaaaaa5a55adaaaa2a55555555adaaaaaaaaaa52aaaaaaaaaa6ab5aaaaaaa84aaa54555bd5d6aa55555555a5aa5495aaaaaaaa5655b5aaaa2a55555555abaaaaaaaa2a55a9aaaaaaaa6aadaaaa4aa54aa954b55ab5b6aa5a555555a54a5555555555555555adaaaaaa2a5555adaaaaaaaaaa2a555555555555b5aa5a5525a54aa9aa6ab556ab5a5555555555aa545555555555b5aaaaaaaaaa4a55d5aaaaaaaaaaaa2a5595aaaa6a55ab6a"
	DPCMSample Name="Sample 13" Data="150000a0ffffffff7f00a0ffffff010000607e3f1f0286c6fde73f9423080050ffffffff018a80105452bfefd3b2240c0cc7c3c33032284827ffa34a420000fdffff7f2f210909c0343c3fefeff3b35024dd8f8f42d008b4f2bfb22a01000040ffffffff0f040200d0f0fcfebf8bc0d0d0bd9d2d02390029faff6ba9000000feffffff5b1014080aa3d5fbb6be24910155bf6a0f08034820ffff2e03020080feffffdf4b9120102a959fff7e3d8a4840f16bbf082d0085caf7bfaa08020040fdffff7f8b4801202856f5fffdb592a8422fd74bb2400508d5ffff5055000000fdffff3f5155002040a9fa7f7f55c545a8177f958a442141ecff5ef2050000c0ffffffbf924a0002a9aa7afd7b952a817661bb6a15128442f5fe175f040000a8ffffffb7aa0a500415aaeef67bd50a54a7d6ed1549141191ea7ff5aa020000e8ffffffabaa4204445555afee97ba2151a4d7eba412aa80aaeaafdeaa040000ebffffbfaa2a5101a4aa6a757fb917555191eb5655552154c4beaeea56010040efffffafaa2a4112a45455fd56b74a5555c41eb7125555016cb7aeea560000887dffdfbb5555205591a8aaabbe5e95a84a55d5ab2295a81455b7ba7595000055d5fddfdbabaa10aa90a8ea55b75e89aa22bdea2553c91248d5ad7af50a0280c87dffd7adaa8a54154855ddaa5755555555d5aaea8a54a2aa6a55f57a8902a0aaeaf6d7adaa8a94aa8a48afaa57555549555d5555559594aaaaaa7a5555028ac8f55e6fafaa4825aaaa6a55d55b55a54a5555555555952852b7aa5e55951089aa5ebd5bbd8aaa225555555575abaaaa5455555555555515c95555bdaa8a14a4aaae6eb7aaaaaa545555555555abaa4a5555555555555515aaaaaa7aab12455455ab57b7aaaaaa545555555555abaa12555575abaa2a5155555555bdaa12451275ab57b7aaaa2a5155555555d5712b515555bdaaaaaaa4aaaaaaaa7a554554555555d5abaaaa2a5155555555555713555555bdaaaa2a5155555555b72a5145aaaa7ad5abaaaa2a5155555555555555555555bdaa2a515555555555b74a5545a4aaaeaa6e555545aaaaaaaaaaaaaaaaaaaaaa7a55555555555555555555a4125555afaa6e555525aaaaaaaaaaaaaaaaaaaaaaea8a54555555555555dd8a5425aaaa5755ddaaaa485555555555555555555555555555555555555555dd525545a2eaaaaafaaa2a5555555555555555555555555555555555555555555555551548ddaaaa"
	DPCMSample Name="Sample 2" Data="bb04585bfb0f40ff7ff500000000ffff0a05f0ff4f0fa0bf04f5baf00f00f7f7ff005804ff0050fff45700000000ffffa50afaff7700f87f00ff4abf00a0ffffff004005ff00f00ff88f000000f0ffbf5000fffff700f8af80bf0aff00b0ffff0f04540aff00f05f700f000000f0ffbfa840ffff7b00f48fb0b704ff00f0ffff0f005508ff00f05ff00f000000ffff8544b0ffff5500fb0b74b788ff00f0ffff8f00a040ff00f48ff40a000000ffff0b8a58ffff0b40f7855ab770bf00f0ffff0f004858af00f78bb504000000ffff8f087affff84a0bb8aba55baa700f5ffff0b00407a8b407f554b040000a0ffff8b40f5ffbf0854bb54b5a5754b407bffff050044754554b7554b080000b0ffff8aa0faff570a545b55b5aa5ba5a075ffff840044b58ab4b55aa5000000f4ffbf8a88f5ffab44aa5a55ab5a5b4a4abbff5f0a0844aba4aa555b4508000075ffbfa4a8f5775745555555ab5a5b4aaa75ffb74408a44a4aab555b8a8000807a7f77a5547b77574a555555ab5aaba4aaf5f75b8a084a4aaaaa55ab44040840bb7bb7aab47577abaa545555ab55aba45abbf7b5448a484aaaaa55ab880880a07577bbaa5abb5bb5aa545555abb5aaa45577f7554aa4444aaaaa55558a8080485b775bb5bab55b55555555b5aa554b55b5755faba4a4444aaaaa55a5448480a4b5755bb5b575ab55555555b5aa555555b5bb7555a5a4444aaaaa55a5880844545b5babb5755bab55555555b55a5555555bbb5b554aaa484aa5aaaa4aa44044aa5a5babb55b5bab55555555b55a5555555bb7b5a54a4a4a4aa5aaaaa444844455b55aab755b5bab55555555ab5a5555555bb7b5aa544a4a4aa5aaaaa48888a454ab5a5b5b5b5bab555555b5aa5a5555b5b5b5b54aa54a4a4a55aa4a4aa488a4aaaa555b5bb755ab555555b5aa555555b5b5b55555a5544a4a55aa4a8a44a4a4aa5a555bbbb555ab555555abaa555555abb5b55555aaa44a4a55aaa4a448a4545555b5b5b5b555ab555555abaa5555555b5bb555a54aa5544a55aaa4448aa4545555abb5b5b555ab5555b5aa5a5555b55a5bb5aaaa4aa5544a554a454aa4a45455555bb55bb5b5aa5555b5aa5a5555b55a5bb5aaaa54aaa44aa54a4a8aa4a44a55b55a5b5babb5aa5555b5aa5a5555ab555bb5aaaa544aa54aa54a8aa448a5aa54ab555b5b5bb5aa5555abaa5a5555abb55ab5aa4aa54aa54aa5a4a4444aa5aaaaaab5b5555bb5aa5555abaa555555abb55ab5aa54a54aaa54aaa4444a4aa5aaaa5ab5b5b55ab55a5555abaa5555b55ab55a555555aa54aa544a4a4a4a4aa5aaaa5a5babb555ab5a55b5aa5a5555b55ab5555555a5aa54aa544a4a4aa44aa5aaaa555b5bb555ab5a55b5aa5a5555ab5aab555555a54aa54aa5548aa4a44a5aa55aaa5aaa55"
	DPCMSample Name="Sample 3" Data="bb0a50faf0ff00f4fff00f000000f0ffff0a0af0ff8f0b08fb4ba0af8b7f0040fff7ff8050b8f00f00f44faf0f000000f0ffff400bf0ff5f0f80ff05f04f07ff00b0ffffff00004af00f00ff40ff05008000f0ffffb000ffff570f807f0af4abf40505f0ffff0f0aa00a5f8050ff05ff00000000ffff4fb400ffff770a507f087babf00f00faffff0f00a804ff0070ff407f00000000ffffaf8a50ffff5b00f4af40774bf84f00faffff0f00a000ff08f07f504f00000040ffffaf84b4ffff45807a4fa85b8bfa0b00f7ffff0700a050bf00fa4f74a5000000b0ffff8b88f4ff7f8a80f5a5545ba57b0aa0fbffff08004474a780fba55a8a000000f4ffff8a88faff770a48bb4ab55a5ab78450f7ff7f048088ba4aa875ab550a000040f5ffff88487bffb784a85555b5a5b5558aa8fbffaf8080a0b5a4585bb5a5040008a0fbff578aa8f57f578a545555abaab555a4547fffab088448554a555bb54a84008050f7ff5b8a54777faba4545555ab5a5ba5a4b47bff55448848a554b5aab54a88008058f7f7b5a4aabbbb55a54a5555ab5aab4aaa5af777ab8888a4a454b55ab5a4400880b47b7757a5ba75b755aaaa54b5aa5aab4aaab57b7755a488a4a45455ab554a8480405577775b55b55bb7aaaaaa54abaa55ab545a7577b7aa448aa4a45455aba58a0888a05abb75ab5a5bb7b5aaaaaaaaaaaa55ab54555b7757554aa4a4a454b5aaaa4444084ab5b5b5b5b5b5b555abaaaaaaaa5a554b5555bb5b5ba5a4a4a4a44ab5aa4a8a88404aabb5b5b5b5b5b555b5aaaaaaaa5a555555b5b55b5baaa4a4a4a44ab5aa544444a4a4555babb5b55bab55b5aaaaaaaa5a555555b5755bab4aa5a4a4a4aaaa4aa54844a454b55aabb5755bab55b5aaaaaaaa555555555b5b5bb5544aa5a4a4aaaa544a8a88a4aaaa555b5b5b5bab55b5aaaaaaaa555555555b5b5b55a54a4aa5a4aa4aa58a448aa4aa5ab55a5b5b5bab55b5aaaaaaaa555555b55a5b5b55aa544aaaa4aa4aa5a448a454aa55b55a5bb755ab55b5aaaaaa5a555555b5b555abaaaaa44aaaa4aa544a4a8aa4545555abb5b5b5b55a55b5aaaaaa5a555555abb5b5aaaa4aa5544aa5aa544a8aa4a45455b5aab5b5b5b55a55b5aaaaaa555555b55ab5b5aaaa54aaa44aa5aaa4a4a444a54a55ab5a5b5babb55a55b5aaaaaa555555b55aab55ab4a554aa54aa54aa5a4444aa5aaaaaa555b5b5bb55a55b5aaaa5a555555ab55ab555555a54aa54aa54a4a4a4a4aaaaaaaaab5b5555bab5a55b5aaaa5a555555ab555b555555aa54aa54aa544a4a4a4aa5aaaa5ab5b5b55aab5a55b5aaaa555555b5aab55a555555aa54aa54aaa48aa4a454a5aaaa555babb555ab5555abaaaa555555b55ab55a5555a54aa54a554aa5a4a4a454a5aa5ab55a5babb5aa555aa5a5"
	DPCMSample Name="Sample 4" Data="120000f8ffff5f77fdffbb525500008184bcdddffe57454501014a49565ffaa51f5aa12fa0457ae15f78d92fa965a5e1ca92a45451a15eb9ffd6adbf4a4a5741417a28a81512ecad2cfb6579a547fca10e2a8587e4034fe10f7e811e4a241fac9254fa157dee1551a52a89248142eaffb7d6fabf0b4f7e0494a40271a1207ce917fce13ff9a57ef0857ec101fac08bfae51eea074ba0c23e4992fa44fc6f5d9156aa6040001040ffffbfb3ffc5ab7f01851e40075a801e7c495fe8937fe0937a21976841afd00bb6b5ca5555970a08bd05f2548be2fd76ea5459c90a900280d0ffd7ebafd6d2af32a24e5412ad5023b66297aaa9aff4a29fe8935455a096282fadab4a4bbf0454a595245515f4767d6e4daaca8a284102a0da5fff8b97fc8b5dd20ba4944a5225adb2a22df2abda56557d6a552255aa926a8b6f4b695749a2da2252552b74c9ab5f559556a916aa0000d855ff7ba7fea32fdd490a550996a20aba54aa5e55f6aabdaa9dd48a52a2aa2ae837c955fd4285ae829256a14ad263bfb6455daaaa520000a842fffab57fb5d6bf249592aa944294541559455fd5ae6e55ad1da92aa51525d1afaa945fa9525545255bc15254a95fbd555b5255ad04414420b5bffeb7adedfa56554449aa0a29a94a55d4aa6adb6ef456f59254955255a8ab56a9adaaaa5534a94aa94455a4bb5e6d9b127555a5440440a5eafefe565fed557b9124554aa9941455d155b4abd67aa95ef912a5aa0aa9ed0ae9a5abea525554912a5515a96a55ffaaaaaaaaaa4a02001155bdff5defaef65b31915aa942a4a4a2aca2b6aa555da5ddbaa2aada12a95a25b55ab5565555559554aa88d49654ddafaaaaaaaaaa928088a494defdd5f656dfaa4a95aa289528a5aa48abd4555755d55ba9aaad28a9aa54555555575555555549554aaaa952e9b7aaaa5555555509092821d5ddf7567d75b7a8962a4995a22a2a55a5aaaa6da5d6adaaaa55559552a5aaaa52b7aaaaaa2a55958aaa2a49d9d5b5d6aad4aa558928822849da7db7f6b6ad5aabaa9452a5a292549592dab6a8dab5aa56555555952a5555aab6aa5555555555526a5524a9adb6b5aaaa5a55554544449454edeebadbaeba5a555551aa4a255595a4aaae54add6aad6aaaaaaaaa45aa554b5aab6aaaaaaaa94aaaa2455aaeab6aa6a55ab6a15494444946aebeeb66dabb556ad524a5591aaaa2455abaaaa56556badaaaaaaaa2a95aaaaaabaaaaaaaaa92aaaa2a2949d5b6d6aaaab56a5545122994aa2ab5bb5bdbaaad5555554a255595a454555555ab56ad6aadaaaaaaaa94aaaa526dabaaaaaa4aaaaaaa1249b55a5badaa6aabaaaa4a4444944a55df7557dbaab6aaaa2aa94a954aa5aaaaaaaaaa5655b555555555a9aaaa5255abaa56555595aaaa2a292a555d5b5555d5aaaaaaaa228a54a94a75776d75ad55b5aaa2aa2aa952a9525555556d555557555555a5aa2aa9aa55556d555555a5aaaa4a924ad5b65555d5565555552a929252a95277d7d555b5d6aa4aaaaa94aa4aaaaa2a55adaa5ab56a555595aaaa4a555555b556555595aaaaaaa422b55aab5a55b556555595228a8a2a556ddb5d6dabdaaaaaaa52952aa9aa52a5aa5a555555d55a55555555aaaa525555ab565555555555955254d5aa5655b55aabaa55454a242555a9b6ee566bab56abaa2a55555255a5aaaaaaaaaaaa6a55abaaaaaa5255555555a9adaaaaaaaaaa4a9552aaaa5655b55ad5aa56554a9214295555edb6d5b656abaaaa4a5555aa54aaaaaaaaaaaaaad66a555555a54a55555555ad55555555555529a52a55555555ab5a6bb5aa4a4912a55452ad5b5b5b6bb56a555595aa54954a555555a9aa6ad55a5555555555aaaaaa54adaeaaaaaa54555545a9aa2a55d55a55d556555555892a522955d5b6d5565dd5aaaaaaaaaa94aa5255aaaaaaaa6aad5a5555555555aaaa52556dd5aaaaaaaaaa2a4aa5aaaaaaaaaa556b55555595a49292aa54d5b5d5da5655abaaaaaa2aa5aa5255555555555555b5aaaaaaaa5255555555b5555555555555a9a4aaaaaaaaaaaa5a6d55555549aa282555557575adb6aa5a5555555555aa54aaaaaaaaaaaa5a55adaaaaaaaa4a55555555ab555555555555aaa4aaaaaaaaaa5ad5565555554a2a29a954555d5b5b7555d5"
	DPCMSample Name="Sample 5" Data="00bf570ffbff0480f085f048048b7a4b74ffb777bf58b50aa8800a05a054aaa84b5fffbbf7f70a875b8a088aa400b8548a57f7ba04ffffff000fb000a0f8af07f0000f0f78fff0ffff007005ff5a5a0050804f88faffff004aaf0a75ff00ff0b057000f50ff00f50fb07f4ffb5805bb5f04f04a5450f000aaf50fff407af0fff80fa577a800b5500b4ab740404ffff7af08ff4a44a575b880b700f4fa00ab8aff540afab7f74f400ff008bb8540ffa00f405ff50ff80ff858afa00bb40ff4a05fb805a0ff0b04fa5fbf4a007bf40b485f08fb57488804fff0af4af57b08507f05f800bb85fb05548f70fb4f487bb40b74ba80bf0045f4fa8b508f45b5f50bfa8abf007baa04a88f70af58bb00ffaf40bf40f50f504544bbb40f744bab757aa0475b48ff0b80a4fbb00f48b748b8bfba00bfb57b00aaaf08f804af7b00f54fa74ab0ff88a4fab50440558ff7a84b7b48aa08b07f57fa45745ab584a8a75a5f48a5544454a7bbfa4f5b5ba8454aa005f74f40fa4f5b8a500af5af58a570b7f700a0f74b0f88407ff50b5a4ba555bbff00aa445b4004fb54baff0570a5fa5f404af507baba04bb445f00b57abf8500fff40b80f55f5b00f5588ba88bbb0a45f74bf00ff5084af08fba447f5800f87f450afb455fa085f08f5ba04ffa548ab58448bab8bf0747b874a5b4a45750b7aabf485845f50fa8807f78a847bb54a4fb580574b55f4845784757805afab7f700a57a85ba80b7ab4b5500f54af5a5a74a58bab7aa44857a58af4a5aa48bf70a5ba8a5b48ff404774aaab405755b57474450bffa08a7b4a5baba8b44aa708bba88a5f48ab7b740a575bb0ba47554a74a7485b48b58b5857b55a5bab0a75f40a4b5770a554aa4a55bba45755ab554ab754b48aa7a8b48ab4aaaba4b4a57745b5aa748b555455aba84a55aa7a444b5bb5abb85555b48ba4b5a554a4ba4a455fa85a554b4fb578454f754455555a8abaa485f544bbb45a4f4ab7a4545b558ba8445bb44bb84b4b5ba55aab54575aaaa5b45485f454a5aba4ba4abb54477a8af5444b4b5ab5a4a8a5a555bab4554b555555abaaaa58"
	DPCMSample Name="Sample 6" Data="040000faffff5fddd6fefeab525500002492a07edbafff5f124a502084a610977e694ff78157a14fa017e007d6055fd657d2d24a935aa55268a59450bd6aff6d5df5bb2a925e1412aa4b12d22a14f01fd34a7f697de417e807f9a0aae085f2057ec17eb04fb217164a3ae89aa84a7f857efa0bc456aa154a040051f5ffff7db9fef7811e7d1148a952415c3010fca17fc11ffa4b7ba07fa11faa177881be81977aa57ea17ac11549857ea114d51f91fe5dbb105ba90a45100010a8feff7fbffca7d0d3bf022ad402f8090f402ff822f683fed07ff04bf583bda20ae80bf40ab56d95b62a759588483d2b5097b414f5bf5a6a55d1898e02280090d8ffdf4fff6a5df50fb48836819dd00b7409be50afc827f5abb668afe44ba98a0ad22ba44d2fb72a5bea2b806aa50b98f45ac05b6fbfdc8ab489ada00a240058f55ffd3f75a5fd554fd403a222bd8096a0a37a495de2afa2af5555fd622b925425b5a0fa42df832d77952a90bd02b5a82dc895fceaabaa2a56295a52050089f4e4ffd55fd5bf2aa5ba0a15aa4a50455585aa6a546d55d52fd556aaaf9245b44aa9aa54ea5b4947fa1752492b91a65a49a9c4aeec5f7a495da2aaea1400002da5feeed5fe565df5575495a42a1511295157916a55b552bfaa976a6d555155a5565212edabaab0bf5455aa25a9429b944a6a25fb5557da13a9d2560544240151eddfeeaf6dadaeaf554a49545555905255a5aaaa926aabfb146f55ad2a55554a5501bfb44af45655554b544be49454a514a56bbbea6b5549e9aa2a411100a9aabaef6f57bbd5bbaa4b22552295a44835528b6a8b6aabb6d52dd555f5a852555548abad8ab64a5b552b55a9545295aa22aad5aadaafaa2ad555a52a9208a092aaedfd5ab7addadda62a5255492552558aaa2aa557d255b7aada555752557529a4aaaa5455addaaaaaaaaa2a4a555592aaaa526dbfaaaa6a555a5525028828a5eaddfb55db56fdaaaa2495aaa4aa92a8a82a55955ad55755d5ae4d55d5aa8aa2aa4a5555556dabaaaaaa2a52ad4a8a5a29a9ea7755b5b44aadaa2aa124908aa8b57dd756df6a77a5aa45555415254951a5aa5255ab5655d5bbaaaaaa95aa522955554d55b5aeaaaaaa2a555529a5aa4a94ea6e75556d49b5aaaa4a241125952aadbbbbeaadbaaa5555552955299552aaaa52aa6aab4ab56b557555555555aa525555a9aaabaa55555555559154ab5214b5b6eadaaaaaaa5555551111519292b6eeba6ebb56db6a55559554554a49555551aa6a5555b5b6aa56abaaaaaa4ad16a91aadaaaaaabaa4aab2a49aa6a45515555b56dabaa56b5aaaa92444411a5aa6aebeedaae55abb5aa4a555595a2aa2a292955555555adaa556b55555595aaaa4aa96a5555575555555529555595924aa95a5b6b555555abaaaa2a8988a45255d576ddb56d556db5aa5255aaa4aa2a4aa9aaaaaaaa56d56a55d5aaaaaaaaaa545555a9aab6aaaaaaaa2a5555a92a25a5aad5b55a5555b5aaaaaa92a428a9aaaaa2ddd6adb56aadaaaaaa4aa5aa524aa9aa4a555555add5aa5aadaaaaaaaaa8aaaa52d55655d5aaaaaa4aa5aaaaa24a55556dd5aaaa5aabaaaaaa24228aaa545575775b5b5bad5655ada45425554955a54a555555b55655b5aeaaaaaa4a5555955455abaa5aabaaaa2a5555554945555555ad5555abb6aaaaaaaa44442955a9aa6eebdaeaaa6ab56a9554559554a952a5aaaaaaaaaaaab65ad5aaaaaa545595525555b5aab5aaaaaa52555595542aa56ab5aa5ad5aa6a555555155152524955b56e5bbbd6aa6aabaa2a5555a9542a5555555555555555ab6aadaaaaaaaa544a5555abaa5a55555555555555a9a45255d5aaaa6aad5aadaaaa2a51545254a9aa5abbadb6b6aa555555555555292a5555aaaaaaaaaaaa5555ab5655555595aaaa545555556b5555555555555549a95255b5aaaa55adaa55d5aa2a4a8a8a4a5555b576adb65555ab5555aaaa2aa5aa4a95aaaaaaaaaa5555d55655555595aa2a55555555ab55555555555555a5a252555555ad6a55ad5a55abaa9424252955a5aab6756db555b5aaaaaaaaaa92aa52a5aaaa54555555ad5aabaaaaaaaaaa52555595aa5a5d55555555aaaaaa522a55555555abaaaad656555555252a29aa52aa5add6a576b55b5aaaaaaaa"
	DPCMSample Name="Sample 7" Data="140000a0ffffffd6d5aaeefd5d55a92a1004148928f4dbabafff5f2491111524c154891afbc777b47ec156e01f803e007fc0fd805fd63e11bfaaa485565a51a8454a15aa5feefeb56aabbf5345959654089a5e51a05d9412f4b72aa7ec979756ec15e817e807ba0a78e1e907fe05fa07fe11ec810e14f941b711baa47fa27eed4f40bc52550551110055d4feff7f5badfedd0addb457004aad5480eac205847efa5fe05ff45ff107fc56e817e81fe001f82fe8147b25ef05da07dc24aa447f918852f59550df56bd02ba8a52a5050aa22848fdff6bab27ffb4e255bd0ad08ab600f5822f00f6882fa27f40ffe0bf825f48bf882daa2ae02fa02f60f75a4bb5aab496a220e2cf096827f588d2fba795acaa622b2a92a0088828d9bfd757f52f564bfe135229f502d4827c027589fc427e857465ff24af4a3fa1be225589846c4b22b7f87865a52df49502aaaaba08aa7a95505f5dbd655b2955a5aa9054a002a057fdadfe5f7255f52ff823f20950956a05d8a2d422bd52b54afdaad86b5556fd2249aaa4ac0a2f91ea157d1dd1d1ae4a4a125f55a04bda12aa4bbdabb7a5aa52ab12b9424a0124d157ea7fb55ba57fd15eaa5ba154522549555455945695aaea524bbf54ed92daab9456a42a49551549fd2ba556b4bf0455b44b54525515554bd2abfaabaa956a4555a5ae04201165457edb5bb5bfaab5aabf4455545549aa4a44a55455e4aa4a7b546f55bbaaaa75295555a26e0955a56e5515e5bb5255e4565116952b494ba92ae55fb52dd54b91c5ae4a44445184a4badfeabeb5eaaaadabaa8a92aa4aa9924855b252aaaaaaaa6a577d9574abd44ba9925a95aa0af9a5568a7cabaa2aab52aa225d2257a2aa2877b5b576b5aa48755555a2a4888268555d6ff75575abda5d55ab48aaaa2a924aaa2aa995d45552d7aa566d2bd52d7595a4aaaa2aa2b5b6a2d88b7a9556555525554a55a9aa885ab595dab755a5547555a92a2289a052525ddd77755b57557757a92aa2559554a2aa4aaaaa2ac9ad5257d55749b76a2ba9aaaa95a2545555aaaada6ab5aaaaaaaa8aa254ab92545555a975bf4aaaaaaaaaaaaa4444242555a5edda6eabbaaeeaae54954a55952a5992aa52aa525555b5aa6e95aad5b6aa5255ab52255555a9aaaaaada5a5555555515a96a4555d42a4955bbafaaaaaa565555555584124955aa54b5afad56bbaaeb255555a5525545aa4aa54a55555555b5ae2ad56e555555555555554a55555515b5ea56555555554955559554ab92a4d4ee6a6d55aba46aabaa52495424a5aaaad4b6dbaadbaaadaaaaaaaa4a55a9542995aaaa2aa5aaadaaaaeada2aadaaaaaaaaaa544ad52aa9aab65555abaaaaa85595a26a55292955ab555babaaaaaa555555258aa2a8a4aaaa6d6d6b5d5b556b55555555aaaa542aa95455a554d5565555b55a55b55a555555952a555595aaaa5655ad55555555554aaaaaaa8a525555b5d556555555b5aaaa2a9294a2a8aaaa6a6d5b6d5dab5ad5aaaaaa525595925255955255555555556b55b55ab5aaaaaa2a555555aa54d5aaaadaaaaaaaaaaaa854adaaa452a954d756b5aaaa6ab5aaaaaaa42489a2aaaaaa56dbb6b5b5aa5a555555555595524a5555aa5455555555abaad6aaaa6a555555a9555552555555d56a5555555555495555555545a9aaaab6aa555555ad55555595124952aaaaaaaa5adbb6daaaaab6aaaaaa2a552a5555495555555555555555b5aaaab6aaaaaaaa2aa5aaaa4a55b5565555abaaaa4a55a9aa2a954a5555ad6aadaaaa5aabaaaaaa921449a5aaaaaaaabab5d6aaadaaaaaa5555a9aaaa544a5595aaaaaaaaaa6a5555adaeaaaaaaaa525555a55455adaaaa5aadaaaa4a5555559552495555d5aa5555b56aadaaaaaa4a92a2a4aaaa5255756dadd55655d5aa5695aaaa2aa9aa2a55aaaaaaaaaaaaaa6a55adaa6a5555a5aaaa4a5555555555b55a555555a5aaaaaa4aa52a5555ad565555ad56b5aaaaaa92a2a42aa5aaaaaab5d5d65aadaa6a5555aaaaaaaa54a9525555aaaaaaaaaa5ab5aa5aadaaaa545555a9aaaaaaaaaaaad6aaaaaa545555555529a9aaaa6a55d5aaaa6ad5aaaaaa2a2a2a9592aaaaaa56dd5aadd5aaaaaaaaaaaaaaaa4aa54a55a5aaaaaaaaaa6a55d5aaaa5595aaaaaaaaaa525555"
	DPCMSample Name="Sample 8" Data="0a0000f8ffffbddfffff575501000000b0fbbfff7fa10100000950f9e5ae7f69915ac0057871179ef6537a554a164d850a51456ffebf6bf79fa1f24a10a445401729e1ab34fb69bae9895ef1c02a78941ebaa41f7c85165694865ea2ca5eb26b17915335415a0045ecffb76dfb6fe4f51520a484a451107ce9077ee8971ff9a51eea8516e885566da917f5852aa5684715e94bb1776dc4ae1425410000b4ffff7d7d5f5c7f051259810e2e80471de9077ff4073fe9135b15855e6891aeab6a95d49542e89650952ea2ff6a6995ac5229880010febf577fb5a53f65222f60492b70214f7a922dfdaa963ed22f2255492b52abd55655d52b505a95a0749554bd5d5da5aab2882a8880d6bdf6afb6d42b57ea8a54b22aaaa252abb454af6ab5aa76ea92529572913ad5355a5da52a7825b4522355d5eb555555555aa502a0a02bfff553fd6257bd24a2aa68492a6955525dd57a55ad6a2f5aa2aa5455a2b74aadda252aad8a4a5552255df555ad6a4955550988a0a2dfdeda576df5ab9428a9aa524aca4ab44a5bd5ad5655db4a5545ad92525b55a56da9aa56529556529155f5aaadbaa4aa5a49441490ea6e7bbb56abb7aa9292aa4a559192aaaaaaaaf5155bd556a5aaaaaad0965aa95555d54a55b4925654915e6b6dab4a5955554451a8aab4bb6bedaaabba4a5255a9545445957445dbaada5555ab95aaaa4aa55a155d5555adaaaa4aa95215a9daaa7a55555555559544a89452bbdbaeadeaaeaa92aa54a5aa245555b4aa566d55b5ba5255ada4aaaa5255d55a55555595aaaa12a956a9eeaaaaaaaaaaaa2a92a89474dd5dd555775595aa4aaaa2aa5425b552d55555d5b5aaaa95aa5495aaaaaa56abaaaa2a5555aaaa8a545dab56b5aaaaaaa222a292aa76d7565d75abaaaa4aa94aa5aa52555555555575abaaaaaaaaaa545555aa5aabaaaaaa5455a9aa8aaa5ad56aad4aabaa2a2922a554d5766b756dd55a55952a55aa94aaaa2a5555556d55d5aaaaaaaa4a5555aa5655abaaaaaa4aaaaa2aa56a556d5555adaaaaaa4aa4a42ab5b5d5b6daaa6a55a952954aa9aa2a555555ad5ad5aaaaaaaaaaaa4a555555adaaaaaa4a956aa5525555b5aa6a5555ab2a2525552955adadb5aeaab5aaaa5455495595aaaaaaaaaaaa6aadaaaaaaaaaa4a555555abaaaaaaaa545555a9aaaaaa6a55b5aa5a55252945a9aaaaadd5daaad6aaaaaa52a5aa52a9aaaaaaaaaa6ad5aaaaaaaaaa4a555555adaaaaaaaaaaaa5495aaaaaaaa5655b5aaaaaa925252aaaa6a6badb6aa5555555555a952a9aaaaaaaaaaaa6ad5aaaaaaaaaaaa54aa555555555555555595aa525555abaa6a555555554949954a55db56b556ab6a5555a9aa4a95aaaaaaaaaaaaaa6a55555555555555555555d5aaaaaaaa5455a9aa5455b5aaaa5a55b5aaa28a4aa5aa6a6d556d55b5aaaaaaaa4a55a9aaaaaaaaaaaaaaaa565555555595aaaaaaaa555555555555a9aa5255555555ab56555555a9942aa5aad65ab556d56a5555a5aa2a55aaaaaaaaaaaaaaaa5555555555a5aaaaaaaa6a555555555555a9aaaaaaaaaaaa5655b5aaa22a95525555b555ad56b5aaaaaaaaaa5255aaaaaaaaaaaaaa565555555595aaaaaaaa6a55555555555555aaaaaaaaaaaaaa56555555a54aa94a55d55ad56a55abaaaaaaaa2a5555aaaaaaaaaaaaaa56555555555555555555b5aaaaaaaaaa2a55aaaaaaaaaaaa56abaaaa4aa52a95aaaa6ad5aa55adaaaaaaaaaaaa5495aaaaaaaaaaaa5655555555555555a5aa6a55555555555595aaaaaaaaaaaaaa6a555555952a"
	DPCMSample Name="Sample 9" Data="140000e0ffffffeabaeafdbe5b545402404444147debfaeeff45448a24500917851afea5bdaa0f7a45bc05e801f805e7055f9557aa565559719295121d4816c95e75ff65b5eaef4c51f2261121bd8440772459f0979652fbe5d989be947e480fe82ae841f405fe85fe805f811fe821e1076e15b4aa7ec15fb6174457925690140050b4feffff5a5dfb6f852efd02a0a29502d14515027f781fe817fbadfa82bf847ea07f8017e81574a96ea9bfc0eac44ac20afa1391c6fe45a4efab975057494aaa10208880deff6fafab7d2ff26ab7022aea04c80b9d20f48a97949f509ff417f429fa4972aa2ac0afc02de8d55aa99d4a5d95028a5e2da02ed929d2f7aba556955aa54a022a00a0e2ffbf5dfd536d557f4195a817a0ade805d822f6447d42bdaaaf68abf493f825aa4a05aa4d48bdb47a55590bf70aa0da521754f496a06d5f7d6aab94aad88ac80222205df5b7f6bf6a95f62bbe84bf00aa922a5155c82af5a2b4687f257eadcaea2baa948a54a596c87a45af2b35d58baa027995404fe912f24abeb56b5555a9959456a40240a57ab4ffb557d55fa94fee125254554aaaa41255551555edd2aaafaa5bb1ee442ea9aa92aa4a94beabaaaaea4b54495a4929b52ac94a554bfd95b6515ba992aa154041a852fadbbbeabb6a6dfa2da924515594aa524ab4aa5456d22ed55bda9a5aad55a9aa8a6a25a954bbaa12ed57aa925a95aa145b912aa9a6f2577555f544aaaa554904254250ebbeb57f6bad6aaf57a994542a5595242555555455b5aa5adb2ea937555b5595a42a5512f9aa2ac5deaaaa542baa2a5a255a25b554dab55675ad2a525755a5a822204956d577775775ab76a7d6a5a8545529a9a894a8aad49654577555d7a26d55ad48abaaaa28555d29daa5baaa9aaa4aa92aaa4aab8a2ad555d5bdaa2a55abaaaaa22420898abade7d6b7557d576ab5249a54a55a2aa2aa9aa2aa9ad5857d5aa6a6d5d2555552baa2aaaaaaaaaaa5aabaaaaaaaa28555525a9aaaab47577555555555555254a88a2a4aa747777b5b6b5eeaaaa5295aa9454a5aa2a5589ac525575abaaaa5dab2aad5615955455a9aaaaaad65655555555aa4aa952a9aa92aa7a5b5555b5aaaaaaaa4a144244a55aebbb6bd5b6eaba4a5555a55495a4aa4a2a5555a9aaba6a956a5b555555555555a552555595aadaaaaaaaaaaa54555552555524d5aeb5d6aaaaaaaaaaaa4a4444519554ebeeb6dad6aaabaa5555955295aa4a2955559552d55a55556d55556d55555595aa525555a9aa5655adaaaaaaaaaa24d5aa5294aab6d556abaaaa5a55555544494a51a952ebb6bbda5ab55655555595aa52a552555552546b5555d55655d56a55555555a5aaaa2a555555556b55555555a54a5555a5a8aaaa5a6d55555555abaaaa8a248a8a5255ad76ddd655ab5655adaa52aaaa4aa5aa2a29a9555555d56a55ad5555555555555555a952abaaaa55555555555555555529a552aab6d65a555555adaaaaaa28a224a9aaaa6ad76d6bd5aa566da5aa4a55a9aa52a5525555555555ab6a555555abaaaaaaaa2a555555aa56adaaaaaaaaaaaaaaaa2a25a9aaaab555555555adaaaaaa8a8a484a955a55db765bb555b5555595aaaa5295aa4a555555a5aaaa6a55adaaaa565555555595aaaaaaaaaaaaaa6a55555595aaaaaa4aa5aaaaaa55abaaaab6aaaaaa2a255145a9aaaaaabb56adb55555abaaaa4a5595aa54a9aaaaaaaaaaaaaaaaaa55abaaaaaaaaaaaa4aa5aa5a5555b5aaaaaaaaaaaa2aa552a5aa6ad5aaaaaadaaaaaaaaa9252a954a94aa9b6ae556babaa5555555555554955aaaa54555555555555d5aa55555555555555a5aaaaaaaaaad5aaaaaa4a555555a94a95aaaa5a5555d56ad5aaaaaa4a29514aa55455d575b5d56a55d5aaaaaaaaaa4aa5aaaa2a5555555555555555556b55555555a5aaaaaaaaaaaa5655555555555555a9aa94aaaaaa55555555b556555555a9a4a88a4a5555abdd6a55abaa555555555555aaaa4a55a9aaaaaaaaaa5a555555b5aaaaaaaaaa545555555555adaaaaaaaaaaaaaa4aa994aa5aadaaaa6a555555555555a9a4a454a5aa5a5b575bd5aa6a5555555555a5aaaa2a55a9aaaaaaaa6a555555abaaaaaaaaaa52555555555555abaaaaaaaaaaaaaaa254555555adaa55"
	DPCMMapping Note="D1" Sample="Sample 1" Pitch="7" Loop="False"
	DPCMMapping Note="E1" Sample="Sample 1" Pitch="8" Loop="False"
	DPCMMapping Note="F1" Sample="Sample 2" Pitch="9" Loop="False"
	DPCMMapping Note="F#1" Sample="Sample 3" Pitch="10" Loop="False"
	DPCMMapping Note="G1" Sample="Sample 2" Pitch="10" Loop="False"
	DPCMMapping Note="C2" Sample="Sample 5" Pitch="15" Loop="False"
	DPCMMapping Note="D2" Sample="Sample 7" Pitch="13" Loop="False"
	DPCMMapping Note="E2" Sample="Sample 9" Pitch="13" Loop="False"
	DPCMMapping Note="F2" Sample="Sample 6" Pitch="13" Loop="False"
	DPCMMapping Note="F#2" Sample="Sample 7" Pitch="14" Loop="False"
	DPCMMapping Note="G2" Sample="Sample 6" Pitch="14" Loop="False"
	DPCMMapping Note="G#2" Sample="Sample 10" Pitch="14" Loop="False"
	DPCMMapping Note="A2" Sample="Sample 4" Pitch="14" Loop="False"
	DPCMMapping Note="C3" Sample="Sample 6" Pitch="15" Loop="False"
	DPCMMapping Note="D3" Sample="Sample 4" Pitch="15" Loop="False"
	DPCMMapping Note="D#3" Sample="Sample 8" Pitch="15" Loop="False"
	DPCMMapping Note="E3" Sample="Sample 11" Pitch="15" Loop="False"
	DPCMMapping Note="F3" Sample="Sample 12" Pitch="15" Loop="False"
	DPCMMapping Note="G3" Sample="Sample 13" Pitch="14" Loop="False"
	Instrument Name="NoiseBassDrum"
		Envelope Type="Volume" Length="2" Values="13,0"
	Instrument Name="NoiseSnare"
		Envelope Type="Volume" Length="8" Values="13,11,9,7,5,3,1,0"
		Envelope Type="Arpeggio" Length="2" Values="-7,0"
	Instrument Name="SquareBridgeArpeggio"
		Envelope Type="Volume" Length="82" Loop="75" Release="76" Values="9,13,12,11,11,11,11,11,11,11,11,11,11,11,11,11,11,11,10,10,10,10,10,10,10,10,10,10,10,10,10,10,10,9,9,9,9,9,9,9,9,9,9,9,9,9,8,8,8,8,8,8,8,8,8,8,8,8,8,7,7,7,7,7,7,7,7,7,7,7,7,7,7,7,7,6,1,5,4,3,2,1"
		Envelope Type="Pitch" Length="18" Loop="10" Values="0,0,0,0,0,0,0,0,0,0,-1,-1,0,0,1,1,0,0"
		Envelope Type="DutyCycle" Length="2" Values="0,1"
	Instrument Name="SquareBridgeHit"
		Envelope Type="Volume" Length="16" Loop="9" Release="10" Values="15,13,13,11,11,11,10,10,10,9,1,9,6,5,4,2"
		Envelope Type="DutyCycle" Length="1" Values="2"
	Instrument Name="SquareBridgePlain"
		Envelope Type="Volume" Length="1" Values="8"
		Envelope Type="DutyCycle" Length="1" Values="1"
	Instrument Name="SquareChorus"
		Envelope Type="Volume" Length="115" Loop="106" Release="107" Values="11,11,11,11,11,10,10,10,10,10,10,10,10,10,10,10,10,10,10,10,10,10,10,10,10,10,10,10,10,9,9,9,9,9,9,9,9,9,9,9,9,9,9,9,9,9,9,9,9,8,8,8,8,8,8,8,8,8,8,8,8,8,8,8,8,7,7,7,7,7,7,7,7,7,7,7,7,7,7,7,7,7,7,6,6,6,6,6,6,6,6,6,6,6,6,6,6,6,6,6,6,6,6,6,6,6,5,8,7,6,5,4,3,2,1"
		Envelope Type="DutyCycle" Length="1" Values="2"
	Instrument Name="SquareChorusArpeggio"
		Envelope Type="Volume" Length="8" Loop="3" Release="4" Values="8,8,8,7,5,4,2,1"
		Envelope Type="DutyCycle" Length="2" Values="0,1"
	Instrument Name="SquareHit"
		Envelope Type="Volume" Length="82" Loop="75" Release="76" Values="9,13,12,11,11,11,11,11,11,11,11,11,11,11,11,11,11,11,10,10,10,10,10,10,10,10,10,10,10,10,10,10,10,9,9,9,9,9,9,9,9,9,9,9,9,9,8,8,8,8,8,8,8,8,8,8,8,8,8,7,7,7,7,7,7,7,7,7,7,7,7,7,7,7,7,6,1,5,4,3,2,1"
		Envelope Type="Pitch" Length="8" Loop="0" Values="0,0,1,1,0,0,-1,-1"
		Envelope Type="DutyCycle" Length="1" Values="1"
	Instrument Name="SquareIntroArpeggio"
		Envelope Type="Volume" Length="4" Loop="2" Values="9,6,4,1"
		Envelope Type="DutyCycle" Length="3" Loop="0" Values="2,0,0"
	Instrument Name="SquareLeadHigh"
		Envelope Type="Volume" Length="38" Loop="8" Release="9" Values="15,13,13,10,10,10,10,10,9,8,8,8,8,7,7,7,7,6,6,6,6,5,5,5,5,4,4,4,4,3,3,3,3,2,2,2,2,1"
		Envelope Type="Pitch" Length="24" Loop="16" Values="0,0,0,0,0,0,0,0,0,0,0,0,0,0,0,0,1,1,0,0,-1,-1,0,0"
		Envelope Type="DutyCycle" Length="1" Values="2"
	Instrument Name="SquareLeadLow"
		Envelope Type="Volume" Length="4" Loop="0" Release="1" Values="8,6,4,2"
		Envelope Type="DutyCycle" Length="1" Values="2"
	Instrument Name="TriBassDrum"
		Envelope Type="Volume" Length="5" Values="15,15,15,15,0"
		Envelope Type="Pitch" Length="1" Loop="0" Relative="True" Values="60"
	Instrument Name="TriBleep"
		Envelope Type="Volume" Length="2" Values="15,0"
	Instrument Name="TriSnare"
		Envelope Type="Pitch" Length="1" Loop="0" Relative="True" Values="32"
	Song Name="Strange Memories of Death" Length="24" LoopPoint="4" PatternLength="32" BeatLength="4" NoteLength="5" Groove="5-6" GroovePaddingMode="Middle"
		Channel Type="Square1"
			Pattern Name="Intro1"
				Note Time="0" Value="D3" Duration="160" Instrument="SquareLeadLow"
			Pattern Name="Intro2"
				Note Time="0" Value="E3" Duration="160" Instrument="SquareLeadLow"
			Pattern Name="Intro3"
				Note Time="0" Value="F3" Duration="80" Instrument="SquareLeadLow"
				Note Time="80" Value="F#3" Duration="80" Instrument="SquareLeadLow"
			Pattern Name="Intro4"
				Note Time="0" Value="G3" Duration="160" Instrument="SquareLeadLow"
			Pattern Name="Verse1"
				Note Time="58" Value="A3" Duration="10" Instrument="SquareLeadLow"
				Note Time="68" Value="C4" Duration="10" Instrument="SquareLeadLow"
				Note Time="78" Value="E4" Duration="10" Instrument="SquareLeadLow"
				Note Time="88" Value="D4" Duration="20" Release="18" Instrument="SquareLeadLow"
				Note Time="108" Value="C4" Duration="20" Release="18" Instrument="SquareLeadLow"
				Note Time="128" Value="B3" Duration="20" Release="18" Instrument="SquareLeadLow"
				Note Time="148" Value="C4" Duration="20" Release="18" Instrument="SquareLeadLow"
			Pattern Name="Verse2"
				Note Time="8" Value="A3" Duration="42" Release="18" Instrument="SquareLeadLow"
				Note Time="138" Value="E3" Duration="10" Instrument="SquareLeadLow"
				Note Time="148" Value="F3" Duration="10" Instrument="SquareLeadLow"
				Note Time="158" Value="G3" Duration="30" Release="29" Instrument="SquareLeadLow"
			Pattern Name="Verse3"
				Note Time="28" Value="E3" Duration="10" Instrument="SquareLeadLow"
				Note Time="38" Value="C3" Duration="45" Release="18" Instrument="SquareLeadLow"
				Note Time="138" Value="D3" Duration="10" Instrument="SquareLeadLow"
				Note Time="148" Value="G3" Duration="10" Instrument="SquareLeadLow"
				Note Time="158" Value="C4" Duration="10" Instrument="SquareLeadLow"
			Pattern Name="Verse4"
				Note Time="8" Value="B3" Duration="20" Release="18" Instrument="SquareLeadLow"
				Note Time="28" Value="A3" Duration="42" Release="18" Instrument="SquareLeadLow"
				Note Time="130" Value="D4" Duration="17" Release="8" Instrument="SquareHit"
				Note Time="150" Value="E4" Duration="16" Release="6" Instrument="SquareHit"
			Pattern Name="Verse5"
				Note Time="58" Value="A3" Duration="10" Instrument="SquareLeadLow"
				Note Time="68" Value="C4" Duration="10" Instrument="SquareLeadLow"
				Note Time="78" Value="E4" Duration="10" Instrument="SquareLeadLow"
				Note Time="88" Value="D4" Duration="20" Release="18" Instrument="SquareLeadLow"
				Note Time="108" Value="C4" Duration="20" Release="18" Instrument="SquareLeadLow"
				Note Time="128" Value="B3" Duration="20" Release="18" Instrument="SquareLeadLow"
				Note Time="148" Value="G4" Duration="20" Release="18" Instrument="SquareLeadLow"
			Pattern Name="Verse6"
				Note Time="8" Value="E4" Duration="42" Release="18" Instrument="SquareLeadLow"
				Note Time="138" Value="E4" Duration="10" Instrument="SquareLeadLow"
				Note Time="148" Value="D4" Duration="10" Instrument="SquareLeadLow"
				Note Time="158" Value="C4" Duration="10" Instrument="SquareLeadLow"
			Pattern Name="Verse7"
				Note Time="8" Value="B3" Duration="20" Release="18" Instrument="SquareLeadLow"
				Note Time="28" Value="C4" Duration="10" Instrument="SquareLeadLow"
				Note Time="38" Value="A3" Duration="45" Release="18" Instrument="SquareLeadLow"
				Note Time="138" Value="E4" Duration="10" Instrument="SquareLeadLow"
				Note Time="148" Value="D4" Duration="10" Instrument="SquareLeadLow"
				Note Time="158" Value="C4" Duration="10" Instrument="SquareLeadLow"
			Pattern Name="Verse8"
				Note Time="8" Value="G4" Duration="63" Release="18" Instrument="SquareLeadLow"
				Note Time="80" Value="G4" Duration="10" Release="6" Instrument="SquareHit"
				Note Time="90" Value="G4" Duration="16" Release="6" Instrument="SquareHit"
			Pattern Name="Chorus1"
				Note Time="0" Value="A3" Duration="40" Instrument="SquareChorus"
				Note Time="40" Value="B3" Duration="20" Instrument="SquareChorus"
				Note Time="60" Value="C4" Duration="10" Instrument="SquareChorus"
				Note Time="70" Value="B3" Duration="50" Instrument="SquareChorus"
				Note Time="120" Value="G3" Duration="20" Instrument="SquareChorus"
				Note Time="140" Value="E3" Duration="20" Instrument="SquareChorus"
			Pattern Name="Chorus2"
				Note Time="0" Value="A3" Duration="50" Instrument="SquareChorus"
				Note Time="50" Value="G3" Duration="10" Instrument="SquareChorus"
				Note Time="60" Value="A3" Duration="10" Instrument="SquareChorus"
				Note Time="70" Value="G3" Duration="90" Instrument="SquareChorus"
			Pattern Name="Chorus3"
				Note Time="0" Value="F3" Duration="40" Instrument="SquareChorus"
				Note Time="40" Value="A2" Duration="10" Instrument="SquareChorus"
				Note Time="50" Value="C3" Duration="10" Instrument="SquareChorus"
				Note Time="60" Value="F3" Duration="10" Instrument="SquareChorus"
				Note Time="70" Value="G3" Duration="50" Instrument="SquareChorus"
				Note Time="120" Value="B2" Duration="10" Instrument="SquareChorus"
				Note Time="130" Value="D3" Duration="10" Instrument="SquareChorus"
				Note Time="140" Value="G3" Duration="10" Instrument="SquareChorus"
				Note Time="150" Value="A3" Duration="60" Instrument="SquareChorus"
			Pattern Name="Chorus4"
				Note Time="50" Value="B3" Duration="10" Instrument="SquareChorus"
				Note Time="60" Value="C4" Duration="10" Instrument="SquareChorus"
				Note Time="70" Value="D#4" Duration="1" Instrument="SquareChorus"
				Note Time="71" Value="E4" Duration="69" Instrument="SquareChorus" Attack="False"
				Note Time="140" Value="F4" Duration="10" Instrument="SquareChorus"
				Note Time="150" Value="D4" Duration="20" Release="11" Instrument="SquareChorus"
			Pattern Name="Chorus5"
				Note Time="10" Value="C2" Duration="10" Instrument="SquareBridgePlain" Volume="15"
				Note Time="20" Value="G3" Duration="10" Instrument="SquareBridgePlain"
				Note Time="30" Value="A3" Duration="10" Instrument="SquareBridgePlain"
				Note Time="40" Value="C4" Duration="10" Instrument="SquareBridgePlain"
				Note Time="50" Value="D#4" Duration="6" Instrument="SquareBridgePlain"
				Note Time="56" Value="D4" Duration="8" Instrument="SquareBridgePlain"
				Note Time="64" Value="C4" Duration="6" Instrument="SquareBridgePlain"
				Note Time="70" Value="D4" Duration="6" Instrument="SquareBridgePlain"
				Note Time="76" Value="C4" Duration="8" Instrument="SquareBridgePlain"
				Note Time="84" Value="A3" Duration="6" Instrument="SquareBridgePlain"
				Note Time="90" Value="C4" Duration="6" Instrument="SquareBridgePlain"
				Note Time="96" Value="A3" Duration="8" Instrument="SquareBridgePlain"
				Note Time="104" Value="G3" Duration="6" Instrument="SquareBridgePlain"
				Note Time="110" Value="A3" Duration="6" Instrument="SquareBridgePlain"
				Note Time="116" Value="E3" Duration="4" Instrument="SquareBridgePlain"
				Note Time="120" Value="G5" Duration="10" Release="6" Instrument="SquareBridgeHit"
				Note Time="130" Value="G5" Duration="22" Release="12" Instrument="SquareBridgeHit"
			Pattern Name="Bridge1"
				Note Time="8" Value="A4" Duration="30" Instrument="SquareBridgePlain" Volume="10"
				Note Time="38" Value="E4" Duration="10" Instrument="SquareBridgePlain"
				Note Time="48" Value="A3" Duration="10" Instrument="SquareBridgePlain"
				Note Time="58" Value="D4" Duration="10" Instrument="SquareBridgePlain"
				Note Time="68" Value="C4" Duration="11" Instrument="SquareBridgePlain"
				Note Time="80" Volume="15"
				Note Time="88" Value="A5" Duration="18" Release="12" Instrument="SquareLeadLow"
				Note Time="118" Value="E5" Duration="27" Release="18" Instrument="SquareLeadLow"
				Note Time="148" Value="G5" Duration="18" Release="12" Instrument="SquareLeadLow"
			Pattern Name="Bridge2"
				Note Time="18" Value="D5" Duration="27" Release="18" Instrument="SquareLeadLow"
				Note Time="48" Value="E5" Duration="18" Release="12" Instrument="SquareLeadLow"
				Note Time="78" Value="C5" Duration="27" Release="18" Instrument="SquareLeadLow"
				Note Time="108" Value="D5" Duration="18" Release="12" Instrument="SquareLeadLow"
				Note Time="138" Value="A4" Duration="27" Release="18" Instrument="SquareLeadLow"
			Pattern Name="Bridge3"
				Note Time="8" Value="A4" Duration="20" Instrument="SquareBridgePlain" Volume="10"
				Note Time="28" Value="G3" Duration="10" Instrument="SquareBridgePlain"
				Note Time="38" Value="A3" Duration="10" Instrument="SquareBridgePlain"
				Note Time="48" Value="C4" Duration="10" Instrument="SquareBridgePlain"
				Note Time="58" Value="D4" Duration="10" Instrument="SquareBridgePlain"
				Note Time="68" Value="A4" Duration="11" Instrument="SquareBridgePlain"
				Note Time="80" Volume="15"
				Note Time="88" Value="A5" Duration="18" Release="12" Instrument="SquareLeadLow"
				Note Time="118" Value="E5" Duration="27" Release="18" Instrument="SquareLeadLow"
				Note Time="148" Value="G5" Duration="18" Release="12" Instrument="SquareLeadLow"
			Pattern Name="Bridge4"
				Note Time="8" Value="A4" Duration="30" Instrument="SquareBridgePlain" Volume="9"
				Note Time="38" Value="E4" Duration="10" Instrument="SquareBridgePlain"
				Note Time="48" Value="A3" Duration="10" Instrument="SquareBridgePlain"
				Note Time="58" Value="D4" Duration="10" Instrument="SquareBridgePlain"
				Note Time="68" Value="C4" Duration="11" Instrument="SquareBridgePlain"
				Note Time="88" Value="A5" Duration="18" Release="12" Instrument="SquareLeadLow" Volume="15"
				Note Time="118" Value="E5" Duration="27" Release="18" Instrument="SquareLeadLow"
				Note Time="148" Value="G5" Duration="18" Release="12" Instrument="SquareLeadLow"
			Pattern Name="Bridge5"
				Note Time="18" Value="D5" Duration="27" Release="18" Instrument="SquareLeadLow"
				Note Time="48" Value="E5" Duration="18" Release="12" Instrument="SquareLeadLow"
				Note Time="78" Value="C5" Duration="27" Release="18" Instrument="SquareLeadLow"
				Note Time="108" Value="D5" Duration="18" Release="12" Instrument="SquareLeadLow"
				Note Time="138" Value="E4" Duration="10" Instrument="SquareBridgePlain"
				Note Time="148" Value="G4" Duration="10" Instrument="SquareBridgePlain"
				Note Time="158" Value="A4" Duration="10" Instrument="SquareBridgePlain"
			Pattern Name="Outro1"
				Note Time="8" Value="C5" Duration="30" Instrument="SquareBridgePlain"
				Note Time="38" Value="A4" Duration="42" Instrument="SquareBridgePlain"
				Note Time="80" Value="A3" Duration="20" Release="11" Instrument="SquareHit"
				Note Time="100" Value="G3" Duration="20" Release="11" Instrument="SquareHit"
				Note Time="120" Value="F3" Duration="20" Release="11" Instrument="SquareHit"
				Note Time="140" Value="D3" Duration="20" Release="11" Instrument="SquareHit"
				Note Time="159" VibratoSpeed="0" VibratoDepth="0"
			PatternInstance Time="0" Pattern="Intro1"
			PatternInstance Time="1" Pattern="Intro2"
			PatternInstance Time="2" Pattern="Intro3"
			PatternInstance Time="3" Pattern="Intro4"
			PatternInstance Time="4" Pattern="Verse1"
			PatternInstance Time="5" Pattern="Verse2"
			PatternInstance Time="6" Pattern="Verse3"
			PatternInstance Time="7" Pattern="Verse4"
			PatternInstance Time="8" Pattern="Verse5"
			PatternInstance Time="9" Pattern="Verse6"
			PatternInstance Time="10" Pattern="Verse7"
			PatternInstance Time="11" Pattern="Verse8"
			PatternInstance Time="12" Pattern="Chorus1"
			PatternInstance Time="13" Pattern="Chorus2"
			PatternInstance Time="14" Pattern="Chorus3"
			PatternInstance Time="15" Pattern="Chorus4"
			PatternInstance Time="16" Pattern="Chorus5"
			PatternInstance Time="17" Pattern="Bridge1"
			PatternInstance Time="18" Pattern="Bridge2"
			PatternInstance Time="19" Pattern="Bridge3"
			PatternInstance Time="20" Pattern="Bridge2"
			PatternInstance Time="21" Pattern="Bridge4"
			PatternInstance Time="22" Pattern="Bridge5"
			PatternInstance Time="23" Pattern="Outro1"
		Channel Type="Square2"
			Pattern Name="Intro1"
				Note Time="0" Value="F5" Duration="5" Instrument="SquareIntroArpeggio"
				Note Time="5" Value="D5" Duration="5" Instrument="SquareIntroArpeggio"
				Note Time="10" Value="A4" Duration="5" Instrument="SquareIntroArpeggio"
				Note Time="15" Value="F4" Duration="5" Instrument="SquareIntroArpeggio"
				Note Time="20" Value="F5" Duration="5" Instrument="SquareIntroArpeggio"
				Note Time="25" Value="D5" Duration="5" Instrument="SquareIntroArpeggio"
				Note Time="30" Value="A4" Duration="5" Instrument="SquareIntroArpeggio"
				Note Time="35" Value="F4" Duration="5" Instrument="SquareIntroArpeggio"
				Note Time="40" Value="F5" Duration="5" Instrument="SquareIntroArpeggio"
				Note Time="45" Value="D5" Duration="5" Instrument="SquareIntroArpeggio"
				Note Time="50" Value="A4" Duration="5" Instrument="SquareIntroArpeggio"
				Note Time="55" Value="F4" Duration="5" Instrument="SquareIntroArpeggio"
				Note Time="60" Value="F5" Duration="5" Instrument="SquareIntroArpeggio"
				Note Time="65" Value="D5" Duration="5" Instrument="SquareIntroArpeggio"
				Note Time="70" Value="A4" Duration="5" Instrument="SquareIntroArpeggio"
				Note Time="75" Value="F4" Duration="5" Instrument="SquareIntroArpeggio"
				Note Time="80" Value="F5" Duration="5" Instrument="SquareIntroArpeggio"
				Note Time="85" Value="D5" Duration="5" Instrument="SquareIntroArpeggio"
				Note Time="90" Value="A4" Duration="5" Instrument="SquareIntroArpeggio"
				Note Time="95" Value="F4" Duration="5" Instrument="SquareIntroArpeggio"
				Note Time="100" Value="F5" Duration="5" Instrument="SquareIntroArpeggio"
				Note Time="105" Value="D5" Duration="5" Instrument="SquareIntroArpeggio"
				Note Time="110" Value="A4" Duration="5" Instrument="SquareIntroArpeggio"
				Note Time="115" Value="F4" Duration="5" Instrument="SquareIntroArpeggio"
				Note Time="120" Value="F5" Duration="5" Instrument="SquareIntroArpeggio"
				Note Time="125" Value="D5" Duration="5" Instrument="SquareIntroArpeggio"
				Note Time="130" Value="A4" Duration="5" Instrument="SquareIntroArpeggio"
				Note Time="135" Value="F4" Duration="5" Instrument="SquareIntroArpeggio"
				Note Time="140" Value="F5" Duration="5" Instrument="SquareIntroArpeggio"
				Note Time="145" Value="D5" Duration="5" Instrument="SquareIntroArpeggio"
				Note Time="150" Value="A4" Duration="5" Instrument="SquareIntroArpeggio"
				Note Time="155" Value="F4" Duration="5" Instrument="SquareIntroArpeggio"
			Pattern Name="Intro2"
				Note Time="0" Value="G5" Duration="5" Instrument="SquareIntroArpeggio"
				Note Time="5" Value="E5" Duration="5" Instrument="SquareIntroArpeggio"
				Note Time="10" Value="B4" Duration="5" Instrument="SquareIntroArpeggio"
				Note Time="15" Value="G4" Duration="5" Instrument="SquareIntroArpeggio"
				Note Time="20" Value="G5" Duration="5" Instrument="SquareIntroArpeggio"
				Note Time="25" Value="E5" Duration="5" Instrument="SquareIntroArpeggio"
				Note Time="30" Value="B4" Duration="5" Instrument="SquareIntroArpeggio"
				Note Time="35" Value="G4" Duration="5" Instrument="SquareIntroArpeggio"
				Note Time="40" Value="G5" Duration="5" Instrument="SquareIntroArpeggio"
				Note Time="45" Value="E5" Duration="5" Instrument="SquareIntroArpeggio"
				Note Time="50" Value="B4" Duration="5" Instrument="SquareIntroArpeggio"
				Note Time="55" Value="G4" Duration="5" Instrument="SquareIntroArpeggio"
				Note Time="60" Value="G5" Duration="5" Instrument="SquareIntroArpeggio"
				Note Time="65" Value="E5" Duration="5" Instrument="SquareIntroArpeggio"
				Note Time="70" Value="B4" Duration="5" Instrument="SquareIntroArpeggio"
				Note Time="75" Value="G4" Duration="5" Instrument="SquareIntroArpeggio"
				Note Time="80" Value="G5" Duration="5" Instrument="SquareIntroArpeggio"
				Note Time="85" Value="E5" Duration="5" Instrument="SquareIntroArpeggio"
				Note Time="90" Value="B4" Duration="5" Instrument="SquareIntroArpeggio"
				Note Time="95" Value="G4" Duration="5" Instrument="SquareIntroArpeggio"
				Note Time="100" Value="G5" Duration="5" Instrument="SquareIntroArpeggio"
				Note Time="105" Value="E5" Duration="5" Instrument="SquareIntroArpeggio"
				Note Time="110" Value="B4" Duration="5" Instrument="SquareIntroArpeggio"
				Note Time="115" Value="G4" Duration="5" Instrument="SquareIntroArpeggio"
				Note Time="120" Value="G5" Duration="5" Instrument="SquareIntroArpeggio"
				Note Time="125" Value="E5" Duration="5" Instrument="SquareIntroArpeggio"
				Note Time="130" Value="B4" Duration="5" Instrument="SquareIntroArpeggio"
				Note Time="135" Value="G4" Duration="5" Instrument="SquareIntroArpeggio"
				Note Time="140" Value="G5" Duration="5" Instrument="SquareIntroArpeggio"
				Note Time="145" Value="E5" Duration="5" Instrument="SquareIntroArpeggio"
				Note Time="150" Value="B4" Duration="5" Instrument="SquareIntroArpeggio"
				Note Time="155" Value="G4" Duration="5" Instrument="SquareIntroArpeggio"
			Pattern Name="Intro3"
				Note Time="0" Value="A5" Duration="5" Instrument="SquareIntroArpeggio"
				Note Time="5" Value="F5" Duration="5" Instrument="SquareIntroArpeggio"
				Note Time="10" Value="C5" Duration="5" Instrument="SquareIntroArpeggio"
				Note Time="15" Value="A4" Duration="5" Instrument="SquareIntroArpeggio"
				Note Time="20" Value="A5" Duration="5" Instrument="SquareIntroArpeggio"
				Note Time="25" Value="F5" Duration="5" Instrument="SquareIntroArpeggio"
				Note Time="30" Value="C5" Duration="5" Instrument="SquareIntroArpeggio"
				Note Time="35" Value="A4" Duration="5" Instrument="SquareIntroArpeggio"
				Note Time="40" Value="A5" Duration="5" Instrument="SquareIntroArpeggio"
				Note Time="45" Value="F5" Duration="5" Instrument="SquareIntroArpeggio"
				Note Time="50" Value="C5" Duration="5" Instrument="SquareIntroArpeggio"
				Note Time="55" Value="A4" Duration="5" Instrument="SquareIntroArpeggio"
				Note Time="60" Value="A5" Duration="5" Instrument="SquareIntroArpeggio"
				Note Time="65" Value="F5" Duration="5" Instrument="SquareIntroArpeggio"
				Note Time="70" Value="C5" Duration="5" Instrument="SquareIntroArpeggio"
				Note Time="75" Value="A4" Duration="5" Instrument="SquareIntroArpeggio"
				Note Time="80" Value="A5" Duration="5" Instrument="SquareIntroArpeggio"
				Note Time="85" Value="F#5" Duration="5" Instrument="SquareIntroArpeggio"
				Note Time="90" Value="D5" Duration="5" Instrument="SquareIntroArpeggio"
				Note Time="95" Value="A4" Duration="5" Instrument="SquareIntroArpeggio"
				Note Time="100" Value="A5" Duration="5" Instrument="SquareIntroArpeggio"
				Note Time="105" Value="F#5" Duration="5" Instrument="SquareIntroArpeggio"
				Note Time="110" Value="D5" Duration="5" Instrument="SquareIntroArpeggio"
				Note Time="115" Value="A4" Duration="5" Instrument="SquareIntroArpeggio"
				Note Time="120" Value="A5" Duration="5" Instrument="SquareIntroArpeggio"
				Note Time="125" Value="F#5" Duration="5" Instrument="SquareIntroArpeggio"
				Note Time="130" Value="D5" Duration="5" Instrument="SquareIntroArpeggio"
				Note Time="135" Value="A4" Duration="5" Instrument="SquareIntroArpeggio"
				Note Time="140" Value="A5" Duration="5" Instrument="SquareIntroArpeggio"
				Note Time="145" Value="F#5" Duration="5" Instrument="SquareIntroArpeggio"
				Note Time="150" Value="D5" Duration="5" Instrument="SquareIntroArpeggio"
				Note Time="155" Value="A4" Duration="5" Instrument="SquareIntroArpeggio"
			Pattern Name="Intro4"
				Note Time="0" Value="G5" Duration="5" Instrument="SquareIntroArpeggio"
				Note Time="5" Value="D5" Duration="5" Instrument="SquareIntroArpeggio"
				Note Time="10" Value="C5" Duration="5" Instrument="SquareIntroArpeggio"
				Note Time="15" Value="G4" Duration="5" Instrument="SquareIntroArpeggio"
				Note Time="20" Value="G5" Duration="5" Instrument="SquareIntroArpeggio"
				Note Time="25" Value="D5" Duration="5" Instrument="SquareIntroArpeggio"
				Note Time="30" Value="C5" Duration="5" Instrument="SquareIntroArpeggio"
				Note Time="35" Value="G4" Duration="5" Instrument="SquareIntroArpeggio"
				Note Time="40" Value="G5" Duration="5" Instrument="SquareIntroArpeggio"
				Note Time="45" Value="D5" Duration="5" Instrument="SquareIntroArpeggio"
				Note Time="50" Value="C5" Duration="5" Instrument="SquareIntroArpeggio"
				Note Time="55" Value="G4" Duration="5" Instrument="SquareIntroArpeggio"
				Note Time="60" Value="G5" Duration="5" Instrument="SquareIntroArpeggio"
				Note Time="65" Value="D5" Duration="5" Instrument="SquareIntroArpeggio"
				Note Time="70" Value="C5" Duration="5" Instrument="SquareIntroArpeggio"
				Note Time="75" Value="G4" Duration="5" Instrument="SquareIntroArpeggio"
				Note Time="80" Value="G5" Duration="5" Instrument="SquareIntroArpeggio"
				Note Time="85" Value="D5" Duration="5" Instrument="SquareIntroArpeggio"
				Note Time="90" Value="B4" Duration="5" Instrument="SquareIntroArpeggio"
				Note Time="95" Value="G4" Duration="5" Instrument="SquareIntroArpeggio"
				Note Time="100" Value="G5" Duration="5" Instrument="SquareIntroArpeggio"
				Note Time="105" Value="D5" Duration="5" Instrument="SquareIntroArpeggio"
				Note Time="110" Value="B4" Duration="5" Instrument="SquareIntroArpeggio"
				Note Time="115" Value="G4" Duration="5" Instrument="SquareIntroArpeggio"
				Note Time="120" Value="G5" Duration="5" Instrument="SquareIntroArpeggio"
				Note Time="125" Value="D5" Duration="5" Instrument="SquareIntroArpeggio"
				Note Time="130" Value="B4" Duration="5" Instrument="SquareIntroArpeggio"
				Note Time="135" Value="G4" Duration="5" Instrument="SquareIntroArpeggio"
				Note Time="140" Value="G5" Duration="5" Instrument="SquareIntroArpeggio"
				Note Time="145" Value="D5" Duration="5" Instrument="SquareIntroArpeggio"
				Note Time="150" Value="B4" Duration="5" Instrument="SquareIntroArpeggio"
				Note Time="155" Value="G4" Duration="5" Instrument="SquareIntroArpeggio"
			Pattern Name="Verse1"
				Note Time="40" Value="A3" Duration="10" Instrument="SquareLeadHigh"
				Note Time="50" Value="C4" Duration="10" Instrument="SquareLeadHigh"
				Note Time="60" Value="E4" Duration="10" Instrument="SquareLeadHigh"
				Note Time="70" Value="D4" Duration="20" Instrument="SquareLeadHigh"
				Note Time="90" Value="C4" Duration="20" Instrument="SquareLeadHigh"
				Note Time="110" Value="B3" Duration="20" Instrument="SquareLeadHigh"
				Note Time="130" Value="C4" Duration="20" Instrument="SquareLeadHigh"
				Note Time="150" Value="A3" Duration="46" Release="14" Instrument="SquareLeadHigh"
			Pattern Name="Verse2"
				Note Time="120" Value="E3" Duration="10" Instrument="SquareLeadHigh"
				Note Time="130" Value="F3" Duration="10" Instrument="SquareLeadHigh"
				Note Time="140" Value="G3" Duration="10" Instrument="SquareLeadHigh"
				Note Time="150" Value="G3" Duration="20" Instrument="SquareLeadHigh"
			Pattern Name="Verse3"
				Note Time="10" Value="E3" Duration="10" Instrument="SquareLeadHigh"
				Note Time="20" Value="C3" Duration="57" Release="25" Instrument="SquareLeadHigh"
				Note Time="120" Value="D3" Duration="10" Instrument="SquareLeadHigh"
				Note Time="130" Value="G3" Duration="10" Instrument="SquareLeadHigh"
				Note Time="140" Value="C4" Duration="10" Instrument="SquareLeadHigh"
				Note Time="150" Value="B3" Duration="20" Instrument="SquareLeadHigh"
			Pattern Name="Verse4"
				Note Time="10" Value="A3" Duration="46" Release="14" Instrument="SquareLeadHigh"
				Note Time="130" Value="G4" Duration="18" Release="8" Instrument="SquareHit"
				Note Time="150" Value="A4" Duration="25" Release="6" Instrument="SquareHit"
			Pattern Name="Verse5"
				Note Time="40" Value="A3" Duration="10" Instrument="SquareLeadHigh"
				Note Time="50" Value="C4" Duration="10" Instrument="SquareLeadHigh"
				Note Time="60" Value="E4" Duration="10" Instrument="SquareLeadHigh"
				Note Time="70" Value="D4" Duration="20" Instrument="SquareLeadHigh"
				Note Time="90" Value="C4" Duration="20" Instrument="SquareLeadHigh"
				Note Time="110" Value="B3" Duration="20" Instrument="SquareLeadHigh"
				Note Time="130" Value="G4" Duration="20" Instrument="SquareLeadHigh"
				Note Time="150" Value="E4" Duration="46" Release="14" Instrument="SquareLeadHigh"
			Pattern Name="Verse6"
				Note Time="120" Value="E4" Duration="10" Instrument="SquareLeadHigh"
				Note Time="130" Value="D4" Duration="10" Instrument="SquareLeadHigh"
				Note Time="140" Value="C4" Duration="10" Instrument="SquareLeadHigh"
				Note Time="150" Value="B3" Duration="20" Instrument="SquareLeadHigh"
			Pattern Name="Verse7"
				Note Time="10" Value="C4" Duration="10" Instrument="SquareLeadHigh"
				Note Time="20" Value="A3" Duration="57" Release="25" Instrument="SquareLeadHigh"
				Note Time="120" Value="E4" Duration="10" Instrument="SquareLeadHigh"
				Note Time="130" Value="D4" Duration="10" Instrument="SquareLeadHigh"
				Note Time="140" Value="C4" Duration="10" Instrument="SquareLeadHigh"
				Note Time="150" Value="G4" Duration="90" Release="30" Instrument="SquareLeadHigh"
			Pattern Name="Verse8"
				Note Time="80" Value="B4" Duration="10" Release="6" Instrument="SquareHit"
				Note Time="90" Value="B4" Duration="16" Release="6" Instrument="SquareHit"
			Pattern Name="Chorus1"
				Note Time="0" Value="A2" Duration="5" Instrument="SquareChorusArpeggio"
				Note Time="5" Value="C3" Duration="5" Instrument="SquareChorusArpeggio"
				Note Time="10" Value="G3" Duration="5" Instrument="SquareChorusArpeggio"
				Note Time="15" Value="A3" Duration="5" Instrument="SquareChorusArpeggio"
				Note Time="20" Value="C4" Duration="5" Instrument="SquareChorusArpeggio"
				Note Time="25" Value="F4" Duration="5" Instrument="SquareChorusArpeggio"
				Note Time="30" Value="A4" Duration="5" Instrument="SquareChorusArpeggio"
				Note Time="35" Value="C5" Duration="5" Instrument="SquareChorusArpeggio"
				Note Time="40" Value="F5" Duration="5" Instrument="SquareChorusArpeggio"
				Note Time="45" Value="C5" Duration="5" Instrument="SquareChorusArpeggio"
				Note Time="50" Value="A4" Duration="5" Instrument="SquareChorusArpeggio"
				Note Time="55" Value="F4" Duration="5" Instrument="SquareChorusArpeggio"
				Note Time="60" Value="C4" Duration="5" Instrument="SquareChorusArpeggio"
				Note Time="65" Value="A3" Duration="5" Instrument="SquareChorusArpeggio"
				Note Time="70" Value="F3" Duration="5" Instrument="SquareChorusArpeggio"
				Note Time="75" Value="C3" Duration="5" Instrument="SquareChorusArpeggio"
				Note Time="80" Value="B2" Duration="5" Instrument="SquareChorusArpeggio"
				Note Time="85" Value="D3" Duration="5" Instrument="SquareChorusArpeggio"
				Note Time="90" Value="G3" Duration="5" Instrument="SquareChorusArpeggio"
				Note Time="95" Value="B3" Duration="5" Instrument="SquareChorusArpeggio"
				Note Time="100" Value="D4" Duration="5" Instrument="SquareChorusArpeggio"
				Note Time="105" Value="G4" Duration="5" Instrument="SquareChorusArpeggio"
				Note Time="110" Value="B4" Duration="5" Instrument="SquareChorusArpeggio"
				Note Time="115" Value="D5" Duration="5" Instrument="SquareChorusArpeggio"
				Note Time="120" Value="G5" Duration="5" Instrument="SquareChorusArpeggio"
				Note Time="125" Value="D5" Duration="5" Instrument="SquareChorusArpeggio"
				Note Time="130" Value="B4" Duration="5" Instrument="SquareChorusArpeggio"
				Note Time="135" Value="G4" Duration="5" Instrument="SquareChorusArpeggio"
				Note Time="140" Value="D4" Duration="5" Instrument="SquareChorusArpeggio"
				Note Time="145" Value="B3" Duration="5" Instrument="SquareChorusArpeggio"
				Note Time="150" Value="G3" Duration="5" Instrument="SquareChorusArpeggio"
				Note Time="155" Value="D3" Duration="5" Instrument="SquareChorusArpeggio"
			Pattern Name="Chorus2"
				Note Time="0" Value="C3" Duration="5" Instrument="SquareChorusArpeggio"
				Note Time="5" Value="F3" Duration="5" Instrument="SquareChorusArpeggio"
				Note Time="10" Value="A3" Duration="5" Instrument="SquareChorusArpeggio"
				Note Time="15" Value="C4" Duration="5" Instrument="SquareChorusArpeggio"
				Note Time="20" Value="F4" Duration="5" Instrument="SquareChorusArpeggio"
				Note Time="25" Value="A4" Duration="5" Instrument="SquareChorusArpeggio"
				Note Time="30" Value="C5" Duration="5" Instrument="SquareChorusArpeggio"
				Note Time="35" Value="F5" Duration="5" Instrument="SquareChorusArpeggio"
				Note Time="40" Value="A5" Duration="5" Instrument="SquareChorusArpeggio"
				Note Time="45" Value="F5" Duration="5" Instrument="SquareChorusArpeggio"
				Note Time="50" Value="C5" Duration="5" Instrument="SquareChorusArpeggio"
				Note Time="55" Value="A4" Duration="5" Instrument="SquareChorusArpeggio"
				Note Time="60" Value="F4" Duration="5" Instrument="SquareChorusArpeggio"
				Note Time="65" Value="D4" Duration="5" Instrument="SquareChorusArpeggio"
				Note Time="70" Value="A3" Duration="5" Instrument="SquareChorusArpeggio"
				Note Time="75" Value="F3" Duration="5" Instrument="SquareChorusArpeggio"
				Note Time="80" Value="E3" Duration="5" Instrument="SquareChorusArpeggio"
				Note Time="85" Value="G3" Duration="5" Instrument="SquareChorusArpeggio"
				Note Time="90" Value="B3" Duration="5" Instrument="SquareChorusArpeggio"
				Note Time="95" Value="E4" Duration="5" Instrument="SquareChorusArpeggio"
				Note Time="100" Value="G4" Duration="5" Instrument="SquareChorusArpeggio"
				Note Time="105" Value="B4" Duration="5" Instrument="SquareChorusArpeggio"
				Note Time="110" Value="E5" Duration="5" Instrument="SquareChorusArpeggio"
				Note Time="115" Value="G5" Duration="5" Instrument="SquareChorusArpeggio"
				Note Time="120" Value="B5" Duration="5" Instrument="SquareChorusArpeggio"
				Note Time="125" Value="G5" Duration="5" Instrument="SquareChorusArpeggio"
				Note Time="130" Value="E5" Duration="5" Instrument="SquareChorusArpeggio"
				Note Time="135" Value="B4" Duration="5" Instrument="SquareChorusArpeggio"
				Note Time="140" Value="G4" Duration="5" Instrument="SquareChorusArpeggio"
				Note Time="145" Value="E4" Duration="5" Instrument="SquareChorusArpeggio"
				Note Time="150" Value="B3" Duration="5" Instrument="SquareChorusArpeggio"
				Note Time="155" Value="G3" Duration="5" Instrument="SquareChorusArpeggio"
			Pattern Name="Chorus3"
				Note Time="0" Value="C3" Duration="5" Instrument="SquareChorusArpeggio"
				Note Time="5" Value="F3" Duration="5" Instrument="SquareChorusArpeggio"
				Note Time="10" Value="A3" Duration="5" Instrument="SquareChorusArpeggio"
				Note Time="15" Value="C4" Duration="5" Instrument="SquareChorusArpeggio"
				Note Time="20" Value="F4" Duration="5" Instrument="SquareChorusArpeggio"
				Note Time="25" Value="A4" Duration="5" Instrument="SquareChorusArpeggio"
				Note Time="30" Value="C5" Duration="5" Instrument="SquareChorusArpeggio"
				Note Time="35" Value="F5" Duration="5" Instrument="SquareChorusArpeggio"
				Note Time="40" Value="A5" Duration="5" Instrument="SquareChorusArpeggio"
				Note Time="45" Value="F5" Duration="5" Instrument="SquareChorusArpeggio"
				Note Time="50" Value="C5" Duration="5" Instrument="SquareChorusArpeggio"
				Note Time="55" Value="A4" Duration="5" Instrument="SquareChorusArpeggio"
				Note Time="60" Value="F4" Duration="5" Instrument="SquareChorusArpeggio"
				Note Time="65" Value="D4" Duration="5" Instrument="SquareChorusArpeggio"
				Note Time="70" Value="A3" Duration="5" Instrument="SquareChorusArpeggio"
				Note Time="75" Value="F3" Duration="5" Instrument="SquareChorusArpeggio"
				Note Time="80" Value="E5" Duration="5" Instrument="SquareChorusArpeggio"
				Note Time="85" Value="C5" Duration="5" Instrument="SquareChorusArpeggio"
				Note Time="90" Value="A4" Duration="5" Instrument="SquareChorusArpeggio"
				Note Time="95" Value="F4" Duration="5" Instrument="SquareChorusArpeggio"
				Note Time="100" Value="E4" Duration="5" Instrument="SquareChorusArpeggio"
				Note Time="105" Value="C4" Duration="5" Instrument="SquareChorusArpeggio"
				Note Time="110" Value="A3" Duration="5" Instrument="SquareChorusArpeggio"
				Note Time="115" Value="F3" Duration="5" Instrument="SquareChorusArpeggio"
				Note Time="120" Value="E3" Duration="5" Instrument="SquareChorusArpeggio"
				Note Time="125" Value="C3" Duration="5" Instrument="SquareChorusArpeggio"
				Note Time="130" Value="A2" Duration="5" Instrument="SquareChorusArpeggio"
				Note Time="135" Value="F2" Duration="5" Instrument="SquareChorusArpeggio"
				Note Time="140" Value="E2" Duration="5" Instrument="SquareChorusArpeggio"
				Note Time="145" Value="C2" Duration="5" Instrument="SquareChorusArpeggio"
				Note Time="150" Value="A1" Duration="5" Instrument="SquareChorusArpeggio"
				Note Time="155" Value="F1" Duration="9" Release="5" Instrument="SquareChorusArpeggio"
			Pattern Name="Chorus4"
				Note Time="10" Value="G3" Duration="10" Release="6" Instrument="SquareBridgeArpeggio"
				Note Time="20" Value="A3" Duration="10" Release="6" Instrument="SquareBridgeArpeggio"
				Note Time="30" Value="C4" Duration="10" Release="6" Instrument="SquareBridgeArpeggio"
				Note Time="40" Value="D#4" Duration="7" Release="4" Instrument="SquareBridgeArpeggio"
				Note Time="47" Value="D4" Duration="6" Release="4" Instrument="SquareBridgeArpeggio"
				Note Time="53" Value="C4" Duration="7" Release="4" Instrument="SquareBridgeArpeggio"
				Note Time="60" Value="D4" Duration="7" Release="4" Instrument="SquareBridgeArpeggio"
				Note Time="67" Value="C4" Duration="6" Release="4" Instrument="SquareBridgeArpeggio"
				Note Time="73" Value="A3" Duration="7" Release="4" Instrument="SquareBridgeArpeggio"
				Note Time="80" Value="C4" Duration="7" Release="4" Instrument="SquareBridgeArpeggio"
				Note Time="87" Value="A3" Duration="6" Release="4" Instrument="SquareBridgeArpeggio"
				Note Time="93" Value="G3" Duration="7" Release="4" Instrument="SquareBridgeArpeggio"
				Note Time="100" Value="A3" Duration="7" Release="4" Instrument="SquareBridgeArpeggio"
				Note Time="107" Value="E3" Duration="6" Release="4" Instrument="SquareBridgeArpeggio"
				Note Time="113" Value="D#3" Duration="7" Release="4" Instrument="SquareBridgeArpeggio"
				Note Time="120" Value="G4" Duration="10" Release="6" Instrument="SquareBridgeArpeggio"
				Note Time="130" Value="G4" Duration="20" Release="11" Instrument="SquareBridgeArpeggio"
				Note Time="150" Value="A4" Duration="30" Release="22" Instrument="SquareBridgeArpeggio"
			Pattern Name="Bridge1"
				Note Time="20" Value="E4" Duration="10" Release="6" Instrument="SquareBridgeArpeggio"
				Note Time="30" Value="A3" Duration="10" Release="6" Instrument="SquareBridgeArpeggio"
				Note Time="40" Value="D4" Duration="10" Release="6" Instrument="SquareBridgeArpeggio"
				Note Time="50" Value="C4" Duration="12" Release="6" Instrument="SquareBridgeArpeggio"
				Note Time="70" Value="A5" Duration="28" Release="12" Instrument="SquareLeadHigh"
				Note Time="100" Value="E5" Duration="30" Release="12" Instrument="SquareLeadHigh"
				Note Time="130" Value="G5" Duration="28" Release="12" Instrument="SquareLeadHigh"
			Pattern Name="Bridge2"
				Note Time="0" Value="D5" Duration="30" Release="12" Instrument="SquareLeadHigh"
				Note Time="30" Value="E5" Duration="28" Release="12" Instrument="SquareLeadHigh"
				Note Time="60" Value="C5" Duration="30" Release="12" Instrument="SquareLeadHigh"
				Note Time="90" Value="D5" Duration="28" Release="12" Instrument="SquareLeadHigh"
				Note Time="120" Value="A4" Duration="30" Release="12" Instrument="SquareLeadHigh"
				Note Time="150" Value="A4" Duration="30" Release="22" Instrument="SquareBridgeArpeggio"
			Pattern Name="Bridge3"
				Note Time="10" Value="G3" Duration="10" Release="7" Instrument="SquareBridgeArpeggio"
				Note Time="20" Value="A3" Duration="10" Release="7" Instrument="SquareBridgeArpeggio"
				Note Time="30" Value="C4" Duration="10" Release="7" Instrument="SquareBridgeArpeggio"
				Note Time="40" Value="D4" Duration="10" Release="7" Instrument="SquareBridgeArpeggio"
				Note Time="50" Value="A4" Duration="13" Release="7" Instrument="SquareBridgeArpeggio"
				Note Time="70" Value="A5" Duration="28" Release="12" Instrument="SquareLeadHigh"
				Note Time="100" Value="E5" Duration="30" Release="12" Instrument="SquareLeadHigh"
				Note Time="130" Value="G5" Duration="28" Release="12" Instrument="SquareLeadHigh"
			Pattern Name="Bridge4"
				Note Time="0" Value="D5" Duration="30" Release="12" Instrument="SquareLeadHigh"
				Note Time="30" Value="E5" Duration="28" Release="12" Instrument="SquareLeadHigh"
				Note Time="60" Value="C5" Duration="30" Release="12" Instrument="SquareLeadHigh"
				Note Time="90" Value="D5" Duration="28" Release="12" Instrument="SquareLeadHigh"
				Note Time="120" Value="E4" Duration="10" Release="6" Instrument="SquareBridgeArpeggio"
				Note Time="130" Value="G4" Duration="10" Release="6" Instrument="SquareBridgeArpeggio"
				Note Time="140" Value="A4" Duration="10" Release="6" Instrument="SquareBridgeArpeggio"
				Note Time="150" Value="C5" Duration="30" Instrument="SquareBridgeArpeggio"
			Pattern Name="Outro1"
				Note Time="20" Value="A4" Duration="60" Instrument="SquareBridgeArpeggio"
				Note Time="80" Value="C4" Duration="20" Release="11" Instrument="SquareHit"
				Note Time="100" Value="B3" Duration="20" Release="11" Instrument="SquareHit"
				Note Time="120" Value="A3" Duration="20" Release="11" Instrument="SquareHit"
				Note Time="140" Value="G3" Duration="20" Release="11" Instrument="SquareHit"
			PatternInstance Time="0" Pattern="Intro1"
			PatternInstance Time="1" Pattern="Intro2"
			PatternInstance Time="2" Pattern="Intro3"
			PatternInstance Time="3" Pattern="Intro4"
			PatternInstance Time="4" Pattern="Verse1"
			PatternInstance Time="5" Pattern="Verse2"
			PatternInstance Time="6" Pattern="Verse3"
			PatternInstance Time="7" Pattern="Verse4"
			PatternInstance Time="8" Pattern="Verse5"
			PatternInstance Time="9" Pattern="Verse6"
			PatternInstance Time="10" Pattern="Verse7"
			PatternInstance Time="11" Pattern="Verse8"
			PatternInstance Time="12" Pattern="Chorus1"
			PatternInstance Time="13" Pattern="Chorus2"
			PatternInstance Time="14" Pattern="Chorus1"
			PatternInstance Time="15" Pattern="Chorus3"
			PatternInstance Time="16" Pattern="Chorus4"
			PatternInstance Time="17" Pattern="Bridge1"
			PatternInstance Time="18" Pattern="Bridge2"
			PatternInstance Time="19" Pattern="Bridge3"
			PatternInstance Time="20" Pattern="Bridge2"
			PatternInstance Time="21" Pattern="Bridge1"
			PatternInstance Time="22" Pattern="Bridge4"
			PatternInstance Time="23" Pattern="Outro1"
		Channel Type="Triangle"
			Pattern Name="Chorus1"
				Note Time="0" Value="E3" Duration="20" Instrument="TriBassDrum"
				Note Time="20" Value="A3" Duration="20" Instrument="TriSnare"
				Note Time="40" Value="E3" Duration="20" Instrument="TriBassDrum"
				Note Time="60" Value="A3" Duration="20" Instrument="TriSnare"
				Note Time="80" Value="E3" Duration="20" Instrument="TriBassDrum"
				Note Time="100" Value="A3" Duration="20" Instrument="TriSnare"
				Note Time="120" Value="E3" Duration="20" Instrument="TriBassDrum"
				Note Time="140" Value="A3" Duration="20" Instrument="TriSnare"
			Pattern Name="Verse1"
				Note Time="0" Value="E5" Duration="10" Instrument="TriBleep"
				Note Time="10" Value="E5" Duration="10" Instrument="TriBleep"
				Note Time="20" Value="E5" Duration="10" Instrument="TriBleep"
				Note Time="30" Value="E5" Duration="10" Instrument="TriBleep"
				Note Time="40" Value="E5" Duration="10" Instrument="TriBleep"
				Note Time="50" Value="E5" Duration="10" Instrument="TriBleep"
				Note Time="60" Value="E5" Duration="10" Instrument="TriBleep"
				Note Time="70" Value="E5" Duration="10" Instrument="TriBleep"
				Note Time="80" Value="E5" Duration="10" Instrument="TriBleep"
				Note Time="90" Value="E5" Duration="10" Instrument="TriBleep"
				Note Time="100" Value="E5" Duration="10" Instrument="TriBleep"
				Note Time="110" Value="E5" Duration="10" Instrument="TriBleep"
				Note Time="120" Value="E5" Duration="10" Instrument="TriBleep"
				Note Time="130" Value="E5" Duration="10" Instrument="TriBleep"
				Note Time="140" Value="E5" Duration="10" Instrument="TriBleep"
				Note Time="150" Value="E5" Duration="10" Instrument="TriBleep"
			Pattern Name="Verse2"
				Note Time="0" Value="E5" Duration="10" Instrument="TriBleep"
				Note Time="10" Value="E5" Duration="10" Instrument="TriBleep"
				Note Time="20" Value="E5" Duration="10" Instrument="TriBleep"
				Note Time="30" Value="E5" Duration="10" Instrument="TriBleep"
				Note Time="40" Value="E5" Duration="10" Instrument="TriBleep"
				Note Time="50" Value="E5" Duration="10" Instrument="TriBleep"
				Note Time="60" Value="E5" Duration="10" Instrument="TriBleep"
				Note Time="70" Value="E5" Duration="10" Instrument="TriBleep"
				Note Time="80" Value="E5" Duration="10" Instrument="TriBleep"
				Note Time="90" Value="E5" Duration="10" Instrument="TriBleep"
				Note Time="100" Value="E5" Duration="10" Instrument="TriBleep"
				Note Time="110" Value="E5" Duration="10" Instrument="TriBleep"
				Note Time="120" Value="E5" Duration="10" Instrument="TriBleep"
				Note Time="130" Value="E5" Duration="10" Instrument="TriBleep"
				Note Time="140" Value="E5" Duration="10" Instrument="TriBleep"
				Note Time="150" Value="E5" Duration="10" Instrument="TriBleep"
			Pattern Name="Verse3"
				Note Time="0" Value="C5" Duration="10" Instrument="TriBleep"
				Note Time="10" Value="C5" Duration="10" Instrument="TriBleep"
				Note Time="20" Value="C5" Duration="10" Instrument="TriBleep"
				Note Time="30" Value="C5" Duration="10" Instrument="TriBleep"
				Note Time="40" Value="C5" Duration="10" Instrument="TriBleep"
				Note Time="50" Value="C5" Duration="10" Instrument="TriBleep"
				Note Time="60" Value="C5" Duration="10" Instrument="TriBleep"
				Note Time="70" Value="D5" Duration="10" Instrument="TriBleep"
				Note Time="80" Value="D5" Duration="10" Instrument="TriBleep"
				Note Time="90" Value="D5" Duration="10" Instrument="TriBleep"
				Note Time="100" Value="D5" Duration="10" Instrument="TriBleep"
				Note Time="110" Value="D5" Duration="10" Instrument="TriBleep"
				Note Time="120" Value="D5" Duration="10" Instrument="TriBleep"
				Note Time="130" Value="D5" Duration="10" Instrument="TriBleep"
				Note Time="140" Value="D5" Duration="10" Instrument="TriBleep"
				Note Time="150" Value="E5" Duration="10" Instrument="TriBleep"
			Pattern Name="Verse4"
				Note Time="0" Value="E5" Duration="10" Instrument="TriBleep"
				Note Time="10" Value="E5" Duration="10" Instrument="TriBleep"
				Note Time="20" Value="E5" Duration="10" Instrument="TriBleep"
				Note Time="30" Value="E5" Duration="10" Instrument="TriBleep"
				Note Time="40" Value="E5" Duration="10" Instrument="TriBleep"
				Note Time="50" Value="E5" Duration="10" Instrument="TriBleep"
				Note Time="60" Value="E5" Duration="10" Instrument="TriBleep"
				Note Time="70" Value="E5" Duration="10" Instrument="TriBleep"
				Note Time="80" Value="B4" Duration="10" Instrument="TriBleep"
				Note Time="90" Value="A4" Duration="10" Instrument="TriBleep"
				Note Time="100" Value="B4" Duration="18" Instrument="TriBleep"
				Note Time="130" Value="B4" Duration="17" Instrument="TriBleep"
				Note Time="150" Value="C5" Duration="10" Instrument="TriBleep"
			Pattern Name="Verse5"
				Note Time="0" Value="E5" Duration="10" Instrument="TriBleep"
				Note Time="10" Value="E5" Duration="10" Instrument="TriBleep"
				Note Time="20" Value="E5" Duration="10" Instrument="TriBleep"
				Note Time="30" Value="E5" Duration="10" Instrument="TriBleep"
				Note Time="40" Value="E5" Duration="10" Instrument="TriBleep"
				Note Time="50" Value="E5" Duration="10" Instrument="TriBleep"
				Note Time="60" Value="E5" Duration="10" Instrument="TriBleep"
				Note Time="70" Value="E5" Duration="10" Instrument="TriBleep"
				Note Time="80" Value="D5" Duration="27" Instrument="TriBleep"
			Pattern Name="Chorus2"
				Note Time="0" Value="E3" Duration="20" Instrument="TriBassDrum"
				Note Time="20" Value="A3" Duration="20" Instrument="TriSnare"
				Note Time="40" Value="E3" Duration="80" Instrument="TriBassDrum"
				Note Time="120" Value="A3" Duration="10" Instrument="TriSnare"
				Note Time="130" Value="A3" Duration="20" Instrument="TriSnare"
				Note Time="150" Value="E3" Duration="20" Instrument="TriBassDrum"
			Pattern Name="Bridge1"
				Note Time="10" Value="E3" Duration="10" Instrument="TriBassDrum"
				Note Time="20" Value="A3" Duration="20" Instrument="TriSnare"
				Note Time="40" Value="E3" Duration="20" Instrument="TriBassDrum"
				Note Time="60" Value="A3" Duration="20" Instrument="TriSnare"
				Note Time="80" Value="E3" Duration="20" Instrument="TriBassDrum"
				Note Time="100" Value="A3" Duration="20" Instrument="TriSnare"
				Note Time="120" Value="E3" Duration="20" Instrument="TriBassDrum"
				Note Time="140" Value="A3" Duration="20" Instrument="TriSnare"
			Pattern Name="Bridge2"
				Note Time="0" Value="E3" Duration="20" Instrument="TriBassDrum"
				Note Time="20" Value="A3" Duration="20" Instrument="TriSnare"
				Note Time="40" Value="E3" Duration="20" Instrument="TriBassDrum"
				Note Time="60" Value="A3" Duration="20" Instrument="TriSnare"
				Note Time="80" Value="E3" Duration="20" Instrument="TriBassDrum"
				Note Time="100" Value="A3" Duration="20" Instrument="TriSnare"
				Note Time="120" Value="E3" Duration="20" Instrument="TriBassDrum"
				Note Time="140" Value="A3" Duration="10" Instrument="TriSnare"
				Note Time="150" Value="E3" Duration="20" Instrument="TriBassDrum"
			Pattern Name="Bridge3"
				Note Time="0" Value="E3" Duration="20" Instrument="TriBassDrum"
				Note Time="20" Value="A3" Duration="20" Instrument="TriSnare"
				Note Time="40" Value="E3" Duration="20" Instrument="TriBassDrum"
				Note Time="60" Value="A3" Duration="20" Instrument="TriSnare"
				Note Time="80" Value="E3" Duration="10" Instrument="TriBassDrum"
				Note Time="90" Value="E3" Duration="10" Instrument="TriBassDrum"
				Note Time="100" Value="A3" Duration="20" Instrument="TriSnare"
				Note Time="120" Value="E3" Duration="20" Instrument="TriBassDrum"
				Note Time="140" Value="A3" Duration="10" Instrument="TriSnare"
				Note Time="150" Value="E3" Duration="20" Instrument="TriBassDrum"
			Pattern Name="Bridge4"
				Note Time="0" Value="E3" Duration="20" Instrument="TriBassDrum"
				Note Time="20" Value="A3" Duration="20" Instrument="TriSnare"
				Note Time="40" Value="E3" Duration="20" Instrument="TriBassDrum"
				Note Time="60" Value="A3" Duration="20" Instrument="TriSnare"
				Note Time="80" Value="E3" Duration="20" Instrument="TriBassDrum"
				Note Time="100" Value="A3" Duration="30" Instrument="TriSnare"
				Note Time="130" Value="E3" Duration="10" Instrument="TriBassDrum"
				Note Time="140" Value="A3" Duration="20" Instrument="TriSnare"
			Pattern Name="Outro1"
				Note Time="0" Value="E3" Duration="20" Instrument="TriBassDrum"
				Note Time="20" Value="A3" Duration="10" Instrument="TriSnare"
				Note Time="30" Value="E3" Duration="20" Instrument="TriBassDrum"
				Note Time="50" Value="E3" Duration="10" Instrument="TriBassDrum"
				Note Time="60" Value="A3" Duration="20" Instrument="TriSnare"
				Note Time="80" Value="E3" Duration="10" Instrument="TriBassDrum"
				Note Time="90" Value="E3" Duration="10" Instrument="TriBassDrum"
				Note Time="100" Value="A3" Duration="20" Instrument="TriSnare"
				Note Time="120" Value="E3" Duration="20" Instrument="TriBassDrum"
				Note Time="140" Value="A3" Duration="20" Instrument="TriSnare"
			PatternInstance Time="0" Pattern="Chorus1"
			PatternInstance Time="1" Pattern="Chorus1"
			PatternInstance Time="2" Pattern="Chorus1"
			PatternInstance Time="3" Pattern="Chorus1"
			PatternInstance Time="4" Pattern="Verse1"
			PatternInstance Time="5" Pattern="Verse2"
			PatternInstance Time="6" Pattern="Verse3"
			PatternInstance Time="7" Pattern="Verse4"
			PatternInstance Time="8" Pattern="Verse1"
			PatternInstance Time="9" Pattern="Verse2"
			PatternInstance Time="10" Pattern="Verse3"
			PatternInstance Time="11" Pattern="Verse5"
			PatternInstance Time="12" Pattern="Chorus1"
			PatternInstance Time="13" Pattern="Chorus1"
			PatternInstance Time="14" Pattern="Chorus1"
			PatternInstance Time="15" Pattern="Chorus1"
			PatternInstance Time="16" Pattern="Chorus2"
			PatternInstance Time="17" Pattern="Bridge1"
			PatternInstance Time="18" Pattern="Bridge2"
			PatternInstance Time="19" Pattern="Bridge1"
			PatternInstance Time="20" Pattern="Bridge3"
			PatternInstance Time="21" Pattern="Bridge1"
			PatternInstance Time="22" Pattern="Bridge4"
			PatternInstance Time="23" Pattern="Outro1"
		Channel Type="Noise"
			Pattern Name="Chorus1"
				Note Time="0" Value="F#3" Duration="20" Instrument="NoiseBassDrum"
				Note Time="20" Value="G#3" Duration="20" Instrument="NoiseSnare"
				Note Time="40" Value="F#3" Duration="20" Instrument="NoiseBassDrum"
				Note Time="60" Value="G#3" Duration="20" Instrument="NoiseSnare"
				Note Time="80" Value="F#3" Duration="20" Instrument="NoiseBassDrum"
				Note Time="100" Value="G#3" Duration="20" Instrument="NoiseSnare"
				Note Time="120" Value="F#3" Duration="20" Instrument="NoiseBassDrum"
				Note Time="140" Value="G#3" Duration="20" Instrument="NoiseSnare"
			Pattern Name="Verse1"
				Note Time="0" Value="F#3" Duration="20" Instrument="NoiseBassDrum"
				Note Time="20" Value="G#3" Duration="20" Instrument="NoiseSnare"
				Note Time="40" Value="F#3" Duration="20" Instrument="NoiseBassDrum"
				Note Time="60" Value="G#3" Duration="20" Instrument="NoiseSnare"
				Note Time="80" Value="F#3" Duration="20" Instrument="NoiseBassDrum"
				Note Time="100" Value="G#3" Duration="30" Instrument="NoiseSnare"
				Note Time="130" Value="F#3" Duration="10" Instrument="NoiseBassDrum"
				Note Time="140" Value="G#3" Duration="10" Instrument="NoiseSnare"
				Note Time="150" Value="F#3" Duration="10" Instrument="NoiseBassDrum"
			Pattern Name="Verse2"
				Note Time="0" Value="F#3" Duration="20" Instrument="NoiseBassDrum"
				Note Time="20" Value="G#3" Duration="20" Instrument="NoiseSnare"
				Note Time="40" Value="F#3" Duration="20" Instrument="NoiseBassDrum"
				Note Time="60" Value="G#3" Duration="10" Instrument="NoiseSnare"
				Note Time="70" Value="F#3" Duration="30" Instrument="NoiseBassDrum"
				Note Time="100" Value="G#3" Duration="10" Instrument="NoiseSnare"
				Note Time="110" Value="F#3" Duration="30" Instrument="NoiseBassDrum"
				Note Time="140" Value="G#3" Duration="10" Instrument="NoiseSnare"
				Note Time="150" Value="F#3" Duration="30" Instrument="NoiseBassDrum"
			Pattern Name="Verse3"
				Note Time="20" Value="G#3" Duration="20" Instrument="NoiseSnare"
				Note Time="40" Value="F#3" Duration="20" Instrument="NoiseBassDrum"
				Note Time="60" Value="G#3" Duration="10" Instrument="NoiseSnare"
				Note Time="70" Value="F#3" Duration="10" Instrument="NoiseBassDrum"
				Note Time="80" Value="F#3" Duration="20" Instrument="NoiseBassDrum"
				Note Time="100" Value="G#3" Duration="20" Instrument="NoiseSnare"
				Note Time="120" Value="F#3" Duration="20" Instrument="NoiseBassDrum"
				Note Time="140" Value="G#3" Duration="20" Instrument="NoiseSnare"
			Pattern Name="Verse4"
				Note Time="0" Value="F#3" Duration="20" Instrument="NoiseBassDrum"
				Note Time="20" Value="G#3" Duration="20" Instrument="NoiseSnare"
				Note Time="40" Value="F#3" Duration="20" Instrument="NoiseBassDrum"
				Note Time="60" Value="G#3" Duration="20" Instrument="NoiseSnare"
				Note Time="80" Value="F#3" Duration="10" Instrument="NoiseBassDrum"
				Note Time="90" Value="F#3" Duration="10" Instrument="NoiseBassDrum"
				Note Time="100" Value="G#3" Duration="30" Instrument="NoiseSnare"
				Note Time="130" Value="F#3" Duration="10" Instrument="NoiseBassDrum"
				Note Time="140" Value="G#3" Duration="10" Instrument="NoiseSnare"
				Note Time="150" Value="F#3" Duration="10" Instrument="NoiseBassDrum"
			Pattern Name="Verse5"
				Note Time="0" Value="F#3" Duration="20" Instrument="NoiseBassDrum"
				Note Time="20" Value="G#3" Duration="20" Instrument="NoiseSnare"
				Note Time="40" Value="F#3" Duration="20" Instrument="NoiseBassDrum"
				Note Time="60" Value="G#3" Duration="20" Instrument="NoiseSnare"
				Note Time="80" Value="F#3" Duration="10" Instrument="NoiseBassDrum"
				Note Time="90" Value="F#3" Duration="10" Instrument="NoiseBassDrum"
				Note Time="100" Value="G#3" Duration="20" Instrument="NoiseSnare"
				Note Time="120" Value="F#3" Duration="20" Instrument="NoiseBassDrum"
				Note Time="140" Value="G#3" Duration="20" Instrument="NoiseSnare"
			Pattern Name="Chorus2"
				Note Time="0" Value="F#3" Duration="20" Instrument="NoiseBassDrum"
				Note Time="20" Value="G#3" Duration="20" Instrument="NoiseSnare"
				Note Time="40" Value="F#3" Duration="80" Instrument="NoiseBassDrum"
				Note Time="120" Value="G#3" Duration="10" Instrument="NoiseSnare"
				Note Time="130" Value="G#3" Duration="20" Instrument="NoiseSnare"
				Note Time="150" Value="F#3" Duration="20" Instrument="NoiseBassDrum"
			Pattern Name="Bridge1"
				Note Time="10" Value="F#3" Duration="10" Instrument="NoiseBassDrum"
				Note Time="20" Value="G#3" Duration="20" Instrument="NoiseSnare"
				Note Time="40" Value="F#3" Duration="20" Instrument="NoiseBassDrum"
				Note Time="60" Value="G#3" Duration="20" Instrument="NoiseSnare"
				Note Time="80" Value="F#3" Duration="20" Instrument="NoiseBassDrum"
				Note Time="100" Value="G#3" Duration="20" Instrument="NoiseSnare"
				Note Time="120" Value="F#3" Duration="20" Instrument="NoiseBassDrum"
				Note Time="140" Value="G#3" Duration="20" Instrument="NoiseSnare"
			Pattern Name="Bridge2"
				Note Time="0" Value="F#3" Duration="20" Instrument="NoiseBassDrum"
				Note Time="20" Value="G#3" Duration="20" Instrument="NoiseSnare"
				Note Time="40" Value="F#3" Duration="20" Instrument="NoiseBassDrum"
				Note Time="60" Value="G#3" Duration="20" Instrument="NoiseSnare"
				Note Time="80" Value="F#3" Duration="20" Instrument="NoiseBassDrum"
				Note Time="100" Value="G#3" Duration="20" Instrument="NoiseSnare"
				Note Time="120" Value="F#3" Duration="20" Instrument="NoiseBassDrum"
				Note Time="140" Value="G#3" Duration="10" Instrument="NoiseSnare"
				Note Time="150" Value="F#3" Duration="20" Instrument="NoiseBassDrum"
			Pattern Name="Bridge3"
				Note Time="0" Value="F#3" Duration="20" Instrument="NoiseBassDrum"
				Note Time="20" Value="G#3" Duration="20" Instrument="NoiseSnare"
				Note Time="40" Value="F#3" Duration="20" Instrument="NoiseBassDrum"
				Note Time="60" Value="G#3" Duration="20" Instrument="NoiseSnare"
				Note Time="80" Value="F#3" Duration="10" Instrument="NoiseBassDrum"
				Note Time="90" Value="F#3" Duration="10" Instrument="NoiseBassDrum"
				Note Time="100" Value="G#3" Duration="20" Instrument="NoiseSnare"
				Note Time="120" Value="F#3" Duration="20" Instrument="NoiseBassDrum"
				Note Time="140" Value="G#3" Duration="10" Instrument="NoiseSnare"
				Note Time="150" Value="F#3" Duration="20" Instrument="NoiseBassDrum"
			Pattern Name="Bridge4"
				Note Time="0" Value="F#3" Duration="20" Instrument="NoiseBassDrum"
				Note Time="20" Value="G#3" Duration="20" Instrument="NoiseSnare"
				Note Time="40" Value="F#3" Duration="20" Instrument="NoiseBassDrum"
				Note Time="60" Value="G#3" Duration="20" Instrument="NoiseSnare"
				Note Time="80" Value="F#3" Duration="20" Instrument="NoiseBassDrum"
				Note Time="100" Value="G#3" Duration="20" Instrument="NoiseSnare"
				Note Time="120" Value="F#3" Duration="10" Instrument="NoiseBassDrum"
				Note Time="130" Value="F#3" Duration="10" Instrument="NoiseBassDrum"
				Note Time="140" Value="G#3" Duration="20" Instrument="NoiseSnare"
			Pattern Name="Outro1"
				Note Time="0" Value="F#3" Duration="20" Instrument="NoiseBassDrum"
				Note Time="20" Value="G#3" Duration="10" Instrument="NoiseSnare"
				Note Time="30" Value="F#3" Duration="20" Instrument="NoiseBassDrum"
				Note Time="50" Value="F#3" Duration="10" Instrument="NoiseBassDrum"
				Note Time="60" Value="G#3" Duration="20" Instrument="NoiseSnare"
				Note Time="80" Value="F#3" Duration="20" Instrument="NoiseBassDrum"
				Note Time="100" Value="G#3" Duration="20" Instrument="NoiseSnare"
				Note Time="120" Value="F#3" Duration="20" Instrument="NoiseBassDrum"
				Note Time="140" Value="G#3" Duration="20" Instrument="NoiseSnare"
			PatternInstance Time="0" Pattern="Chorus1"
			PatternInstance Time="1" Pattern="Chorus1"
			PatternInstance Time="2" Pattern="Chorus1"
			PatternInstance Time="3" Pattern="Chorus1"
			PatternInstance Time="4" Pattern="Verse1"
			PatternInstance Time="5" Pattern="Verse2"
			PatternInstance Time="6" Pattern="Verse3"
			PatternInstance Time="7" Pattern="Verse4"
			PatternInstance Time="8" Pattern="Verse1"
			PatternInstance Time="9" Pattern="Verse2"
			PatternInstance Time="10" Pattern="Verse3"
			PatternInstance Time="11" Pattern="Verse5"
			PatternInstance Time="12" Pattern="Chorus1"
			PatternInstance Time="13" Pattern="Chorus1"
			PatternInstance Time="14" Pattern="Chorus1"
			PatternInstance Time="15" Pattern="Chorus1"
			PatternInstance Time="16" Pattern="Chorus2"
			PatternInstance Time="17" Pattern="Bridge1"
			PatternInstance Time="18" Pattern="Bridge2"
			PatternInstance Time="19" Pattern="Bridge1"
			PatternInstance Time="20" Pattern="Bridge3"
			PatternInstance Time="21" Pattern="Bridge1"
			PatternInstance Time="22" Pattern="Bridge4"
			PatternInstance Time="23" Pattern="Outro1"
		Channel Type="DPCM"
			Pattern Name="Intro1"
				Note Time="0" Value="D1" Duration="10"
				Note Time="10" Value="D1" Duration="10"
				Note Time="20" Value="D1" Duration="10"
				Note Time="30" Value="D1" Duration="10"
				Note Time="40" Value="D1" Duration="10"
				Note Time="50" Value="D1" Duration="10"
				Note Time="60" Value="D1" Duration="10"
				Note Time="70" Value="D1" Duration="10"
				Note Time="80" Value="D1" Duration="10"
				Note Time="90" Value="D1" Duration="10"
				Note Time="100" Value="D1" Duration="10"
				Note Time="110" Value="D1" Duration="10"
				Note Time="120" Value="D1" Duration="10"
				Note Time="130" Value="D1" Duration="10"
				Note Time="140" Value="D1" Duration="10"
				Note Time="150" Value="D1" Duration="10"
			Pattern Name="Intro2"
				Note Time="0" Value="E1" Duration="10"
				Note Time="10" Value="E1" Duration="10"
				Note Time="20" Value="E1" Duration="10"
				Note Time="30" Value="E1" Duration="10"
				Note Time="40" Value="E1" Duration="10"
				Note Time="50" Value="E1" Duration="10"
				Note Time="60" Value="E1" Duration="10"
				Note Time="70" Value="E1" Duration="10"
				Note Time="80" Value="E1" Duration="10"
				Note Time="90" Value="E1" Duration="10"
				Note Time="100" Value="E1" Duration="10"
				Note Time="110" Value="E1" Duration="10"
				Note Time="120" Value="E1" Duration="10"
				Note Time="130" Value="E1" Duration="10"
				Note Time="140" Value="E1" Duration="10"
				Note Time="150" Value="E1" Duration="10"
			Pattern Name="Intro3"
				Note Time="0" Value="F1" Duration="10"
				Note Time="10" Value="F1" Duration="10"
				Note Time="20" Value="F1" Duration="10"
				Note Time="30" Value="F1" Duration="10"
				Note Time="40" Value="F1" Duration="10"
				Note Time="50" Value="F1" Duration="10"
				Note Time="60" Value="F1" Duration="10"
				Note Time="70" Value="F1" Duration="10"
				Note Time="80" Value="F#1" Duration="10"
				Note Time="90" Value="F#1" Duration="10"
				Note Time="100" Value="F#1" Duration="10"
				Note Time="110" Value="F#1" Duration="10"
				Note Time="120" Value="F#1" Duration="10"
				Note Time="130" Value="F#1" Duration="10"
				Note Time="140" Value="F#1" Duration="10"
				Note Time="150" Value="F#1" Duration="10"
			Pattern Name="Intro4"
				Note Time="0" Value="G1" Duration="10"
				Note Time="10" Value="G1" Duration="10"
				Note Time="20" Value="G1" Duration="10"
				Note Time="30" Value="G1" Duration="10"
				Note Time="40" Value="G1" Duration="10"
				Note Time="50" Value="G1" Duration="10"
				Note Time="60" Value="G1" Duration="10"
				Note Time="70" Value="G1" Duration="10"
				Note Time="80" Value="G1" Duration="10"
				Note Time="90" Value="G1" Duration="10"
				Note Time="100" Value="G1" Duration="10"
				Note Time="110" Value="G1" Duration="10"
				Note Time="120" Value="G1" Duration="10"
				Note Time="130" Value="G1" Duration="10"
				Note Time="140" Value="G1" Duration="10"
				Note Time="150" Value="G1" Duration="10"
			Pattern Name="Verse1"
				Note Time="0" Value="A2" Duration="20"
				Note Time="20" Value="C2" Duration="40"
				Note Time="60" Value="C2" Duration="40"
				Note Time="100" Value="C2" Duration="30"
				Note Time="130" Value="G2" Duration="20"
				Note Time="150" Value="F#2" Duration="30"
			Pattern Name="Verse2"
				Note Time="20" Value="C2" Duration="40"
				Note Time="60" Value="C2" Duration="10"
				Note Time="70" Value="G2" Duration="30"
				Note Time="100" Value="C2" Duration="10"
				Note Time="110" Value="F2" Duration="30"
				Note Time="140" Value="C2" Duration="10"
				Note Time="150" Value="D2" Duration="30"
			Pattern Name="Verse3"
				Note Time="20" Value="C2" Duration="40"
				Note Time="60" Value="C2" Duration="10"
				Note Time="70" Value="F2" Duration="30"
				Note Time="100" Value="C2" Duration="40"
				Note Time="140" Value="C2" Duration="10"
				Note Time="150" Value="F#2" Duration="30"
			Pattern Name="Verse4"
				Note Time="20" Value="C2" Duration="40"
				Note Time="60" Value="C2" Duration="20"
				Note Time="80" Value="G2" Duration="10"
				Note Time="90" Value="F#2" Duration="10"
				Note Time="100" Value="G2" Duration="30"
				Note Time="130" Value="G2" Duration="20"
				Note Time="150" Value="A2" Duration="10"
			Pattern Name="Verse5"
				Note Time="20" Value="C2" Duration="40"
				Note Time="60" Value="C2" Duration="20"
				Note Time="80" Value="G2" Duration="10"
				Note Time="90" Value="G2" Duration="30"
				Note Time="120" Value="A2" Duration="20"
				Note Time="140" Value="G2" Duration="20"
			Pattern Name="Chorus1"
				Note Time="0" Value="F1" Duration="10"
				Note Time="10" Value="F1" Duration="10"
				Note Time="20" Value="F1" Duration="10"
				Note Time="30" Value="F1" Duration="10"
				Note Time="40" Value="F1" Duration="10"
				Note Time="50" Value="F1" Duration="10"
				Note Time="60" Value="F1" Duration="10"
				Note Time="70" Value="F1" Duration="10"
				Note Time="80" Value="E1" Duration="10"
				Note Time="90" Value="E1" Duration="10"
				Note Time="100" Value="E1" Duration="10"
				Note Time="110" Value="E1" Duration="10"
				Note Time="120" Value="E1" Duration="10"
				Note Time="130" Value="E1" Duration="10"
				Note Time="140" Value="E1" Duration="10"
				Note Time="150" Value="E1" Duration="10"
			Pattern Name="Chorus2"
				Note Time="0" Value="D1" Duration="10"
				Note Time="10" Value="D1" Duration="10"
				Note Time="20" Value="D1" Duration="10"
				Note Time="30" Value="D1" Duration="10"
				Note Time="40" Value="D1" Duration="10"
				Note Time="50" Value="D1" Duration="10"
				Note Time="60" Value="D1" Duration="10"
				Note Time="70" Value="D1" Duration="10"
				Note Time="80" Value="E1" Duration="10"
				Note Time="90" Value="E1" Duration="10"
				Note Time="100" Value="E1" Duration="10"
				Note Time="110" Value="E1" Duration="10"
				Note Time="120" Value="E1" Duration="10"
				Note Time="130" Value="E1" Duration="10"
				Note Time="140" Value="E1" Duration="10"
				Note Time="150" Value="E1" Duration="10"
			Pattern Name="Chorus3"
				Note Time="0" Value="D1" Duration="10"
				Note Time="10" Value="D1" Duration="10"
				Note Time="20" Value="D1" Duration="10"
				Note Time="30" Value="D1" Duration="10"
				Note Time="40" Value="D1" Duration="10"
				Note Time="50" Value="D1" Duration="10"
				Note Time="60" Value="D1" Duration="10"
				Note Time="70" Value="D1" Duration="10"
				Note Time="80" Value="G1" Duration="10"
				Note Time="90" Value="G1" Duration="10"
				Note Time="100" Value="G1" Duration="10"
				Note Time="110" Value="G1" Duration="10"
				Note Time="120" Value="G1" Duration="10"
				Note Time="130" Value="G1" Duration="10"
				Note Time="140" Value="G1" Duration="10"
				Note Time="150" Value="G1" Duration="20"
			Pattern Name="Chorus4"
				Note Time="10" Value="G2" Duration="10"
				Note Time="20" Value="A2" Duration="10"
				Note Time="30" Value="C3" Duration="10"
				Note Time="40" Value="D#3" Duration="7"
				Note Time="47" Value="D3" Duration="6"
				Note Time="53" Value="C3" Duration="7"
				Note Time="60" Value="D3" Duration="7"
				Note Time="67" Value="C3" Duration="6"
				Note Time="73" Value="A2" Duration="7"
				Note Time="80" Value="C3" Duration="7"
				Note Time="87" Value="A2" Duration="6"
				Note Time="93" Value="G2" Duration="7"
				Note Time="100" Value="A2" Duration="7"
				Note Time="107" Value="F2" Duration="6"
				Note Time="113" Value="E2" Duration="7"
				Note Time="120" Value="G2" Duration="10"
				Note Time="130" Value="G2" Duration="20"
				Note Time="150" Value="G2" Duration="20"
			Pattern Name="Bridge1"
				Note Time="10" Value="G#2" Duration="10"
				Note Time="20" Value="A2" Duration="10"
				Note Time="30" Value="G2" Duration="10"
				Note Time="40" Value="G#2" Duration="10"
				Note Time="50" Value="A2" Duration="10"
				Note Time="60" Value="G2" Duration="10"
				Note Time="70" Value="G#2" Duration="10"
				Note Time="80" Value="A2" Duration="10"
				Note Time="90" Value="G2" Duration="10"
				Note Time="100" Value="G#2" Duration="10"
				Note Time="110" Value="A2" Duration="10"
				Note Time="120" Value="G2" Duration="10"
				Note Time="130" Value="G#2" Duration="10"
				Note Time="140" Value="A2" Duration="10"
				Note Time="150" Value="G2" Duration="10"
			Pattern Name="Bridge2"
				Note Time="0" Value="G#2" Duration="10"
				Note Time="10" Value="A2" Duration="10"
				Note Time="20" Value="G2" Duration="10"
				Note Time="30" Value="G#2" Duration="10"
				Note Time="40" Value="A2" Duration="10"
				Note Time="50" Value="G2" Duration="10"
				Note Time="60" Value="G#2" Duration="10"
				Note Time="70" Value="A2" Duration="10"
				Note Time="80" Value="G2" Duration="10"
				Note Time="90" Value="G#2" Duration="10"
				Note Time="100" Value="A2" Duration="10"
				Note Time="110" Value="G2" Duration="10"
				Note Time="120" Value="G#2" Duration="10"
				Note Time="130" Value="A2" Duration="10"
				Note Time="140" Value="G2" Duration="10"
				Note Time="150" Value="G2" Duration="20"
			Pattern Name="Outro1"
				Note Time="10" Value="G#2" Duration="10"
				Note Time="20" Value="A2" Duration="10"
				Note Time="30" Value="G2" Duration="10"
				Note Time="40" Value="G#2" Duration="10"
				Note Time="50" Value="A2" Duration="10"
				Note Time="60" Value="G2" Duration="10"
				Note Time="70" Value="G#2" Duration="10"
				Note Time="80" Value="D2" Duration="10"
				Note Time="90" Value="D3" Duration="10"
				Note Time="100" Value="F2" Duration="10"
				Note Time="110" Value="E3" Duration="10"
				Note Time="120" Value="F#2" Duration="10"
				Note Time="130" Value="F3" Duration="10"
				Note Time="140" Value="G2" Duration="10"
				Note Time="150" Value="G3" Duration="10"
			PatternInstance Time="0" Pattern="Intro1"
			PatternInstance Time="1" Pattern="Intro2"
			PatternInstance Time="2" Pattern="Intro3"
			PatternInstance Time="3" Pattern="Intro4"
			PatternInstance Time="4" Pattern="Verse1"
			PatternInstance Time="5" Pattern="Verse2"
			PatternInstance Time="6" Pattern="Verse3"
			PatternInstance Time="7" Pattern="Verse4"
			PatternInstance Time="8" Pattern="Verse1"
			PatternInstance Time="9" Pattern="Verse2"
			PatternInstance Time="10" Pattern="Verse3"
			PatternInstance Time="11" Pattern="Verse5"
			PatternInstance Time="12" Pattern="Chorus1"
			PatternInstance Time="13" Pattern="Chorus2"
			PatternInstance Time="14" Pattern="Chorus1"
			PatternInstance Time="15" Pattern="Chorus3"
			PatternInstance Time="16" Pattern="Chorus4"
			PatternInstance Time="17" Pattern="Bridge1"
			PatternInstance Time="18" Pattern="Bridge2"
			PatternInstance Time="19" Pattern="Bridge1"
			PatternInstance Time="20" Pattern="Bridge2"
			PatternInstance Time="21" Pattern="Bridge1"
			PatternInstance Time="22" Pattern="Bridge2"
			PatternInstance Time="23" Pattern="Outro1"
