Project Version="3.2.2" TempoMode="FamiStudio" Name="The Guardian Legend" Author="Miyamoto Masatomo,Santo Takeshi" Copyright="1989 Compile C: Hirono Takayuki"
	DPCMSample Name="NG Bass Drum" Data="9a719699a3699699f9889d9b99cd66dacab0b344cb711c833cf8070001f807c01fc00342f687185ff3a5eb3f93dfbfe4bdf97d8bb737f37c9cf91ca5139766996a54624449c1129178046a3202330b461a9391615a145b2699cc64e51695ab95e31c6b99cbcb99e669d66c369bcba939dbb872b95c4e2da793e5a9e1cc65b15a5539a9b552ab5255995956e5645a5959665655555599558e656999b29c2c479333d5545559a6a6cac9d44c5699e5a89acaaa2653d358a5a92c4d65a93295c5cc94a92a5395692acb325355d53835d5d2acaa6596abd4ac955935abaa5655b5aaaa5a5535abaa6a565555b5aaaa9aa965595555555555555555559665666aaaaa"
	DPCMSample Name="NG Snare" Data="aaaaaa02c4871f83fff9ffff190f00000030c000ff33bf1ffc07ff1ffffdcf87c1011000000080033eeee3e7f8df7ffec74fff01fcc00f00000f000ae770900ff8b3bfffc39ffc180fbe613ef8700c0781212838840777f0f8e7f7f1fee037fcc1f88097c00f5c61d038c0038fe80f77b807fb7ce0c3fde083f7e0073f1c0ec6c130053ef0031ffc047fe00f7e703ef8ddf0077ef0c11f90198ee0c1031f041ffcc10f9ee8c73c5e0f7f7487ab030f0f740c3e882e980ff4811f380e1ffce22df9ac1f3ecc878d071e0f0e3c8847d8c183077ef070ec0ee7e3f1e5e1178fd18b0e27dc18391cf8c083c3f0c3866d493b8ecfe13bce8377e1076e0a7ed023784247f4e038b8e1e2198fc7399ef2e12d3e3a1eab1c95a3c51c4a8d52c3e4221b7ce496d287c7e7f059352f8ed57870b171e8d0142ea343b3e2347c681e7ae163abd6ca935e1c57793819cde144176538c3ca0a6b5aca8bcee1938fbaa92b7ab195e9e0252b6a49f1c1118f864eae78f085ab55e5c5ce524fb61cb53c78b8d8c472a8454b169d4a1ef161b5b256b5ec785c36b334abc9453a69313aaa6a2c56ea702a47c746676373783acd6a55e5d2d4b454154717e5281e5ac99ab4acac966a353edc54ad6966a3555955a51953d398461daa0e5bb2e3221faed2d155bae8b15ca6365a5596261bba547854635565a56a568e4bcda98eba86a76a9a6aa56a8a47"
	DPCMMapping Note="C3" Sample="NG Bass Drum" Pitch="15" Loop="False"
	DPCMMapping Note="C#3" Sample="NG Snare" Pitch="15" Loop="False"
	Instrument Name="TGL HiHat"
		Envelope Type="Volume" Length="8" Values="14,10,8,7,6,5,3,0"
	Instrument Name="TGL Lead P1"
		Envelope Type="Volume" Length="39" Values="15,15,14,13,12,11,10,10,10,9,9,9,9,9,9,9,9,8,8,8,7,7,7,6,6,6,6,5,5,5,4,4,4,3,3,3,2,2,2"
		Envelope Type="Pitch" Length="1" Values="1"
		Envelope Type="DutyCycle" Length="1" Values="1"
	Instrument Name="TGL Lead P2"
		Envelope Type="Volume" Length="39" Values="15,15,14,13,12,11,10,10,10,9,9,9,9,9,9,9,9,8,8,8,7,7,7,6,6,6,6,5,5,5,4,4,4,3,3,3,2,2,2"
		Envelope Type="Pitch" Length="1" Values="2"
		Envelope Type="DutyCycle" Length="1" Values="1"
	Instrument Name="TGL Lead P3"
		Envelope Type="Volume" Length="39" Values="15,15,14,13,12,11,10,10,10,9,9,9,9,9,9,9,9,8,8,8,7,7,7,6,6,6,6,5,5,5,4,4,4,3,3,3,2,2,2"
		Envelope Type="Pitch" Length="1" Values="3"
		Envelope Type="DutyCycle" Length="1" Values="1"
	Instrument Name="TGL Rhythm"
		Envelope Type="Volume" Length="7" Values="12,8,6,5,4,3,1"
		Envelope Type="Pitch" Length="1" Values="2"
		Envelope Type="DutyCycle" Length="1" Values="1"
	Instrument Name="TGL Tri"
		Envelope Type="Pitch" Length="1" Values="2"
	Song Name="TGL Underwater Corridor" Length="8" LoopPoint="0" PatternLength="32" BeatLength="4" NoteLength="6" Groove="6" GroovePaddingMode="Middle"
		Channel Type="Square1"
			Pattern Name="Pattern 1"
				Note Time="0" Value="A2" Duration="12" Instrument="TGL Lead P3"
				Note Time="12" Value="E3" Duration="12" Instrument="TGL Lead P3"
				Note Time="24" Value="C3" Duration="24" Instrument="TGL Lead P3"
				Note Time="48" Value="G3" Duration="24" Instrument="TGL Lead P3"
				Note Time="72" Value="D3" Duration="24" Instrument="TGL Lead P3"
				Note Time="96" Value="E3" Duration="38" Instrument="TGL Lead P3"
			Pattern Name="Pattern 2"
				Note Time="0" Value="A2" Duration="12" Instrument="TGL Lead P3"
				Note Time="12" Value="E3" Duration="12" Instrument="TGL Lead P3"
				Note Time="24" Value="C3" Duration="24" Instrument="TGL Lead P3"
				Note Time="48" Value="G3" Duration="24" Instrument="TGL Lead P3"
				Note Time="72" Value="E3" Duration="24" Instrument="TGL Lead P3"
				Note Time="96" Value="B3" Duration="38" Instrument="TGL Lead P3"
			Pattern Name="Pattern 3"
				Note Time="0" Value="C4" Duration="6" Instrument="TGL Lead P2"
				Note Time="12" Value="B3" Duration="6" Instrument="TGL Lead P2"
				Note Time="24" Value="A3" Duration="24" Instrument="TGL Lead P2"
				Note Time="48" Value="E4" Duration="24" Instrument="TGL Lead P1"
				Note Time="72" Value="A3" Duration="24" Instrument="TGL Lead P2"
				Note Time="96" Value="C4" Duration="6" Instrument="TGL Lead P2"
				Note Time="108" Value="B3" Duration="6" Instrument="TGL Lead P2"
				Note Time="120" Value="A3" Duration="24" Instrument="TGL Lead P2"
				Note Time="144" Value="E4" Duration="24" Instrument="TGL Lead P1"
				Note Time="168" Value="A3" Duration="24" Instrument="TGL Lead P2"
			Pattern Name="Pattern 4"
				Note Time="0" Value="C4" Duration="6" Instrument="TGL Lead P2"
				Note Time="12" Value="B3" Duration="6" Instrument="TGL Lead P2"
				Note Time="24" Value="A3" Duration="24" Instrument="TGL Lead P2"
				Note Time="48" Value="E4" Duration="24" Instrument="TGL Lead P1"
				Note Time="72" Value="A3" Duration="24" Instrument="TGL Lead P2"
				Note Time="96" Value="C4" Duration="12" Instrument="TGL Lead P2"
				Note Time="108" Value="B3" Duration="12" Instrument="TGL Lead P2"
				Note Time="120" Value="A3" Duration="12" Instrument="TGL Lead P2"
				Note Time="132" Value="G#3" Duration="12" Instrument="TGL Lead P2"
				Note Time="144" Value="F#3" Duration="12" Instrument="TGL Lead P2"
				Note Time="156" Value="E3" Duration="12" Instrument="TGL Lead P2"
				Note Time="168" Value="F#3" Duration="12" Instrument="TGL Lead P2"
				Note Time="180" Value="G#3" Duration="12" Instrument="TGL Lead P2"
			Pattern Name="Pattern 5"
				Note Time="0" Value="A3" Duration="6" Instrument="TGL Lead P2"
				Note Time="12" Value="C4" Duration="6" Instrument="TGL Lead P2"
				Note Time="24" Value="A3" Duration="24" Instrument="TGL Lead P2"
				Note Time="48" Value="E4" Duration="24" Instrument="TGL Lead P1"
				Note Time="72" Value="A3" Duration="24" Instrument="TGL Lead P2"
				Note Time="96" Value="A3" Duration="6" Instrument="TGL Lead P2"
				Note Time="108" Value="B3" Duration="6" Instrument="TGL Lead P2"
				Note Time="120" Value="A3" Duration="24" Instrument="TGL Lead P2"
				Note Time="144" Value="E4" Duration="24" Instrument="TGL Lead P1"
				Note Time="168" Value="A3" Duration="24" Instrument="TGL Lead P2"
			Pattern Name="Pattern 6"
				Note Time="0" Value="A3" Duration="6" Instrument="TGL Lead P2"
				Note Time="12" Value="C4" Duration="6" Instrument="TGL Lead P2"
				Note Time="24" Value="A3" Duration="24" Instrument="TGL Lead P2"
				Note Time="48" Value="E4" Duration="24" Instrument="TGL Lead P1"
				Note Time="72" Value="A3" Duration="24" Instrument="TGL Lead P2"
				Note Time="96" Value="G4" Duration="38" Instrument="TGL Lead P1"
				Note Time="144" Value="E4" Duration="38" Instrument="TGL Lead P1"
			Pattern Name="Pattern 7"
				Note Time="0" Value="A4" Duration="6" Instrument="TGL Lead P2"
				Note Time="12" Value="G4" Duration="6" Instrument="TGL Lead P2"
				Note Time="24" Value="F#4" Duration="6" Instrument="TGL Lead P2"
				Note Time="36" Value="E4" Duration="6" Instrument="TGL Lead P2"
				Note Time="48" Value="D4" Duration="6" Instrument="TGL Lead P2"
				Note Time="60" Value="C4" Duration="6" Instrument="TGL Lead P2"
				Note Time="72" Value="D4" Duration="6" Instrument="TGL Lead P2"
				Note Time="84" Value="E4" Duration="6" Instrument="TGL Lead P2"
				Note Time="96" Value="G4" Duration="6" Instrument="TGL Lead P2"
				Note Time="108" Value="F#4" Duration="6" Instrument="TGL Lead P2"
				Note Time="120" Value="E4" Duration="6" Instrument="TGL Lead P2"
				Note Time="132" Value="D4" Duration="6" Instrument="TGL Lead P2"
				Note Time="144" Value="C4" Duration="6" Instrument="TGL Lead P2"
				Note Time="156" Value="B3" Duration="6" Instrument="TGL Lead P2"
				Note Time="168" Value="C4" Duration="6" Instrument="TGL Lead P2"
				Note Time="180" Value="D4" Duration="6" Instrument="TGL Lead P2"
			Pattern Name="Pattern 8"
				Note Time="0" Value="F4" Duration="6" Instrument="TGL Lead P2"
				Note Time="12" Value="E4" Duration="6" Instrument="TGL Lead P2"
				Note Time="24" Value="D4" Duration="6" Instrument="TGL Lead P2"
				Note Time="36" Value="C4" Duration="6" Instrument="TGL Lead P2"
				Note Time="48" Value="B3" Duration="6" Instrument="TGL Lead P2"
				Note Time="60" Value="A3" Duration="6" Instrument="TGL Lead P2"
				Note Time="72" Value="B3" Duration="6" Instrument="TGL Lead P2"
				Note Time="84" Value="C4" Duration="6" Instrument="TGL Lead P2"
				Note Time="96" Value="B3" Duration="6" Instrument="TGL Lead P2"
				Note Time="108" Value="A3" Duration="6" Instrument="TGL Lead P2"
				Note Time="120" Value="G#3" Duration="6" Instrument="TGL Lead P2"
				Note Time="132" Value="F#3" Duration="6" Instrument="TGL Lead P2"
				Note Time="144" Value="A3" Duration="6" Instrument="TGL Lead P2"
				Note Time="150" Value="G#3" Duration="6" Instrument="TGL Lead P2"
				Note Time="156" Value="F#3" Duration="6" Instrument="TGL Lead P2"
				Note Time="162" Value="E3" Duration="6" Instrument="TGL Lead P2"
				Note Time="168" Value="G#3" Duration="6" Instrument="TGL Lead P2"
				Note Time="174" Value="F#3" Duration="6" Instrument="TGL Lead P2"
				Note Time="180" Value="E3" Duration="6" Instrument="TGL Lead P2"
				Note Time="186" Value="C3" Duration="6" Instrument="TGL Lead P2"
			PatternInstance Time="0" Pattern="Pattern 1"
			PatternInstance Time="1" Pattern="Pattern 2"
			PatternInstance Time="2" Pattern="Pattern 3"
			PatternInstance Time="3" Pattern="Pattern 4"
			PatternInstance Time="4" Pattern="Pattern 5"
			PatternInstance Time="5" Pattern="Pattern 6"
			PatternInstance Time="6" Pattern="Pattern 7"
			PatternInstance Time="7" Pattern="Pattern 8"
		Channel Type="Square2"
			Pattern Name="Pattern 1"
				Note Time="0" Value="A2" Duration="6" Instrument="TGL Rhythm"
				Note Time="6" Value="A2" Duration="6" Instrument="TGL Rhythm"
				Note Time="12" Value="A2" Duration="6" Instrument="TGL Rhythm"
				Note Time="18" Value="A2" Duration="6" Instrument="TGL Rhythm"
				Note Time="24" Value="A2" Duration="7" Instrument="TGL Rhythm"
				Note Time="36" Value="A2" Duration="7" Instrument="TGL Rhythm"
				Note Time="48" Value="A2" Duration="6" Instrument="TGL Rhythm"
				Note Time="54" Value="A2" Duration="6" Instrument="TGL Rhythm"
				Note Time="60" Value="A2" Duration="6" Instrument="TGL Rhythm"
				Note Time="66" Value="A2" Duration="6" Instrument="TGL Rhythm"
				Note Time="72" Value="A2" Duration="7" Instrument="TGL Rhythm"
				Note Time="84" Value="A2" Duration="7" Instrument="TGL Rhythm"
				Note Time="96" Value="C3" Duration="6" Instrument="TGL Rhythm"
				Note Time="102" Value="C3" Duration="6" Instrument="TGL Rhythm"
				Note Time="108" Value="C3" Duration="6" Instrument="TGL Rhythm"
				Note Time="114" Value="C3" Duration="6" Instrument="TGL Rhythm"
				Note Time="120" Value="C3" Duration="7" Instrument="TGL Rhythm"
				Note Time="132" Value="C3" Duration="7" Instrument="TGL Rhythm"
				Note Time="144" Value="C3" Duration="6" Instrument="TGL Rhythm"
				Note Time="150" Value="C3" Duration="6" Instrument="TGL Rhythm"
				Note Time="156" Value="C3" Duration="6" Instrument="TGL Rhythm"
				Note Time="162" Value="C3" Duration="6" Instrument="TGL Rhythm"
				Note Time="168" Value="C3" Duration="7" Instrument="TGL Rhythm"
				Note Time="180" Value="C3" Duration="7" Instrument="TGL Rhythm"
			Pattern Name="Pattern 2"
				Note Time="0" Value="F3" Duration="6" Instrument="TGL Rhythm"
				Note Time="6" Value="F3" Duration="6" Instrument="TGL Rhythm"
				Note Time="12" Value="F3" Duration="6" Instrument="TGL Rhythm"
				Note Time="18" Value="F3" Duration="6" Instrument="TGL Rhythm"
				Note Time="24" Value="F3" Duration="7" Instrument="TGL Rhythm"
				Note Time="36" Value="F3" Duration="7" Instrument="TGL Rhythm"
				Note Time="48" Value="F3" Duration="6" Instrument="TGL Rhythm"
				Note Time="54" Value="F3" Duration="6" Instrument="TGL Rhythm"
				Note Time="60" Value="F3" Duration="6" Instrument="TGL Rhythm"
				Note Time="66" Value="F3" Duration="6" Instrument="TGL Rhythm"
				Note Time="72" Value="F3" Duration="7" Instrument="TGL Rhythm"
				Note Time="84" Value="F3" Duration="7" Instrument="TGL Rhythm"
				Note Time="96" Value="E3" Duration="6" Instrument="TGL Rhythm"
				Note Time="102" Value="E3" Duration="6" Instrument="TGL Rhythm"
				Note Time="108" Value="E3" Duration="6" Instrument="TGL Rhythm"
				Note Time="114" Value="E3" Duration="6" Instrument="TGL Rhythm"
				Note Time="120" Value="E3" Duration="7" Instrument="TGL Rhythm"
				Note Time="132" Value="E3" Duration="7" Instrument="TGL Rhythm"
				Note Time="144" Value="E3" Duration="6" Instrument="TGL Rhythm"
				Note Time="150" Value="E3" Duration="6" Instrument="TGL Rhythm"
				Note Time="156" Value="E3" Duration="6" Instrument="TGL Rhythm"
				Note Time="162" Value="E3" Duration="6" Instrument="TGL Rhythm"
				Note Time="168" Value="E3" Duration="7" Instrument="TGL Rhythm"
				Note Time="180" Value="E3" Duration="7" Instrument="TGL Rhythm"
			PatternInstance Time="0" Pattern="Pattern 1"
			PatternInstance Time="1" Pattern="Pattern 2"
			PatternInstance Time="2" Pattern="Pattern 1"
			PatternInstance Time="3" Pattern="Pattern 2"
			PatternInstance Time="4" Pattern="Pattern 1"
			PatternInstance Time="5" Pattern="Pattern 2"
			PatternInstance Time="6" Pattern="Pattern 1"
			PatternInstance Time="7" Pattern="Pattern 2"
		Channel Type="Triangle"
			Pattern Name="Pattern 1"
				Note Time="0" Value="A3" Duration="12" Instrument="TGL Tri"
				Note Time="12" Value="E4" Duration="12" Instrument="TGL Tri"
				Note Time="24" Value="A3" Duration="12" Instrument="TGL Tri"
				Note Time="36" Value="E4" Duration="12" Instrument="TGL Tri"
				Note Time="48" Value="A3" Duration="12" Instrument="TGL Tri"
				Note Time="60" Value="E4" Duration="12" Instrument="TGL Tri"
				Note Time="72" Value="A3" Duration="12" Instrument="TGL Tri"
				Note Time="84" Value="E4" Duration="12" Instrument="TGL Tri"
				Note Time="96" Value="G3" Duration="12" Instrument="TGL Tri"
				Note Time="108" Value="D4" Duration="12" Instrument="TGL Tri"
				Note Time="120" Value="G3" Duration="12" Instrument="TGL Tri"
				Note Time="132" Value="D4" Duration="12" Instrument="TGL Tri"
				Note Time="144" Value="G3" Duration="12" Instrument="TGL Tri"
				Note Time="156" Value="D4" Duration="12" Instrument="TGL Tri"
				Note Time="168" Value="G3" Duration="12" Instrument="TGL Tri"
				Note Time="180" Value="D4" Duration="12" Instrument="TGL Tri"
			Pattern Name="Pattern 2"
				Note Time="0" Value="F3" Duration="12" Instrument="TGL Tri"
				Note Time="12" Value="C4" Duration="12" Instrument="TGL Tri"
				Note Time="24" Value="F3" Duration="12" Instrument="TGL Tri"
				Note Time="36" Value="C4" Duration="12" Instrument="TGL Tri"
				Note Time="48" Value="F3" Duration="12" Instrument="TGL Tri"
				Note Time="60" Value="C4" Duration="12" Instrument="TGL Tri"
				Note Time="72" Value="F3" Duration="12" Instrument="TGL Tri"
				Note Time="84" Value="C4" Duration="12" Instrument="TGL Tri"
				Note Time="96" Value="E3" Duration="12" Instrument="TGL Tri"
				Note Time="108" Value="B3" Duration="12" Instrument="TGL Tri"
				Note Time="120" Value="E3" Duration="12" Instrument="TGL Tri"
				Note Time="132" Value="B3" Duration="12" Instrument="TGL Tri"
				Note Time="144" Value="E3" Duration="12" Instrument="TGL Tri"
				Note Time="156" Value="B3" Duration="12" Instrument="TGL Tri"
				Note Time="168" Value="E3" Duration="6" Instrument="TGL Tri"
				Note Time="174" Value="E4" Duration="6" Instrument="TGL Tri"
				Note Time="180" Value="E3" Duration="6" Instrument="TGL Tri"
				Note Time="186" Value="E4" Duration="6" Instrument="TGL Tri"
			PatternInstance Time="0" Pattern="Pattern 1"
			PatternInstance Time="1" Pattern="Pattern 2"
			PatternInstance Time="2" Pattern="Pattern 1"
			PatternInstance Time="3" Pattern="Pattern 2"
			PatternInstance Time="4" Pattern="Pattern 1"
			PatternInstance Time="5" Pattern="Pattern 2"
			PatternInstance Time="6" Pattern="Pattern 1"
			PatternInstance Time="7" Pattern="Pattern 2"
		Channel Type="Noise"
			Pattern Name="Pattern 1"
				Note Time="24" Value="F#3" Duration="7" Instrument="TGL HiHat"
				Note Time="72" Value="F#3" Duration="7" Instrument="TGL HiHat"
				Note Time="120" Value="F#3" Duration="7" Instrument="TGL HiHat"
				Note Time="168" Value="F#3" Duration="7" Instrument="TGL HiHat"
			Pattern Name="Pattern 2"
				Note Time="24" Value="F#3" Duration="7" Instrument="TGL HiHat"
				Note Time="72" Value="F#3" Duration="7" Instrument="TGL HiHat"
				Note Time="120" Value="F#3" Duration="7" Instrument="TGL HiHat"
				Note Time="168" Value="F#3" Duration="6" Instrument="TGL HiHat"
				Note Time="174" Value="F#3" Duration="6" Instrument="TGL HiHat"
				Note Time="180" Value="F#3" Duration="6" Instrument="TGL HiHat"
				Note Time="186" Value="F#3" Duration="6" Instrument="TGL HiHat"
			PatternInstance Time="0" Pattern="Pattern 1"
			PatternInstance Time="1" Pattern="Pattern 2"
			PatternInstance Time="2" Pattern="Pattern 1"
			PatternInstance Time="3" Pattern="Pattern 2"
			PatternInstance Time="4" Pattern="Pattern 1"
			PatternInstance Time="5" Pattern="Pattern 2"
			PatternInstance Time="6" Pattern="Pattern 1"
			PatternInstance Time="7" Pattern="Pattern 2"
		Channel Type="DPCM"
			Pattern Name="Pattern 1"
				Note Time="0" Value="C3" Duration="12"
				Note Time="12" Value="C3" Duration="12"
				Note Time="24" Value="C#3" Duration="12"
				Note Time="48" Value="C3" Duration="12"
				Note Time="72" Value="C#3" Duration="12"
				Note Time="96" Value="C3" Duration="12"
				Note Time="108" Value="C3" Duration="12"
				Note Time="120" Value="C#3" Duration="12"
				Note Time="144" Value="C3" Duration="12"
				Note Time="168" Value="C#3" Duration="12"
			Pattern Name="Pattern 2"
				Note Time="0" Value="C3" Duration="12"
				Note Time="12" Value="C3" Duration="12"
				Note Time="24" Value="C#3" Duration="12"
				Note Time="48" Value="C3" Duration="12"
				Note Time="72" Value="C#3" Duration="12"
				Note Time="96" Value="C3" Duration="12"
				Note Time="108" Value="C3" Duration="12"
				Note Time="120" Value="C#3" Duration="12"
				Note Time="144" Value="C3" Duration="12"
				Note Time="168" Value="C#3" Duration="6"
				Note Time="174" Value="C#3" Duration="6"
				Note Time="180" Value="C#3" Duration="6"
				Note Time="186" Value="C#3" Duration="6"
			PatternInstance Time="0" Pattern="Pattern 1"
			PatternInstance Time="1" Pattern="Pattern 2"
			PatternInstance Time="2" Pattern="Pattern 1"
			PatternInstance Time="3" Pattern="Pattern 2"
			PatternInstance Time="4" Pattern="Pattern 1"
			PatternInstance Time="5" Pattern="Pattern 2"
			PatternInstance Time="6" Pattern="Pattern 1"
			PatternInstance Time="7" Pattern="Pattern 2"
