Project Version="3.1.1" TempoMode="FamiStudio" Name="New Project" Author="mcgrew" Copyright="2021"
	DPCMSample Name="BM Tom 1" Data="a5aa5aff0eaf125000000020f2ffffffffffffff5a52a000000000000002555affdeefffffffffffe5aaa510022100000000000555afddfefedfffffdff5eead21505a11102000100021025aaafeefefffedaeffafddf5aea5150051000000010055ed2f5adad2effafffffded1ef51d10022a111102a02225a51d1525a5e5dd5dfeefffffeee5551505521021100a0100a1521a5fdaf2dfdaff5afeffdefadd5502521000210505102d11a2552eaaeafeafffafffdeeafd2d22a05a0501500202105505a5eaaeefaaf5de5fadfdf55f2d5aa0f0d502500a010220522552add55efdefdefedef5df22f12d512525110222025022a5aaad2d5af2faeddedeadeafadaaa52d155251a2250155150151d12d1ad52ed2dd5fdafdafedd555552d12a552a520a212250525515aaaaed2deadeedddf2ef5aad5a5551251251a2222512512a555d2dd2dadaf5af2af2ddaaadad52e25a2d25522a52a2aa1522aaaaaad25d25ad2aed5ae5edafaed5ad5aaad2ad112251025051150552adaad5ad2fdaefddddd2eead2d55255151250a511122a5252aaaaaadaddddaafa5ed5d5a55aa2f5151551521a52a52552aaa552aaaad5adadadadd2daae52e555525a52d15552a5552aa5552aa5ad2d5555a5ad2d5555552aadaaada55aaad5555555552aa55552552a5525555552affffffffffffffff"
	DPCMSample Name="BM Tom 2" Data="a5aaaa5a5ffff5100000000fffffff2fa00fff5f000f50000010f00002dffffffd50a50eefa5efffffff0002a5000000005001adfffffffffe251105dad52dfd52510000005a02e5ef25daeffffffdaa51aa20005efa055d001010ee50deaaeeaeffeeeff52d5525220112505555502d11155aadeddffeedee55d515aaa11222111152a5255fa1ea522ad55affdfffd512ed51225010101512a5d52aef55ded2ad55a52efdefd555512252222501222522dddd2daeedddaddda2aaaa5addd555111002512512aad2aeaaafdadafedaddae50a52aa512eadaa5000212a2aadadaeedaedaefd5555aada52522ad25102ad55da000555aaadddafdeedaddad525512aaa5115122a52ea255555a512aadafdddafdd5a5555aaaa2122522222aa55ad2aad5adad552d555afefd5ad52a225555122251252aa52aaadaddadadad2daaaad55ded55aa5251111125225a5555aaad555ddadaedaaadaaaa55555aad525122511111adaa5555adaddadad5aedad555aa51252d55552a5251111252ad5aeedaed5ad5daaad5aeaaa55252551252aa555252a55225aad5dafddddaaad52d5aa52a525252555252552aaaaaa55555555aeeeeedaed552a552552a525251525252aaadaad5aad5552dadaadadddad5aa525251122552aa55255552ad555adddad5aadaaaa55aadad55255525112252555"
	DPCMSample Name="NG Bass Drum" Data="9a719699a3699699f9889d9b99cd66dacab0b344cb711c833cf8070001f807c01fc00342f687185ff3a5eb3f93dfbfe4bdf97d8bb737f37c9cf91ca5139766996a54624449c1129178046a3202330b461a9391615a145b2699cc64e51695ab95e31c6b99cbcb99e669d66c369bcba939dbb872b95c4e2da793e5a9e1cc65b15a5539a9b552ab5255995956e5645a5959665655555599558e656999b29c2c479333d5545559a6a6cac9d44c5699e5a89acaaa2653d358a5a92c4d65a93295c5cc94a92a5395692acb325355d53835d5d2acaa6596abd4ac955935abaa5655b5aaaa5a5535abaa6a565555b5aaaa9aa965595555555555555555559665666aaaaa"
	DPCMSample Name="NG Snare" Data="aaaaaa02c4871f83fff9ffff190f00000030c000ff33bf1ffc07ff1ffffdcf87c1011000000080033eeee3e7f8df7ffec74fff01fcc00f00000f000ae770900ff8b3bfffc39ffc180fbe613ef8700c0781212838840777f0f8e7f7f1fee037fcc1f88097c00f5c61d038c0038fe80f77b807fb7ce0c3fde083f7e0073f1c0ec6c130053ef0031ffc047fe00f7e703ef8ddf0077ef0c11f90198ee0c1031f041ffcc10f9ee8c73c5e0f7f7487ab030f0f740c3e882e980ff4811f380e1ffce22df9ac1f3ecc878d071e0f0e3c8847d8c183077ef070ec0ee7e3f1e5e1178fd18b0e27dc18391cf8c083c3f0c3866d493b8ecfe13bce8377e1076e0a7ed023784247f4e038b8e1e2198fc7399ef2e12d3e3a1eab1c95a3c51c4a8d52c3e4221b7ce496d287c7e7f059352f8ed57870b171e8d0142ea343b3e2347c681e7ae163abd6ca935e1c57793819cde144176538c3ca0a6b5aca8bcee1938fbaa92b7ab195e9e0252b6a49f1c1118f864eae78f085ab55e5c5ce524fb61cb53c78b8d8c472a8454b169d4a1ef161b5b256b5ec785c36b334abc9453a69313aaa6a2c56ea702a47c746676373783acd6a55e5d2d4b454154717e5281e5ac99ab4acac966a353edc54ad6966a3555955a51953d398461daa0e5bb2e3221faed2d155bae8b15ca6365a5596261bba547854635565a56a568e4bcda98eba86a76a9a6aa56a8a47"
	DPCMMapping Note="C#1" Sample="BM Tom 1" Pitch="15" Loop="False"
	DPCMMapping Note="D1" Sample="BM Tom 2" Pitch="15" Loop="False"
	DPCMMapping Note="D#1" Sample="BM Tom 2" Pitch="14" Loop="False"
	DPCMMapping Note="F1" Sample="NG Bass Drum" Pitch="15" Loop="False"
	DPCMMapping Note="F#1" Sample="NG Snare" Pitch="15" Loop="False"
	Instrument Name="NP Lead 1 Vib"
		Envelope Type="Volume" Length="14" Loop="6" Release="7" Values="14,13,12,11,10,9,8,7,6,5,4,2,1,0"
		Envelope Type="Pitch" Length="12" Loop="0" Values="0,0,1,1,2,2,3,3,2,2,1,1"
		Envelope Type="DutyCycle" Length="1" Values="1"
	Instrument Name="NP Lead1"
		Envelope Type="Volume" Length="14" Loop="6" Release="7" Values="14,13,12,11,10,9,8,7,6,5,4,2,1,0"
		Envelope Type="DutyCycle" Length="1" Values="1"
	Instrument Name="NP NoiseCrash"
		Envelope Type="Volume" Length="30" Values="8,9,10,10,10,9,9,8,8,7,7,6,6,5,5,5,4,4,4,3,3,3,2,2,2,2,1,1,1,0"
	Instrument Name="NP Rhythm 1 P-2"
		Envelope Type="Volume" Length="4" Values="9,7,5,4"
		Envelope Type="Pitch" Length="1" Values="-2"
		Envelope Type="DutyCycle" Length="1" Values="1"
	Instrument Name="NP Rhythm 1 Vib"
		Envelope Type="Volume" Length="11" Loop="6" Release="7" Values="10,9,8,7,6,5,4,3,2,1,0"
		Envelope Type="Pitch" Length="12" Loop="0" Values="-2,-2,-1,-1,0,0,1,1,0,0,-1,-1"
		Envelope Type="DutyCycle" Length="1" Values="1"
	Instrument Name="NP Tri"
	Song Name="Moving Forward" Length="17" LoopPoint="2" PatternLength="16" BeatLength="4" NoteLength="10" Groove="10" GroovePaddingMode="Middle"
		Channel Type="Square1"
			Pattern Name="Pattern 1"
				Note Time="0" Value="B2" Duration="21" Instrument="NP Rhythm 1 P-2"
				Note Time="21" Value="B2" Duration="10" Instrument="NP Rhythm 1 P-2"
				Note Time="31" Value="B2" Duration="10" Instrument="NP Rhythm 1 P-2"
				Note Time="41" Value="B2" Duration="10" Instrument="NP Rhythm 1 P-2"
				Note Time="51" Value="B2" Duration="10" Instrument="NP Rhythm 1 P-2"
				Note Time="61" Value="B2" Duration="10" Instrument="NP Rhythm 1 P-2"
				Note Time="71" Value="B2" Duration="10" Instrument="NP Rhythm 1 P-2"
				Note Time="80" Value="B2" Duration="11" Instrument="NP Rhythm 1 P-2"
				Note Time="91" Value="B2" Duration="10" Instrument="NP Rhythm 1 P-2"
				Note Time="101" Value="B2" Duration="10" Instrument="NP Rhythm 1 P-2"
				Note Time="110" Value="D3" Duration="10" Instrument="NP Rhythm 1 P-2"
				Note Time="120" Value="E3" Duration="21" Instrument="NP Rhythm 1 P-2"
				Note Time="141" Value="E3" Duration="10" Instrument="NP Rhythm 1 P-2"
				Note Time="151" Value="E3" Duration="10" Instrument="NP Rhythm 1 P-2"
			Pattern Name="Pattern 2"
				Note Time="0" Value="B2" Duration="21" Instrument="NP Rhythm 1 P-2"
				Note Time="21" Value="B2" Duration="10" Instrument="NP Rhythm 1 P-2"
				Note Time="31" Value="B2" Duration="10" Instrument="NP Rhythm 1 P-2"
				Note Time="41" Value="B2" Duration="10" Instrument="NP Rhythm 1 P-2"
				Note Time="51" Value="B2" Duration="10" Instrument="NP Rhythm 1 P-2"
				Note Time="61" Value="B2" Duration="10" Instrument="NP Rhythm 1 P-2"
				Note Time="71" Value="B2" Duration="10" Instrument="NP Rhythm 1 P-2"
				Note Time="81" Value="B2" Duration="10" Instrument="NP Rhythm 1 P-2"
				Note Time="91" Value="B2" Duration="10" Instrument="NP Rhythm 1 P-2"
				Note Time="101" Value="B2" Duration="10" Instrument="NP Rhythm 1 P-2"
				Note Time="110" Value="E3" Duration="11" Instrument="NP Rhythm 1 P-2"
				Note Time="120" Value="D3" Duration="21" Instrument="NP Rhythm 1 P-2"
				Note Time="141" Value="D3" Duration="10" Instrument="NP Rhythm 1 P-2"
				Note Time="151" Value="D3" Duration="10" Instrument="NP Rhythm 1 P-2"
			Pattern Name="Pattern 3"
				Note Time="0" Value="E3" Duration="20" Instrument="NP Lead 1 Vib"
				Note Time="20" Value="G3" Duration="10" Instrument="NP Lead 1 Vib"
				Note Time="30" Value="A3" Duration="20" Instrument="NP Lead 1 Vib"
				Note Time="50" Value="B3" Duration="10" Instrument="NP Lead 1 Vib"
				Note Time="60" Value="A3" Duration="10" Instrument="NP Lead 1 Vib"
				Note Time="70" Value="G3" Duration="20" Instrument="NP Lead 1 Vib"
				Note Time="90" Value="A3" Duration="10" Instrument="NP Lead 1 Vib"
				Note Time="100" Value="D3" Duration="20" Release="10" Instrument="NP Lead 1 Vib"
				Note Time="120" Value="E3" Duration="30" Instrument="NP Lead 1 Vib"
			Pattern Name="Pattern 4"
				Note Time="0" Value="E3" Duration="20" Instrument="NP Lead 1 Vib"
				Note Time="20" Value="E3" Duration="10" Instrument="NP Lead 1 Vib"
				Note Time="30" Value="G3" Duration="20" Release="10" Instrument="NP Lead 1 Vib"
				Note Time="50" Value="G3" Duration="112" Release="80" Instrument="NP Lead 1 Vib"
			Pattern Name="Pattern 5"
				Note Time="0" Value="E3" Duration="20" Instrument="NP Lead 1 Vib"
				Note Time="20" Value="G3" Duration="10" Instrument="NP Lead 1 Vib"
				Note Time="30" Value="A3" Duration="20" Instrument="NP Lead 1 Vib"
				Note Time="50" Value="B3" Duration="10" Instrument="NP Lead 1 Vib"
				Note Time="60" Value="A3" Duration="10" Instrument="NP Lead 1 Vib"
				Note Time="70" Value="G3" Duration="20" Instrument="NP Lead 1 Vib"
				Note Time="90" Value="D4" Duration="10" Instrument="NP Lead 1 Vib"
				Note Time="100" Value="D3" Duration="20" Release="10" Instrument="NP Lead 1 Vib"
				Note Time="120" Value="E3" Duration="30" Instrument="NP Lead 1 Vib"
			Pattern Name="Pattern 6"
				Note Time="0" Value="G3" Duration="20" Instrument="NP Lead 1 Vib"
				Note Time="20" Value="G3" Duration="10" Instrument="NP Lead 1 Vib"
				Note Time="30" Value="A3" Duration="20" Instrument="NP Lead 1 Vib"
				Note Time="50" Value="E3" Duration="111" Release="80" Instrument="NP Lead 1 Vib"
			Pattern Name="Pattern 7"
				Note Time="0" Value="E4" Duration="20" Instrument="NP Lead 1 Vib"
				Note Time="20" Value="B4" Duration="10" Instrument="NP Lead 1 Vib"
				Note Time="30" Value="A4" Duration="32" Instrument="NP Lead 1 Vib"
				Note Time="50" Value="G4" Duration="20" Instrument="NP Lead 1 Vib"
				Note Time="70" Value="G4" Duration="10" Instrument="NP Lead 1 Vib"
				Note Time="80" Value="F#4" Duration="20" Instrument="NP Lead 1 Vib"
				Note Time="100" Value="D4" Duration="20" Instrument="NP Lead 1 Vib"
				Note Time="120" Value="E4" Duration="40" Instrument="NP Lead 1 Vib"
			Pattern Name="Pattern 8"
				Note Time="0" Value="A3" Duration="10" Instrument="NP Lead 1 Vib" SlideTarget="C4"
				Note Time="10" Value="C4" Duration="50" Instrument="NP Lead 1 Vib" Attack="False"
				Note Time="60" Value="D4" Duration="20" Instrument="NP Lead 1 Vib"
				Note Time="80" Value="B3" Duration="80" Release="60" Instrument="NP Lead 1 Vib"
			Pattern Name="Pattern 9"
				Note Time="0" Value="G3" Duration="10" Instrument="NP Lead 1 Vib"
				Note Time="10" Value="A3" Duration="20" Instrument="NP Lead 1 Vib"
				Note Time="30" Value="A3" Duration="20" Instrument="NP Lead 1 Vib"
				Note Time="50" Value="A3" Duration="20" Instrument="NP Lead 1 Vib"
				Note Time="70" Value="B3" Duration="10" Instrument="NP Lead 1 Vib"
				Note Time="80" Value="G3" Duration="80" Release="60" Instrument="NP Lead 1 Vib"
			Pattern Name="Pattern 10"
				Note Time="0" Value="G3" Duration="20" Instrument="NP Lead 1 Vib"
				Note Time="20" Value="G3" Duration="20" Instrument="NP Lead 1 Vib"
				Note Time="40" Value="G3" Duration="20" Instrument="NP Lead 1 Vib"
				Note Time="60" Value="A3" Duration="20" Instrument="NP Lead 1 Vib"
				Note Time="80" Value="E3" Duration="90" Release="79" Instrument="NP Lead 1 Vib"
			Pattern Name="Pattern 11"
				Note Time="10" Value="E4" Duration="11" Instrument="NP Lead 1 Vib"
				Note Time="20" Value="B3" Duration="11" Instrument="NP Lead 1 Vib"
				Note Time="30" Value="E3" Duration="10" Instrument="NP Lead 1 Vib"
				Note Time="40" Value="E4" Duration="11" Instrument="NP Lead 1 Vib"
				Note Time="50" Value="B3" Duration="11" Instrument="NP Lead 1 Vib"
				Note Time="60" Value="E3" Duration="11" Instrument="NP Lead 1 Vib"
				Note Time="70" Value="E4" Duration="11" Instrument="NP Lead 1 Vib"
				Note Time="80" Value="B3" Duration="11" Instrument="NP Lead 1 Vib"
				Note Time="90" Value="E3" Duration="10" Instrument="NP Lead 1 Vib"
				Note Time="101" Value="A3" Duration="20" Instrument="NP Lead 1 Vib"
				Note Time="120" Value="A3" Duration="20" Instrument="NP Lead 1 Vib"
				Note Time="140" Value="A3" Duration="20" Release="10" Instrument="NP Lead 1 Vib"
			Pattern Name="Pattern 12"
				Note Time="10" Value="D4" Duration="11" Instrument="NP Lead 1 Vib"
				Note Time="20" Value="A3" Duration="11" Instrument="NP Lead 1 Vib"
				Note Time="30" Value="D3" Duration="10" Instrument="NP Lead 1 Vib"
				Note Time="40" Value="D4" Duration="11" Instrument="NP Lead 1 Vib"
				Note Time="50" Value="A3" Duration="11" Instrument="NP Lead 1 Vib"
				Note Time="60" Value="D3" Duration="11" Instrument="NP Lead 1 Vib"
				Note Time="70" Value="D4" Duration="11" Instrument="NP Lead 1 Vib"
				Note Time="80" Value="A3" Duration="11" Instrument="NP Lead 1 Vib"
				Note Time="90" Value="D3" Duration="10" Instrument="NP Lead 1 Vib"
				Note Time="101" Value="G3" Duration="20" Instrument="NP Lead 1 Vib"
				Note Time="120" Value="G3" Duration="20" Instrument="NP Lead 1 Vib"
				Note Time="140" Value="G3" Duration="20" Release="10" Instrument="NP Lead 1 Vib"
			Pattern Name="Pattern 13"
				Note Time="10" Value="C4" Duration="11" Instrument="NP Lead 1 Vib"
				Note Time="20" Value="G3" Duration="11" Instrument="NP Lead 1 Vib"
				Note Time="30" Value="C3" Duration="10" Instrument="NP Lead 1 Vib"
				Note Time="40" Value="C4" Duration="11" Instrument="NP Lead 1 Vib"
				Note Time="50" Value="G3" Duration="11" Instrument="NP Lead 1 Vib"
				Note Time="60" Value="C3" Duration="11" Instrument="NP Lead 1 Vib"
				Note Time="70" Value="C4" Duration="11" Instrument="NP Lead 1 Vib"
				Note Time="80" Value="G3" Duration="11" Instrument="NP Lead 1 Vib"
				Note Time="90" Value="C3" Duration="10" Instrument="NP Lead 1 Vib"
				Note Time="101" Value="F3" Duration="20" Instrument="NP Lead 1 Vib"
				Note Time="120" Value="F3" Duration="20" Instrument="NP Lead 1 Vib"
				Note Time="140" Value="F3" Duration="20" Instrument="NP Lead 1 Vib"
			Pattern Name="Pattern 14"
				Note Time="0" Value="A3" Duration="20" Instrument="NP Lead 1 Vib"
				Note Time="20" Value="A3" Duration="20" Instrument="NP Lead 1 Vib"
				Note Time="40" Value="A3" Duration="30" Instrument="NP Lead 1 Vib"
				Note Time="60" Value="A3" Duration="20" Instrument="NP Lead 1 Vib"
				Note Time="80" Value="E3" Duration="240" Release="160" Instrument="NP Lead 1 Vib"
			PatternInstance Time="0" Pattern="Pattern 1"
			PatternInstance Time="1" Pattern="Pattern 2"
			PatternInstance Time="2" Pattern="Pattern 1"
			PatternInstance Time="3" Pattern="Pattern 2"
			PatternInstance Time="4" Pattern="Pattern 3"
			PatternInstance Time="5" Pattern="Pattern 4"
			PatternInstance Time="6" Pattern="Pattern 5"
			PatternInstance Time="7" Pattern="Pattern 6"
			PatternInstance Time="8" Pattern="Pattern 7"
			PatternInstance Time="9" Pattern="Pattern 8"
			PatternInstance Time="10" Pattern="Pattern 9"
			PatternInstance Time="11" Pattern="Pattern 10"
			PatternInstance Time="12" Pattern="Pattern 11"
			PatternInstance Time="13" Pattern="Pattern 12"
			PatternInstance Time="14" Pattern="Pattern 13"
			PatternInstance Time="15" Pattern="Pattern 14"
		Channel Type="Square2"
			Pattern Name="Pattern 1"
				Note Time="0" Value="E2" Duration="20" Instrument="NP Lead1"
				Note Time="20" Value="E2" Duration="10" Instrument="NP Lead1"
				Note Time="30" Value="G2" Duration="10" Instrument="NP Lead1"
				Note Time="40" Value="E2" Duration="10" Instrument="NP Lead1"
				Note Time="50" Value="E2" Duration="10" Instrument="NP Lead1"
				Note Time="60" Value="E2" Duration="10" Instrument="NP Lead1"
				Note Time="70" Value="G2" Duration="10" Instrument="NP Lead1"
				Note Time="79" Value="E2" Duration="11" Instrument="NP Lead1"
				Note Time="90" Value="E2" Duration="10" Instrument="NP Lead1"
				Note Time="100" Value="E2" Duration="10" Instrument="NP Lead1"
				Note Time="110" Value="G2" Duration="10" Instrument="NP Lead1"
				Note Time="120" Value="A2" Duration="20" Instrument="NP Lead1"
				Note Time="140" Value="A2" Duration="10" Instrument="NP Lead1"
				Note Time="150" Value="A2" Duration="10" Instrument="NP Lead1"
			Pattern Name="Pattern 2"
				Note Time="0" Value="E2" Duration="20" Instrument="NP Lead1"
				Note Time="20" Value="E2" Duration="10" Instrument="NP Lead1"
				Note Time="30" Value="G2" Duration="10" Instrument="NP Lead1"
				Note Time="40" Value="E2" Duration="10" Instrument="NP Lead1"
				Note Time="50" Value="E2" Duration="10" Instrument="NP Lead1"
				Note Time="60" Value="E2" Duration="10" Instrument="NP Lead1"
				Note Time="70" Value="G2" Duration="10" Instrument="NP Lead1"
				Note Time="80" Value="E2" Duration="10" Instrument="NP Lead1"
				Note Time="90" Value="E2" Duration="10" Instrument="NP Lead1"
				Note Time="100" Value="E2" Duration="10" Instrument="NP Lead1"
				Note Time="110" Value="A2" Duration="10" Instrument="NP Lead1"
				Note Time="120" Value="G2" Duration="20" Instrument="NP Lead1"
				Note Time="140" Value="G2" Duration="10" Instrument="NP Lead1"
				Note Time="150" Value="G2" Duration="10" Instrument="NP Lead1"
			Pattern Name="Pattern 3"
				Note Time="30" Value="E4" Duration="11" Instrument="NP Rhythm 1 Vib"
				Note Time="40" Value="B3" Duration="11" Instrument="NP Rhythm 1 Vib"
				Note Time="50" Value="E3" Duration="10" Instrument="NP Rhythm 1 Vib"
				Note Time="60" Value="E4" Duration="11" Instrument="NP Rhythm 1 Vib"
				Note Time="71" Value="B3" Duration="10" Instrument="NP Rhythm 1 Vib"
				Note Time="80" Value="E3" Duration="11" Instrument="NP Rhythm 1 Vib"
				Note Time="90" Value="E4" Duration="11" Instrument="NP Rhythm 1 Vib"
				Note Time="100" Value="B3" Duration="11" Instrument="NP Rhythm 1 Vib"
				Note Time="110" Value="E3" Duration="10" Instrument="NP Rhythm 1 Vib"
				Note Time="121" Value="A3" Duration="20" Instrument="NP Rhythm 1 Vib"
				Note Time="140" Value="A3" Duration="20" Instrument="NP Rhythm 1 Vib"
			Pattern Name="Pattern 4"
				Note Time="0" Value="A3" Duration="20" Release="10" Instrument="NP Rhythm 1 Vib"
				Note Time="30" Value="D4" Duration="11" Instrument="NP Rhythm 1 Vib"
				Note Time="40" Value="A3" Duration="11" Instrument="NP Rhythm 1 Vib"
				Note Time="50" Value="D3" Duration="10" Instrument="NP Rhythm 1 Vib"
				Note Time="60" Value="D4" Duration="11" Instrument="NP Rhythm 1 Vib"
				Note Time="71" Value="A3" Duration="10" Instrument="NP Rhythm 1 Vib"
				Note Time="80" Value="D3" Duration="11" Instrument="NP Rhythm 1 Vib"
				Note Time="90" Value="D4" Duration="11" Instrument="NP Rhythm 1 Vib"
				Note Time="100" Value="A3" Duration="11" Instrument="NP Rhythm 1 Vib"
				Note Time="110" Value="D3" Duration="10" Instrument="NP Rhythm 1 Vib"
				Note Time="121" Value="G3" Duration="20" Instrument="NP Rhythm 1 Vib"
				Note Time="140" Value="G3" Duration="20" Instrument="NP Rhythm 1 Vib"
			Pattern Name="Pattern 5"
				Note Time="0" Value="G3" Duration="20" Release="10" Instrument="NP Rhythm 1 Vib"
				Note Time="30" Value="C4" Duration="11" Instrument="NP Rhythm 1 Vib"
				Note Time="40" Value="G3" Duration="11" Instrument="NP Rhythm 1 Vib"
				Note Time="50" Value="C3" Duration="10" Instrument="NP Rhythm 1 Vib"
				Note Time="60" Value="C4" Duration="11" Instrument="NP Rhythm 1 Vib"
				Note Time="71" Value="G3" Duration="10" Instrument="NP Rhythm 1 Vib"
				Note Time="80" Value="C3" Duration="11" Instrument="NP Rhythm 1 Vib"
				Note Time="90" Value="C4" Duration="11" Instrument="NP Rhythm 1 Vib"
				Note Time="100" Value="G3" Duration="11" Instrument="NP Rhythm 1 Vib"
				Note Time="110" Value="C3" Duration="10" Instrument="NP Rhythm 1 Vib"
				Note Time="120" Value="F3" Duration="21" Instrument="NP Rhythm 1 Vib"
				Note Time="140" Value="F3" Duration="20" Instrument="NP Rhythm 1 Vib"
			Pattern Name="Pattern 6"
				Note Time="0" Value="F3" Duration="20" Instrument="NP Rhythm 1 Vib"
				Note Time="21" Value="A3" Duration="20" Instrument="NP Rhythm 1 Vib"
				Note Time="41" Value="A3" Duration="20" Instrument="NP Rhythm 1 Vib"
				Note Time="61" Value="A3" Duration="20" Instrument="NP Rhythm 1 Vib"
				Note Time="81" Value="A3" Duration="10" Instrument="NP Rhythm 1 Vib"
				Note Time="91" Value="E3" Duration="229" Release="159" Instrument="NP Rhythm 1 Vib"
			PatternInstance Time="0" Pattern="Pattern 1"
			PatternInstance Time="1" Pattern="Pattern 2"
			PatternInstance Time="2" Pattern="Pattern 1"
			PatternInstance Time="3" Pattern="Pattern 2"
			PatternInstance Time="4" Pattern="Pattern 1"
			PatternInstance Time="5" Pattern="Pattern 2"
			PatternInstance Time="6" Pattern="Pattern 1"
			PatternInstance Time="7" Pattern="Pattern 2"
			PatternInstance Time="8" Pattern="Pattern 1"
			PatternInstance Time="9" Pattern="Pattern 2"
			PatternInstance Time="10" Pattern="Pattern 1"
			PatternInstance Time="11" Pattern="Pattern 2"
			PatternInstance Time="12" Pattern="Pattern 3"
			PatternInstance Time="13" Pattern="Pattern 4"
			PatternInstance Time="14" Pattern="Pattern 5"
			PatternInstance Time="15" Pattern="Pattern 6"
		Channel Type="Triangle"
			Pattern Name="Pattern 1"
				Note Time="0" Value="E2" Duration="19" Instrument="NP Tri"
				Note Time="20" Value="E2" Duration="9" Instrument="NP Tri"
				Note Time="30" Value="G2" Duration="9" Instrument="NP Tri"
				Note Time="40" Value="E2" Duration="9" Instrument="NP Tri"
				Note Time="50" Value="E2" Duration="9" Instrument="NP Tri"
				Note Time="60" Value="E2" Duration="9" Instrument="NP Tri"
				Note Time="70" Value="G2" Duration="9" Instrument="NP Tri"
				Note Time="80" Value="E2" Duration="9" Instrument="NP Tri"
				Note Time="90" Value="E2" Duration="9" Instrument="NP Tri"
				Note Time="100" Value="E2" Duration="9" Instrument="NP Tri"
				Note Time="110" Value="G2" Duration="9" Instrument="NP Tri"
				Note Time="120" Value="A2" Duration="19" Instrument="NP Tri"
				Note Time="140" Value="A2" Duration="9" Instrument="NP Tri"
				Note Time="150" Value="A2" Duration="9" Instrument="NP Tri"
			Pattern Name="Pattern 2"
				Note Time="0" Value="E2" Duration="19" Instrument="NP Tri"
				Note Time="20" Value="E2" Duration="8" Instrument="NP Tri"
				Note Time="30" Value="G2" Duration="8" Instrument="NP Tri"
				Note Time="40" Value="E2" Duration="8" Instrument="NP Tri"
				Note Time="50" Value="E2" Duration="8" Instrument="NP Tri"
				Note Time="60" Value="E2" Duration="8" Instrument="NP Tri"
				Note Time="70" Value="G2" Duration="8" Instrument="NP Tri"
				Note Time="80" Value="E2" Duration="8" Instrument="NP Tri"
				Note Time="90" Value="E2" Duration="8" Instrument="NP Tri"
				Note Time="100" Value="E2" Duration="8" Instrument="NP Tri"
				Note Time="110" Value="A2" Duration="8" Instrument="NP Tri"
				Note Time="120" Value="G2" Duration="18" Instrument="NP Tri"
				Note Time="140" Value="G2" Duration="8" Instrument="NP Tri"
				Note Time="150" Value="G2" Duration="8" Instrument="NP Tri"
			Pattern Name="Pattern 3"
				Note Time="0" Value="E2" Duration="18" Instrument="NP Tri"
				Note Time="20" Value="E2" Duration="8" Instrument="NP Tri"
				Note Time="30" Value="E2" Duration="8" Instrument="NP Tri"
				Note Time="40" Value="E2" Duration="8" Instrument="NP Tri"
				Note Time="50" Value="E2" Duration="8" Instrument="NP Tri"
				Note Time="60" Value="E2" Duration="8" Instrument="NP Tri"
				Note Time="70" Value="E2" Duration="8" Instrument="NP Tri"
				Note Time="80" Value="E2" Duration="8" Instrument="NP Tri"
				Note Time="90" Value="E2" Duration="8" Instrument="NP Tri"
				Note Time="100" Value="E2" Duration="8" Instrument="NP Tri"
				Note Time="110" Value="G2" Duration="8" Instrument="NP Tri"
				Note Time="120" Value="A2" Duration="18" Instrument="NP Tri"
				Note Time="140" Value="A2" Duration="8" Instrument="NP Tri"
				Note Time="150" Value="A2" Duration="8" Instrument="NP Tri"
			Pattern Name="Pattern 4"
				Note Time="0" Value="E2" Duration="18" Instrument="NP Tri"
				Note Time="20" Value="E2" Duration="8" Instrument="NP Tri"
				Note Time="30" Value="E2" Duration="8" Instrument="NP Tri"
				Note Time="40" Value="E2" Duration="8" Instrument="NP Tri"
				Note Time="50" Value="E2" Duration="8" Instrument="NP Tri"
				Note Time="60" Value="E2" Duration="8" Instrument="NP Tri"
				Note Time="70" Value="E2" Duration="8" Instrument="NP Tri"
				Note Time="80" Value="E2" Duration="8" Instrument="NP Tri"
				Note Time="90" Value="E2" Duration="8" Instrument="NP Tri"
				Note Time="100" Value="E2" Duration="8" Instrument="NP Tri"
				Note Time="110" Value="A2" Duration="8" Instrument="NP Tri"
				Note Time="120" Value="G2" Duration="18" Instrument="NP Tri"
				Note Time="140" Value="G2" Duration="8" Instrument="NP Tri"
				Note Time="150" Value="G2" Duration="10" Instrument="NP Tri"
			Pattern Name="Pattern 5"
				Note Time="0" Value="E2" Duration="18" Instrument="NP Tri"
				Note Time="20" Value="E2" Duration="18" Instrument="NP Tri"
				Note Time="40" Value="E2" Duration="18" Instrument="NP Tri"
				Note Time="60" Value="E2" Duration="18" Instrument="NP Tri"
				Note Time="80" Value="E2" Duration="18" Instrument="NP Tri"
				Note Time="100" Value="E2" Duration="18" Instrument="NP Tri"
				Note Time="120" Value="A2" Duration="18" Instrument="NP Tri"
				Note Time="140" Value="A2" Duration="8" Instrument="NP Tri"
				Note Time="150" Value="A2" Duration="8" Instrument="NP Tri"
			Pattern Name="Pattern 6"
				Note Time="0" Value="D2" Duration="18" Instrument="NP Tri"
				Note Time="20" Value="D2" Duration="18" Instrument="NP Tri"
				Note Time="40" Value="D2" Duration="18" Instrument="NP Tri"
				Note Time="60" Value="D2" Duration="18" Instrument="NP Tri"
				Note Time="80" Value="D2" Duration="18" Instrument="NP Tri"
				Note Time="100" Value="D2" Duration="18" Instrument="NP Tri"
				Note Time="120" Value="G2" Duration="18" Instrument="NP Tri"
				Note Time="140" Value="G2" Duration="8" Instrument="NP Tri"
				Note Time="150" Value="G2" Duration="8" Instrument="NP Tri"
			Pattern Name="Pattern 7"
				Note Time="0" Value="C2" Duration="18" Instrument="NP Tri"
				Note Time="20" Value="C2" Duration="18" Instrument="NP Tri"
				Note Time="40" Value="C2" Duration="18" Instrument="NP Tri"
				Note Time="60" Value="C2" Duration="18" Instrument="NP Tri"
				Note Time="80" Value="C2" Duration="18" Instrument="NP Tri"
				Note Time="100" Value="C2" Duration="18" Instrument="NP Tri"
				Note Time="120" Value="F2" Duration="18" Instrument="NP Tri"
				Note Time="140" Value="F2" Duration="8" Instrument="NP Tri"
				Note Time="150" Value="F2" Duration="8" Instrument="NP Tri"
			PatternInstance Time="0" Pattern="Pattern 1"
			PatternInstance Time="1" Pattern="Pattern 2"
			PatternInstance Time="2" Pattern="Pattern 1"
			PatternInstance Time="3" Pattern="Pattern 2"
			PatternInstance Time="4" Pattern="Pattern 3"
			PatternInstance Time="5" Pattern="Pattern 4"
			PatternInstance Time="6" Pattern="Pattern 3"
			PatternInstance Time="7" Pattern="Pattern 4"
			PatternInstance Time="8" Pattern="Pattern 3"
			PatternInstance Time="9" Pattern="Pattern 4"
			PatternInstance Time="10" Pattern="Pattern 3"
			PatternInstance Time="11" Pattern="Pattern 4"
			PatternInstance Time="12" Pattern="Pattern 5"
			PatternInstance Time="13" Pattern="Pattern 6"
			PatternInstance Time="14" Pattern="Pattern 7"
			PatternInstance Time="15" Pattern="Pattern 1"
			PatternInstance Time="16" Pattern="Pattern 2"
		Channel Type="Noise"
			Pattern Name="Pattern 3"
				Note Time="80" Value="C#2" Duration="20" Instrument="NP NoiseCrash"
			PatternInstance Time="15" Pattern="Pattern 3"
		Channel Type="DPCM"
			Pattern Name="Pattern 1"
				Note Time="10" Value="F1" Duration="22"
				Note Time="30" Value="F#1" Duration="23"
				Note Time="50" Value="F1" Duration="10"
				Note Time="60" Value="F1" Duration="10"
				Note Time="70" Value="F#1" Duration="22"
				Note Time="90" Value="F1" Duration="21"
				Note Time="110" Value="F#1" Duration="23"
				Note Time="130" Value="F1" Duration="10"
				Note Time="140" Value="F1" Duration="10"
				Note Time="150" Value="F#1" Duration="22"
			Pattern Name="Pattern 2"
				Note Time="10" Value="F#1" Duration="10"
				Note Time="20" Value="F#1" Duration="10"
				Note Time="30" Value="F1" Duration="22"
				Note Time="50" Value="F#1" Duration="10"
				Note Time="60" Value="F#1" Duration="16"
				Note Time="70" Value="F1" Duration="23"
				Note Time="90" Value="F#1" Duration="6"
				Note Time="95" Value="F#1" Duration="5"
				Note Time="100" Value="F#1" Duration="5"
				Note Time="105" Value="F#1" Duration="5"
				Note Time="110" Value="F1" Duration="24"
				Note Time="130" Value="D#1" Duration="10"
				Note Time="140" Value="D#1" Duration="10"
				Note Time="150" Value="F1" Duration="10"
			Pattern Name="Pattern 3"
				Note Time="0" Value="D1" Duration="5"
				Note Time="5" Value="D1" Duration="5"
				Note Time="10" Value="D1" Duration="5"
				Note Time="15" Value="D1" Duration="5"
				Note Time="20" Value="C#1" Duration="5"
				Note Time="25" Value="C#1" Duration="5"
				Note Time="30" Value="C#1" Duration="5"
				Note Time="35" Value="C#1" Duration="5"
				Note Time="40" Value="D#1" Duration="5"
				Note Time="45" Value="D#1" Duration="5"
				Note Time="50" Value="D#1" Duration="5"
				Note Time="55" Value="D#1" Duration="5"
				Note Time="60" Value="F1" Duration="10"
				Note Time="70" Value="F1" Duration="10"
				Note Time="90" Value="F1" Duration="20"
				Note Time="110" Value="F#1" Duration="23"
				Note Time="130" Value="F1" Duration="10"
				Note Time="140" Value="F1" Duration="11"
				Note Time="150" Value="F#1" Duration="21"
			PatternInstance Time="0" Pattern="Pattern 1"
			PatternInstance Time="1" Pattern="Pattern 1"
			PatternInstance Time="2" Pattern="Pattern 1"
			PatternInstance Time="3" Pattern="Pattern 1"
			PatternInstance Time="4" Pattern="Pattern 1"
			PatternInstance Time="5" Pattern="Pattern 1"
			PatternInstance Time="6" Pattern="Pattern 1"
			PatternInstance Time="7" Pattern="Pattern 1"
			PatternInstance Time="8" Pattern="Pattern 1"
			PatternInstance Time="9" Pattern="Pattern 1"
			PatternInstance Time="10" Pattern="Pattern 1"
			PatternInstance Time="11" Pattern="Pattern 1"
			PatternInstance Time="12" Pattern="Pattern 2"
			PatternInstance Time="13" Pattern="Pattern 2"
			PatternInstance Time="14" Pattern="Pattern 2"
			PatternInstance Time="15" Pattern="Pattern 3"
			PatternInstance Time="16" Pattern="Pattern 1"
