Project Version="3.1.1" TempoMode="FamiStudio" Name="ninja" Author="mcgrew"
	DPCMSample Name="NG Bass Drum" Data="9a719699a3699699f9889d9b99cd66dacab0b344cb711c833cf8070001f807c01fc00342f687185ff3a5eb3f93dfbfe4bdf97d8bb737f37c9cf91ca5139766996a54624449c1129178046a3202330b461a9391615a145b2699cc64e51695ab95e31c6b99cbcb99e669d66c369bcba939dbb872b95c4e2da793e5a9e1cc65b15a5539a9b552ab5255995956e5645a5959665655555599558e656999b29c2c479333d5545559a6a6cac9d44c5699e5a89acaaa2653d358a5a92c4d65a93295c5cc94a92a5395692acb325355d53835d5d2acaa6596abd4ac955935abaa5655b5aaaa5a5535abaa6a565555b5aaaa9aa965595555555555555555559665666aaaaa"
	DPCMSample Name="NG Snare" Data="aaaaaa02c4871f83fff9ffff190f00000030c000ff33bf1ffc07ff1ffffdcf87c1011000000080033eeee3e7f8df7ffec74fff01fcc00f00000f000ae770900ff8b3bfffc39ffc180fbe613ef8700c0781212838840777f0f8e7f7f1fee037fcc1f88097c00f5c61d038c0038fe80f77b807fb7ce0c3fde083f7e0073f1c0ec6c130053ef0031ffc047fe00f7e703ef8ddf0077ef0c11f90198ee0c1031f041ffcc10f9ee8c73c5e0f7f7487ab030f0f740c3e882e980ff4811f380e1ffce22df9ac1f3ecc878d071e0f0e3c8847d8c183077ef070ec0ee7e3f1e5e1178fd18b0e27dc18391cf8c083c3f0c3866d493b8ecfe13bce8377e1076e0a7ed023784247f4e038b8e1e2198fc7399ef2e12d3e3a1eab1c95a3c51c4a8d52c3e4221b7ce496d287c7e7f059352f8ed57870b171e8d0142ea343b3e2347c681e7ae163abd6ca935e1c57793819cde144176538c3ca0a6b5aca8bcee1938fbaa92b7ab195e9e0252b6a49f1c1118f864eae78f085ab55e5c5ce524fb61cb53c78b8d8c472a8454b169d4a1ef161b5b256b5ec785c36b334abc9453a69313aaa6a2c56ea702a47c746676373783acd6a55e5d2d4b454154717e5281e5ac99ab4acac966a353edc54ad6966a3555955a51953d398461daa0e5bb2e3221faed2d155bae8b15ca6365a5596261bba547854635565a56a568e4bcda98eba86a76a9a6aa56a8a47"
	DPCMMapping Note="C1" Sample="NG Bass Drum" Pitch="15" Loop="False"
	DPCMMapping Note="C#1" Sample="NG Snare" Pitch="15" Loop="False"
	Instrument Name="NG Lead"
		Envelope Type="Volume" Length="22" Values="4,4,4,4,4,4,3,3,3,3,3,3,3,2,2,2,2,2,2,2,2,1"
		Envelope Type="DutyCycle" Length="1" Values="1"
	Instrument Name="NG LeadPitch"
		Envelope Type="Volume" Length="22" Values="4,4,4,4,4,4,3,3,3,3,3,3,3,2,2,2,2,2,2,2,2,1"
		Envelope Type="Pitch" Length="8" Loop="0" Values="1,-1,-2,-1,1,2,3,2"
		Envelope Type="DutyCycle" Length="1" Values="1"
	Instrument Name="NG LeadSteadyVol"
		Envelope Type="Volume" Length="1" Values="4"
		Envelope Type="Pitch" Length="8" Loop="0" Values="1,-1,-2,-1,1,2,3,2"
		Envelope Type="DutyCycle" Length="1" Values="1"
	Instrument Name="NG Noise"
		Envelope Type="Volume" Length="6" Values="9,7,5,3,1,0"
	Instrument Name="NG Sq2"
		Envelope Type="Volume" Length="9" Values="5,5,4,4,3,3,2,2,1"
	Instrument Name="NG Sq2Pitch"
		Envelope Type="Volume" Length="9" Values="5,5,4,4,3,3,2,2,1"
		Envelope Type="Pitch" Length="1" Values="1"
	Instrument Name="NG Tri"
	Instrument Name="NG TriPitch"
		Envelope Type="Pitch" Length="1" Values="1"
	Song Name="Sprinting riffs" Length="27" LoopPoint="1" PatternLength="8" BeatLength="4" NoteLength="12" Groove="12" GroovePaddingMode="Middle"
		Channel Type="Square1"
			Pattern Name="Pattern 1"
				Note Time="0" Value="F#3" Duration="12" Instrument="NG LeadPitch"
				Note Time="12" Value="A3" Duration="12" Instrument="NG LeadPitch"
				Note Time="24" Value="F#3" Duration="12" Instrument="NG Lead"
				Note Time="36" Value="B3" Duration="12" Instrument="NG LeadPitch"
				Note Time="48" Value="E3" Duration="6" Instrument="NG LeadPitch"
				Note Time="54" Value="F#3" Duration="12" Instrument="NG LeadPitch"
				Note Time="66" Value="E3" Duration="6" Instrument="NG LeadPitch"
				Note Time="72" Value="F#3" Duration="12" Instrument="NG LeadPitch"
				Note Time="84" Value="C#4" Duration="12" Instrument="NG LeadPitch"
			Pattern Name="Pattern 2"
				Note Time="0" Value="F#3" Duration="36" Instrument="NG LeadSteadyVol"
				Note Time="36" Value="G#3" Duration="12" Instrument="NG LeadPitch"
				Note Time="48" Value="A3" Duration="12" Instrument="NG Lead"
				Note Time="60" Value="G#3" Duration="12" Instrument="NG LeadPitch"
				Note Time="72" Value="F#3" Duration="24" Instrument="NG LeadPitch"
			Pattern Name="Pattern 3"
				Note Time="0" Value="G#3" Duration="12" Instrument="NG LeadPitch"
				Note Time="12" Value="F#3" Duration="12" Instrument="NG LeadPitch"
				Note Time="24" Value="B3" Duration="12" Instrument="NG LeadPitch"
				Note Time="36" Value="G#3" Duration="12" Instrument="NG LeadPitch"
				Note Time="48" Value="F#3" Duration="6" Instrument="NG LeadPitch"
				Note Time="54" Value="G#3" Duration="12" Instrument="NG LeadPitch"
				Note Time="66" Value="F#3" Duration="6" Instrument="NG LeadPitch"
				Note Time="72" Value="G#3" Duration="12" Instrument="NG LeadPitch"
				Note Time="84" Value="C#4" Duration="12" Instrument="NG LeadPitch"
			Pattern Name="Pattern 4"
				Note Time="0" Value="G#3" Duration="36" Instrument="NG LeadSteadyVol"
				Note Time="36" Value="A3" Duration="12" Instrument="NG Lead"
				Note Time="48" Value="B3" Duration="12" Instrument="NG Lead"
				Note Time="60" Value="A3" Duration="12" Instrument="NG Lead"
				Note Time="72" Value="G#3" Duration="24" Instrument="NG LeadPitch"
			Pattern Name="Pattern 5"
				Note Time="0" Value="F#3" Duration="24" Instrument="NG LeadPitch"
				Note Time="24" Value="E3" Duration="24" Instrument="NG LeadPitch"
				Note Time="48" Value="D3" Duration="24" Instrument="NG LeadPitch"
				Note Time="72" Value="C#3" Duration="24" Instrument="NG LeadPitch"
			Pattern Name="Pattern 6"
				Note Time="12" Value="C#3" Duration="12" Instrument="NG LeadPitch"
				Note Time="24" Value="C#3" Duration="12" Instrument="NG LeadPitch"
				Note Time="36" Value="C#3" Duration="24" Instrument="NG LeadPitch"
				Note Time="60" Value="C#3" Duration="12" Instrument="NG LeadPitch"
				Note Time="72" Value="F#3" Duration="12" Instrument="NG LeadPitch"
				Note Time="84" Value="G#3" Duration="12" Instrument="NG LeadPitch"
			Pattern Name="Pattern 7"
				Note Time="0" Value="A3" Duration="12" Instrument="NG Lead"
				Note Time="12" Value="G#3" Duration="12" Instrument="NG Lead"
				Note Time="24" Value="A3" Duration="12" Instrument="NG Lead"
				Note Time="36" Value="F#3" Duration="24" Instrument="NG LeadPitch"
				Note Time="60" Value="C#4" Duration="12" Instrument="NG LeadPitch"
				Note Time="72" Value="B3" Duration="12" Instrument="NG LeadPitch"
				Note Time="84" Value="A3" Duration="12" Instrument="NG LeadPitch"
			Pattern Name="Pattern 8"
				Note Time="0" Value="B3" Duration="12" Instrument="NG Lead"
				Note Time="12" Value="A3" Duration="12" Instrument="NG Lead"
				Note Time="24" Value="B3" Duration="12" Instrument="NG Lead"
				Note Time="36" Value="F#3" Duration="24" Instrument="NG LeadPitch"
				Note Time="60" Value="A3" Duration="12" Instrument="NG Lead"
				Note Time="72" Value="G#3" Duration="12" Instrument="NG LeadPitch"
				Note Time="84" Value="F#3" Duration="12" Instrument="NG LeadPitch"
			Pattern Name="Pattern 9"
				Note Time="0" Value="E3" Duration="12" Instrument="NG LeadPitch"
				Note Time="12" Value="F#3" Duration="12" Instrument="NG LeadPitch"
				Note Time="24" Value="G#3" Duration="12" Instrument="NG LeadPitch"
				Note Time="36" Value="E4" Duration="24" Instrument="NG LeadPitch"
				Note Time="60" Value="D4" Duration="12" Instrument="NG LeadPitch"
				Note Time="72" Value="C#4" Duration="12" Instrument="NG LeadPitch"
				Note Time="84" Value="B3" Duration="12" Instrument="NG LeadPitch"
			Pattern Name="Pattern 10"
				Note Time="0" Value="C#4" Duration="30" Instrument="NG LeadPitch"
				Note Time="60" Value="C#3" Duration="12" Instrument="NG LeadPitch"
				Note Time="72" Value="F#3" Duration="12" Instrument="NG LeadPitch"
				Note Time="84" Value="G#3" Duration="12" Instrument="NG LeadPitch"
			Pattern Name="Pattern 11"
				Note Time="0" Value="C#4" Duration="30" Instrument="NG LeadPitch"
				Note Time="60" Value="C#3" Duration="6" Instrument="NG LeadPitch"
				Note Time="66" Value="E3" Duration="6" Instrument="NG LeadPitch"
				Note Time="72" Value="F#3" Duration="6" Instrument="NG LeadPitch"
				Note Time="78" Value="G#3" Duration="6" Instrument="NG LeadPitch"
				Note Time="84" Value="A3" Duration="6" Instrument="NG Lead"
				Note Time="90" Value="B3" Duration="6" Instrument="NG LeadPitch"
			Pattern Name="Pattern 12"
				Note Time="0" Value="A3" Duration="12" Instrument="NG Lead"
				Note Time="12" Value="G#3" Duration="6" Instrument="NG LeadPitch"
				Note Time="18" Value="A3" Duration="12" Instrument="NG Lead"
				Note Time="30" Value="F#3" Duration="6" Instrument="NG LeadPitch"
				Note Time="36" Value="A3" Duration="12" Instrument="NG Lead"
				Note Time="48" Value="G#3" Duration="6" Instrument="NG LeadPitch"
				Note Time="54" Value="A3" Duration="12" Instrument="NG Lead"
				Note Time="66" Value="F#3" Duration="6" Instrument="NG LeadPitch"
				Note Time="72" Value="B3" Duration="6" Instrument="NG LeadPitch"
				Note Time="78" Value="A3" Duration="6" Instrument="NG Lead"
				Note Time="84" Value="G#3" Duration="6" Instrument="NG Lead"
				Note Time="90" Value="A3" Duration="18" Instrument="NG Lead"
			Pattern Name="Pattern 13"
				Note Time="12" Value="G#3" Duration="6" Instrument="NG Lead"
				Note Time="18" Value="A3" Duration="12" Instrument="NG Lead"
				Note Time="30" Value="F#3" Duration="6" Instrument="NG Lead"
				Note Time="36" Value="A3" Duration="12" Instrument="NG Lead"
				Note Time="48" Value="G#3" Duration="6" Instrument="NG Lead"
				Note Time="54" Value="A3" Duration="12" Instrument="NG Lead"
				Note Time="66" Value="F#3" Duration="6" Instrument="NG Lead"
				Note Time="72" Value="B3" Duration="6" Instrument="NG Lead"
				Note Time="78" Value="A3" Duration="6" Instrument="NG Lead"
				Note Time="84" Value="G#3" Duration="6" Instrument="NG Lead"
				Note Time="90" Value="F#3" Duration="6" Instrument="NG Lead"
			Pattern Name="Pattern 14"
				Note Time="0" Value="B3" Duration="12" Instrument="NG Lead"
				Note Time="12" Value="A3" Duration="6" Instrument="NG Lead"
				Note Time="18" Value="B3" Duration="12" Instrument="NG Lead"
				Note Time="30" Value="G#3" Duration="6" Instrument="NG Lead"
				Note Time="36" Value="B3" Duration="12" Instrument="NG Lead"
				Note Time="48" Value="A3" Duration="6" Instrument="NG Lead"
				Note Time="54" Value="B3" Duration="12" Instrument="NG Lead"
				Note Time="66" Value="G#3" Duration="6" Instrument="NG Lead"
				Note Time="72" Value="C#4" Duration="6" Instrument="NG Lead"
				Note Time="78" Value="B3" Duration="6" Instrument="NG Lead"
				Note Time="84" Value="A3" Duration="6" Instrument="NG Lead"
				Note Time="90" Value="G#3" Duration="6" Instrument="NG Lead"
			Pattern Name="Pattern 15"
				Note Time="0" Value="F#3" Duration="6" Instrument="NG LeadPitch"
				Note Time="6" Value="E3" Duration="6" Instrument="NG LeadPitch"
				Note Time="12" Value="C#3" Duration="6" Instrument="NG LeadPitch"
				Note Time="18" Value="D3" Duration="6" Instrument="NG LeadPitch"
				Note Time="24" Value="F#3" Duration="6" Instrument="NG LeadPitch"
				Note Time="30" Value="C#3" Duration="6" Instrument="NG LeadPitch"
				Note Time="36" Value="E3" Duration="6" Instrument="NG LeadPitch"
				Note Time="42" Value="F#3" Duration="6" Instrument="NG LeadPitch"
				Note Time="48" Value="A3" Duration="6" Instrument="NG LeadPitch"
				Note Time="54" Value="G#3" Duration="6" Instrument="NG LeadPitch"
				Note Time="60" Value="F#3" Duration="6" Instrument="NG LeadPitch"
				Note Time="66" Value="E3" Duration="6" Instrument="NG LeadPitch"
				Note Time="72" Value="C#4" Duration="12" Instrument="NG LeadPitch"
				Note Time="84" Value="B3" Duration="12" Instrument="NG LeadPitch"
			PatternInstance Time="1" Pattern="Pattern 1"
			PatternInstance Time="2" Pattern="Pattern 2"
			PatternInstance Time="3" Pattern="Pattern 3"
			PatternInstance Time="4" Pattern="Pattern 4"
			PatternInstance Time="5" Pattern="Pattern 1"
			PatternInstance Time="6" Pattern="Pattern 2"
			PatternInstance Time="7" Pattern="Pattern 3"
			PatternInstance Time="8" Pattern="Pattern 4"
			PatternInstance Time="9" Pattern="Pattern 5"
			PatternInstance Time="10" Pattern="Pattern 6"
			PatternInstance Time="11" Pattern="Pattern 7"
			PatternInstance Time="12" Pattern="Pattern 8"
			PatternInstance Time="13" Pattern="Pattern 9"
			PatternInstance Time="14" Pattern="Pattern 10"
			PatternInstance Time="15" Pattern="Pattern 7"
			PatternInstance Time="16" Pattern="Pattern 8"
			PatternInstance Time="17" Pattern="Pattern 9"
			PatternInstance Time="18" Pattern="Pattern 11"
			PatternInstance Time="19" Pattern="Pattern 12"
			PatternInstance Time="20" Pattern="Pattern 13"
			PatternInstance Time="21" Pattern="Pattern 14"
			PatternInstance Time="22" Pattern="Pattern 15"
			PatternInstance Time="23" Pattern="Pattern 12"
			PatternInstance Time="24" Pattern="Pattern 13"
			PatternInstance Time="25" Pattern="Pattern 14"
			PatternInstance Time="26" Pattern="Pattern 15"
		Channel Type="Square2"
			Pattern Name="Pattern 1"
				Note Time="0" Value="F#2" Duration="10" Instrument="NG Sq2"
				Note Time="12" Value="F#3" Duration="6" Instrument="NG Sq2Pitch"
				Note Time="18" Value="C#3" Duration="6" Instrument="NG Sq2"
				Note Time="30" Value="C#3" Duration="6" Instrument="NG Sq2"
				Note Time="36" Value="F#3" Duration="10" Instrument="NG Sq2Pitch"
				Note Time="48" Value="F#2" Duration="6" Instrument="NG Sq2"
				Note Time="54" Value="F#3" Duration="6" Instrument="NG Sq2Pitch"
				Note Time="60" Value="C#3" Duration="10" Instrument="NG Sq2"
				Note Time="72" Value="F#3" Duration="10" Instrument="NG Sq2Pitch"
				Note Time="84" Value="C#3" Duration="10" Instrument="NG Sq2"
			Pattern Name="Pattern 2"
				Note Time="0" Value="D2" Duration="10" Instrument="NG Sq2"
				Note Time="12" Value="F#3" Duration="6" Instrument="NG Sq2Pitch"
				Note Time="18" Value="D3" Duration="6" Instrument="NG Sq2"
				Note Time="30" Value="D3" Duration="6" Instrument="NG Sq2"
				Note Time="36" Value="F#3" Duration="10" Instrument="NG Sq2Pitch"
				Note Time="48" Value="D2" Duration="6" Instrument="NG Sq2"
				Note Time="54" Value="F#3" Duration="6" Instrument="NG Sq2Pitch"
				Note Time="60" Value="D3" Duration="10" Instrument="NG Sq2"
				Note Time="72" Value="F#3" Duration="10" Instrument="NG Sq2Pitch"
				Note Time="84" Value="D3" Duration="10" Instrument="NG Sq2"
			Pattern Name="Pattern 3"
				Note Time="0" Value="E2" Duration="10" Instrument="NG Sq2"
				Note Time="12" Value="F#3" Duration="6" Instrument="NG Sq2Pitch"
				Note Time="18" Value="E3" Duration="6" Instrument="NG Sq2Pitch"
				Note Time="30" Value="E3" Duration="6" Instrument="NG Sq2Pitch"
				Note Time="36" Value="F#3" Duration="10" Instrument="NG Sq2Pitch"
				Note Time="48" Value="E2" Duration="6" Instrument="NG Sq2"
				Note Time="54" Value="F#3" Duration="6" Instrument="NG Sq2Pitch"
				Note Time="60" Value="E3" Duration="10" Instrument="NG Sq2Pitch"
				Note Time="72" Value="F#3" Duration="10" Instrument="NG Sq2Pitch"
				Note Time="84" Value="E3" Duration="10" Instrument="NG Sq2Pitch"
			Pattern Name="Pattern 4"
				Note Time="0" Value="C#2" Duration="10" Instrument="NG Sq2Pitch"
				Note Time="12" Value="F#3" Duration="6" Instrument="NG Sq2Pitch"
				Note Time="18" Value="C#3" Duration="6" Instrument="NG Sq2"
				Note Time="24" Value="F#3" Duration="6" Instrument="NG Sq2Pitch"
				Note Time="36" Value="F#3" Duration="22" Instrument="NG Sq2Pitch"
				Note Time="60" Value="F#3" Duration="10" Instrument="NG Sq2Pitch"
				Note Time="72" Value="F3" Duration="10" Instrument="NG Sq2Pitch"
			Pattern Name="Pattern 5"
				Note Time="0" Value="C#2" Duration="10" Instrument="NG Sq2Pitch"
				Note Time="12" Value="F#3" Duration="6" Instrument="NG Sq2Pitch"
				Note Time="18" Value="C#3" Duration="6" Instrument="NG Sq2"
				Note Time="24" Value="E2" Duration="10" Instrument="NG Sq2"
				Note Time="36" Value="E3" Duration="6" Instrument="NG Sq2Pitch"
				Note Time="42" Value="B2" Duration="6" Instrument="NG Sq2"
				Note Time="48" Value="D2" Duration="10" Instrument="NG Sq2"
				Note Time="60" Value="D3" Duration="6" Instrument="NG Sq2"
				Note Time="66" Value="A2" Duration="6" Instrument="NG Sq2Pitch"
				Note Time="72" Value="C#2" Duration="10" Instrument="NG Sq2"
				Note Time="84" Value="C#2" Duration="6" Instrument="NG Sq2"
				Note Time="90" Value="G#2" Duration="6" Instrument="NG Sq2"
			Pattern Name="Pattern 6"
				Note Time="0" Value="C#2" Duration="10" Instrument="NG Sq2Pitch"
				Note Time="12" Value="C#2" Duration="10" Instrument="NG Sq2Pitch"
				Note Time="24" Value="C#2" Duration="10" Instrument="NG Sq2Pitch"
				Note Time="36" Value="C#2" Duration="10" Instrument="NG Sq2Pitch"
				Note Time="48" Value="C#2" Duration="10" Instrument="NG Sq2Pitch"
			Pattern Name="Pattern 7"
				Note Time="0" Value="C#2" Duration="10" Instrument="NG Sq2Pitch"
				Note Time="12" Value="F#3" Duration="6" Instrument="NG Sq2Pitch"
				Note Time="18" Value="C#3" Duration="6" Instrument="NG Sq2"
				Note Time="24" Value="F#3" Duration="6" Instrument="NG Sq2Pitch"
				Note Time="36" Value="F#3" Duration="6" Instrument="NG Sq2Pitch"
				Note Time="42" Value="F#3" Duration="6" Instrument="NG Sq2Pitch"
				Note Time="48" Value="A3" Duration="10" Instrument="NG Sq2Pitch"
				Note Time="60" Value="G#3" Duration="10" Instrument="NG Sq2Pitch"
				Note Time="72" Value="F#3" Duration="10" Instrument="NG Sq2Pitch"
			PatternInstance Time="1" Pattern="Pattern 1"
			PatternInstance Time="2" Pattern="Pattern 2"
			PatternInstance Time="3" Pattern="Pattern 3"
			PatternInstance Time="4" Pattern="Pattern 4"
			PatternInstance Time="5" Pattern="Pattern 1"
			PatternInstance Time="6" Pattern="Pattern 2"
			PatternInstance Time="7" Pattern="Pattern 3"
			PatternInstance Time="8" Pattern="Pattern 4"
			PatternInstance Time="9" Pattern="Pattern 5"
			PatternInstance Time="10" Pattern="Pattern 6"
			PatternInstance Time="11" Pattern="Pattern 1"
			PatternInstance Time="12" Pattern="Pattern 2"
			PatternInstance Time="13" Pattern="Pattern 3"
			PatternInstance Time="14" Pattern="Pattern 7"
			PatternInstance Time="15" Pattern="Pattern 1"
			PatternInstance Time="16" Pattern="Pattern 2"
			PatternInstance Time="17" Pattern="Pattern 3"
			PatternInstance Time="18" Pattern="Pattern 7"
			PatternInstance Time="19" Pattern="Pattern 1"
			PatternInstance Time="20" Pattern="Pattern 2"
			PatternInstance Time="21" Pattern="Pattern 3"
			PatternInstance Time="22" Pattern="Pattern 7"
			PatternInstance Time="23" Pattern="Pattern 1"
			PatternInstance Time="24" Pattern="Pattern 2"
			PatternInstance Time="25" Pattern="Pattern 3"
			PatternInstance Time="26" Pattern="Pattern 7"
		Channel Type="Triangle"
			Pattern Name="Pattern 1"
				Note Time="0" Value="C#2" Duration="6" Instrument="NG TriPitch"
				Note Time="12" Value="C#3" Duration="6" Instrument="NG Tri"
				Note Time="24" Value="C#2" Duration="6" Instrument="NG TriPitch"
				Note Time="36" Value="C#3" Duration="6" Instrument="NG Tri"
				Note Time="48" Value="C#2" Duration="6" Instrument="NG TriPitch"
				Note Time="60" Value="C#3" Duration="6" Instrument="NG Tri"
				Note Time="72" Value="C#2" Duration="6" Instrument="NG TriPitch"
				Note Time="84" Value="C#3" Duration="6" Instrument="NG Tri"
			Pattern Name="Pattern 2"
				Note Time="0" Value="F#2" Duration="6" Instrument="NG Tri"
				Note Time="12" Value="F#3" Duration="6" Instrument="NG TriPitch"
				Note Time="24" Value="F#2" Duration="6" Instrument="NG Tri"
				Note Time="36" Value="F#3" Duration="6" Instrument="NG TriPitch"
				Note Time="48" Value="F#2" Duration="6" Instrument="NG Tri"
				Note Time="60" Value="F#3" Duration="6" Instrument="NG TriPitch"
				Note Time="72" Value="F#2" Duration="6" Instrument="NG Tri"
				Note Time="84" Value="F#3" Duration="6" Instrument="NG TriPitch"
			Pattern Name="Pattern 3"
				Note Time="0" Value="D2" Duration="6" Instrument="NG Tri"
				Note Time="12" Value="D3" Duration="6" Instrument="NG Tri"
				Note Time="24" Value="D2" Duration="6" Instrument="NG Tri"
				Note Time="36" Value="D3" Duration="6" Instrument="NG Tri"
				Note Time="48" Value="D2" Duration="6" Instrument="NG Tri"
				Note Time="60" Value="D3" Duration="6" Instrument="NG Tri"
				Note Time="72" Value="D2" Duration="6" Instrument="NG Tri"
				Note Time="84" Value="D3" Duration="6" Instrument="NG Tri"
			Pattern Name="Pattern 4"
				Note Time="0" Value="E2" Duration="6" Instrument="NG Tri"
				Note Time="12" Value="E3" Duration="6" Instrument="NG TriPitch"
				Note Time="24" Value="E2" Duration="6" Instrument="NG Tri"
				Note Time="36" Value="E3" Duration="6" Instrument="NG TriPitch"
				Note Time="48" Value="E2" Duration="6" Instrument="NG Tri"
				Note Time="60" Value="E3" Duration="6" Instrument="NG TriPitch"
				Note Time="72" Value="E2" Duration="6" Instrument="NG Tri"
				Note Time="84" Value="E3" Duration="6" Instrument="NG TriPitch"
			Pattern Name="Pattern 5"
				Note Time="0" Value="C#2" Duration="6" Instrument="NG TriPitch"
				Note Time="12" Value="C#3" Duration="6" Instrument="NG Tri"
				Note Time="24" Value="C#2" Duration="6" Instrument="NG TriPitch"
				Note Time="36" Value="C#3" Duration="6" Instrument="NG Tri"
				Note Time="48" Value="C#2" Duration="6" Instrument="NG TriPitch"
				Note Time="60" Value="C#3" Duration="6" Instrument="NG Tri"
				Note Time="72" Value="E2" Duration="6" Instrument="NG Tri"
				Note Time="84" Value="F2" Duration="6" Instrument="NG Tri"
			Pattern Name="Pattern 6"
				Note Time="0" Value="F#2" Duration="6" Instrument="NG Tri"
				Note Time="12" Value="F#3" Duration="6" Instrument="NG TriPitch"
				Note Time="24" Value="E2" Duration="6" Instrument="NG Tri"
				Note Time="36" Value="E3" Duration="6" Instrument="NG TriPitch"
				Note Time="48" Value="D2" Duration="6" Instrument="NG Tri"
				Note Time="60" Value="D3" Duration="6" Instrument="NG Tri"
				Note Time="72" Value="C#2" Duration="6" Instrument="NG TriPitch"
				Note Time="84" Value="C#3" Duration="6" Instrument="NG Tri"
			Pattern Name="Pattern 7"
				Note Time="0" Value="C#2" Duration="6" Instrument="NG TriPitch"
				Note Time="12" Value="C#2" Duration="6" Instrument="NG TriPitch"
				Note Time="24" Value="C#2" Duration="6" Instrument="NG TriPitch"
				Note Time="36" Value="C#2" Duration="6" Instrument="NG TriPitch"
				Note Time="48" Value="C#2" Duration="6" Instrument="NG TriPitch"
			PatternInstance Time="0" Pattern="Pattern 1"
			PatternInstance Time="1" Pattern="Pattern 2"
			PatternInstance Time="2" Pattern="Pattern 3"
			PatternInstance Time="3" Pattern="Pattern 4"
			PatternInstance Time="4" Pattern="Pattern 5"
			PatternInstance Time="5" Pattern="Pattern 2"
			PatternInstance Time="6" Pattern="Pattern 3"
			PatternInstance Time="7" Pattern="Pattern 4"
			PatternInstance Time="8" Pattern="Pattern 5"
			PatternInstance Time="9" Pattern="Pattern 6"
			PatternInstance Time="10" Pattern="Pattern 7"
			PatternInstance Time="11" Pattern="Pattern 2"
			PatternInstance Time="12" Pattern="Pattern 3"
			PatternInstance Time="13" Pattern="Pattern 4"
			PatternInstance Time="14" Pattern="Pattern 5"
			PatternInstance Time="15" Pattern="Pattern 2"
			PatternInstance Time="16" Pattern="Pattern 3"
			PatternInstance Time="17" Pattern="Pattern 4"
			PatternInstance Time="18" Pattern="Pattern 5"
			PatternInstance Time="19" Pattern="Pattern 2"
			PatternInstance Time="20" Pattern="Pattern 3"
			PatternInstance Time="21" Pattern="Pattern 4"
			PatternInstance Time="22" Pattern="Pattern 5"
			PatternInstance Time="23" Pattern="Pattern 2"
			PatternInstance Time="24" Pattern="Pattern 3"
			PatternInstance Time="25" Pattern="Pattern 4"
			PatternInstance Time="26" Pattern="Pattern 5"
		Channel Type="Noise"
			Pattern Name="Pattern 1"
				Note Time="0" Value="A3" Duration="12" Instrument="NG Noise"
				Note Time="12" Value="A3" Duration="6" Instrument="NG Noise"
				Note Time="18" Value="A3" Duration="6" Instrument="NG Noise"
				Note Time="24" Value="A3" Duration="6" Instrument="NG Noise"
				Note Time="30" Value="A3" Duration="6" Instrument="NG Noise"
				Note Time="36" Value="A3" Duration="6" Instrument="NG Noise"
				Note Time="42" Value="A3" Duration="6" Instrument="NG Noise"
				Note Time="48" Value="A3" Duration="12" Instrument="NG Noise"
				Note Time="60" Value="A3" Duration="6" Instrument="NG Noise"
				Note Time="66" Value="A3" Duration="6" Instrument="NG Noise"
				Note Time="72" Value="A3" Duration="6" Instrument="NG Noise"
				Note Time="78" Value="A3" Duration="12" Instrument="NG Noise"
				Note Time="90" Value="A3" Duration="6" Instrument="NG Noise"
			Pattern Name="Pattern 2"
				Note Time="0" Value="A3" Duration="6" Instrument="NG Noise"
				Note Time="6" Value="A3" Duration="6" Instrument="NG Noise"
				Note Time="12" Value="A3" Duration="6" Instrument="NG Noise"
				Note Time="18" Value="A3" Duration="6" Instrument="NG Noise"
				Note Time="24" Value="A3" Duration="12" Instrument="NG Noise"
				Note Time="36" Value="A3" Duration="6" Instrument="NG Noise"
				Note Time="42" Value="A3" Duration="6" Instrument="NG Noise"
				Note Time="48" Value="A3" Duration="12" Instrument="NG Noise"
				Note Time="60" Value="A3" Duration="6" Instrument="NG Noise"
				Note Time="66" Value="A3" Duration="6" Instrument="NG Noise"
				Note Time="72" Value="A3" Duration="6" Instrument="NG Noise"
				Note Time="78" Value="A3" Duration="6" Instrument="NG Noise"
				Note Time="84" Value="A3" Duration="6" Instrument="NG Noise"
				Note Time="90" Value="A3" Duration="6" Instrument="NG Noise"
			Pattern Name="Pattern 3"
				Note Time="0" Value="A3" Duration="12" Instrument="NG Noise"
				Note Time="12" Value="A3" Duration="6" Instrument="NG Noise"
				Note Time="18" Value="A3" Duration="6" Instrument="NG Noise"
				Note Time="24" Value="A3" Duration="12" Instrument="NG Noise"
				Note Time="36" Value="A3" Duration="6" Instrument="NG Noise"
				Note Time="42" Value="A3" Duration="6" Instrument="NG Noise"
				Note Time="48" Value="A3" Duration="12" Instrument="NG Noise"
				Note Time="60" Value="A3" Duration="6" Instrument="NG Noise"
				Note Time="66" Value="A3" Duration="6" Instrument="NG Noise"
				Note Time="72" Value="A3" Duration="12" Instrument="NG Noise"
				Note Time="84" Value="A3" Duration="6" Instrument="NG Noise"
				Note Time="90" Value="A3" Duration="78" Instrument="NG Noise"
			Pattern Name="Pattern 4"
				Note Time="72" Value="A3" Duration="12" Instrument="NG Noise"
				Note Time="84" Value="A3" Duration="6" Instrument="NG Noise"
				Note Time="90" Value="A3" Duration="6" Instrument="NG Noise"
			PatternInstance Time="0" Pattern="Pattern 1"
			PatternInstance Time="1" Pattern="Pattern 1"
			PatternInstance Time="2" Pattern="Pattern 2"
			PatternInstance Time="3" Pattern="Pattern 1"
			PatternInstance Time="4" Pattern="Pattern 2"
			PatternInstance Time="5" Pattern="Pattern 1"
			PatternInstance Time="6" Pattern="Pattern 2"
			PatternInstance Time="7" Pattern="Pattern 1"
			PatternInstance Time="8" Pattern="Pattern 2"
			PatternInstance Time="9" Pattern="Pattern 3"
			PatternInstance Time="10" Pattern="Pattern 4"
			PatternInstance Time="11" Pattern="Pattern 1"
			PatternInstance Time="12" Pattern="Pattern 1"
			PatternInstance Time="13" Pattern="Pattern 1"
			PatternInstance Time="14" Pattern="Pattern 1"
			PatternInstance Time="15" Pattern="Pattern 1"
			PatternInstance Time="16" Pattern="Pattern 1"
			PatternInstance Time="17" Pattern="Pattern 1"
			PatternInstance Time="18" Pattern="Pattern 1"
			PatternInstance Time="19" Pattern="Pattern 1"
			PatternInstance Time="20" Pattern="Pattern 1"
			PatternInstance Time="21" Pattern="Pattern 1"
			PatternInstance Time="22" Pattern="Pattern 1"
			PatternInstance Time="23" Pattern="Pattern 1"
			PatternInstance Time="24" Pattern="Pattern 1"
			PatternInstance Time="25" Pattern="Pattern 1"
			PatternInstance Time="26" Pattern="Pattern 1"
		Channel Type="DPCM"
			Pattern Name="Pattern 1"
				Note Time="0" Value="C1" Duration="24"
				Note Time="24" Value="C#1" Duration="24"
				Note Time="48" Value="C1" Duration="24"
				Note Time="72" Value="C#1" Duration="24"
			Pattern Name="Pattern 2"
				Note Time="0" Value="C1" Duration="24"
				Note Time="24" Value="C#1" Duration="24"
				Note Time="48" Value="C#1" Duration="6"
				Note Time="54" Value="C#1" Duration="12"
				Note Time="66" Value="C#1" Duration="6"
				Note Time="72" Value="C#1" Duration="6"
				Note Time="78" Value="C#1" Duration="6"
				Note Time="84" Value="C#1" Duration="6"
				Note Time="90" Value="C#1" Duration="6"
			Pattern Name="Pattern 3"
				Note Time="0" Value="C#1" Duration="12"
				Note Time="12" Value="C#1" Duration="12"
				Note Time="24" Value="C#1" Duration="12"
				Note Time="36" Value="C#1" Duration="12"
				Note Time="48" Value="C#1" Duration="24"
				Note Time="72" Value="C#1" Duration="12"
				Note Time="84" Value="C#1" Duration="6"
				Note Time="90" Value="C#1" Duration="6"
			Pattern Name="Pattern 4"
				Note Time="0" Value="C1" Duration="24"
				Note Time="24" Value="C#1" Duration="24"
				Note Time="48" Value="C#1" Duration="12"
				Note Time="60" Value="C#1" Duration="6"
				Note Time="66" Value="C#1" Duration="6"
				Note Time="72" Value="C#1" Duration="6"
				Note Time="78" Value="C#1" Duration="6"
				Note Time="84" Value="C#1" Duration="6"
				Note Time="90" Value="C#1" Duration="6"
			PatternInstance Time="0" Pattern="Pattern 1"
			PatternInstance Time="1" Pattern="Pattern 1"
			PatternInstance Time="2" Pattern="Pattern 1"
			PatternInstance Time="3" Pattern="Pattern 1"
			PatternInstance Time="4" Pattern="Pattern 2"
			PatternInstance Time="5" Pattern="Pattern 1"
			PatternInstance Time="6" Pattern="Pattern 1"
			PatternInstance Time="7" Pattern="Pattern 1"
			PatternInstance Time="8" Pattern="Pattern 2"
			PatternInstance Time="9" Pattern="Pattern 1"
			PatternInstance Time="10" Pattern="Pattern 3"
			PatternInstance Time="11" Pattern="Pattern 1"
			PatternInstance Time="12" Pattern="Pattern 1"
			PatternInstance Time="13" Pattern="Pattern 1"
			PatternInstance Time="14" Pattern="Pattern 4"
			PatternInstance Time="15" Pattern="Pattern 1"
			PatternInstance Time="16" Pattern="Pattern 1"
			PatternInstance Time="17" Pattern="Pattern 1"
			PatternInstance Time="18" Pattern="Pattern 4"
			PatternInstance Time="19" Pattern="Pattern 1"
			PatternInstance Time="20" Pattern="Pattern 1"
			PatternInstance Time="21" Pattern="Pattern 1"
			PatternInstance Time="22" Pattern="Pattern 4"
			PatternInstance Time="23" Pattern="Pattern 1"
			PatternInstance Time="24" Pattern="Pattern 1"
			PatternInstance Time="25" Pattern="Pattern 1"
			PatternInstance Time="26" Pattern="Pattern 4"
