Project Version="3.1.1" TempoMode="FamiStudio" Name="New Project" Author="mcgrew" Copyright="2021"
	DPCMSample Name="BM Bass Drum" Data="5155112dadadaad55d5ad52fedffffe51510000000000051252aa52a52added5efeeefededdeedefeedadaad525aa512a2a52522251122525152a52d5555aa52aa52552aa5552d525552d52aaaad5adaadaaddadad5adadaad5ad5aa55552aaaa52aaa55552aa5555555aaad5555552d5555ad55555552aa55a52a55552555525552a55aa55555555aaaa55ad52ad52aaadaa55552aaaaaa5555552d555aaad55aad5aadaaad55aaad5555aaaaaaa55555552aaaa5555552aaaa5555552aa555255552aaaa555552aaad2aaad555aaaa"
	DPCMMapping Note="C1" Sample="BM Bass Drum" Pitch="15" Loop="False"
	Instrument Name="NP Lead0"
		Envelope Type="Volume" Length="15" Loop="3" Release="4" Values="12,10,8,6,5,5,4,4,3,3,2,2,1,1,0"
	Instrument Name="NP Lead0 Vib"
		Envelope Type="Volume" Length="15" Loop="3" Release="4" Values="12,10,8,6,5,5,4,4,3,3,2,2,1,1,0"
		Envelope Type="Pitch" Length="12" Loop="0" Values="0,0,1,1,2,2,3,3,2,2,1,1"
	Instrument Name="NP Lead2 P-2"
		Envelope Type="Volume" Length="1" Values="10"
		Envelope Type="Pitch" Length="1" Values="-2"
		Envelope Type="DutyCycle" Length="1" Values="2"
	Instrument Name="NP NoiseHiHat"
		Envelope Type="Volume" Length="6" Values="5,4,3,2,1,0"
	Instrument Name="NP Tri"
	Song Name="On the Hunt" Length="31" LoopPoint="1" PatternLength="12" BeatLength="4" NoteLength="10" Groove="10" GroovePaddingMode="Middle"
		Channel Type="Square1"
			Pattern Name="Pattern 1"
				Note Time="0" Value="F2" Duration="30" Instrument="NP Lead0"
				Note Time="30" Value="C3" Duration="20" Instrument="NP Lead0"
				Note Time="50" Value="B2" Duration="10" Instrument="NP Lead0"
				Note Time="60" Value="A#2" Duration="40" Instrument="NP Lead0 Vib"
			Pattern Name="Pattern 2"
				Note Time="0" Value="F2" Duration="30" Instrument="NP Lead0"
				Note Time="30" Value="C3" Duration="20" Instrument="NP Lead0"
				Note Time="50" Value="B2" Duration="10" Instrument="NP Lead0"
				Note Time="60" Value="A#2" Duration="10" Instrument="NP Lead0"
				Note Time="70" Value="B2" Duration="10" Instrument="NP Lead0"
				Note Time="80" Value="A#2" Duration="10" Instrument="NP Lead0"
				Note Time="90" Value="G#2" Duration="21" Instrument="NP Lead0"
			Pattern Name="Pattern 3"
				Note Time="0" Value="F2" Duration="30" Instrument="NP Lead0 Vib"
				Note Time="30" Value="C3" Duration="20" Instrument="NP Lead0"
				Note Time="50" Value="B2" Duration="10" Instrument="NP Lead0"
				Note Time="60" Value="A#2" Duration="40" Instrument="NP Lead0 Vib"
			Pattern Name="Pattern 5"
				Note Time="0" Value="C3" Duration="20" Instrument="NP Lead0"
				Note Time="20" Value="C3" Duration="10" Instrument="NP Lead0"
				Note Time="30" Value="B2" Duration="20" Instrument="NP Lead0"
				Note Time="50" Value="B2" Duration="10" Instrument="NP Lead0"
				Note Time="60" Value="A#2" Duration="20" Instrument="NP Lead0"
				Note Time="80" Value="A#2" Duration="10" Instrument="NP Lead0"
				Note Time="90" Value="G#2" Duration="20" Instrument="NP Lead0"
				Note Time="110" Value="G#2" Duration="10" Instrument="NP Lead0"
			Pattern Name="Pattern 6"
				Note Time="0" Value="F2" Duration="20" Instrument="NP Lead0"
				Note Time="20" Value="F2" Duration="10" Instrument="NP Lead0"
				Note Time="30" Value="G#2" Duration="20" Instrument="NP Lead0"
				Note Time="50" Value="F2" Duration="31" Instrument="NP Lead0 Vib"
			Pattern Name="Pattern 4"
				Note Time="0" Value="F1" Duration="30" Instrument="NP Lead0"
				Note Time="30" Value="C2" Duration="20" Instrument="NP Lead0"
				Note Time="50" Value="B1" Duration="10" Instrument="NP Lead0"
				Note Time="60" Value="A#1" Duration="40" Instrument="NP Lead0"
			Pattern Name="Pattern 7"
				Note Time="0" Value="F1" Duration="30" Instrument="NP Lead0"
				Note Time="30" Value="C2" Duration="20" Instrument="NP Lead0"
				Note Time="50" Value="B1" Duration="10" Instrument="NP Lead0"
				Note Time="60" Value="A#1" Duration="10" Instrument="NP Lead0"
				Note Time="70" Value="B1" Duration="10" Instrument="NP Lead0"
				Note Time="80" Value="A#1" Duration="10" Instrument="NP Lead0"
				Note Time="90" Value="G#1" Duration="20" Instrument="NP Lead0"
			Pattern Name="Pattern 8"
				Note Time="0" Value="C2" Duration="19" Instrument="NP Lead0"
				Note Time="20" Value="C2" Duration="10" Instrument="NP Lead0"
				Note Time="30" Value="B1" Duration="19" Instrument="NP Lead0"
				Note Time="50" Value="B1" Duration="10" Instrument="NP Lead0"
				Note Time="60" Value="A#1" Duration="19" Instrument="NP Lead0"
				Note Time="80" Value="A#1" Duration="10" Instrument="NP Lead0"
				Note Time="90" Value="G#1" Duration="19" Instrument="NP Lead0"
				Note Time="110" Value="G#1" Duration="10" Instrument="NP Lead0"
			Pattern Name="Pattern 9"
				Note Time="0" Value="F1" Duration="19" Instrument="NP Lead0"
				Note Time="20" Value="F1" Duration="10" Instrument="NP Lead0"
				Note Time="30" Value="G#1" Duration="20" Instrument="NP Lead0"
				Note Time="50" Value="F1" Duration="30" Instrument="NP Lead0"
			PatternInstance Time="1" Pattern="Pattern 1"
			PatternInstance Time="2" Pattern="Pattern 2"
			PatternInstance Time="3" Pattern="Pattern 3"
			PatternInstance Time="4" Pattern="Pattern 2"
			PatternInstance Time="5" Pattern="Pattern 5"
			PatternInstance Time="6" Pattern="Pattern 6"
			PatternInstance Time="7" Pattern="Pattern 1"
			PatternInstance Time="8" Pattern="Pattern 2"
			PatternInstance Time="9" Pattern="Pattern 3"
			PatternInstance Time="10" Pattern="Pattern 2"
			PatternInstance Time="11" Pattern="Pattern 5"
			PatternInstance Time="12" Pattern="Pattern 6"
			PatternInstance Time="13" Pattern="Pattern 4"
			PatternInstance Time="14" Pattern="Pattern 7"
			PatternInstance Time="15" Pattern="Pattern 4"
			PatternInstance Time="16" Pattern="Pattern 7"
			PatternInstance Time="17" Pattern="Pattern 8"
			PatternInstance Time="18" Pattern="Pattern 9"
			PatternInstance Time="19" Pattern="Pattern 1"
			PatternInstance Time="20" Pattern="Pattern 2"
			PatternInstance Time="21" Pattern="Pattern 3"
			PatternInstance Time="22" Pattern="Pattern 2"
			PatternInstance Time="23" Pattern="Pattern 5"
			PatternInstance Time="24" Pattern="Pattern 6"
			PatternInstance Time="25" Pattern="Pattern 1"
			PatternInstance Time="26" Pattern="Pattern 2"
			PatternInstance Time="27" Pattern="Pattern 3"
			PatternInstance Time="28" Pattern="Pattern 2"
			PatternInstance Time="29" Pattern="Pattern 5"
			PatternInstance Time="30" Pattern="Pattern 6"
		Channel Type="Square2"
			Pattern Name="Pattern 1"
				Note Time="0" Value="F3" Duration="20" Instrument="NP Lead0"
				Note Time="20" Value="F3" Duration="10" Instrument="NP Lead0"
				Note Time="30" Value="C4" Duration="20" Instrument="NP Lead0"
				Note Time="50" Value="A#3" Duration="50" Instrument="NP Lead0 Vib"
			Pattern Name="Pattern 2"
				Note Time="0" Value="F3" Duration="30" Instrument="NP Lead0"
				Note Time="30" Value="C4" Duration="20" Instrument="NP Lead0"
				Note Time="50" Value="A#3" Duration="10" Instrument="NP Lead0"
				Note Time="60" Value="G#3" Duration="10" Instrument="NP Lead0"
				Note Time="70" Value="G3" Duration="10" Instrument="NP Lead0"
				Note Time="80" Value="F#3" Duration="10" Instrument="NP Lead0"
				Note Time="90" Value="F3" Duration="20" Instrument="NP Lead0 Vib"
			Pattern Name="Pattern 3"
				Note Time="0" Value="A#3" Duration="10" Instrument="NP Lead0" SlideTarget="D#4"
				Note Time="10" Value="D#4" Duration="10" Instrument="NP Lead0 Vib" Attack="False"
				Note Time="20" Value="C#4" Duration="10" Instrument="NP Lead0"
				Note Time="30" Value="C4" Duration="20" Instrument="NP Lead0"
				Note Time="50" Value="A#3" Duration="30" Instrument="NP Lead0 Vib"
				Note Time="80" Value="G#3" Duration="10" Instrument="NP Lead0"
				Note Time="90" Value="G3" Duration="20" Instrument="NP Lead0"
				Note Time="110" Value="F3" Duration="30" Instrument="NP Lead0 Vib"
			Pattern Name="Pattern 4"
				Note Time="20" Value="E3" Duration="10" Instrument="NP Lead0"
				Note Time="30" Value="G3" Duration="20" Instrument="NP Lead0"
				Note Time="50" Value="F3" Duration="30" Instrument="NP Lead0 Vib"
			Pattern Name="Pattern 5"
				Note Time="0" Value="F1" Duration="30" Instrument="NP Lead2 P-2"
				Note Time="30" Value="C2" Duration="20" Instrument="NP Lead2 P-2"
				Note Time="50" Value="B1" Duration="10" Instrument="NP Lead2 P-2"
				Note Time="60" Value="A#1" Duration="40" Instrument="NP Lead2 P-2"
			Pattern Name="Pattern 6"
				Note Time="0" Value="F1" Duration="30" Instrument="NP Lead2 P-2"
				Note Time="30" Value="C2" Duration="20" Instrument="NP Lead2 P-2"
				Note Time="50" Value="B1" Duration="10" Instrument="NP Lead2 P-2"
				Note Time="60" Value="A#1" Duration="10" Instrument="NP Lead2 P-2"
				Note Time="70" Value="B1" Duration="10" Instrument="NP Lead2 P-2"
				Note Time="80" Value="A#1" Duration="10" Instrument="NP Lead2 P-2"
				Note Time="90" Value="G#1" Duration="20" Instrument="NP Lead2 P-2"
			Pattern Name="Pattern 7"
				Note Time="0" Value="C2" Duration="19" Instrument="NP Lead2 P-2"
				Note Time="20" Value="C2" Duration="10" Instrument="NP Lead2 P-2"
				Note Time="30" Value="B1" Duration="19" Instrument="NP Lead2 P-2"
				Note Time="50" Value="B1" Duration="10" Instrument="NP Lead2 P-2"
				Note Time="60" Value="A#1" Duration="19" Instrument="NP Lead2 P-2"
				Note Time="80" Value="A#1" Duration="10" Instrument="NP Lead2 P-2"
				Note Time="90" Value="G#1" Duration="19" Instrument="NP Lead2 P-2"
				Note Time="110" Value="G#1" Duration="10" Instrument="NP Lead2 P-2"
			Pattern Name="Pattern 8"
				Note Time="0" Value="F1" Duration="19" Instrument="NP Lead2 P-2"
				Note Time="20" Value="F1" Duration="10" Instrument="NP Lead2 P-2"
				Note Time="30" Value="G#1" Duration="20" Instrument="NP Lead2 P-2"
				Note Time="50" Value="F1" Duration="30" Instrument="NP Lead2 P-2"
			Pattern Name="Pattern 10"
				Note Time="0" Value="A3" Duration="10" Instrument="NP Lead0" SlideTarget="F4"
				Note Time="10" Value="F4" Duration="110" Instrument="NP Lead0 Vib" Attack="False"
			Pattern Name="Pattern 9"
				Note Time="0" Value="C5" Duration="31" Instrument="NP Lead0"
				Note Time="31" Value="A#4" Duration="19" Instrument="NP Lead0"
				Note Time="50" Value="C5" Duration="40" Instrument="NP Lead0"
				Note Time="90" Value="G#4" Duration="30" Instrument="NP Lead0"
			Pattern Name="Pattern 11"
				Note Time="0" Value="G4" Duration="60" Instrument="NP Lead0 Vib"
				Note Time="60" Value="F4" Duration="60" Instrument="NP Lead0 Vib"
			Pattern Name="Pattern 12"
				Note Time="0" Value="G4" Duration="60" Instrument="NP Lead0 Vib"
				Note Time="60" Value="G#4" Duration="60" Instrument="NP Lead0 Vib"
			Pattern Name="Pattern 19"
				Note Time="0" Value="F4" Duration="120" Instrument="NP Lead0 Vib"
			Pattern Name="Pattern 13"
				Note Time="0" Value="C#5" Duration="10" Instrument="NP Lead0"
				Note Time="10" Value="C5" Duration="10" Instrument="NP Lead0"
				Note Time="20" Value="C#5" Duration="10" Instrument="NP Lead0"
				Note Time="30" Value="C5" Duration="10" Instrument="NP Lead0"
				Note Time="40" Value="A#4" Duration="10" Instrument="NP Lead0"
				Note Time="50" Value="C5" Duration="10" Instrument="NP Lead0"
				Note Time="60" Value="G#4" Duration="20" Instrument="NP Lead0"
				Note Time="80" Value="G4" Duration="20" Instrument="NP Lead0"
				Note Time="100" Value="G#4" Duration="20" Instrument="NP Lead0"
			Pattern Name="Pattern 18"
				Note Time="0" Value="A#4" Duration="60" Instrument="NP Lead0 Vib"
				Note Time="60" Value="G4" Duration="30" Instrument="NP Lead0"
				Note Time="90" Value="G#4" Duration="30" Instrument="NP Lead0"
			Pattern Name="Pattern 14"
				Note Time="0" Value="F4" Duration="20" Instrument="NP Lead0"
				Note Time="20" Value="F4" Duration="10" Instrument="NP Lead0"
				Note Time="30" Value="C5" Duration="20" Instrument="NP Lead0"
				Note Time="50" Value="A#4" Duration="50" Instrument="NP Lead0 Vib"
			Pattern Name="Pattern 15"
				Note Time="0" Value="F4" Duration="30" Instrument="NP Lead0"
				Note Time="30" Value="C5" Duration="20" Instrument="NP Lead0"
				Note Time="50" Value="A#4" Duration="10" Instrument="NP Lead0"
				Note Time="60" Value="G#4" Duration="10" Instrument="NP Lead0"
				Note Time="70" Value="G4" Duration="10" Instrument="NP Lead0"
				Note Time="80" Value="F#4" Duration="10" Instrument="NP Lead0"
				Note Time="90" Value="F4" Duration="20" Instrument="NP Lead0 Vib"
			Pattern Name="Pattern 16"
				Note Time="0" Value="A#4" Duration="10" Instrument="NP Lead0" SlideTarget="D#5"
				Note Time="10" Value="D#5" Duration="10" Instrument="NP Lead0 Vib" Attack="False"
				Note Time="20" Value="C#5" Duration="10" Instrument="NP Lead0"
				Note Time="30" Value="C5" Duration="20" Instrument="NP Lead0"
				Note Time="50" Value="A#4" Duration="30" Instrument="NP Lead0 Vib"
				Note Time="80" Value="G#4" Duration="10" Instrument="NP Lead0"
				Note Time="90" Value="G4" Duration="20" Instrument="NP Lead0"
				Note Time="110" Value="F4" Duration="30" Instrument="NP Lead0 Vib"
			Pattern Name="Pattern 17"
				Note Time="20" Value="E4" Duration="10" Instrument="NP Lead0"
				Note Time="30" Value="G4" Duration="20" Instrument="NP Lead0"
				Note Time="50" Value="F4" Duration="30" Instrument="NP Lead0 Vib"
			PatternInstance Time="7" Pattern="Pattern 1"
			PatternInstance Time="8" Pattern="Pattern 2"
			PatternInstance Time="9" Pattern="Pattern 1"
			PatternInstance Time="10" Pattern="Pattern 2"
			PatternInstance Time="11" Pattern="Pattern 3"
			PatternInstance Time="12" Pattern="Pattern 4"
			PatternInstance Time="13" Pattern="Pattern 5"
			PatternInstance Time="14" Pattern="Pattern 6"
			PatternInstance Time="15" Pattern="Pattern 5"
			PatternInstance Time="16" Pattern="Pattern 6"
			PatternInstance Time="17" Pattern="Pattern 7"
			PatternInstance Time="18" Pattern="Pattern 8"
			PatternInstance Time="19" Pattern="Pattern 10"
			PatternInstance Time="20" Pattern="Pattern 9"
			PatternInstance Time="21" Pattern="Pattern 11"
			PatternInstance Time="22" Pattern="Pattern 12"
			PatternInstance Time="23" Pattern="Pattern 19"
			PatternInstance Time="24" Pattern="Pattern 13"
			PatternInstance Time="25" Pattern="Pattern 11"
			PatternInstance Time="26" Pattern="Pattern 18"
			PatternInstance Time="27" Pattern="Pattern 14"
			PatternInstance Time="28" Pattern="Pattern 15"
			PatternInstance Time="29" Pattern="Pattern 16"
			PatternInstance Time="30" Pattern="Pattern 17"
		Channel Type="Triangle"
			Pattern Name="Pattern 1"
				Note Time="0" Value="F2" Duration="30" Instrument="NP Tri"
				Note Time="30" Value="C3" Duration="20" Instrument="NP Tri"
				Note Time="50" Value="B2" Duration="10" Instrument="NP Tri"
				Note Time="60" Value="A#2" Duration="40" Instrument="NP Tri"
			Pattern Name="Pattern 2"
				Note Time="0" Value="F2" Duration="30" Instrument="NP Tri"
				Note Time="30" Value="C3" Duration="20" Instrument="NP Tri"
				Note Time="50" Value="B2" Duration="10" Instrument="NP Tri"
				Note Time="60" Value="A#2" Duration="10" Instrument="NP Tri"
				Note Time="70" Value="B2" Duration="10" Instrument="NP Tri"
				Note Time="80" Value="A#2" Duration="10" Instrument="NP Tri"
				Note Time="90" Value="G#2" Duration="20" Instrument="NP Tri"
			Pattern Name="Pattern 3"
				Note Time="0" Value="C3" Duration="19" Instrument="NP Tri"
				Note Time="20" Value="C3" Duration="10" Instrument="NP Tri"
				Note Time="30" Value="B2" Duration="19" Instrument="NP Tri"
				Note Time="50" Value="B2" Duration="10" Instrument="NP Tri"
				Note Time="60" Value="A#2" Duration="19" Instrument="NP Tri"
				Note Time="80" Value="A#2" Duration="10" Instrument="NP Tri"
				Note Time="90" Value="G#2" Duration="19" Instrument="NP Tri"
				Note Time="110" Value="G#2" Duration="10" Instrument="NP Tri"
			Pattern Name="Pattern 4"
				Note Time="0" Value="F2" Duration="19" Instrument="NP Tri"
				Note Time="20" Value="F2" Duration="10" Instrument="NP Tri"
				Note Time="30" Value="G#2" Duration="20" Instrument="NP Tri"
				Note Time="50" Value="F2" Duration="30" Instrument="NP Tri"
			Pattern Name="Pattern 7"
				Note Time="0" Value="A#4" Duration="10" Instrument="NP Tri" SlideTarget="D#5"
				Note Time="10" Value="D#5" Duration="10" Instrument="NP Tri" Attack="False"
				Note Time="20" Value="F#5" Duration="10" Instrument="NP Tri"
				Note Time="30" Value="A#5" Duration="20" Instrument="NP Tri"
				Note Time="50" Value="G#5" Duration="30" Instrument="NP Tri"
				Note Time="80" Value="F#5" Duration="10" Instrument="NP Tri"
				Note Time="90" Value="A#5" Duration="20" Instrument="NP Tri"
				Note Time="110" Value="G#5" Duration="30" Instrument="NP Tri"
			Pattern Name="Pattern 8"
				Note Time="20" Value="F#5" Duration="10" Instrument="NP Tri"
				Note Time="30" Value="A#5" Duration="20" Instrument="NP Tri"
				Note Time="50" Value="G#5" Duration="30" Instrument="NP Tri"
				Note Time="80" Value="F#5" Duration="10" Instrument="NP Tri"
				Note Time="90" Value="F5" Duration="30" Instrument="NP Tri"
			Pattern Name="Pattern 5"
				Note Time="0" Value="A#4" Duration="10" Instrument="NP Tri" SlideTarget="D#5"
				Note Time="10" Value="D#5" Duration="10" Instrument="NP Tri" Attack="False"
				Note Time="20" Value="F#5" Duration="10" Instrument="NP Tri"
				Note Time="30" Value="A#5" Duration="20" Instrument="NP Tri"
				Note Time="50" Value="G#5" Duration="30" Instrument="NP Tri"
				Note Time="80" Value="F#5" Duration="10" Instrument="NP Tri"
				Note Time="90" Value="F5" Duration="20" Instrument="NP Tri"
				Note Time="110" Value="D#5" Duration="30" Instrument="NP Tri"
			Pattern Name="Pattern 6"
				Note Time="20" Value="C#5" Duration="10" Instrument="NP Tri"
				Note Time="30" Value="F5" Duration="21" Instrument="NP Tri"
				Note Time="51" Value="D#5" Duration="29" Instrument="NP Tri"
			PatternInstance Time="1" Pattern="Pattern 1"
			PatternInstance Time="2" Pattern="Pattern 2"
			PatternInstance Time="3" Pattern="Pattern 1"
			PatternInstance Time="4" Pattern="Pattern 2"
			PatternInstance Time="5" Pattern="Pattern 3"
			PatternInstance Time="6" Pattern="Pattern 4"
			PatternInstance Time="7" Pattern="Pattern 1"
			PatternInstance Time="8" Pattern="Pattern 2"
			PatternInstance Time="9" Pattern="Pattern 1"
			PatternInstance Time="10" Pattern="Pattern 2"
			PatternInstance Time="11" Pattern="Pattern 3"
			PatternInstance Time="12" Pattern="Pattern 4"
			PatternInstance Time="15" Pattern="Pattern 7"
			PatternInstance Time="16" Pattern="Pattern 8"
			PatternInstance Time="17" Pattern="Pattern 5"
			PatternInstance Time="18" Pattern="Pattern 6"
			PatternInstance Time="19" Pattern="Pattern 1"
			PatternInstance Time="20" Pattern="Pattern 2"
			PatternInstance Time="21" Pattern="Pattern 1"
			PatternInstance Time="22" Pattern="Pattern 2"
			PatternInstance Time="23" Pattern="Pattern 3"
			PatternInstance Time="24" Pattern="Pattern 4"
			PatternInstance Time="25" Pattern="Pattern 1"
			PatternInstance Time="26" Pattern="Pattern 2"
			PatternInstance Time="27" Pattern="Pattern 1"
			PatternInstance Time="28" Pattern="Pattern 2"
			PatternInstance Time="29" Pattern="Pattern 3"
			PatternInstance Time="30" Pattern="Pattern 4"
		Channel Type="Noise"
			Pattern Name="Pattern 1"
				Note Time="30" Value="C2" Duration="60" Instrument="NP NoiseHiHat"
				Note Time="90" Value="C2" Duration="60" Instrument="NP NoiseHiHat"
			PatternInstance Time="0" Pattern="Pattern 1"
			PatternInstance Time="1" Pattern="Pattern 1"
			PatternInstance Time="2" Pattern="Pattern 1"
			PatternInstance Time="3" Pattern="Pattern 1"
			PatternInstance Time="4" Pattern="Pattern 1"
			PatternInstance Time="5" Pattern="Pattern 1"
			PatternInstance Time="6" Pattern="Pattern 1"
			PatternInstance Time="7" Pattern="Pattern 1"
			PatternInstance Time="8" Pattern="Pattern 1"
			PatternInstance Time="9" Pattern="Pattern 1"
			PatternInstance Time="10" Pattern="Pattern 1"
			PatternInstance Time="11" Pattern="Pattern 1"
			PatternInstance Time="12" Pattern="Pattern 1"
			PatternInstance Time="13" Pattern="Pattern 1"
			PatternInstance Time="14" Pattern="Pattern 1"
			PatternInstance Time="15" Pattern="Pattern 1"
			PatternInstance Time="16" Pattern="Pattern 1"
			PatternInstance Time="17" Pattern="Pattern 1"
			PatternInstance Time="18" Pattern="Pattern 1"
			PatternInstance Time="19" Pattern="Pattern 1"
			PatternInstance Time="20" Pattern="Pattern 1"
			PatternInstance Time="21" Pattern="Pattern 1"
			PatternInstance Time="22" Pattern="Pattern 1"
			PatternInstance Time="23" Pattern="Pattern 1"
			PatternInstance Time="24" Pattern="Pattern 1"
			PatternInstance Time="25" Pattern="Pattern 1"
			PatternInstance Time="26" Pattern="Pattern 1"
			PatternInstance Time="27" Pattern="Pattern 1"
			PatternInstance Time="28" Pattern="Pattern 1"
			PatternInstance Time="29" Pattern="Pattern 1"
			PatternInstance Time="30" Pattern="Pattern 1"
		Channel Type="DPCM"
			Pattern Name="Pattern 1"
				Note Time="0" Value="C1" Duration="60"
				Note Time="60" Value="C1" Duration="20"
				Note Time="80" Value="C1" Duration="40"
			PatternInstance Time="0" Pattern="Pattern 1"
			PatternInstance Time="1" Pattern="Pattern 1"
			PatternInstance Time="2" Pattern="Pattern 1"
			PatternInstance Time="3" Pattern="Pattern 1"
			PatternInstance Time="4" Pattern="Pattern 1"
			PatternInstance Time="5" Pattern="Pattern 1"
			PatternInstance Time="6" Pattern="Pattern 1"
			PatternInstance Time="7" Pattern="Pattern 1"
			PatternInstance Time="8" Pattern="Pattern 1"
			PatternInstance Time="9" Pattern="Pattern 1"
			PatternInstance Time="10" Pattern="Pattern 1"
			PatternInstance Time="11" Pattern="Pattern 1"
			PatternInstance Time="12" Pattern="Pattern 1"
			PatternInstance Time="13" Pattern="Pattern 1"
			PatternInstance Time="14" Pattern="Pattern 1"
			PatternInstance Time="15" Pattern="Pattern 1"
			PatternInstance Time="16" Pattern="Pattern 1"
			PatternInstance Time="17" Pattern="Pattern 1"
			PatternInstance Time="18" Pattern="Pattern 1"
			PatternInstance Time="19" Pattern="Pattern 1"
			PatternInstance Time="20" Pattern="Pattern 1"
			PatternInstance Time="21" Pattern="Pattern 1"
			PatternInstance Time="22" Pattern="Pattern 1"
			PatternInstance Time="23" Pattern="Pattern 1"
			PatternInstance Time="24" Pattern="Pattern 1"
			PatternInstance Time="25" Pattern="Pattern 1"
			PatternInstance Time="26" Pattern="Pattern 1"
			PatternInstance Time="27" Pattern="Pattern 1"
			PatternInstance Time="28" Pattern="Pattern 1"
			PatternInstance Time="29" Pattern="Pattern 1"
			PatternInstance Time="30" Pattern="Pattern 1"
