Project Version="3.2.2" TempoMode="FamiStudio" Name="Shovel Knight OST" Author="Jake Kaufman"
	Instrument Name="Bass"
	Instrument Name="BassDrum"
		Envelope Type="Arpeggio" Length="1" Values="12"
		Envelope Type="Pitch" Length="1" Loop="0" Relative="True" Values="50"
	Instrument Name="BassDrumIntro"
		Envelope Type="Pitch" Length="5" Values="0,15,30,45,60"
	Instrument Name="DrumLong"
		Envelope Type="Volume" Length="6" Values="15,12,6,3,2,0"
	Instrument Name="DrumShort"
		Envelope Type="Volume" Length="4" Values="15,6,6,0"
	Instrument Name="DrumSnare"
		Envelope Type="Volume" Length="8" Values="15,11,11,8,8,5,5,3"
		Envelope Type="Arpeggio" Length="6" Values="0,1,2,3,4,5"
	Instrument Name="SquareBleep"
		Envelope Type="Volume" Length="9" Values="12,10,10,0,0,6,5,5,0"
	Instrument Name="SquareBleep2"
		Envelope Type="Volume" Length="5" Values="12,8,0,0,6"
	Instrument Name="SquareIntroFade"
		Envelope Type="Volume" Length="19" Values="15,15,15,12,12,10,10,10,9,9,8,8,8,6,6,5,5,5,4"
	Instrument Name="SquareLead"
		Envelope Type="Volume" Length="11" Loop="3" Release="4" Values="15,14,13,10,2,2,2,1,1,1,0"
	Instrument Name="SquareLeadDuty2"
		Envelope Type="Volume" Length="1" Values="12"
		Envelope Type="DutyCycle" Length="1" Values="2"
	Song Name="Strike the Earth! (Plains of Passage) (2A03 version)" Length="37" LoopPoint="5" PatternLength="32" BeatLength="4" NoteLength="5" Groove="5" GroovePaddingMode="Middle"
		PatternCustomSettings Time="4" Length="16" NoteLength="5" Groove="5" GroovePaddingMode="Middle" BeatLength="4"
		Channel Type="Square1"
			Pattern Name="Intro1"
				Note Time="0" Value="D1" Duration="20" Instrument="SquareIntroFade"
				Note Time="20" Value="D2" Duration="10" Instrument="SquareLead"
				Note Time="30" Value="A2" Duration="10" Release="6" Instrument="SquareLead"
				Note Time="40" Value="G2" Duration="110" Release="101" Instrument="SquareLead"
				Note Time="45" Volume="12"
				Note Time="55" Volume="10"
				Note Time="58" Volume="9"
				Note Time="68" Volume="8"
				Note Time="80" Volume="9"
				Note Time="100" Volume="10"
				Note Time="110" Volume="12"
				Note Time="130" Volume="13"
				Note Time="140" Volume="15"
				Note Time="150" Value="D1" Duration="20" Instrument="SquareIntroFade"
			Pattern Name="Intro2"
				Note Time="10" Value="A1" Duration="10" Release="6" Instrument="SquareLead"
				Note Time="20" Value="D2" Duration="10" Release="6" Instrument="SquareLead"
				Note Time="30" Value="G2" Duration="10" Release="6" Instrument="SquareLead"
				Note Time="40" Value="F2" Duration="110" Release="101" Instrument="SquareLead"
				Note Time="45" Volume="12"
				Note Time="55" Volume="10"
				Note Time="58" Volume="9"
				Note Time="68" Volume="8"
				Note Time="80" Volume="9"
				Note Time="100" Volume="10"
				Note Time="110" Volume="12"
				Note Time="130" Volume="13"
				Note Time="140" Volume="15"
				Note Time="150" Value="D1" Duration="30" Instrument="SquareIntroFade"
			Pattern Name="Intro3"
				Note Time="20" Value="D2" Duration="10" Instrument="SquareLead"
				Note Time="30" Value="A2" Duration="10" Release="6" Instrument="SquareLead"
				Note Time="40" Value="G2" Duration="110" Release="101" Instrument="SquareLead"
				Note Time="45" Volume="12"
				Note Time="55" Volume="10"
				Note Time="58" Volume="9"
				Note Time="68" Volume="8"
				Note Time="80" Volume="9"
				Note Time="100" Volume="10"
				Note Time="110" Volume="12"
				Note Time="130" Volume="13"
				Note Time="140" Volume="15"
				Note Time="150" Value="D1" Duration="20" Instrument="SquareIntroFade"
			Pattern Name="Intro4"
				Note Time="10" Value="A1" Duration="10" Release="3" Instrument="SquareLead" Volume="4"
				Note Time="13" Volume="15"
				Note Time="20" Value="D2" Duration="10" Release="3" Instrument="SquareLead" Volume="4"
				Note Time="23" Volume="15"
				Note Time="30" Value="G2" Duration="10" Release="3" Instrument="SquareLead" Volume="4"
				Note Time="33" Volume="15"
				Note Time="40" Value="F2" Duration="40" Instrument="SquareLead" Volume="4"
				Note Time="43" Volume="12"
				Note Time="45" Volume="11"
				Note Time="55" Volume="10"
				Note Time="58" Volume="9"
				Note Time="68" Volume="8"
				Note Time="80" Value="F2" Duration="20" Instrument="SquareLead"
				Note Time="100" Value="F3" Duration="20" Instrument="SquareLead" Volume="15"
				Note Time="120" Value="G3" Duration="19" Instrument="SquareLead"
				Note Time="139" Value="A3" Duration="1" Instrument="SquareLead" Volume="10"
				Note Time="140" Value="D4" Duration="20" Release="19" Instrument="SquareLead" Volume="15"
			Pattern Name="Intro5"
				Note Time="0" Value="D4" Duration="20" Release="19" Instrument="SquareLead" Volume="8"
				Note Time="20" Value="D4" Duration="20" Release="19" Instrument="SquareLead" Volume="6"
				Note Time="40" Value="D4" Duration="20" Release="19" Instrument="SquareLead" Volume="4"
				Note Time="60" Value="D4" Duration="30" Instrument="SquareLead" Volume="2"
			Pattern Name="Verse1"
				Note Time="10" Value="A2" Duration="10" Release="6" Instrument="SquareLead" Volume="15"
				Note Time="20" Value="D3" Duration="10" Instrument="SquareLead"
				Note Time="30" Value="A3" Duration="10" Release="6" Instrument="SquareLead"
				Note Time="40" Value="G3" Duration="30" Release="26" Instrument="SquareLead"
				Note Time="70" Value="D3" Duration="5" Release="4" Instrument="SquareLead"
				Note Time="75" Value="E3" Duration="5" Release="4" Instrument="SquareLead"
				Note Time="80" Value="F3" Duration="20" Release="16" Instrument="SquareLead"
				Note Time="100" Value="E3" Duration="20" Release="11" Instrument="SquareLead"
				Note Time="120" Value="C3" Duration="10" Instrument="SquareLead"
				Note Time="130" Value="D3" Duration="10" Release="6" Instrument="SquareLead"
				Note Time="140" Value="E3" Duration="10" Release="6" Instrument="SquareLead"
				Note Time="150" Value="D3" Duration="20" Release="11" Instrument="SquareLead"
			Pattern Name="Verse2"
				Note Time="10" Value="A2" Duration="10" Release="6" Instrument="SquareLead"
				Note Time="20" Value="D3" Duration="10" Release="6" Instrument="SquareLead"
				Note Time="30" Value="A3" Duration="10" Release="6" Instrument="SquareLead"
				Note Time="40" Value="G3" Duration="30" Release="21" Instrument="SquareLead"
				Note Time="60" VibratoSpeed="8" VibratoDepth="5"
				Note Time="70" Value="D3" Duration="5" Release="4" Instrument="SquareLead" VibratoSpeed="0" VibratoDepth="0"
				Note Time="75" Value="E3" Duration="5" Release="4" Instrument="SquareLead"
				Note Time="80" Value="F3" Duration="20" Release="11" Instrument="SquareLead"
				Note Time="100" Value="F3" Duration="5" Release="4" Instrument="SquareLead"
				Note Time="105" Value="G3" Duration="5" Release="4" Instrument="SquareLead"
				Note Time="110" Value="F3" Duration="5" Release="4" Instrument="SquareLead"
				Note Time="115" Value="E3" Duration="5" Release="4" Instrument="SquareLead"
				Note Time="120" Value="C3" Duration="10" Release="9" Instrument="SquareLead"
				Note Time="130" Value="A2" Duration="10" Release="9" Instrument="SquareLead"
				Note Time="140" Value="E3" Duration="10" Release="9" Instrument="SquareLead"
				Note Time="150" Value="D3" Duration="20" Release="11" Instrument="SquareLead"
			Pattern Name="Verse3"
				Note Time="10" Value="A2" Duration="10" Release="6" Instrument="SquareLead"
				Note Time="20" Value="D3" Duration="10" Release="6" Instrument="SquareLead"
				Note Time="30" Value="A3" Duration="10" Release="6" Instrument="SquareLead"
				Note Time="40" Value="G3" Duration="30" Release="21" Instrument="SquareLead"
				Note Time="70" Value="D3" Duration="5" Release="4" Instrument="SquareLead"
				Note Time="75" Value="E3" Duration="5" Release="4" Instrument="SquareLead"
				Note Time="80" Value="F3" Duration="20" Release="11" Instrument="SquareLead"
				Note Time="100" Value="E3" Duration="13" Instrument="SquareLead"
				Note Time="113" Value="F3" Duration="3" Instrument="SquareLead"
				Note Time="116" Value="E3" Duration="4" Instrument="SquareLead"
				Note Time="120" Value="C3" Duration="10" Release="6" Instrument="SquareLead"
				Note Time="130" Value="C3" Duration="5" Release="4" Instrument="SquareLead"
				Note Time="135" Value="D3" Duration="5" Release="4" Instrument="SquareLead"
				Note Time="140" Value="E3" Duration="10" Release="9" Instrument="SquareLead"
				Note Time="150" Value="D3" Duration="20" Release="11" Instrument="SquareLead"
			Pattern Name="Verse4"
				Note Time="10" Value="A2" Duration="10" Release="6" Instrument="SquareLead"
				Note Time="20" Value="D3" Duration="10" Release="6" Instrument="SquareLead"
				Note Time="30" Value="A3" Duration="10" Release="6" Instrument="SquareLead"
				Note Time="40" Value="B3" Duration="10" Release="6" Instrument="SquareLead"
				Note Time="50" Value="G3" Duration="20" Release="11" Instrument="SquareLead"
				Note Time="70" Value="D4" Duration="5" Release="4" Instrument="SquareLead"
				Note Time="75" Value="E4" Duration="5" Release="4" Instrument="SquareLead"
				Note Time="80" Value="F4" Duration="10" Release="6" Instrument="SquareLead"
				Note Time="90" Value="A3" Duration="10" Instrument="SquareLead"
				Note Time="100" Value="C4" Duration="10" Release="6" Instrument="SquareLead"
				Note Time="110" Value="A4" Duration="10" Release="6" Instrument="SquareLead"
				Note Time="120" Value="G4" Duration="20" Release="11" Instrument="SquareLead"
				Note Time="140" Value="A4" Duration="20" Release="11" Instrument="SquareLead"
			Pattern Name="Chorus1"
				Note Time="0" Value="B4" Duration="30" Release="21" Instrument="SquareLead"
				Note Time="30" Value="B3" Duration="10" Instrument="SquareLead"
				Note Time="40" Value="D4" Duration="10" Instrument="SquareLead"
				Note Time="50" Value="G4" Duration="11" Instrument="SquareLead"
				Note Time="61" Value="G4" Duration="3" Instrument="SquareLead" SlideTarget="B4" Attack="False"
				Note Time="64" Value="B4" Duration="7" Instrument="SquareLead" Attack="False"
				Note Time="71" Value="B4" Duration="4" Instrument="SquareLead" SlideTarget="A4" Attack="False"
				Note Time="75" Value="A4" Duration="75" Release="46" Instrument="SquareLead" Attack="False"
				Note Time="100" VibratoSpeed="8" VibratoDepth="5"
				Note Time="150" Value="A4" Duration="5" Instrument="SquareLead" VibratoSpeed="0" VibratoDepth="0"
				Note Time="155" Value="B4" Duration="5" Instrument="SquareLead"
			Pattern Name="Chorus2"
				Note Time="0" Value="C5" Duration="50" Release="41" Instrument="SquareLead"
				Note Time="30" VibratoSpeed="8" VibratoDepth="5"
				Note Time="50" Value="G4" Duration="4" Instrument="SquareLead" SlideTarget="A4" VibratoSpeed="0" VibratoDepth="0"
				Note Time="54" Value="A4" Duration="6" Instrument="SquareLead" Attack="False"
				Note Time="60" Value="C5" Duration="10" Release="6" Instrument="SquareLead"
				Note Time="70" Value="D5" Duration="20" Release="16" Instrument="SquareLead"
				Note Time="90" Value="C5" Duration="10" Release="6" Instrument="SquareLead"
				Note Time="100" Value="C5" Duration="10" Release="6" Instrument="SquareLead" Volume="10"
				Note Time="110" Value="C4" Duration="20" Release="16" Instrument="SquareLead" Volume="15"
				Note Time="130" Value="C5" Duration="10" Release="6" Instrument="SquareLead"
				Note Time="140" Value="C5" Duration="10" Instrument="SquareLead" Volume="10"
				Note Time="150" Value="A4" Duration="60" Release="41" Instrument="SquareLead" Volume="15"
			Pattern Name="Chorus3"
				Note Time="20" VibratoSpeed="8" VibratoDepth="5"
				Note Time="34" VibratoSpeed="0" VibratoDepth="0"
				Note Time="50" Value="C4" Duration="10" Instrument="SquareLead"
				Note Time="60" Value="C4" Duration="2" Instrument="SquareLead" SlideTarget="A4"
				Note Time="62" Value="A4" Duration="8" Instrument="SquareLead" Attack="False"
				Note Time="70" Value="A4" Duration="3" Instrument="SquareLead" SlideTarget="G4"
				Note Time="73" Value="G4" Duration="57" Release="48" Instrument="SquareLead" Attack="False"
				Note Time="100" VibratoSpeed="8" VibratoDepth="5"
				Note Time="126" VibratoSpeed="0" VibratoDepth="0"
				Note Time="130" Value="G3" Duration="10" Instrument="SquareLead"
				Note Time="140" Value="G3" Duration="4" Instrument="SquareLead" SlideTarget="G4"
				Note Time="144" Value="G4" Duration="6" Instrument="SquareLead" Attack="False"
				Note Time="150" Value="G4" Duration="3" Instrument="SquareLead" SlideTarget="F4"
				Note Time="153" Value="F4" Duration="17" Release="16" Instrument="SquareLead" Attack="False"
			Pattern Name="Chorus4"
				Note Time="10" Value="D4" Duration="10" Instrument="SquareBleep"
				Note Time="20" Value="G4" Duration="10" Instrument="SquareBleep"
				Note Time="30" Value="D4" Duration="10" Instrument="SquareBleep"
				Note Time="40" Value="F4" Duration="10" Instrument="SquareBleep"
				Note Time="50" Value="E4" Duration="10" Instrument="SquareBleep"
				Note Time="60" Value="C4" Duration="10" Instrument="SquareBleep"
				Note Time="70" Value="D4" Duration="20" Instrument="SquareBleep"
				Note Time="90" Value="D4" Duration="10" Instrument="SquareBleep"
				Note Time="100" Value="G4" Duration="10" Instrument="SquareBleep"
				Note Time="110" Value="D4" Duration="10" Instrument="SquareBleep"
				Note Time="120" Value="F4" Duration="10" Instrument="SquareBleep"
				Note Time="130" Value="E4" Duration="10" Instrument="SquareBleep"
				Note Time="140" Value="C4" Duration="10" Instrument="SquareBleep"
				Note Time="150" Value="D4" Duration="10" Instrument="SquareBleep"
			Pattern Name="Chorus5"
				Note Time="0" Value="C5" Duration="50" Release="41" Instrument="SquareLead"
				Note Time="29" VibratoSpeed="7" VibratoDepth="5"
				Note Time="46" VibratoSpeed="0" VibratoDepth="0"
				Note Time="50" Value="G4" Duration="1" Instrument="SquareLead"
				Note Time="51" Value="G4" Duration="3" Instrument="SquareLead" SlideTarget="A4" Attack="False"
				Note Time="54" Value="A4" Duration="6" Instrument="SquareLead" Attack="False"
				Note Time="60" Value="C5" Duration="10" Release="6" Instrument="SquareLead"
				Note Time="70" Value="D5" Duration="20" Release="16" Instrument="SquareLead"
				Note Time="90" Value="F5" Duration="10" Release="6" Instrument="SquareLead"
				Note Time="100" Value="F5" Duration="10" Instrument="SquareLead" Volume="10"
				Note Time="110" Value="E5" Duration="20" Release="16" Instrument="SquareLead" Volume="15"
				Note Time="130" Value="C5" Duration="10" Release="6" Instrument="SquareLead"
				Note Time="140" Value="C5" Duration="10" Release="6" Instrument="SquareLead" Volume="10"
				Note Time="150" Value="A4" Duration="60" Release="41" Instrument="SquareLead" Volume="15"
			Pattern Name="Chorus6"
				Note Time="19" VibratoSpeed="8" VibratoDepth="5"
				Note Time="34" VibratoSpeed="0" VibratoDepth="0"
				Note Time="50" Value="C4" Duration="10" Instrument="SquareLead"
				Note Time="60" Value="C4" Duration="2" Instrument="SquareLead" SlideTarget="A4"
				Note Time="62" Value="A4" Duration="8" Instrument="SquareLead" Attack="False"
				Note Time="70" Value="A4" Duration="3" Instrument="SquareLead" SlideTarget="G4"
				Note Time="73" Value="G4" Duration="57" Release="48" Instrument="SquareLead" Attack="False"
				Note Time="100" VibratoSpeed="7" VibratoDepth="5"
				Note Time="129" VibratoSpeed="0" VibratoDepth="0"
				Note Time="130" Value="G3" Duration="10" Instrument="SquareLead"
				Note Time="140" Value="G3" Duration="4" Instrument="SquareLead" SlideTarget="G4"
				Note Time="144" Value="G4" Duration="6" Instrument="SquareLead" Attack="False"
				Note Time="150" Value="F#4" Duration="20" Instrument="SquareLead"
			Pattern Name="Chorus7"
				Note Time="10" Value="F#3" Duration="10" Instrument="SquareLead"
				Note Time="20" Value="F#3" Duration="4" Instrument="SquareLead" SlideTarget="F#4"
				Note Time="24" Value="F#4" Duration="6" Instrument="SquareLead" Attack="False"
				Note Time="30" Value="F#4" Duration="3" Instrument="SquareLead" SlideTarget="E4"
				Note Time="33" Value="E4" Duration="17" Instrument="SquareLead" Attack="False"
				Note Time="50" Value="E3" Duration="10" Instrument="SquareLead"
				Note Time="60" Value="E3" Duration="5" Instrument="SquareLead" SlideTarget="E4"
				Note Time="65" Value="E4" Duration="5" Instrument="SquareLead" Attack="False"
				Note Time="70" Value="E4" Duration="3" Instrument="SquareLead" SlideTarget="D4"
				Note Time="73" Value="D4" Duration="17" Release="8" Instrument="SquareLead" Attack="False"
				Note Time="90" Value="C4" Duration="10" Instrument="SquareLead"
				Note Time="100" Value="G#3" Duration="3" Instrument="SquareLead"
				Note Time="103" Value="G3" Duration="7" Instrument="SquareLead"
				Note Time="110" Value="F3" Duration="26" Instrument="SquareLead"
				Note Time="124" VibratoSpeed="8" VibratoDepth="7"
				Note Time="136" Value="F3" Duration="4" Instrument="SquareLead" SlideTarget="B3" Attack="False"
				Note Time="140" Value="C#3" Duration="5" Instrument="SquareLead" SlideTarget="D3"
				Note Time="144" VibratoSpeed="0" VibratoDepth="0"
				Note Time="145" Value="D3" Duration="10" Instrument="SquareLead" Attack="False"
				Note Time="155" Value="D3" Duration="11" Release="6" Instrument="SquareLead" SlideTarget="D2" Attack="False"
			Pattern Name="Verse5"
				Note Time="6" Value="D2" Duration="4" Instrument="SquareLead" Attack="False"
				Note Time="10" Value="A3" Duration="10" Release="6" Instrument="SquareLead"
				Note Time="20" Value="D4" Duration="10" Instrument="SquareLead"
				Note Time="30" Value="A4" Duration="10" Release="6" Instrument="SquareLead"
				Note Time="40" Value="G4" Duration="30" Release="21" Instrument="SquareLead"
				Note Time="54" VibratoSpeed="8" VibratoDepth="5"
				Note Time="62" VibratoSpeed="0" VibratoDepth="0"
				Note Time="70" Value="D3" Duration="5" Release="4" Instrument="SquareLead"
				Note Time="75" Value="E3" Duration="5" Release="4" Instrument="SquareLead"
				Note Time="80" Value="F3" Duration="20" Release="16" Instrument="SquareLead"
				Note Time="100" Value="E3" Duration="20" Release="11" Instrument="SquareLead"
				Note Time="120" Value="C3" Duration="10" Instrument="SquareLead"
				Note Time="130" Value="D3" Duration="10" Release="6" Instrument="SquareLead"
				Note Time="140" Value="E3" Duration="10" Release="6" Instrument="SquareLead"
				Note Time="150" Value="D3" Duration="20" Release="11" Instrument="SquareLead"
			Pattern Name="Verse6"
				Note Time="10" Value="A3" Duration="10" Release="6" Instrument="SquareLead"
				Note Time="20" Value="D4" Duration="10" Release="6" Instrument="SquareLead"
				Note Time="30" Value="G4" Duration="10" Release="6" Instrument="SquareLead"
				Note Time="40" Value="F4" Duration="10" Release="6" Instrument="SquareLead"
				Note Time="50" Value="E4" Duration="2" Instrument="SquareLead"
				Note Time="53" Value="F4" Duration="2" Instrument="SquareLead"
				Note Time="56" Value="E4" Duration="3" Instrument="SquareLead"
				Note Time="60" Value="D4" Duration="10" Instrument="SquareLead"
				Note Time="70" Value="D3" Duration="5" Release="4" Instrument="SquareLead"
				Note Time="75" Value="E3" Duration="5" Release="4" Instrument="SquareLead"
				Note Time="80" Value="F3" Duration="20" Release="11" Instrument="SquareLead"
				Note Time="100" Value="F3" Duration="5" Release="4" Instrument="SquareLead"
				Note Time="105" Value="G3" Duration="5" Release="4" Instrument="SquareLead"
				Note Time="110" Value="F3" Duration="5" Release="4" Instrument="SquareLead"
				Note Time="115" Value="E3" Duration="5" Release="4" Instrument="SquareLead"
				Note Time="120" Value="C3" Duration="10" Release="9" Instrument="SquareLead"
				Note Time="130" Value="A2" Duration="10" Release="9" Instrument="SquareLead"
				Note Time="140" Value="E3" Duration="10" Release="9" Instrument="SquareLead"
				Note Time="150" Value="D3" Duration="20" Release="11" Instrument="SquareLead"
			Pattern Name="Verse7"
				Note Time="10" Value="A3" Duration="10" Release="6" Instrument="SquareLead"
				Note Time="20" Value="D4" Duration="10" Release="6" Instrument="SquareLead"
				Note Time="30" Value="A4" Duration="10" Release="6" Instrument="SquareLead"
				Note Time="40" Value="G4" Duration="30" Release="21" Instrument="SquareLead"
				Note Time="53" VibratoSpeed="8" VibratoDepth="5"
				Note Time="65" VibratoSpeed="0" VibratoDepth="0"
				Note Time="70" Value="D3" Duration="5" Release="4" Instrument="SquareLead"
				Note Time="75" Value="E3" Duration="5" Release="4" Instrument="SquareLead"
				Note Time="80" Value="F3" Duration="20" Release="11" Instrument="SquareLead"
				Note Time="100" Value="E3" Duration="13" Instrument="SquareLead"
				Note Time="113" Value="F3" Duration="3" Instrument="SquareLead"
				Note Time="116" Value="E3" Duration="4" Instrument="SquareLead"
				Note Time="120" Value="C3" Duration="10" Release="6" Instrument="SquareLead"
				Note Time="130" Value="C3" Duration="5" Release="4" Instrument="SquareLead"
				Note Time="135" Value="D3" Duration="5" Release="4" Instrument="SquareLead"
				Note Time="140" Value="E3" Duration="10" Release="9" Instrument="SquareLead"
				Note Time="150" Value="D3" Duration="20" Release="11" Instrument="SquareLead"
			Pattern Name="Verse8"
				Note Time="10" Value="A3" Duration="10" Release="6" Instrument="SquareLead"
				Note Time="20" Value="D4" Duration="10" Release="6" Instrument="SquareLead"
				Note Time="30" Value="G4" Duration="10" Release="9" Instrument="SquareLead"
				Note Time="40" Value="F4" Duration="3" Instrument="SquareLead"
				Note Time="45" Value="E4" Duration="3" Instrument="SquareLead"
				Note Time="50" Value="D4" Duration="20" Release="11" Instrument="SquareLead"
				Note Time="70" Value="D4" Duration="5" Release="4" Instrument="SquareLead"
				Note Time="75" Value="E4" Duration="5" Release="4" Instrument="SquareLead"
				Note Time="80" Value="F4" Duration="20" Release="16" Instrument="SquareLead"
				Note Time="90" VibratoSpeed="7" VibratoDepth="5"
				Note Time="97" VibratoSpeed="0" VibratoDepth="0"
				Note Time="100" Value="F4" Duration="5" Instrument="SquareLead"
				Note Time="105" Value="G4" Duration="5" Release="4" Instrument="SquareLead"
				Note Time="110" Value="A4" Duration="5" Release="4" Instrument="SquareLead"
				Note Time="115" Value="F4" Duration="5" Release="4" Instrument="SquareLead"
				Note Time="120" Value="G4" Duration="10" Instrument="SquareLead"
				Note Time="130" Value="C4" Duration="10" Release="9" Instrument="SquareLead"
				Note Time="140" Value="A4" Duration="10" Release="9" Instrument="SquareLead"
				Note Time="150" Value="D4" Duration="10" Release="9" Instrument="SquareLead"
			Pattern Name="Chorus12"
				Note Time="0" Value="B4" Duration="30" Release="21" Instrument="SquareLead"
				Note Time="30" Value="B3" Duration="10" Release="6" Instrument="SquareLead"
				Note Time="40" Value="D4" Duration="10" Instrument="SquareLead"
				Note Time="50" Value="G4" Duration="11" Instrument="SquareLead"
				Note Time="61" Value="G4" Duration="3" Instrument="SquareLead" SlideTarget="B4" Attack="False"
				Note Time="64" Value="B4" Duration="7" Instrument="SquareLead" Attack="False"
				Note Time="71" Value="B4" Duration="4" Instrument="SquareLead" SlideTarget="A4" Attack="False"
				Note Time="75" Value="A4" Duration="75" Release="46" Instrument="SquareLead" Attack="False"
				Note Time="102" VibratoSpeed="8" VibratoDepth="7"
				Note Time="126" VibratoSpeed="0" VibratoDepth="0"
				Note Time="150" Value="A4" Duration="5" Release="4" Instrument="SquareLead"
				Note Time="155" Value="B4" Duration="5" Release="4" Instrument="SquareLead"
			Pattern Name="Chorus13"
				Note Time="0" Value="B4" Duration="25" Instrument="SquareLead"
				Note Time="25" Value="B4" Duration="5" Release="1" Instrument="SquareLead" SlideTarget="F#4" Attack="False"
				Note Time="30" Value="B3" Duration="10" Release="6" Instrument="SquareLead"
				Note Time="40" Value="D4" Duration="10" Instrument="SquareLead"
				Note Time="50" Value="G4" Duration="11" Instrument="SquareLead"
				Note Time="61" Value="G4" Duration="3" Instrument="SquareLead" SlideTarget="B4" Attack="False"
				Note Time="64" Value="B4" Duration="7" Instrument="SquareLead" Attack="False"
				Note Time="71" Value="B4" Duration="4" Instrument="SquareLead" SlideTarget="A4" Attack="False"
				Note Time="75" Value="A4" Duration="75" Release="46" Instrument="SquareLead" Attack="False"
				Note Time="102" VibratoSpeed="8" VibratoDepth="7"
				Note Time="126" VibratoSpeed="0" VibratoDepth="0"
				Note Time="150" Value="A4" Duration="5" Release="4" Instrument="SquareLead"
				Note Time="155" Value="B4" Duration="5" Release="4" Instrument="SquareLead"
			Pattern Name="Chorus14"
				Note Time="10" Value="F#3" Duration="10" Instrument="SquareLead"
				Note Time="20" Value="F#3" Duration="5" Instrument="SquareLead" SlideTarget="F#4"
				Note Time="25" Value="F#4" Duration="5" Instrument="SquareLead" Attack="False"
				Note Time="30" Value="F#4" Duration="3" Instrument="SquareLead" SlideTarget="E4"
				Note Time="33" Value="E4" Duration="17" Instrument="SquareLead" Attack="False"
				Note Time="50" Value="E3" Duration="10" Instrument="SquareLead"
				Note Time="60" Value="E3" Duration="5" Instrument="SquareLead" SlideTarget="E4"
				Note Time="65" Value="E4" Duration="5" Instrument="SquareLead" Attack="False"
				Note Time="70" Value="E4" Duration="3" Instrument="SquareLead" SlideTarget="D4"
				Note Time="73" Value="D4" Duration="107" Release="78" Instrument="SquareLead" Attack="False"
				Note Time="103" VibratoSpeed="7" VibratoDepth="6"
				Note Time="156" VibratoSpeed="0" VibratoDepth="0"
			Pattern Name="Bridge1"
				Note Time="20" Value="A4" Duration="20" Release="11" Instrument="SquareLead"
				Note Time="40" Value="A4" Duration="10" Instrument="SquareLead"
				Note Time="50" Value="A#4" Duration="20" Release="11" Instrument="SquareLead"
				Note Time="70" Value="G4" Duration="20" Instrument="SquareLead"
				Note Time="90" Value="D2" Duration="5" Instrument="SquareBleep2"
				Note Time="95" Value="D#2" Duration="5" Instrument="SquareBleep2"
				Note Time="100" Value="G2" Duration="5" Instrument="SquareBleep2"
				Note Time="105" Value="A#2" Duration="5" Instrument="SquareBleep2"
				Note Time="110" Value="D3" Duration="5" Instrument="SquareBleep2"
				Note Time="115" Value="D#3" Duration="5" Instrument="SquareBleep2"
				Note Time="120" Value="G3" Duration="5" Instrument="SquareBleep2"
				Note Time="125" Value="A#3" Duration="5" Instrument="SquareBleep2"
				Note Time="130" Value="A4" Duration="20" Release="11" Instrument="SquareLead"
				Note Time="150" Value="G4" Duration="24" Instrument="SquareLead"
			Pattern Name="Bridge2"
				Note Time="14" Value="G4" Duration="1" Instrument="SquareLead" SlideTarget="A4" Attack="False"
				Note Time="15" Value="A4" Duration="15" Instrument="SquareLead" Attack="False"
				Note Time="30" Value="F4" Duration="40" Release="36" Instrument="SquareLead"
				Note Time="70" Value="F3" Duration="4" Instrument="SquareLeadDuty2"
				Note Time="74" Value="F3" Duration="3" Instrument="SquareLeadDuty2" SlideTarget="G3" Attack="False"
				Note Time="77" Value="G3" Duration="13" Instrument="SquareLeadDuty2" Attack="False"
				Note Time="90" Value="A3" Duration="20" Instrument="SquareLeadDuty2"
				Note Time="100" VibratoSpeed="7" VibratoDepth="5"
				Note Time="110" Value="F3" Duration="20" Instrument="SquareLeadDuty2" VibratoSpeed="0" VibratoDepth="0"
				Note Time="130" Value="A3" Duration="20" Release="11" Instrument="SquareLead"
				Note Time="150" Value="G3" Duration="30" Release="11" Instrument="SquareLead"
			Pattern Name="Bridge3"
				Note Time="20" Value="A4" Duration="20" Release="11" Instrument="SquareLead"
				Note Time="40" Value="A4" Duration="10" Instrument="SquareLead"
				Note Time="50" Value="A#4" Duration="20" Release="11" Instrument="SquareLead"
				Note Time="70" Value="G4" Duration="20" Instrument="SquareLead"
				Note Time="90" Value="D2" Duration="5" Instrument="SquareBleep2"
				Note Time="95" Value="D#2" Duration="5" Instrument="SquareBleep2"
				Note Time="100" Value="G2" Duration="5" Instrument="SquareBleep2"
				Note Time="105" Value="A#2" Duration="5" Instrument="SquareBleep2"
				Note Time="110" Value="D3" Duration="5" Instrument="SquareBleep2"
				Note Time="115" Value="D#3" Duration="5" Instrument="SquareBleep2"
				Note Time="120" Value="G3" Duration="5" Instrument="SquareBleep2"
				Note Time="125" Value="A#3" Duration="5" Instrument="SquareBleep2"
				Note Time="130" Value="C5" Duration="4" Instrument="SquareLead" Volume="12"
				Note Time="134" Value="C5" Duration="1" Instrument="SquareLead" SlideTarget="D5" Attack="False"
				Note Time="135" Value="D5" Duration="15" Instrument="SquareLead" Attack="False"
				Note Time="150" Value="G4" Duration="21" Instrument="SquareLead"
			Pattern Name="Bridge4"
				Note Time="11" Value="G4" Duration="2" Instrument="SquareLead" SlideTarget="C5" Attack="False"
				Note Time="13" Value="C5" Duration="18" Instrument="SquareLead" Attack="False"
				Note Time="31" Value="C5" Duration="3" Instrument="SquareLead" SlideTarget="F4" Attack="False"
				Note Time="34" Value="F4" Duration="16" Instrument="SquareLead" Attack="False"
				Note Time="50" Value="C5" Duration="4" Instrument="SquareLead"
				Note Time="54" Value="C5" Duration="1" Instrument="SquareLead" SlideTarget="D5" Attack="False"
				Note Time="55" Value="D5" Duration="15" Instrument="SquareLead" Attack="False"
				Note Time="70" Value="G4" Duration="21" Instrument="SquareLead"
				Note Time="91" Value="G4" Duration="2" Instrument="SquareLead" SlideTarget="C5" Attack="False"
				Note Time="93" Value="C5" Duration="18" Instrument="SquareLead" Attack="False"
				Note Time="111" Value="C5" Duration="3" Instrument="SquareLead" SlideTarget="F4" Attack="False"
				Note Time="114" Value="F4" Duration="16" Instrument="SquareLead" Attack="False"
				Note Time="130" Value="D4" Duration="10" Instrument="SquareLead" Volume="15"
				Note Time="140" Value="E4" Duration="10" Instrument="SquareLead"
				Note Time="150" Value="F4" Duration="20" Instrument="SquareLead"
			Pattern Name="Bridge5"
				Note Time="10" Value="D4" Duration="10" Instrument="SquareLead"
				Note Time="20" Value="A3" Duration="10" Instrument="SquareLead"
				Note Time="30" Value="A#3" Duration="10" Instrument="SquareLead"
				Note Time="40" Value="G4" Duration="4" Instrument="SquareLead"
				Note Time="44" Value="G4" Duration="1" Instrument="SquareLead" SlideTarget="A4" Attack="False"
				Note Time="45" Value="A4" Duration="15" Instrument="SquareLead" Attack="False"
				Note Time="60" Value="F4" Duration="10" Instrument="SquareLead"
				Note Time="70" Value="G4" Duration="20" Release="16" Instrument="SquareLead"
				Note Time="90" Value="A4" Duration="20" Release="16" Instrument="SquareLead"
				Note Time="110" Value="A#4" Duration="20" Instrument="SquareLead"
				Note Time="130" Value="A4" Duration="40" Release="11" Instrument="SquareLead"
			Pattern Name="Bridge6"
				Note Time="10" Value="A3" Duration="10" Release="9" Instrument="SquareLead"
				Note Time="20" Value="G3" Duration="10" Release="9" Instrument="SquareLead"
				Note Time="30" Value="A3" Duration="10" Release="9" Instrument="SquareLead"
				Note Time="40" Value="G4" Duration="4" Instrument="SquareLead"
				Note Time="44" Value="G4" Duration="1" Instrument="SquareLead" SlideTarget="A4" Attack="False"
				Note Time="45" Value="A4" Duration="15" Instrument="SquareLead" Attack="False"
				Note Time="60" Value="D4" Duration="10" Release="9" Instrument="SquareLead"
				Note Time="70" Value="F4" Duration="20" Release="19" Instrument="SquareLead"
				Note Time="90" Value="G4" Duration="10" Instrument="SquareLead"
				Note Time="100" Value="F#4" Duration="3" Instrument="SquareLead" Volume="13"
				Note Time="103" Value="F4" Duration="2" Instrument="SquareLead"
				Note Time="105" Value="E4" Duration="3" Instrument="SquareLead"
				Note Time="108" Value="D#4" Duration="2" Instrument="SquareLead"
				Note Time="110" Value="G3" Duration="60" Release="51" Instrument="SquareLead" Volume="15"
				Note Time="140" VibratoSpeed="7" VibratoDepth="6"
			Pattern Name="Bridge7"
				Note Time="7" VibratoSpeed="0" VibratoDepth="0"
				Note Time="10" Value="F3" Duration="10" Instrument="SquareLead"
				Note Time="20" Value="E3" Duration="10" Release="9" Instrument="SquareLead"
				Note Time="30" Value="F3" Duration="10" Release="9" Instrument="SquareLead"
				Note Time="40" Value="F4" Duration="20" Release="16" Instrument="SquareLead"
				Note Time="50" VibratoSpeed="7" VibratoDepth="5"
				Note Time="59" VibratoSpeed="0" VibratoDepth="0"
				Note Time="60" Value="D4" Duration="10" Release="9" Instrument="SquareLead"
				Note Time="70" Value="E4" Duration="20" Instrument="SquareLead"
				Note Time="90" Value="F4" Duration="20" Release="11" Instrument="SquareLead"
				Note Time="110" Value="G4" Duration="20" Release="11" Instrument="SquareLead"
				Note Time="130" Value="A4" Duration="10" Instrument="SquareLead"
				Note Time="140" Value="A4" Duration="10" Instrument="SquareLead" SlideTarget="A3" Attack="False"
				Note Time="150" Value="A3" Duration="130" Instrument="SquareLead"
			Pattern Name="Bridge8"
				Note Time="26" VibratoSpeed="7" VibratoDepth="4"
				Note Time="118" VibratoSpeed="0" VibratoDepth="0"
				Note Time="120" Value="A3" Duration="40" Instrument="SquareLead" SlideTarget="G2" Attack="False"
			PatternInstance Time="0" Pattern="Intro1"
			PatternInstance Time="1" Pattern="Intro2"
			PatternInstance Time="2" Pattern="Intro3"
			PatternInstance Time="3" Pattern="Intro4"
			PatternInstance Time="4" Pattern="Intro5"
			PatternInstance Time="5" Pattern="Verse1"
			PatternInstance Time="6" Pattern="Verse2"
			PatternInstance Time="7" Pattern="Verse3"
			PatternInstance Time="8" Pattern="Verse4"
			PatternInstance Time="9" Pattern="Chorus1"
			PatternInstance Time="10" Pattern="Chorus2"
			PatternInstance Time="11" Pattern="Chorus3"
			PatternInstance Time="12" Pattern="Chorus4"
			PatternInstance Time="13" Pattern="Chorus1"
			PatternInstance Time="14" Pattern="Chorus5"
			PatternInstance Time="15" Pattern="Chorus6"
			PatternInstance Time="16" Pattern="Chorus7"
			PatternInstance Time="17" Pattern="Verse5"
			PatternInstance Time="18" Pattern="Verse6"
			PatternInstance Time="19" Pattern="Verse7"
			PatternInstance Time="20" Pattern="Verse8"
			PatternInstance Time="21" Pattern="Chorus12"
			PatternInstance Time="22" Pattern="Chorus2"
			PatternInstance Time="23" Pattern="Chorus3"
			PatternInstance Time="24" Pattern="Chorus4"
			PatternInstance Time="25" Pattern="Chorus13"
			PatternInstance Time="26" Pattern="Chorus5"
			PatternInstance Time="27" Pattern="Chorus6"
			PatternInstance Time="28" Pattern="Chorus14"
			PatternInstance Time="29" Pattern="Bridge1"
			PatternInstance Time="30" Pattern="Bridge2"
			PatternInstance Time="31" Pattern="Bridge3"
			PatternInstance Time="32" Pattern="Bridge4"
			PatternInstance Time="33" Pattern="Bridge5"
			PatternInstance Time="34" Pattern="Bridge6"
			PatternInstance Time="35" Pattern="Bridge7"
			PatternInstance Time="36" Pattern="Bridge8"
		Channel Type="Square2"
			Pattern Name="Intro1"
				Note Time="0" Value="D3" Duration="20" Instrument="SquareIntroFade" Volume="10"
				Note Time="20" Value="D2" Duration="10" Instrument="SquareLead" Volume="15"
				Note Time="30" Value="A2" Duration="10" Release="6" Instrument="SquareLead"
				Note Time="40" Value="G2" Duration="40" Instrument="SquareLead"
				Note Time="80" Value="A#2" Duration="20" Release="16" Instrument="SquareLead" Volume="8"
				Note Time="100" Value="C3" Duration="20" Release="11" Instrument="SquareLead"
				Note Time="120" Value="G2" Duration="10" Instrument="SquareLead" Volume="10"
				Note Time="130" Value="C2" Duration="10" Release="6" Instrument="SquareLead"
				Note Time="140" Value="G2" Duration="10" Release="6" Instrument="SquareLead"
				Note Time="150" Value="D3" Duration="20" Instrument="SquareIntroFade"
			Pattern Name="Intro2"
				Note Time="10" Value="D2" Duration="10" Release="6" Instrument="SquareLead" Volume="8"
				Note Time="20" Value="D2" Duration="10" Release="6" Instrument="SquareLead"
				Note Time="30" Value="G2" Duration="10" Release="6" Instrument="SquareLead"
				Note Time="40" Value="F2" Duration="30" Release="21" Instrument="SquareLead" Volume="10"
				Note Time="70" Value="D3" Duration="5" Release="4" Instrument="SquareLead" Volume="12"
				Note Time="75" Value="E3" Duration="5" Release="4" Instrument="SquareLead"
				Note Time="80" Value="F3" Duration="20" Release="11" Instrument="SquareLead"
				Note Time="100" Value="F3" Duration="5" Release="4" Instrument="SquareLead"
				Note Time="105" Value="G3" Duration="5" Release="4" Instrument="SquareLead"
				Note Time="110" Value="F3" Duration="5" Release="4" Instrument="SquareLead"
				Note Time="115" Value="E3" Duration="5" Release="4" Instrument="SquareLead"
				Note Time="120" Value="C3" Duration="10" Release="9" Instrument="SquareLead"
				Note Time="130" Value="A2" Duration="10" Release="9" Instrument="SquareLead"
				Note Time="140" Value="E3" Duration="10" Release="9" Instrument="SquareLead"
				Note Time="150" Value="D3" Duration="30" Release="11" Instrument="SquareLead"
			Pattern Name="Inrto3"
				Note Time="20" Value="D2" Duration="10" Release="6" Instrument="SquareLead" Volume="15"
				Note Time="30" Value="A2" Duration="10" Release="6" Instrument="SquareLead"
				Note Time="40" Value="G2" Duration="30" Release="21" Instrument="SquareLead"
				Note Time="70" Value="D2" Duration="5" Release="4" Instrument="SquareLead"
				Note Time="75" Value="E2" Duration="5" Release="4" Instrument="SquareLead"
				Note Time="80" Value="F2" Duration="20" Release="11" Instrument="SquareLead"
				Note Time="100" Value="E2" Duration="13" Instrument="SquareLead"
				Note Time="113" Value="F2" Duration="3" Instrument="SquareLead"
				Note Time="116" Value="E2" Duration="4" Instrument="SquareLead"
				Note Time="120" Value="C2" Duration="10" Release="6" Instrument="SquareLead"
				Note Time="130" Value="C2" Duration="5" Release="4" Instrument="SquareLead"
				Note Time="135" Value="D2" Duration="5" Release="4" Instrument="SquareLead"
				Note Time="140" Value="E2" Duration="10" Release="9" Instrument="SquareLead"
				Note Time="150" Value="D2" Duration="20" Release="11" Instrument="SquareLead"
			Pattern Name="Inro4"
				Note Time="10" Value="A1" Duration="10" Release="6" Instrument="SquareLead"
				Note Time="20" Value="D2" Duration="10" Release="6" Instrument="SquareLead"
				Note Time="30" Value="G2" Duration="10" Release="6" Instrument="SquareLead"
				Note Time="40" Value="F2" Duration="30" Instrument="SquareLead"
				Note Time="45" Volume="12"
				Note Time="55" Volume="11"
				Note Time="58" Volume="9"
				Note Time="68" Volume="8"
				Note Time="70" Value="D3" Duration="5" Release="4" Instrument="SquareLead"
				Note Time="75" Value="E3" Duration="5" Release="4" Instrument="SquareLead"
				Note Time="80" Value="F3" Duration="5" Instrument="SquareLead" Volume="15"
				Note Time="85" Value="D3" Duration="5" Instrument="SquareLead" Volume="14"
				Note Time="90" Value="A#2" Duration="5" Instrument="SquareLead" Volume="14"
				Note Time="95" Value="F2" Duration="5" Instrument="SquareLead"
				Note Time="100" Value="F3" Duration="5" Instrument="SquareLead" Volume="13"
				Note Time="105" Value="D3" Duration="5" Instrument="SquareLead"
				Note Time="110" Value="A#2" Duration="5" Instrument="SquareLead"
				Note Time="115" Value="F2" Duration="5" Instrument="SquareLead" Volume="12"
				Note Time="120" Value="G3" Duration="5" Instrument="SquareLead"
				Note Time="125" Value="D3" Duration="5" Instrument="SquareLead"
				Note Time="130" Value="B2" Duration="5" Instrument="SquareLead" Volume="11"
				Note Time="135" Value="G2" Duration="5" Instrument="SquareLead"
				Note Time="140" Value="G3" Duration="5" Instrument="SquareLead"
				Note Time="145" Value="D3" Duration="5" Instrument="SquareLead" Volume="10"
				Note Time="150" Value="B2" Duration="5" Instrument="SquareLead"
				Note Time="155" Value="G2" Duration="5" Instrument="SquareLead"
			Pattern Name="Intro5"
				Note Time="0" Value="G3" Duration="5" Instrument="SquareLead" Volume="8"
				Note Time="5" Value="D3" Duration="5" Instrument="SquareLead"
				Note Time="10" Value="B2" Duration="5" Instrument="SquareLead"
				Note Time="15" Value="G2" Duration="5" Instrument="SquareLead"
				Note Time="20" Value="G3" Duration="5" Instrument="SquareLead" Volume="4"
				Note Time="25" Value="D3" Duration="5" Instrument="SquareLead"
				Note Time="30" Value="B2" Duration="5" Instrument="SquareLead"
				Note Time="35" Value="G2" Duration="5" Instrument="SquareLead"
				Note Time="40" Value="G3" Duration="5" Instrument="SquareLead" Volume="2"
				Note Time="45" Value="D3" Duration="5" Instrument="SquareLead"
				Note Time="50" Value="B2" Duration="5" Instrument="SquareLead"
				Note Time="55" Value="G2" Duration="5" Instrument="SquareLead"
				Note Time="60" Value="G3" Duration="5" Instrument="SquareLead" Volume="1"
				Note Time="65" Value="D3" Duration="5" Instrument="SquareLead"
				Note Time="70" Value="B2" Duration="5" Instrument="SquareLead"
				Note Time="75" Value="G2" Duration="5" Instrument="SquareLead"
			Pattern Name="Verse1"
				Note Time="0" Value="G2" Duration="5" Release="4" Instrument="SquareLead" Volume="6"
				Note Time="5" Value="A2" Duration="5" Release="4" Instrument="SquareLead"
				Note Time="10" Value="D2" Duration="5" Release="4" Instrument="SquareLead"
				Note Time="15" Value="D2" Duration="5" Release="4" Instrument="SquareLead"
				Note Time="20" Value="G2" Duration="5" Release="4" Instrument="SquareLead"
				Note Time="25" Value="A2" Duration="5" Release="4" Instrument="SquareLead"
				Note Time="30" Value="D2" Duration="5" Release="4" Instrument="SquareLead"
				Note Time="35" Value="D2" Duration="5" Release="4" Instrument="SquareLead"
				Note Time="40" Value="A2" Duration="5" Release="4" Instrument="SquareLead"
				Note Time="45" Value="B2" Duration="5" Release="4" Instrument="SquareLead"
				Note Time="50" Value="D2" Duration="5" Release="4" Instrument="SquareLead"
				Note Time="55" Value="D2" Duration="5" Release="4" Instrument="SquareLead"
				Note Time="60" Value="A2" Duration="5" Release="4" Instrument="SquareLead"
				Note Time="65" Value="B2" Duration="5" Release="4" Instrument="SquareLead"
				Note Time="70" Value="D2" Duration="5" Release="4" Instrument="SquareLead"
				Note Time="75" Value="D2" Duration="5" Release="4" Instrument="SquareLead"
				Note Time="80" Value="A#2" Duration="20" Release="16" Instrument="SquareLead"
				Note Time="100" Value="C3" Duration="20" Release="11" Instrument="SquareLead"
				Note Time="120" Value="G2" Duration="10" Instrument="SquareLead" Volume="8"
				Note Time="130" Value="C2" Duration="10" Release="5" Instrument="SquareLead"
				Note Time="140" Value="G2" Duration="10" Release="6" Instrument="SquareLead"
				Note Time="150" Value="A2" Duration="10" Release="9" Instrument="SquareLead" Volume="9"
			Pattern Name="Verse2"
				Note Time="0" Value="G2" Duration="5" Release="4" Instrument="SquareLead" Volume="6"
				Note Time="5" Value="A2" Duration="5" Release="4" Instrument="SquareLead"
				Note Time="10" Value="D2" Duration="5" Release="4" Instrument="SquareLead"
				Note Time="15" Value="D2" Duration="5" Release="4" Instrument="SquareLead"
				Note Time="20" Value="G2" Duration="5" Release="4" Instrument="SquareLead"
				Note Time="25" Value="A2" Duration="5" Release="4" Instrument="SquareLead"
				Note Time="30" Value="D2" Duration="5" Release="4" Instrument="SquareLead"
				Note Time="35" Value="D2" Duration="5" Release="4" Instrument="SquareLead"
				Note Time="40" Value="A2" Duration="5" Release="4" Instrument="SquareLead"
				Note Time="45" Value="B2" Duration="5" Release="4" Instrument="SquareLead"
				Note Time="50" Value="D2" Duration="5" Release="4" Instrument="SquareLead"
				Note Time="55" Value="D2" Duration="5" Release="4" Instrument="SquareLead"
				Note Time="60" Value="A2" Duration="5" Release="4" Instrument="SquareLead"
				Note Time="65" Value="B2" Duration="5" Release="4" Instrument="SquareLead"
				Note Time="70" Value="D2" Duration="5" Release="4" Instrument="SquareLead"
				Note Time="75" Value="D2" Duration="5" Release="4" Instrument="SquareLead"
				Note Time="80" Value="A#2" Duration="5" Release="4" Instrument="SquareLead"
				Note Time="85" Value="C3" Duration="5" Release="4" Instrument="SquareLead"
				Note Time="90" Value="D2" Duration="5" Release="4" Instrument="SquareLead"
				Note Time="95" Value="D2" Duration="5" Release="4" Instrument="SquareLead"
				Note Time="100" Value="C3" Duration="5" Release="4" Instrument="SquareLead"
				Note Time="105" Value="D3" Duration="5" Release="4" Instrument="SquareLead"
				Note Time="110" Value="D2" Duration="5" Release="4" Instrument="SquareLead"
				Note Time="115" Value="D2" Duration="5" Release="4" Instrument="SquareLead"
				Note Time="120" Value="D3" Duration="5" Release="4" Instrument="SquareLead"
				Note Time="125" Value="E3" Duration="5" Release="4" Instrument="SquareLead"
				Note Time="130" Value="D2" Duration="5" Release="4" Instrument="SquareLead"
				Note Time="135" Value="D2" Duration="5" Release="4" Instrument="SquareLead"
				Note Time="140" Value="F3" Duration="10" Instrument="SquareLead"
				Note Time="150" Value="D2" Duration="5" Instrument="SquareLead"
				Note Time="155" Value="D2" Duration="5" Instrument="SquareLead"
			Pattern Name="Verse3"
				Note Time="0" Value="G2" Duration="5" Release="4" Instrument="SquareLead" Volume="6"
				Note Time="5" Value="A2" Duration="5" Release="4" Instrument="SquareLead"
				Note Time="10" Value="D2" Duration="5" Release="4" Instrument="SquareLead"
				Note Time="15" Value="D2" Duration="5" Release="4" Instrument="SquareLead"
				Note Time="20" Value="G2" Duration="5" Release="4" Instrument="SquareLead"
				Note Time="25" Value="A2" Duration="5" Release="4" Instrument="SquareLead"
				Note Time="30" Value="D2" Duration="5" Release="4" Instrument="SquareLead"
				Note Time="35" Value="D2" Duration="5" Release="4" Instrument="SquareLead"
				Note Time="40" Value="A2" Duration="5" Release="4" Instrument="SquareLead"
				Note Time="45" Value="B2" Duration="5" Release="4" Instrument="SquareLead"
				Note Time="50" Value="D2" Duration="5" Release="4" Instrument="SquareLead"
				Note Time="55" Value="D2" Duration="5" Release="4" Instrument="SquareLead"
				Note Time="60" Value="A2" Duration="5" Release="4" Instrument="SquareLead"
				Note Time="65" Value="B2" Duration="5" Release="4" Instrument="SquareLead"
				Note Time="70" Value="D2" Duration="5" Release="4" Instrument="SquareLead"
				Note Time="75" Value="D2" Duration="5" Release="4" Instrument="SquareLead"
				Note Time="80" Value="A#2" Duration="20" Release="16" Instrument="SquareLead"
				Note Time="100" Value="C3" Duration="20" Release="11" Instrument="SquareLead"
				Note Time="120" Value="G2" Duration="10" Instrument="SquareLead" Volume="8"
				Note Time="130" Value="C2" Duration="10" Release="6" Instrument="SquareLead"
				Note Time="140" Value="G2" Duration="10" Release="6" Instrument="SquareLead"
				Note Time="150" Value="A2" Duration="10" Release="9" Instrument="SquareLead" Volume="9"
			Pattern Name="Verse4"
				Note Time="0" Value="G2" Duration="5" Release="4" Instrument="SquareLead" Volume="8"
				Note Time="5" Value="A2" Duration="5" Release="4" Instrument="SquareLead"
				Note Time="10" Value="D2" Duration="5" Release="4" Instrument="SquareLead"
				Note Time="15" Value="D2" Duration="5" Release="4" Instrument="SquareLead"
				Note Time="20" Value="G2" Duration="5" Release="4" Instrument="SquareLead"
				Note Time="25" Value="A2" Duration="5" Release="4" Instrument="SquareLead"
				Note Time="30" Value="D2" Duration="5" Release="4" Instrument="SquareLead"
				Note Time="35" Value="D2" Duration="5" Release="4" Instrument="SquareLead"
				Note Time="40" Value="A2" Duration="5" Release="4" Instrument="SquareLead"
				Note Time="45" Value="B2" Duration="5" Release="4" Instrument="SquareLead"
				Note Time="50" Value="D2" Duration="5" Release="4" Instrument="SquareLead"
				Note Time="55" Value="D2" Duration="5" Release="4" Instrument="SquareLead"
				Note Time="60" Value="A2" Duration="5" Release="4" Instrument="SquareLead"
				Note Time="65" Value="B2" Duration="5" Release="4" Instrument="SquareLead"
				Note Time="70" Value="D2" Duration="5" Release="4" Instrument="SquareLead"
				Note Time="75" Value="D2" Duration="5" Release="4" Instrument="SquareLead"
				Note Time="80" Value="A2" Duration="5" Release="4" Instrument="SquareLead"
				Note Time="85" Value="C3" Duration="5" Release="4" Instrument="SquareLead"
				Note Time="90" Value="F3" Duration="5" Release="4" Instrument="SquareLead"
				Note Time="95" Value="A3" Duration="5" Release="4" Instrument="SquareLead"
				Note Time="100" Value="C3" Duration="5" Release="4" Instrument="SquareLead"
				Note Time="105" Value="F3" Duration="5" Release="4" Instrument="SquareLead"
				Note Time="110" Value="A3" Duration="5" Release="4" Instrument="SquareLead"
				Note Time="115" Value="C4" Duration="5" Release="4" Instrument="SquareLead"
				Note Time="120" Value="G#3" Duration="5" Release="4" Instrument="SquareLead"
				Note Time="125" Value="C4" Duration="5" Release="4" Instrument="SquareLead"
				Note Time="130" Value="E4" Duration="5" Release="4" Instrument="SquareLead"
				Note Time="135" Value="G4" Duration="5" Release="4" Instrument="SquareLead"
				Note Time="140" Value="A3" Duration="5" Release="4" Instrument="SquareLead"
				Note Time="145" Value="D4" Duration="5" Instrument="SquareLead"
				Note Time="150" Value="F4" Duration="5" Instrument="SquareLead"
				Note Time="155" Value="A4" Duration="5" Instrument="SquareLead"
			Pattern Name="Chorus1"
				Note Time="0" Value="B2" Duration="5" Instrument="SquareBleep2" Volume="8"
				Note Time="5" Value="D3" Duration="5" Instrument="SquareBleep2"
				Note Time="10" Value="G3" Duration="5" Instrument="SquareBleep2"
				Note Time="15" Value="A3" Duration="5" Instrument="SquareBleep2"
				Note Time="20" Value="B2" Duration="5" Instrument="SquareBleep2"
				Note Time="25" Value="D3" Duration="5" Instrument="SquareBleep2"
				Note Time="30" Value="G3" Duration="5" Instrument="SquareBleep2"
				Note Time="35" Value="A3" Duration="5" Instrument="SquareBleep2"
				Note Time="40" Value="B2" Duration="5" Instrument="SquareBleep2"
				Note Time="45" Value="D3" Duration="5" Instrument="SquareBleep2"
				Note Time="50" Value="G3" Duration="5" Instrument="SquareBleep2"
				Note Time="55" Value="A3" Duration="5" Instrument="SquareBleep2"
				Note Time="60" Value="B2" Duration="5" Instrument="SquareBleep2"
				Note Time="65" Value="D3" Duration="5" Instrument="SquareBleep2"
				Note Time="70" Value="G3" Duration="5" Instrument="SquareBleep2"
				Note Time="75" Value="A3" Duration="5" Instrument="SquareBleep2"
				Note Time="80" Value="A2" Duration="5" Instrument="SquareBleep2"
				Note Time="85" Value="D3" Duration="5" Instrument="SquareBleep2"
				Note Time="90" Value="F3" Duration="5" Instrument="SquareBleep2"
				Note Time="95" Value="A3" Duration="5" Instrument="SquareBleep2"
				Note Time="100" Value="A2" Duration="5" Instrument="SquareBleep2"
				Note Time="105" Value="D3" Duration="5" Instrument="SquareBleep2"
				Note Time="110" Value="F3" Duration="5" Instrument="SquareBleep2"
				Note Time="115" Value="A3" Duration="5" Instrument="SquareBleep2"
				Note Time="120" Value="A2" Duration="5" Instrument="SquareBleep2"
				Note Time="125" Value="D3" Duration="5" Instrument="SquareBleep2"
				Note Time="130" Value="F3" Duration="5" Instrument="SquareBleep2"
				Note Time="135" Value="A3" Duration="5" Instrument="SquareBleep2"
				Note Time="140" Value="A2" Duration="5" Instrument="SquareBleep2"
				Note Time="145" Value="D3" Duration="5" Instrument="SquareBleep2"
				Note Time="150" Value="F3" Duration="5" Instrument="SquareBleep2"
				Note Time="155" Value="A3" Duration="5" Instrument="SquareBleep2"
			Pattern Name="Chorus2"
				Note Time="0" Value="C3" Duration="5" Instrument="SquareBleep2" Volume="8"
				Note Time="5" Value="E3" Duration="5" Instrument="SquareBleep2"
				Note Time="10" Value="A3" Duration="5" Instrument="SquareBleep2"
				Note Time="15" Value="C4" Duration="5" Instrument="SquareBleep2"
				Note Time="20" Value="C3" Duration="5" Instrument="SquareBleep2"
				Note Time="25" Value="E3" Duration="5" Instrument="SquareBleep2"
				Note Time="30" Value="A3" Duration="5" Instrument="SquareBleep2"
				Note Time="35" Value="C4" Duration="5" Instrument="SquareBleep2"
				Note Time="40" Value="C3" Duration="5" Instrument="SquareBleep2"
				Note Time="45" Value="E3" Duration="5" Instrument="SquareBleep2"
				Note Time="50" Value="A3" Duration="5" Instrument="SquareBleep2"
				Note Time="55" Value="C4" Duration="5" Instrument="SquareBleep2"
				Note Time="60" Value="C3" Duration="5" Instrument="SquareBleep2"
				Note Time="65" Value="E3" Duration="5" Instrument="SquareBleep2"
				Note Time="70" Value="D4" Duration="5" Instrument="SquareBleep2"
				Note Time="75" Value="A3" Duration="5" Instrument="SquareBleep2"
				Note Time="80" Value="D3" Duration="5" Instrument="SquareBleep2"
				Note Time="85" Value="F3" Duration="5" Instrument="SquareBleep2"
				Note Time="90" Value="A3" Duration="5" Instrument="SquareBleep2"
				Note Time="95" Value="D4" Duration="5" Instrument="SquareBleep2"
				Note Time="100" Value="D3" Duration="5" Instrument="SquareBleep2"
				Note Time="105" Value="F3" Duration="5" Instrument="SquareBleep2"
				Note Time="110" Value="A3" Duration="5" Instrument="SquareBleep2"
				Note Time="115" Value="D4" Duration="5" Instrument="SquareBleep2"
				Note Time="120" Value="D3" Duration="5" Instrument="SquareBleep2"
				Note Time="125" Value="F3" Duration="5" Instrument="SquareBleep2"
				Note Time="130" Value="A3" Duration="5" Instrument="SquareBleep2"
				Note Time="135" Value="D4" Duration="5" Instrument="SquareBleep2"
				Note Time="140" Value="E3" Duration="5" Instrument="SquareBleep2"
				Note Time="145" Value="G3" Duration="5" Instrument="SquareBleep2"
				Note Time="150" Value="A3" Duration="5" Instrument="SquareBleep2"
				Note Time="155" Value="C4" Duration="5" Instrument="SquareBleep2"
			Pattern Name="Chorus3"
				Note Time="0" Value="A4" Duration="5" Instrument="SquareBleep2" Volume="8"
				Note Time="5" Value="F4" Duration="5" Instrument="SquareBleep2"
				Note Time="10" Value="C4" Duration="5" Instrument="SquareBleep2"
				Note Time="15" Value="A3" Duration="5" Instrument="SquareBleep2"
				Note Time="20" Value="A4" Duration="5" Instrument="SquareBleep2"
				Note Time="25" Value="F4" Duration="5" Instrument="SquareBleep2"
				Note Time="30" Value="C4" Duration="5" Instrument="SquareBleep2"
				Note Time="35" Value="A3" Duration="5" Instrument="SquareBleep2"
				Note Time="40" Value="A4" Duration="5" Instrument="SquareBleep2"
				Note Time="45" Value="F4" Duration="5" Instrument="SquareBleep2"
				Note Time="50" Value="C4" Duration="5" Instrument="SquareBleep2"
				Note Time="55" Value="A3" Duration="5" Instrument="SquareBleep2"
				Note Time="60" Value="A4" Duration="5" Instrument="SquareBleep2"
				Note Time="65" Value="F4" Duration="5" Instrument="SquareBleep2"
				Note Time="70" Value="G4" Duration="5" Instrument="SquareBleep2"
				Note Time="75" Value="E4" Duration="5" Instrument="SquareBleep2"
				Note Time="80" Value="C4" Duration="5" Instrument="SquareBleep2"
				Note Time="85" Value="G3" Duration="5" Instrument="SquareBleep2"
				Note Time="90" Value="G4" Duration="5" Instrument="SquareBleep2"
				Note Time="95" Value="E4" Duration="5" Instrument="SquareBleep2"
				Note Time="100" Value="C4" Duration="5" Instrument="SquareBleep2"
				Note Time="105" Value="G3" Duration="5" Instrument="SquareBleep2"
				Note Time="110" Value="G4" Duration="5" Instrument="SquareBleep2"
				Note Time="115" Value="E4" Duration="5" Instrument="SquareBleep2"
				Note Time="120" Value="C#4" Duration="5" Instrument="SquareBleep2"
				Note Time="125" Value="A#3" Duration="5" Instrument="SquareBleep2"
				Note Time="130" Value="G4" Duration="5" Instrument="SquareBleep2"
				Note Time="135" Value="E4" Duration="5" Instrument="SquareBleep2"
				Note Time="140" Value="C#4" Duration="5" Instrument="SquareBleep2"
				Note Time="145" Value="A#3" Duration="5" Instrument="SquareBleep2"
				Note Time="150" Value="F4" Duration="5" Instrument="SquareBleep2"
				Note Time="155" Value="D4" Duration="5" Instrument="SquareBleep2"
			Pattern Name="Chorus4"
				Note Time="0" Value="A3" Duration="5" Instrument="SquareBleep2" Volume="8"
				Note Time="5" Value="F3" Duration="5" Instrument="SquareBleep2"
				Note Time="10" Value="D3" Duration="5" Instrument="SquareBleep2"
				Note Time="15" Value="F3" Duration="5" Instrument="SquareBleep2"
				Note Time="20" Value="A3" Duration="5" Instrument="SquareBleep2"
				Note Time="25" Value="D4" Duration="5" Instrument="SquareBleep2"
				Note Time="30" Value="F4" Duration="5" Instrument="SquareBleep2"
				Note Time="35" Value="A4" Duration="5" Instrument="SquareBleep2"
				Note Time="40" Value="B4" Duration="5" Instrument="SquareBleep2"
				Note Time="45" Value="G4" Duration="5" Instrument="SquareBleep2"
				Note Time="50" Value="D4" Duration="5" Instrument="SquareBleep2"
				Note Time="55" Value="B3" Duration="5" Instrument="SquareBleep2"
				Note Time="60" Value="G3" Duration="5" Instrument="SquareBleep2"
				Note Time="65" Value="D3" Duration="5" Instrument="SquareBleep2"
				Note Time="70" Value="B2" Duration="5" Instrument="SquareBleep2"
				Note Time="75" Value="G2" Duration="5" Instrument="SquareBleep2"
				Note Time="80" Value="A2" Duration="5" Instrument="SquareBleep2"
				Note Time="85" Value="D3" Duration="5" Instrument="SquareBleep2"
				Note Time="90" Value="F3" Duration="5" Instrument="SquareBleep2"
				Note Time="95" Value="A3" Duration="5" Instrument="SquareBleep2"
				Note Time="100" Value="D4" Duration="5" Instrument="SquareBleep2"
				Note Time="105" Value="F4" Duration="5" Instrument="SquareBleep2"
				Note Time="110" Value="A4" Duration="5" Instrument="SquareBleep2"
				Note Time="115" Value="D5" Duration="5" Instrument="SquareBleep2"
				Note Time="120" Value="B4" Duration="5" Instrument="SquareBleep2"
				Note Time="125" Value="G4" Duration="5" Instrument="SquareBleep2"
				Note Time="130" Value="D4" Duration="5" Instrument="SquareBleep2"
				Note Time="135" Value="B3" Duration="5" Instrument="SquareBleep2"
				Note Time="140" Value="G3" Duration="5" Instrument="SquareBleep2"
				Note Time="145" Value="D3" Duration="5" Instrument="SquareBleep2"
				Note Time="150" Value="G4" Duration="5" Release="4" Instrument="SquareLead" Volume="11"
				Note Time="155" Value="A4" Duration="5" Release="4" Instrument="SquareLead"
			Pattern Name="Chorus5"
				Note Time="0" Value="A4" Duration="5" Instrument="SquareBleep2" Volume="8"
				Note Time="5" Value="F4" Duration="5" Instrument="SquareBleep2"
				Note Time="10" Value="C4" Duration="5" Instrument="SquareBleep2"
				Note Time="15" Value="A3" Duration="5" Instrument="SquareBleep2"
				Note Time="20" Value="A4" Duration="5" Instrument="SquareBleep2"
				Note Time="25" Value="F4" Duration="5" Instrument="SquareBleep2"
				Note Time="30" Value="C4" Duration="5" Instrument="SquareBleep2"
				Note Time="35" Value="A3" Duration="5" Instrument="SquareBleep2"
				Note Time="40" Value="A4" Duration="5" Instrument="SquareBleep2"
				Note Time="45" Value="F4" Duration="5" Instrument="SquareBleep2"
				Note Time="50" Value="C4" Duration="5" Instrument="SquareBleep2"
				Note Time="55" Value="A3" Duration="5" Instrument="SquareBleep2"
				Note Time="60" Value="A4" Duration="5" Instrument="SquareBleep2"
				Note Time="65" Value="F4" Duration="5" Instrument="SquareBleep2"
				Note Time="70" Value="G4" Duration="5" Instrument="SquareBleep2"
				Note Time="75" Value="E4" Duration="5" Instrument="SquareBleep2"
				Note Time="80" Value="C4" Duration="5" Instrument="SquareBleep2"
				Note Time="85" Value="G3" Duration="5" Instrument="SquareBleep2"
				Note Time="90" Value="G4" Duration="5" Instrument="SquareBleep2"
				Note Time="95" Value="E4" Duration="5" Instrument="SquareBleep2"
				Note Time="100" Value="C4" Duration="5" Instrument="SquareBleep2"
				Note Time="105" Value="G3" Duration="5" Instrument="SquareBleep2"
				Note Time="110" Value="G4" Duration="5" Instrument="SquareBleep2"
				Note Time="115" Value="E4" Duration="5" Instrument="SquareBleep2"
				Note Time="120" Value="C#4" Duration="5" Instrument="SquareBleep2"
				Note Time="125" Value="A#3" Duration="5" Instrument="SquareBleep2"
				Note Time="130" Value="G4" Duration="5" Instrument="SquareBleep2"
				Note Time="135" Value="E4" Duration="5" Instrument="SquareBleep2"
				Note Time="140" Value="C#4" Duration="5" Instrument="SquareBleep2"
				Note Time="145" Value="A#3" Duration="5" Instrument="SquareBleep2"
				Note Time="150" Value="B3" Duration="5" Instrument="SquareBleep2"
				Note Time="155" Value="D4" Duration="5" Instrument="SquareBleep2"
			Pattern Name="Chorus6"
				Note Time="0" Value="F#4" Duration="5" Instrument="SquareBleep2" Volume="8"
				Note Time="5" Value="G4" Duration="5" Instrument="SquareBleep2"
				Note Time="10" Value="A4" Duration="5" Instrument="SquareBleep2"
				Note Time="15" Value="D5" Duration="5" Instrument="SquareBleep2"
				Note Time="20" Value="B3" Duration="5" Instrument="SquareBleep2"
				Note Time="25" Value="D4" Duration="5" Instrument="SquareBleep2"
				Note Time="30" Value="F#4" Duration="5" Instrument="SquareBleep2"
				Note Time="35" Value="E4" Duration="5" Instrument="SquareBleep2"
				Note Time="40" Value="G4" Duration="5" Instrument="SquareBleep2"
				Note Time="45" Value="A4" Duration="5" Instrument="SquareBleep2"
				Note Time="50" Value="D5" Duration="5" Instrument="SquareBleep2"
				Note Time="55" Value="B3" Duration="5" Instrument="SquareBleep2"
				Note Time="60" Value="D4" Duration="5" Instrument="SquareBleep2"
				Note Time="65" Value="F#4" Duration="5" Instrument="SquareBleep2"
				Note Time="70" Value="A3" Duration="5" Instrument="SquareBleep2"
				Note Time="75" Value="A#3" Duration="5" Instrument="SquareBleep2"
				Note Time="80" Value="D4" Duration="5" Instrument="SquareBleep2"
				Note Time="85" Value="F4" Duration="5" Instrument="SquareBleep2"
				Note Time="90" Value="A4" Duration="5" Instrument="SquareBleep2"
				Note Time="95" Value="A#4" Duration="5" Instrument="SquareBleep2"
				Note Time="100" Value="D5" Duration="5" Instrument="SquareBleep2"
				Note Time="105" Value="F5" Duration="5" Instrument="SquareBleep2"
				Note Time="110" Value="G5" Duration="5" Instrument="SquareBleep2"
				Note Time="115" Value="D5" Duration="5" Instrument="SquareBleep2"
				Note Time="120" Value="A4" Duration="5" Instrument="SquareBleep2"
				Note Time="125" Value="G4" Duration="5" Instrument="SquareBleep2"
				Note Time="130" Value="D4" Duration="5" Instrument="SquareBleep2"
				Note Time="135" Value="A3" Duration="5" Instrument="SquareBleep2"
				Note Time="140" Value="G3" Duration="5" Instrument="SquareBleep2"
				Note Time="145" Value="D3" Duration="5" Instrument="SquareBleep2"
				Note Time="150" Value="A2" Duration="5" Instrument="SquareBleep2"
				Note Time="155" Value="G2" Duration="5" Instrument="SquareBleep2"
			Pattern Name="Verse5"
				Note Time="0" Value="G2" Duration="5" Release="4" Instrument="SquareLead" Volume="8"
				Note Time="5" Value="A2" Duration="5" Release="4" Instrument="SquareLead"
				Note Time="10" Value="D2" Duration="5" Release="4" Instrument="SquareLead"
				Note Time="15" Value="D2" Duration="5" Release="4" Instrument="SquareLead"
				Note Time="20" Value="G2" Duration="5" Release="4" Instrument="SquareLead"
				Note Time="25" Value="A2" Duration="5" Release="4" Instrument="SquareLead"
				Note Time="30" Value="D2" Duration="5" Release="4" Instrument="SquareLead"
				Note Time="35" Value="D2" Duration="5" Release="4" Instrument="SquareLead"
				Note Time="40" Value="A2" Duration="5" Release="4" Instrument="SquareLead"
				Note Time="45" Value="B2" Duration="5" Release="4" Instrument="SquareLead"
				Note Time="50" Value="D2" Duration="5" Release="4" Instrument="SquareLead"
				Note Time="55" Value="D2" Duration="5" Release="4" Instrument="SquareLead"
				Note Time="60" Value="A2" Duration="5" Release="4" Instrument="SquareLead"
				Note Time="65" Value="B2" Duration="5" Release="4" Instrument="SquareLead"
				Note Time="70" Value="D2" Duration="5" Release="4" Instrument="SquareLead"
				Note Time="75" Value="D2" Duration="5" Release="4" Instrument="SquareLead"
				Note Time="80" Value="A2" Duration="5" Release="4" Instrument="SquareLead"
				Note Time="85" Value="C3" Duration="5" Release="4" Instrument="SquareLead"
				Note Time="90" Value="F3" Duration="5" Release="4" Instrument="SquareLead"
				Note Time="95" Value="A3" Duration="5" Release="4" Instrument="SquareLead"
				Note Time="100" Value="C3" Duration="5" Release="4" Instrument="SquareLead"
				Note Time="105" Value="F3" Duration="5" Release="4" Instrument="SquareLead"
				Note Time="110" Value="A3" Duration="5" Release="4" Instrument="SquareLead"
				Note Time="115" Value="C4" Duration="5" Release="4" Instrument="SquareLead"
				Note Time="120" Value="G3" Duration="5" Release="4" Instrument="SquareLead"
				Note Time="125" Value="C4" Duration="5" Release="4" Instrument="SquareLead"
				Note Time="130" Value="E4" Duration="5" Release="4" Instrument="SquareLead"
				Note Time="135" Value="A4" Duration="5" Release="4" Instrument="SquareLead"
				Note Time="140" Value="D4" Duration="5" Release="4" Instrument="SquareLead"
				Note Time="145" Value="F4" Duration="5" Release="4" Instrument="SquareLead"
				Note Time="150" Value="A4" Duration="5" Release="4" Instrument="SquareLead"
				Note Time="155" Value="D5" Duration="5" Release="4" Instrument="SquareLead"
			Pattern Name="Bridge1"
				Note Time="10" Value="D#2" Duration="5" Release="4" Instrument="SquareLead" Volume="9"
				Note Time="15" Value="D#2" Duration="5" Release="4" Instrument="SquareLead"
				Note Time="20" Value="A#2" Duration="10" Release="9" Instrument="SquareLead"
				Note Time="30" Value="D#2" Duration="5" Release="4" Instrument="SquareLead"
				Note Time="35" Value="D#2" Duration="5" Release="4" Instrument="SquareLead"
				Note Time="40" Value="A2" Duration="30" Release="29" Instrument="SquareLead"
				Note Time="70" Value="D#2" Duration="5" Release="4" Instrument="SquareLead"
				Note Time="75" Value="D#2" Duration="5" Release="4" Instrument="SquareLead"
				Note Time="80" Value="G2" Duration="10" Release="9" Instrument="SquareLead"
				Note Time="90" Value="A#1" Duration="5" Release="4" Instrument="SquareLead"
				Note Time="95" Value="A#1" Duration="5" Release="4" Instrument="SquareLead"
				Note Time="100" Value="F2" Duration="30" Release="29" Instrument="SquareLead"
				Note Time="130" Value="D#2" Duration="10" Release="9" Instrument="SquareLead"
				Note Time="140" Value="D2" Duration="10" Release="9" Instrument="SquareLead"
				Note Time="150" Value="D#2" Duration="20" Release="9" Instrument="SquareLead"
			Pattern Name="Bridge2"
				Note Time="10" Value="D2" Duration="5" Release="4" Instrument="SquareLead"
				Note Time="15" Value="D2" Duration="5" Release="4" Instrument="SquareLead"
				Note Time="20" Value="A2" Duration="10" Release="9" Instrument="SquareLead"
				Note Time="30" Value="D2" Duration="5" Release="4" Instrument="SquareLead"
				Note Time="35" Value="D2" Duration="5" Release="4" Instrument="SquareLead"
				Note Time="40" Value="G2" Duration="30" Release="29" Instrument="SquareLead"
				Note Time="70" Value="C#2" Duration="5" Release="4" Instrument="SquareLead"
				Note Time="75" Value="C#2" Duration="5" Release="4" Instrument="SquareLead"
				Note Time="80" Value="F2" Duration="10" Release="9" Instrument="SquareLead"
				Note Time="90" Value="A1" Duration="5" Release="4" Instrument="SquareLead"
				Note Time="95" Value="A1" Duration="5" Release="4" Instrument="SquareLead"
				Note Time="100" Value="E2" Duration="30" Release="29" Instrument="SquareLead"
				Note Time="130" Value="D3" Duration="18" Release="11" Instrument="SquareLead"
				Note Time="148" Value="D3" Duration="2" Release="1" Instrument="SquareLead" Volume="6"
				Note Time="150" Value="D#3" Duration="20" Release="11" Instrument="SquareLead" Volume="9"
			Pattern Name="Bridge3"
				Note Time="10" Value="D#2" Duration="5" Release="4" Instrument="SquareLead"
				Note Time="15" Value="D#2" Duration="5" Release="4" Instrument="SquareLead"
				Note Time="20" Value="A#2" Duration="10" Release="9" Instrument="SquareLead"
				Note Time="30" Value="D#2" Duration="5" Release="4" Instrument="SquareLead"
				Note Time="35" Value="D#2" Duration="5" Release="4" Instrument="SquareLead"
				Note Time="40" Value="A2" Duration="30" Release="29" Instrument="SquareLead"
				Note Time="70" Value="D#2" Duration="5" Release="4" Instrument="SquareLead"
				Note Time="75" Value="D#2" Duration="5" Release="4" Instrument="SquareLead"
				Note Time="80" Value="G2" Duration="10" Release="9" Instrument="SquareLead"
				Note Time="90" Value="A#1" Duration="5" Release="4" Instrument="SquareLead"
				Note Time="95" Value="A#1" Duration="5" Release="4" Instrument="SquareLead"
				Note Time="100" Value="F2" Duration="30" Release="29" Instrument="SquareLead"
				Note Time="130" Value="D#2" Duration="10" Release="9" Instrument="SquareLead"
				Note Time="140" Value="D2" Duration="10" Release="9" Instrument="SquareLead"
				Note Time="150" Value="D#2" Duration="20" Release="9" Instrument="SquareLead"
			Pattern Name="Bridge4"
				Note Time="10" Value="D2" Duration="5" Release="4" Instrument="SquareLead"
				Note Time="15" Value="D2" Duration="5" Release="4" Instrument="SquareLead"
				Note Time="20" Value="A2" Duration="10" Release="9" Instrument="SquareLead"
				Note Time="30" Value="D2" Duration="5" Release="4" Instrument="SquareLead"
				Note Time="35" Value="D2" Duration="5" Release="4" Instrument="SquareLead"
				Note Time="40" Value="G2" Duration="30" Release="29" Instrument="SquareLead"
				Note Time="70" Value="C#2" Duration="5" Release="4" Instrument="SquareLead"
				Note Time="75" Value="C#2" Duration="5" Release="4" Instrument="SquareLead"
				Note Time="80" Value="F2" Duration="10" Release="9" Instrument="SquareLead"
				Note Time="90" Value="A1" Duration="5" Release="4" Instrument="SquareLead"
				Note Time="95" Value="A1" Duration="5" Release="4" Instrument="SquareLead"
				Note Time="100" Value="E2" Duration="30" Release="29" Instrument="SquareLead"
				Note Time="130" Value="D3" Duration="18" Release="11" Instrument="SquareLead"
				Note Time="148" Value="D3" Duration="2" Release="1" Instrument="SquareLead" Volume="6"
				Note Time="150" Value="C3" Duration="10" Instrument="SquareLead" Volume="9"
			Pattern Name="Bridge5"
				Note Time="10" Value="D2" Duration="5" Release="4" Instrument="SquareLead"
				Note Time="15" Value="D2" Duration="5" Release="4" Instrument="SquareLead"
				Note Time="20" Value="C3" Duration="10" Release="9" Instrument="SquareLead"
				Note Time="30" Value="D2" Duration="5" Release="4" Instrument="SquareLead"
				Note Time="35" Value="D2" Duration="5" Release="4" Instrument="SquareLead"
				Note Time="40" Value="A#2" Duration="30" Release="29" Instrument="SquareLead"
				Note Time="70" Value="A1" Duration="5" Release="4" Instrument="SquareLead"
				Note Time="75" Value="A1" Duration="5" Release="4" Instrument="SquareLead"
				Note Time="80" Value="A2" Duration="10" Release="9" Instrument="SquareLead"
				Note Time="90" Value="B1" Duration="5" Release="4" Instrument="SquareLead"
				Note Time="95" Value="B1" Duration="5" Release="4" Instrument="SquareLead"
				Note Time="100" Value="G2" Duration="30" Release="26" Instrument="SquareLead"
				Note Time="130" Value="F2" Duration="10" Instrument="SquareLead"
				Note Time="140" Value="E2" Duration="10" Release="6" Instrument="SquareLead"
				Note Time="150" Value="F2" Duration="20" Release="11" Instrument="SquareLead"
			Pattern Name="Bridge6"
				Note Time="10" Value="A1" Duration="5" Release="4" Instrument="SquareLead"
				Note Time="15" Value="A1" Duration="5" Release="4" Instrument="SquareLead"
				Note Time="20" Value="E2" Duration="10" Release="9" Instrument="SquareLead"
				Note Time="30" Value="A1" Duration="5" Instrument="SquareLead"
				Note Time="35" Value="A1" Duration="5" Release="4" Instrument="SquareLead"
				Note Time="40" Value="D2" Duration="10" Instrument="SquareLead"
				Note Time="50" Value="F2" Duration="10" Instrument="SquareLead"
				Note Time="60" Value="A2" Duration="10" Release="9" Instrument="SquareLead"
				Note Time="70" Value="D3" Duration="20" Release="19" Instrument="SquareLead"
				Note Time="90" Value="A2" Duration="4" Instrument="SquareLead"
				Note Time="94" Value="A2" Duration="2" Instrument="SquareLead" SlideTarget="B2" Attack="False"
				Note Time="96" Value="B2" Duration="4" Release="3" Instrument="SquareLead" Attack="False"
				Note Time="100" Value="G2" Duration="10" Release="6" Instrument="SquareLead"
				Note Time="110" Value="A2" Duration="20" Instrument="SquareLead"
				Note Time="130" Value="G2" Duration="5" Release="4" Instrument="SquareLead"
				Note Time="135" Value="F2" Duration="5" Release="4" Instrument="SquareLead"
				Note Time="140" Value="E2" Duration="5" Release="4" Instrument="SquareLead"
				Note Time="145" Value="D2" Duration="5" Release="4" Instrument="SquareLead"
				Note Time="150" Value="C2" Duration="5" Release="4" Instrument="SquareLead"
				Note Time="155" Value="B1" Duration="5" Release="4" Instrument="SquareLead"
			Pattern Name="Bridge7"
				Note Time="0" Value="A#1" Duration="5" Release="4" Instrument="SquareLead"
				Note Time="5" Value="A#1" Duration="5" Release="4" Instrument="SquareLead"
				Note Time="10" Value="D2" Duration="5" Release="4" Instrument="SquareLead"
				Note Time="15" Value="D2" Duration="5" Release="4" Instrument="SquareLead"
				Note Time="20" Value="F2" Duration="5" Release="4" Instrument="SquareLead"
				Note Time="25" Value="F2" Duration="5" Release="4" Instrument="SquareLead"
				Note Time="30" Value="E2" Duration="5" Release="4" Instrument="SquareLead"
				Note Time="35" Value="E2" Duration="5" Release="4" Instrument="SquareLead"
				Note Time="40" Value="G2" Duration="5" Release="4" Instrument="SquareLead"
				Note Time="45" Value="G2" Duration="5" Release="4" Instrument="SquareLead"
				Note Time="50" Value="A2" Duration="5" Release="4" Instrument="SquareLead"
				Note Time="55" Value="A2" Duration="5" Release="4" Instrument="SquareLead"
				Note Time="60" Value="F2" Duration="5" Release="4" Instrument="SquareLead"
				Note Time="65" Value="F2" Duration="5" Release="4" Instrument="SquareLead"
				Note Time="70" Value="G2" Duration="5" Release="4" Instrument="SquareLead"
				Note Time="75" Value="G2" Duration="5" Release="4" Instrument="SquareLead"
				Note Time="80" Value="D3" Duration="5" Release="4" Instrument="SquareLead"
				Note Time="85" Value="D3" Duration="5" Release="4" Instrument="SquareLead"
				Note Time="90" Value="A2" Duration="5" Release="4" Instrument="SquareLead"
				Note Time="95" Value="A2" Duration="5" Release="4" Instrument="SquareLead"
				Note Time="100" Value="A#2" Duration="5" Release="4" Instrument="SquareLead"
				Note Time="105" Value="A#2" Duration="5" Release="4" Instrument="SquareLead"
				Note Time="110" Value="D3" Duration="5" Release="4" Instrument="SquareLead"
				Note Time="115" Value="D3" Duration="5" Release="4" Instrument="SquareLead"
				Note Time="120" Value="A3" Duration="5" Release="4" Instrument="SquareLead"
				Note Time="125" Value="A3" Duration="5" Release="4" Instrument="SquareLead"
				Note Time="130" Value="D3" Duration="5" Release="4" Instrument="SquareLead"
				Note Time="135" Value="D3" Duration="5" Release="4" Instrument="SquareLead"
				Note Time="140" Value="G3" Duration="5" Release="4" Instrument="SquareLead"
				Note Time="145" Value="G3" Duration="5" Release="4" Instrument="SquareLead"
				Note Time="150" Value="A3" Duration="5" Release="4" Instrument="SquareLead"
				Note Time="155" Value="A3" Duration="5" Release="4" Instrument="SquareLead"
			Pattern Name="Bridge8"
				Note Time="0" Value="A1" Duration="5" Release="4" Instrument="SquareLead" Volume="8"
				Note Time="5" Value="A1" Duration="5" Release="4" Instrument="SquareLead"
				Note Time="10" Value="D2" Duration="5" Release="4" Instrument="SquareLead"
				Note Time="15" Value="D2" Duration="5" Release="4" Instrument="SquareLead"
				Note Time="20" Value="G2" Duration="5" Release="4" Instrument="SquareLead"
				Note Time="25" Value="G2" Duration="5" Release="4" Instrument="SquareLead"
				Note Time="30" Value="C3" Duration="5" Release="4" Instrument="SquareLead"
				Note Time="35" Value="C3" Duration="5" Release="4" Instrument="SquareLead" Volume="9"
				Note Time="40" Value="F2" Duration="5" Release="4" Instrument="SquareLead"
				Note Time="45" Value="F2" Duration="5" Release="4" Instrument="SquareLead"
				Note Time="50" Value="A#2" Duration="5" Release="4" Instrument="SquareLead"
				Note Time="55" Value="A#2" Duration="5" Release="4" Instrument="SquareLead"
				Note Time="60" Value="D3" Duration="5" Release="4" Instrument="SquareLead"
				Note Time="65" Value="D3" Duration="5" Release="4" Instrument="SquareLead" Volume="10"
				Note Time="70" Value="G3" Duration="5" Release="4" Instrument="SquareLead"
				Note Time="75" Value="G3" Duration="5" Release="4" Instrument="SquareLead"
				Note Time="80" Value="E3" Duration="5" Release="4" Instrument="SquareLead"
				Note Time="85" Value="E3" Duration="5" Release="4" Instrument="SquareLead"
				Note Time="90" Value="A3" Duration="5" Release="4" Instrument="SquareLead"
				Note Time="95" Value="A3" Duration="5" Release="4" Instrument="SquareLead" Volume="11"
				Note Time="100" Value="D4" Duration="5" Release="4" Instrument="SquareLead"
				Note Time="105" Value="D4" Duration="5" Release="4" Instrument="SquareLead"
				Note Time="110" Value="G4" Duration="5" Release="4" Instrument="SquareLead"
				Note Time="115" Value="G4" Duration="5" Release="4" Instrument="SquareLead"
				Note Time="120" Value="E4" Duration="5" Release="4" Instrument="SquareLead"
				Note Time="125" Value="E4" Duration="5" Release="4" Instrument="SquareLead"
				Note Time="130" Value="A4" Duration="5" Release="4" Instrument="SquareLead" Volume="11"
				Note Time="135" Value="A4" Duration="5" Release="4" Instrument="SquareLead"
				Note Time="140" Value="E5" Duration="5" Release="4" Instrument="SquareLead"
				Note Time="145" Value="E5" Duration="5" Release="4" Instrument="SquareLead"
				Note Time="150" Value="A5" Duration="5" Release="4" Instrument="SquareLead"
				Note Time="155" Value="A5" Duration="5" Release="4" Instrument="SquareLead"
			PatternInstance Time="0" Pattern="Intro1"
			PatternInstance Time="1" Pattern="Intro2"
			PatternInstance Time="2" Pattern="Inrto3"
			PatternInstance Time="3" Pattern="Inro4"
			PatternInstance Time="4" Pattern="Intro5"
			PatternInstance Time="5" Pattern="Verse1"
			PatternInstance Time="6" Pattern="Verse2"
			PatternInstance Time="7" Pattern="Verse3"
			PatternInstance Time="8" Pattern="Verse4"
			PatternInstance Time="9" Pattern="Chorus1"
			PatternInstance Time="10" Pattern="Chorus2"
			PatternInstance Time="11" Pattern="Chorus3"
			PatternInstance Time="12" Pattern="Chorus4"
			PatternInstance Time="13" Pattern="Chorus1"
			PatternInstance Time="14" Pattern="Chorus2"
			PatternInstance Time="15" Pattern="Chorus5"
			PatternInstance Time="16" Pattern="Chorus6"
			PatternInstance Time="17" Pattern="Verse1"
			PatternInstance Time="18" Pattern="Verse2"
			PatternInstance Time="19" Pattern="Verse3"
			PatternInstance Time="20" Pattern="Verse5"
			PatternInstance Time="21" Pattern="Chorus1"
			PatternInstance Time="22" Pattern="Chorus2"
			PatternInstance Time="23" Pattern="Chorus3"
			PatternInstance Time="24" Pattern="Chorus4"
			PatternInstance Time="25" Pattern="Chorus1"
			PatternInstance Time="26" Pattern="Chorus2"
			PatternInstance Time="27" Pattern="Chorus5"
			PatternInstance Time="28" Pattern="Chorus6"
			PatternInstance Time="29" Pattern="Bridge1"
			PatternInstance Time="30" Pattern="Bridge2"
			PatternInstance Time="31" Pattern="Bridge3"
			PatternInstance Time="32" Pattern="Bridge4"
			PatternInstance Time="33" Pattern="Bridge5"
			PatternInstance Time="34" Pattern="Bridge6"
			PatternInstance Time="35" Pattern="Bridge7"
			PatternInstance Time="36" Pattern="Bridge8"
		Channel Type="Triangle"
			Pattern Name="Intro1"
				Note Time="0" Value="D2" Duration="10" Instrument="Bass"
				Note Time="20" Value="D2" Duration="10" Instrument="Bass"
				Note Time="40" Value="D2" Duration="10" Instrument="Bass"
				Note Time="60" Value="D2" Duration="10" Instrument="Bass"
				Note Time="80" Value="D2" Duration="10" Instrument="Bass"
				Note Time="100" Value="D2" Duration="10" Instrument="Bass"
				Note Time="120" Value="D2" Duration="10" Instrument="Bass"
				Note Time="140" Value="D2" Duration="10" Instrument="Bass"
			Pattern Name="Intro2"
				Note Time="0" Value="D2" Duration="10" Instrument="Bass"
				Note Time="20" Value="D2" Duration="10" Instrument="Bass"
				Note Time="40" Value="D2" Duration="10" Instrument="Bass"
				Note Time="60" Value="D2" Duration="10" Instrument="Bass"
				Note Time="80" Value="D3" Duration="59" Instrument="Bass"
				Note Time="140" Value="F4" Duration="4" Instrument="BassDrumIntro"
				Note Time="145" Value="F4" Duration="4" Instrument="BassDrumIntro"
				Note Time="150" Value="A#3" Duration="4" Instrument="BassDrumIntro"
				Note Time="155" Value="A#3" Duration="4" Instrument="BassDrumIntro"
			Pattern Name="Intro3"
				Note Time="0" Value="D4" Duration="80" Instrument="Bass" SlideTarget="E1"
			Pattern Name="Verse1"
				Note Time="0" Value="D3" Duration="9" Instrument="Bass"
				Note Time="10" Value="D3" Duration="9" Instrument="Bass"
				Note Time="20" Value="D3" Duration="9" Instrument="Bass"
				Note Time="30" Value="D3" Duration="9" Instrument="Bass"
				Note Time="40" Value="D3" Duration="9" Instrument="Bass"
				Note Time="50" Value="D3" Duration="9" Instrument="Bass"
				Note Time="60" Value="D3" Duration="9" Instrument="Bass"
				Note Time="70" Value="D3" Duration="9" Instrument="Bass"
				Note Time="80" Value="D3" Duration="9" Instrument="Bass"
				Note Time="90" Value="D3" Duration="9" Instrument="Bass"
				Note Time="100" Value="D3" Duration="9" Instrument="Bass"
				Note Time="110" Value="D3" Duration="9" Instrument="Bass"
				Note Time="120" Value="D3" Duration="9" Instrument="Bass"
				Note Time="130" Value="G3" Duration="9" Instrument="Bass"
				Note Time="140" Value="A3" Duration="9" Instrument="Bass"
				Note Time="150" Value="D4" Duration="10" Instrument="Bass"
			Pattern Name="Verse2"
				Note Time="0" Value="B3" Duration="10" Instrument="Bass" SlideTarget="A2"
				Note Time="10" Value="D3" Duration="9" Instrument="Bass"
				Note Time="20" Value="D3" Duration="9" Instrument="Bass"
				Note Time="30" Value="D3" Duration="9" Instrument="Bass"
				Note Time="40" Value="D3" Duration="9" Instrument="Bass"
				Note Time="50" Value="D3" Duration="9" Instrument="Bass"
				Note Time="60" Value="D3" Duration="9" Instrument="Bass"
				Note Time="70" Value="D3" Duration="9" Instrument="Bass"
				Note Time="80" Value="A#2" Duration="20" Instrument="Bass"
				Note Time="100" Value="G3" Duration="4" Instrument="Bass"
				Note Time="104" Value="G3" Duration="3" Instrument="Bass" SlideTarget="A3"
				Note Time="107" Value="A3" Duration="13" Instrument="Bass"
				Note Time="120" Value="C3" Duration="10" Instrument="Bass"
				Note Time="130" Value="G3" Duration="5" Instrument="Bass"
				Note Time="135" Value="A3" Duration="5" Instrument="Bass"
				Note Time="140" Value="C4" Duration="10" Instrument="Bass"
				Note Time="150" Value="D3" Duration="10" Instrument="Bass"
			Pattern Name="Verse3"
				Note Time="0" Value="D3" Duration="10" Instrument="Bass" SlideTarget="D#2"
				Note Time="10" Value="D3" Duration="9" Instrument="Bass"
				Note Time="20" Value="D3" Duration="9" Instrument="Bass"
				Note Time="30" Value="D3" Duration="9" Instrument="Bass"
				Note Time="40" Value="D3" Duration="9" Instrument="Bass"
				Note Time="50" Value="D3" Duration="9" Instrument="Bass"
				Note Time="60" Value="D3" Duration="9" Instrument="Bass"
				Note Time="70" Value="D3" Duration="9" Instrument="Bass"
				Note Time="80" Value="D3" Duration="9" Instrument="Bass"
				Note Time="90" Value="D3" Duration="9" Instrument="Bass"
				Note Time="100" Value="D3" Duration="9" Instrument="Bass"
				Note Time="110" Value="D3" Duration="9" Instrument="Bass"
				Note Time="120" Value="D3" Duration="9" Instrument="Bass"
				Note Time="130" Value="G3" Duration="9" Instrument="Bass"
				Note Time="140" Value="A3" Duration="9" Instrument="Bass"
				Note Time="150" Value="D4" Duration="10" Instrument="Bass"
			Pattern Name="Verse4"
				Note Time="0" Value="B3" Duration="10" Instrument="Bass" SlideTarget="A2"
				Note Time="10" Value="D3" Duration="9" Instrument="Bass"
				Note Time="20" Value="D3" Duration="9" Instrument="Bass"
				Note Time="30" Value="D3" Duration="9" Instrument="Bass"
				Note Time="40" Value="D3" Duration="9" Instrument="Bass"
				Note Time="50" Value="D3" Duration="9" Instrument="Bass"
				Note Time="60" Value="D3" Duration="9" Instrument="Bass"
				Note Time="70" Value="D3" Duration="9" Instrument="Bass"
				Note Time="80" Value="F2" Duration="10" Instrument="Bass"
				Note Time="90" Value="F3" Duration="10" Instrument="Bass"
				Note Time="100" Value="F2" Duration="10" Instrument="Bass"
				Note Time="110" Value="F3" Duration="10" Instrument="Bass"
				Note Time="120" Value="C3" Duration="10" Instrument="Bass"
				Note Time="130" Value="C4" Duration="10" Instrument="Bass"
				Note Time="140" Value="D3" Duration="10" Instrument="Bass"
				Note Time="150" Value="D4" Duration="10" Instrument="Bass"
			Pattern Name="Chorus1"
				Note Time="0" Value="G2" Duration="8" Instrument="Bass"
				Note Time="10" Value="G2" Duration="8" Instrument="Bass"
				Note Time="20" Value="D5" Duration="10" Instrument="BassDrum"
				Note Time="40" Value="G2" Duration="10" Instrument="Bass"
				Note Time="50" Value="A2" Duration="10" Instrument="Bass"
				Note Time="60" Value="D5" Duration="10" Instrument="BassDrum"
				Note Time="70" Value="D3" Duration="10" Instrument="Bass"
				Note Time="80" Value="D3" Duration="10" Instrument="Bass" SlideTarget="C2"
				Note Time="90" Value="C2" Duration="9" Instrument="Bass"
				Note Time="100" Value="D5" Duration="9" Instrument="BassDrum"
				Note Time="110" Value="C3" Duration="9" Instrument="Bass"
				Note Time="120" Value="D3" Duration="9" Instrument="Bass"
				Note Time="130" Value="D3" Duration="9" Instrument="Bass"
				Note Time="140" Value="D5" Duration="9" Instrument="BassDrum"
				Note Time="150" Value="G3" Duration="9" Instrument="Bass"
			Pattern Name="Chorus2"
				Note Time="0" Value="A3" Duration="9" Instrument="Bass"
				Note Time="10" Value="A2" Duration="9" Instrument="Bass"
				Note Time="20" Value="D5" Duration="9" Instrument="BassDrum"
				Note Time="30" Value="G2" Duration="9" Instrument="Bass"
				Note Time="40" Value="A2" Duration="9" Instrument="Bass"
				Note Time="50" Value="C3" Duration="9" Instrument="Bass"
				Note Time="60" Value="D5" Duration="9" Instrument="BassDrum"
				Note Time="70" Value="D3" Duration="10" Instrument="Bass"
				Note Time="90" Value="D2" Duration="9" Instrument="Bass"
				Note Time="100" Value="D5" Duration="9" Instrument="BassDrum"
				Note Time="110" Value="C2" Duration="4" Instrument="Bass"
				Note Time="115" Value="C2" Duration="4" Instrument="Bass"
				Note Time="120" Value="D2" Duration="9" Instrument="Bass"
				Note Time="130" Value="D3" Duration="9" Instrument="Bass"
				Note Time="140" Value="D5" Duration="9" Instrument="BassDrum"
				Note Time="150" Value="C3" Duration="9" Instrument="Bass"
			Pattern Name="Chorus3"
				Note Time="0" Value="F2" Duration="9" Instrument="Bass"
				Note Time="10" Value="F2" Duration="9" Instrument="Bass"
				Note Time="20" Value="D5" Duration="9" Instrument="BassDrum"
				Note Time="30" Value="C2" Duration="9" Instrument="Bass"
				Note Time="40" Value="F2" Duration="9" Instrument="Bass"
				Note Time="50" Value="G2" Duration="9" Instrument="Bass"
				Note Time="60" Value="D5" Duration="9" Instrument="BassDrum"
				Note Time="70" Value="C2" Duration="19" Instrument="Bass"
				Note Time="90" Value="C3" Duration="9" Instrument="Bass"
				Note Time="100" Value="D5" Duration="9" Instrument="BassDrum"
				Note Time="110" Value="G2" Duration="9" Instrument="Bass"
				Note Time="120" Value="C#3" Duration="9" Instrument="Bass"
				Note Time="130" Value="C#3" Duration="9" Instrument="Bass"
				Note Time="140" Value="D5" Duration="9" Instrument="BassDrum"
				Note Time="150" Value="D3" Duration="9" Instrument="Bass"
			Pattern Name="Chorus4"
				Note Time="0" Value="D2" Duration="9" Instrument="Bass"
				Note Time="10" Value="D3" Duration="9" Instrument="Bass"
				Note Time="20" Value="D5" Duration="9" Instrument="BassDrum"
				Note Time="30" Value="D3" Duration="10" Instrument="Bass"
				Note Time="50" Value="G2" Duration="4" Instrument="Bass"
				Note Time="55" Value="A2" Duration="4" Instrument="Bass"
				Note Time="60" Value="D5" Duration="9" Instrument="BassDrum"
				Note Time="70" Value="D3" Duration="10" Instrument="Bass"
				Note Time="90" Value="D3" Duration="9" Instrument="Bass"
				Note Time="100" Value="D5" Duration="9" Instrument="BassDrum"
				Note Time="110" Value="G3" Duration="9" Instrument="Bass"
				Note Time="120" Value="E3" Duration="9" Instrument="Bass"
				Note Time="130" Value="F3" Duration="9" Instrument="Bass"
				Note Time="140" Value="D5" Duration="9" Instrument="BassDrum"
				Note Time="150" Value="D3" Duration="9" Instrument="Bass"
			Pattern Name="Chorus5"
				Note Time="0" Value="A3" Duration="9" Instrument="Bass"
				Note Time="10" Value="A2" Duration="9" Instrument="Bass"
				Note Time="20" Value="D5" Duration="9" Instrument="BassDrum"
				Note Time="30" Value="G2" Duration="9" Instrument="Bass"
				Note Time="40" Value="A2" Duration="9" Instrument="Bass"
				Note Time="50" Value="C3" Duration="9" Instrument="Bass"
				Note Time="60" Value="D5" Duration="9" Instrument="BassDrum"
				Note Time="70" Value="A#2" Duration="10" Instrument="Bass"
				Note Time="90" Value="A#3" Duration="9" Instrument="Bass"
				Note Time="100" Value="D5" Duration="9" Instrument="BassDrum"
				Note Time="110" Value="A3" Duration="4" Instrument="Bass"
				Note Time="115" Value="A3" Duration="4" Instrument="Bass"
				Note Time="120" Value="A#3" Duration="9" Instrument="Bass"
				Note Time="130" Value="A3" Duration="9" Instrument="Bass"
				Note Time="140" Value="D5" Duration="9" Instrument="BassDrum"
				Note Time="150" Value="C3" Duration="9" Instrument="Bass"
			Pattern Name="Chorus6"
				Note Time="0" Value="F2" Duration="9" Instrument="Bass"
				Note Time="10" Value="F2" Duration="9" Instrument="Bass"
				Note Time="20" Value="D5" Duration="9" Instrument="BassDrum"
				Note Time="30" Value="C2" Duration="9" Instrument="Bass"
				Note Time="40" Value="F2" Duration="9" Instrument="Bass"
				Note Time="50" Value="G2" Duration="9" Instrument="Bass"
				Note Time="60" Value="D5" Duration="9" Instrument="BassDrum"
				Note Time="70" Value="A2" Duration="19" Instrument="Bass"
				Note Time="90" Value="C3" Duration="9" Instrument="Bass"
				Note Time="100" Value="D5" Duration="9" Instrument="BassDrum"
				Note Time="110" Value="G2" Duration="9" Instrument="Bass"
				Note Time="120" Value="A2" Duration="9" Instrument="Bass"
				Note Time="130" Value="A3" Duration="9" Instrument="Bass"
				Note Time="140" Value="B2" Duration="9" Instrument="Bass"
				Note Time="150" Value="E2" Duration="9" Instrument="Bass"
			Pattern Name="Chorus7"
				Note Time="0" Value="E2" Duration="9" Instrument="Bass"
				Note Time="10" Value="D3" Duration="9" Instrument="Bass"
				Note Time="20" Value="D5" Duration="9" Instrument="BassDrum"
				Note Time="30" Value="D3" Duration="10" Instrument="Bass"
				Note Time="50" Value="G2" Duration="4" Instrument="Bass"
				Note Time="55" Value="A2" Duration="4" Instrument="Bass"
				Note Time="60" Value="D5" Duration="9" Instrument="BassDrum"
				Note Time="70" Value="G3" Duration="10" Instrument="Bass"
				Note Time="90" Value="G2" Duration="9" Instrument="Bass"
				Note Time="100" Value="D5" Duration="9" Instrument="BassDrum"
				Note Time="110" Value="G3" Duration="9" Instrument="Bass"
				Note Time="120" Value="F3" Duration="9" Instrument="Bass"
				Note Time="130" Value="E3" Duration="9" Instrument="Bass"
				Note Time="140" Value="D5" Duration="9" Instrument="BassDrum"
				Note Time="150" Value="F2" Duration="9" Instrument="Bass"
			Pattern Name="Chorus8"
				Note Time="0" Value="G2" Duration="8" Instrument="Bass"
				Note Time="10" Value="G2" Duration="8" Instrument="Bass"
				Note Time="20" Value="D5" Duration="10" Instrument="BassDrum"
				Note Time="30" Value="C3" Duration="5" Instrument="Bass"
				Note Time="35" Value="D3" Duration="5" Instrument="Bass"
				Note Time="40" Value="G3" Duration="10" Instrument="Bass"
				Note Time="50" Value="A3" Duration="10" Instrument="Bass"
				Note Time="60" Value="D5" Duration="10" Instrument="BassDrum"
				Note Time="70" Value="C4" Duration="4" Instrument="Bass"
				Note Time="74" Value="C4" Duration="2" Instrument="Bass" SlideTarget="D4"
				Note Time="76" Value="D4" Duration="14" Instrument="Bass"
				Note Time="90" Value="D2" Duration="9" Instrument="Bass"
				Note Time="100" Value="D5" Duration="9" Instrument="BassDrum"
				Note Time="110" Value="E3" Duration="9" Instrument="Bass"
				Note Time="120" Value="F3" Duration="9" Instrument="Bass"
				Note Time="130" Value="D4" Duration="9" Instrument="Bass"
				Note Time="140" Value="D5" Duration="9" Instrument="BassDrum"
				Note Time="150" Value="E2" Duration="9" Instrument="Bass"
			Pattern Name="Chorus9"
				Note Time="0" Value="A2" Duration="9" Instrument="Bass"
				Note Time="10" Value="C3" Duration="9" Instrument="Bass"
				Note Time="20" Value="D5" Duration="9" Instrument="BassDrum"
				Note Time="30" Value="G3" Duration="9" Instrument="Bass"
				Note Time="40" Value="A2" Duration="9" Instrument="Bass"
				Note Time="50" Value="A3" Duration="9" Instrument="Bass"
				Note Time="60" Value="D5" Duration="9" Instrument="BassDrum"
				Note Time="70" Value="C3" Duration="4" Instrument="Bass"
				Note Time="74" Value="C#3" Duration="1" Instrument="Bass"
				Note Time="75" Value="D3" Duration="15" Instrument="Bass"
				Note Time="90" Value="D2" Duration="9" Instrument="Bass"
				Note Time="100" Value="D5" Duration="9" Instrument="BassDrum"
				Note Time="110" Value="C3" Duration="4" Instrument="Bass"
				Note Time="115" Value="C3" Duration="4" Instrument="Bass"
				Note Time="120" Value="D3" Duration="9" Instrument="Bass"
				Note Time="130" Value="C4" Duration="9" Instrument="Bass"
				Note Time="140" Value="D5" Duration="9" Instrument="BassDrum"
				Note Time="150" Value="F3" Duration="13" Instrument="Bass"
			Pattern Name="Chorus10"
				Note Time="3" Value="F3" Duration="6" Instrument="Bass" SlideTarget="A2"
				Note Time="10" Value="F2" Duration="9" Instrument="Bass"
				Note Time="20" Value="D5" Duration="9" Instrument="BassDrum"
				Note Time="30" Value="G2" Duration="5" Instrument="Bass"
				Note Time="35" Value="A2" Duration="4" Instrument="Bass"
				Note Time="40" Value="C3" Duration="9" Instrument="Bass"
				Note Time="50" Value="F3" Duration="9" Instrument="Bass"
				Note Time="60" Value="D5" Duration="9" Instrument="BassDrum"
				Note Time="70" Value="G3" Duration="13" Instrument="Bass"
				Note Time="83" Value="G3" Duration="6" Instrument="Bass" SlideTarget="A2"
				Note Time="90" Value="C3" Duration="9" Instrument="Bass"
				Note Time="100" Value="D5" Duration="9" Instrument="BassDrum"
				Note Time="110" Value="G2" Duration="5" Instrument="Bass"
				Note Time="115" Value="C3" Duration="4" Instrument="Bass"
				Note Time="120" Value="C#3" Duration="9" Instrument="Bass"
				Note Time="130" Value="G3" Duration="4" Instrument="Bass"
				Note Time="134" Value="G3" Duration="3" Instrument="Bass" SlideTarget="A3"
				Note Time="137" Value="A3" Duration="2" Instrument="Bass"
				Note Time="140" Value="D5" Duration="9" Instrument="BassDrum"
				Note Time="150" Value="D4" Duration="10" Instrument="Bass"
			Pattern Name="Chorus11"
				Note Time="0" Value="B3" Duration="9" Instrument="Bass" SlideTarget="A#2"
				Note Time="10" Value="D3" Duration="9" Instrument="Bass"
				Note Time="20" Value="D5" Duration="9" Instrument="BassDrum"
				Note Time="30" Value="D3" Duration="10" Instrument="Bass"
				Note Time="50" Value="G2" Duration="4" Instrument="Bass"
				Note Time="55" Value="A2" Duration="4" Instrument="Bass"
				Note Time="60" Value="D5" Duration="9" Instrument="BassDrum"
				Note Time="70" Value="D3" Duration="10" Instrument="Bass"
				Note Time="90" Value="D3" Duration="9" Instrument="Bass"
				Note Time="100" Value="D5" Duration="9" Instrument="BassDrum"
				Note Time="110" Value="G3" Duration="9" Instrument="Bass"
				Note Time="120" Value="E3" Duration="9" Instrument="Bass"
				Note Time="130" Value="F3" Duration="9" Instrument="Bass"
				Note Time="140" Value="D5" Duration="9" Instrument="BassDrum"
				Note Time="150" Value="D3" Duration="9" Instrument="Bass"
			Pattern Name="Chorus12"
				Note Time="0" Value="F2" Duration="9" Instrument="Bass"
				Note Time="10" Value="F2" Duration="9" Instrument="Bass"
				Note Time="20" Value="D5" Duration="9" Instrument="BassDrum"
				Note Time="30" Value="C2" Duration="9" Instrument="Bass"
				Note Time="40" Value="F2" Duration="9" Instrument="Bass"
				Note Time="50" Value="G2" Duration="9" Instrument="Bass"
				Note Time="60" Value="D5" Duration="9" Instrument="BassDrum"
				Note Time="70" Value="A2" Duration="19" Instrument="Bass"
				Note Time="90" Value="C3" Duration="9" Instrument="Bass"
				Note Time="100" Value="D5" Duration="9" Instrument="BassDrum"
				Note Time="110" Value="G2" Duration="9" Instrument="Bass"
				Note Time="120" Value="A2" Duration="9" Instrument="Bass"
				Note Time="130" Value="A3" Duration="9" Instrument="Bass"
				Note Time="140" Value="B2" Duration="5" Instrument="Bass"
				Note Time="145" Value="D3" Duration="4" Instrument="Bass"
				Note Time="150" Value="E3" Duration="9" Instrument="Bass"
			Pattern Name="Chorus13"
				Note Time="0" Value="E3" Duration="9" Instrument="Bass"
				Note Time="10" Value="D4" Duration="9" Instrument="Bass"
				Note Time="20" Value="D5" Duration="9" Instrument="BassDrum"
				Note Time="30" Value="D3" Duration="10" Instrument="Bass"
				Note Time="40" Value="E3" Duration="10" Instrument="Bass"
				Note Time="50" Value="E2" Duration="4" Instrument="Bass"
				Note Time="55" Value="F2" Duration="4" Instrument="Bass"
				Note Time="60" Value="D5" Duration="9" Instrument="BassDrum"
				Note Time="70" Value="G3" Duration="13" Instrument="Bass"
				Note Time="83" Value="G3" Duration="7" Instrument="Bass" SlideTarget="G2"
				Note Time="90" Value="G2" Duration="9" Instrument="Bass"
				Note Time="100" Value="D5" Duration="9" Instrument="BassDrum"
				Note Time="110" Value="G3" Duration="9" Instrument="Bass"
				Note Time="120" Value="F3" Duration="9" Instrument="Bass"
				Note Time="130" Value="E3" Duration="9" Instrument="Bass"
				Note Time="140" Value="D5" Duration="9" Instrument="BassDrum"
				Note Time="150" Value="F2" Duration="9" Instrument="Bass"
			Pattern Name="Bridge1"
				Note Time="0" Value="D#3" Duration="9" Instrument="Bass"
				Note Time="10" Value="D#3" Duration="9" Instrument="Bass"
				Note Time="20" Value="D5" Duration="9" Instrument="BassDrum"
				Note Time="30" Value="A#2" Duration="9" Instrument="Bass"
				Note Time="40" Value="D#3" Duration="9" Instrument="Bass"
				Note Time="50" Value="D#3" Duration="9" Instrument="Bass"
				Note Time="60" Value="D5" Duration="9" Instrument="BassDrum"
				Note Time="70" Value="D#2" Duration="19" Instrument="Bass"
				Note Time="90" Value="D#3" Duration="9" Instrument="Bass"
				Note Time="100" Value="D5" Duration="9" Instrument="BassDrum"
				Note Time="110" Value="A#2" Duration="9" Instrument="Bass"
				Note Time="120" Value="D#3" Duration="9" Instrument="Bass"
				Note Time="130" Value="D#3" Duration="9" Instrument="Bass"
				Note Time="140" Value="D5" Duration="19" Instrument="BassDrum"
			Pattern Name="Bridge2"
				Note Time="0" Value="D3" Duration="9" Instrument="Bass"
				Note Time="10" Value="C3" Duration="9" Instrument="Bass"
				Note Time="20" Value="D5" Duration="9" Instrument="BassDrum"
				Note Time="30" Value="D2" Duration="19" Instrument="Bass"
				Note Time="50" Value="C3" Duration="9" Instrument="Bass"
				Note Time="60" Value="D5" Duration="9" Instrument="BassDrum"
				Note Time="70" Value="C#3" Duration="9" Instrument="Bass"
				Note Time="80" Value="D3" Duration="4" Instrument="Bass"
				Note Time="85" Value="C3" Duration="4" Instrument="Bass"
				Note Time="90" Value="D2" Duration="9" Instrument="Bass"
				Note Time="100" Value="D5" Duration="9" Instrument="BassDrum"
				Note Time="110" Value="D3" Duration="10" Instrument="Bass"
				Note Time="120" Value="D3" Duration="9" Instrument="Bass" VibratoSpeed="8" VibratoDepth="10"
				Note Time="130" Value="D3" Duration="15" Instrument="Bass" VibratoSpeed="0" VibratoDepth="0"
				Note Time="145" Value="D3" Duration="5" Instrument="Bass" SlideTarget="F#2"
				Note Time="150" Value="D#3" Duration="15" Instrument="Bass"
			Pattern Name="Bridge3"
				Note Time="5" Value="D#3" Duration="5" Instrument="Bass" SlideTarget="F#2"
				Note Time="10" Value="D#3" Duration="9" Instrument="Bass"
				Note Time="20" Value="D5" Duration="9" Instrument="BassDrum"
				Note Time="30" Value="A#2" Duration="9" Instrument="Bass"
				Note Time="40" Value="D#3" Duration="9" Instrument="Bass"
				Note Time="50" Value="D#3" Duration="9" Instrument="Bass"
				Note Time="60" Value="D5" Duration="9" Instrument="BassDrum"
				Note Time="70" Value="D#2" Duration="19" Instrument="Bass"
				Note Time="90" Value="D#3" Duration="9" Instrument="Bass"
				Note Time="100" Value="D5" Duration="9" Instrument="BassDrum"
				Note Time="110" Value="A#2" Duration="9" Instrument="Bass"
				Note Time="120" Value="D#3" Duration="9" Instrument="Bass"
				Note Time="130" Value="D#3" Duration="9" Instrument="Bass"
				Note Time="140" Value="D5" Duration="19" Instrument="BassDrum"
			Pattern Name="Bridge4"
				Note Time="0" Value="D3" Duration="9" Instrument="Bass"
				Note Time="10" Value="C3" Duration="9" Instrument="Bass"
				Note Time="20" Value="D5" Duration="9" Instrument="BassDrum"
				Note Time="30" Value="D2" Duration="19" Instrument="Bass"
				Note Time="50" Value="C3" Duration="9" Instrument="Bass"
				Note Time="60" Value="D5" Duration="9" Instrument="BassDrum"
				Note Time="70" Value="C#3" Duration="9" Instrument="Bass"
				Note Time="80" Value="D3" Duration="4" Instrument="Bass"
				Note Time="85" Value="C3" Duration="4" Instrument="Bass"
				Note Time="90" Value="D2" Duration="9" Instrument="Bass"
				Note Time="100" Value="D5" Duration="9" Instrument="BassDrum"
				Note Time="110" Value="D3" Duration="10" Instrument="Bass"
				Note Time="120" Value="D3" Duration="10" Instrument="Bass" VibratoSpeed="5" VibratoDepth="10"
				Note Time="130" Value="D3" Duration="9" Instrument="Bass" VibratoSpeed="0" VibratoDepth="0"
				Note Time="140" Value="C3" Duration="9" Instrument="Bass"
				Note Time="150" Value="A#2" Duration="14" Instrument="Bass"
			Pattern Name="Bridge5"
				Note Time="4" Value="A#2" Duration="6" Instrument="Bass" SlideTarget="D#2"
				Note Time="10" Value="A#2" Duration="4" Instrument="Bass"
				Note Time="15" Value="A#2" Duration="4" Instrument="Bass"
				Note Time="20" Value="D5" Duration="9" Instrument="BassDrum"
				Note Time="30" Value="A#2" Duration="9" Instrument="Bass"
				Note Time="40" Value="A3" Duration="9" Instrument="Bass"
				Note Time="50" Value="A#2" Duration="9" Instrument="Bass"
				Note Time="60" Value="D5" Duration="9" Instrument="BassDrum"
				Note Time="70" Value="E3" Duration="9" Instrument="Bass"
				Note Time="80" Value="E2" Duration="9" Instrument="Bass"
				Note Time="90" Value="D3" Duration="9" Instrument="Bass"
				Note Time="100" Value="D5" Duration="9" Instrument="BassDrum"
				Note Time="110" Value="D4" Duration="10" Instrument="Bass"
				Note Time="130" Value="G3" Duration="9" Instrument="Bass"
				Note Time="140" Value="D5" Duration="9" Instrument="BassDrum"
				Note Time="150" Value="A1" Duration="9" Instrument="Bass"
			Pattern Name="Bridge6"
				Note Time="0" Value="D3" Duration="3" Instrument="Bass"
				Note Time="5" Value="D3" Duration="3" Instrument="Bass"
				Note Time="10" Value="D3" Duration="9" Instrument="Bass"
				Note Time="20" Value="D5" Duration="9" Instrument="BassDrum"
				Note Time="30" Value="A2" Duration="9" Instrument="Bass"
				Note Time="40" Value="F3" Duration="9" Instrument="Bass"
				Note Time="50" Value="E3" Duration="9" Instrument="Bass"
				Note Time="60" Value="D5" Duration="9" Instrument="BassDrum"
				Note Time="70" Value="G1" Duration="19" Instrument="Bass"
				Note Time="90" Value="D3" Duration="9" Instrument="Bass"
				Note Time="100" Value="D5" Duration="9" Instrument="BassDrum"
				Note Time="110" Value="D4" Duration="9" Instrument="Bass"
				Note Time="120" Value="G3" Duration="9" Instrument="Bass"
				Note Time="130" Value="G2" Duration="9" Instrument="Bass"
				Note Time="140" Value="D5" Duration="9" Instrument="BassDrum"
				Note Time="150" Value="D4" Duration="9" Instrument="Bass"
			Pattern Name="Bridge7"
				Note Time="0" Value="A#1" Duration="9" Instrument="Bass"
				Note Time="10" Value="A#2" Duration="9" Instrument="Bass"
				Note Time="20" Value="D5" Duration="9" Instrument="BassDrum"
				Note Time="30" Value="F2" Duration="9" Instrument="Bass"
				Note Time="40" Value="F3" Duration="9" Instrument="Bass"
				Note Time="50" Value="C4" Duration="9" Instrument="Bass"
				Note Time="60" Value="D5" Duration="9" Instrument="BassDrum"
				Note Time="70" Value="A#2" Duration="9" Instrument="Bass"
				Note Time="80" Value="A#1" Duration="9" Instrument="Bass"
				Note Time="90" Value="A#2" Duration="9" Instrument="Bass"
				Note Time="100" Value="D5" Duration="9" Instrument="BassDrum"
				Note Time="110" Value="A3" Duration="9" Instrument="Bass"
				Note Time="120" Value="A#3" Duration="9" Instrument="Bass"
				Note Time="130" Value="D4" Duration="9" Instrument="Bass"
				Note Time="140" Value="D5" Duration="9" Instrument="BassDrum"
				Note Time="150" Value="D3" Duration="4" Instrument="Bass"
				Note Time="155" Value="D#3" Duration="4" Instrument="Bass"
			Pattern Name="Bridge8"
				Note Time="0" Value="E3" Duration="10" Instrument="Bass"
				Note Time="20" Value="E3" Duration="10" Instrument="Bass"
				Note Time="40" Value="E3" Duration="10" Instrument="Bass"
				Note Time="60" Value="E3" Duration="10" Instrument="Bass"
				Note Time="80" Value="A2" Duration="8" Instrument="Bass"
				Note Time="90" Value="A2" Duration="8" Instrument="Bass"
				Note Time="100" Value="A2" Duration="8" Instrument="Bass"
				Note Time="110" Value="A2" Duration="8" Instrument="Bass"
				Note Time="120" Value="A2" Duration="8" Instrument="Bass"
				Note Time="130" Value="A#2" Duration="5" Instrument="Bass"
				Note Time="135" Value="A2" Duration="5" Instrument="Bass"
				Note Time="140" Value="G2" Duration="5" Instrument="Bass"
				Note Time="145" Value="F2" Duration="5" Instrument="Bass"
				Note Time="150" Value="E2" Duration="5" Instrument="Bass"
				Note Time="155" Value="F2" Duration="5" Instrument="Bass"
			PatternInstance Time="0" Pattern="Intro1"
			PatternInstance Time="1" Pattern="Intro1"
			PatternInstance Time="2" Pattern="Intro1"
			PatternInstance Time="3" Pattern="Intro2"
			PatternInstance Time="4" Pattern="Intro3"
			PatternInstance Time="5" Pattern="Verse1"
			PatternInstance Time="6" Pattern="Verse2"
			PatternInstance Time="7" Pattern="Verse3"
			PatternInstance Time="8" Pattern="Verse4"
			PatternInstance Time="9" Pattern="Chorus1"
			PatternInstance Time="10" Pattern="Chorus2"
			PatternInstance Time="11" Pattern="Chorus3"
			PatternInstance Time="12" Pattern="Chorus4"
			PatternInstance Time="13" Pattern="Chorus1"
			PatternInstance Time="14" Pattern="Chorus5"
			PatternInstance Time="15" Pattern="Chorus6"
			PatternInstance Time="16" Pattern="Chorus7"
			PatternInstance Time="17" Pattern="Verse1"
			PatternInstance Time="18" Pattern="Verse2"
			PatternInstance Time="19" Pattern="Verse3"
			PatternInstance Time="20" Pattern="Verse4"
			PatternInstance Time="21" Pattern="Chorus8"
			PatternInstance Time="22" Pattern="Chorus9"
			PatternInstance Time="23" Pattern="Chorus10"
			PatternInstance Time="24" Pattern="Chorus11"
			PatternInstance Time="25" Pattern="Chorus1"
			PatternInstance Time="26" Pattern="Chorus5"
			PatternInstance Time="27" Pattern="Chorus12"
			PatternInstance Time="28" Pattern="Chorus13"
			PatternInstance Time="29" Pattern="Bridge1"
			PatternInstance Time="30" Pattern="Bridge2"
			PatternInstance Time="31" Pattern="Bridge3"
			PatternInstance Time="32" Pattern="Bridge4"
			PatternInstance Time="33" Pattern="Bridge5"
			PatternInstance Time="34" Pattern="Bridge6"
			PatternInstance Time="35" Pattern="Bridge7"
			PatternInstance Time="36" Pattern="Bridge8"
		Channel Type="Noise"
			Pattern Name="Intro1"
				Note Time="0" Value="G#2" Duration="20" Instrument="DrumLong"
				Note Time="20" Value="G#2" Duration="20" Instrument="DrumLong"
				Note Time="40" Value="G#2" Duration="20" Instrument="DrumLong"
				Note Time="60" Value="G#2" Duration="20" Instrument="DrumLong"
				Note Time="80" Value="G#2" Duration="20" Instrument="DrumLong"
				Note Time="100" Value="G#2" Duration="20" Instrument="DrumLong"
				Note Time="120" Value="G#2" Duration="20" Instrument="DrumLong"
				Note Time="140" Value="G#2" Duration="20" Instrument="DrumLong"
			Pattern Name="Intro2"
				Note Time="0" Value="G#2" Duration="20" Instrument="DrumLong"
				Note Time="20" Value="G#2" Duration="20" Instrument="DrumLong"
				Note Time="40" Value="G#2" Duration="20" Instrument="DrumLong"
				Note Time="60" Value="G#2" Duration="61" Instrument="DrumLong"
				Note Time="121" Value="A#3" Duration="5" Instrument="DrumShort" Volume="12"
				Note Time="126" Value="G#3" Duration="5" Instrument="DrumShort"
				Note Time="131" Value="G3" Duration="5" Instrument="DrumShort"
				Note Time="136" Value="F3" Duration="5" Instrument="DrumShort"
				Note Time="141" Value="D#3" Duration="5" Instrument="DrumShort"
				Note Time="146" Value="D3" Duration="5" Instrument="DrumShort"
				Note Time="151" Value="C3" Duration="5" Instrument="DrumShort"
				Note Time="156" Value="A#2" Duration="34" Instrument="DrumShort"
			Pattern Name="Intro3"
				Note Time="30" Value="G3" Duration="2" Instrument="DrumLong" Volume="15"
				Note Time="33" Value="G3" Duration="2" Instrument="DrumLong"
				Note Time="36" Value="G3" Duration="4" Instrument="DrumLong"
				Note Time="40" Value="D3" Duration="5" Instrument="DrumLong"
				Note Time="45" Value="G#2" Duration="5" Instrument="DrumLong" Volume="8"
				Note Time="50" Value="C3" Duration="5" Instrument="DrumLong" Volume="15"
				Note Time="55" Value="C3" Duration="5" Instrument="DrumLong"
				Note Time="60" Value="F3" Duration="5" Instrument="DrumLong" Volume="8"
				Note Time="65" Value="F3" Duration="5" Instrument="DrumLong" Volume="15"
				Note Time="70" Value="A#2" Duration="5" Instrument="DrumLong"
				Note Time="75" Value="A#2" Duration="5" Instrument="DrumLong"
			Pattern Name="Drum1"
				Note Time="0" Value="G#2" Duration="21" Instrument="DrumLong"
				Note Time="21" Value="E3" Duration="9" Instrument="DrumSnare"
				Note Time="30" Value="G#3" Duration="11" Instrument="DrumLong"
				Note Time="41" Value="G#2" Duration="9" Instrument="DrumShort"
				Note Time="50" Value="G#2" Duration="11" Instrument="DrumLong"
				Note Time="61" Value="E3" Duration="9" Instrument="DrumSnare"
				Note Time="70" Value="A3" Duration="5" Instrument="DrumLong"
				Note Time="75" Value="A3" Duration="5" Instrument="DrumLong"
				Note Time="80" Value="G#2" Duration="10" Instrument="DrumLong"
				Note Time="90" Value="A3" Duration="5" Instrument="DrumLong"
				Note Time="95" Value="A3" Duration="6" Instrument="DrumLong"
				Note Time="101" Value="E3" Duration="9" Instrument="DrumSnare"
				Note Time="110" Value="A3" Duration="5" Instrument="DrumLong"
				Note Time="115" Value="A3" Duration="6" Instrument="DrumLong"
				Note Time="121" Value="G#2" Duration="9" Instrument="DrumShort"
				Note Time="130" Value="G#2" Duration="11" Instrument="DrumLong"
				Note Time="141" Value="E3" Duration="9" Instrument="DrumSnare"
				Note Time="150" Value="G#2" Duration="31" Instrument="DrumLong"
			Pattern Name="Drum2"
				Note Time="21" Value="E3" Duration="9" Instrument="DrumSnare"
				Note Time="30" Value="G#3" Duration="11" Instrument="DrumLong"
				Note Time="41" Value="G#2" Duration="9" Instrument="DrumShort"
				Note Time="50" Value="G#2" Duration="11" Instrument="DrumLong"
				Note Time="61" Value="E3" Duration="9" Instrument="DrumSnare"
				Note Time="70" Value="A3" Duration="5" Instrument="DrumLong"
				Note Time="75" Value="A3" Duration="5" Instrument="DrumLong"
				Note Time="80" Value="G#2" Duration="10" Instrument="DrumLong"
				Note Time="90" Value="A3" Duration="5" Instrument="DrumLong"
				Note Time="95" Value="A3" Duration="6" Instrument="DrumLong"
				Note Time="101" Value="E3" Duration="9" Instrument="DrumSnare"
				Note Time="110" Value="A3" Duration="5" Instrument="DrumLong"
				Note Time="115" Value="A3" Duration="6" Instrument="DrumLong"
				Note Time="121" Value="G#2" Duration="9" Instrument="DrumShort"
				Note Time="130" Value="G#2" Duration="11" Instrument="DrumLong"
				Note Time="141" Value="E3" Duration="9" Instrument="DrumSnare"
				Note Time="150" Value="G#2" Duration="20" Instrument="DrumLong"
			Pattern Name="Drum3"
				Note Time="10" Value="G#2" Duration="11" Instrument="DrumLong"
				Note Time="21" Value="E3" Duration="9" Instrument="DrumSnare"
				Note Time="30" Value="G#3" Duration="11" Instrument="DrumLong"
				Note Time="41" Value="G#2" Duration="9" Instrument="DrumShort"
				Note Time="50" Value="G#2" Duration="11" Instrument="DrumLong"
				Note Time="61" Value="E3" Duration="9" Instrument="DrumSnare"
				Note Time="70" Value="A3" Duration="5" Instrument="DrumLong"
				Note Time="75" Value="A3" Duration="5" Instrument="DrumLong"
				Note Time="80" Value="G#2" Duration="10" Instrument="DrumLong"
				Note Time="90" Value="A3" Duration="5" Instrument="DrumLong"
				Note Time="95" Value="A3" Duration="6" Instrument="DrumLong"
				Note Time="101" Value="E3" Duration="9" Instrument="DrumSnare"
				Note Time="110" Value="A3" Duration="5" Instrument="DrumLong"
				Note Time="115" Value="A3" Duration="6" Instrument="DrumLong"
				Note Time="121" Value="G#2" Duration="9" Instrument="DrumShort"
				Note Time="130" Value="G#2" Duration="11" Instrument="DrumLong"
				Note Time="141" Value="E3" Duration="9" Instrument="DrumSnare"
				Note Time="150" Value="G#2" Duration="31" Instrument="DrumLong"
			Pattern Name="Drum4"
				Note Time="21" Value="E3" Duration="9" Instrument="DrumSnare"
				Note Time="30" Value="G#3" Duration="11" Instrument="DrumLong"
				Note Time="41" Value="G#2" Duration="9" Instrument="DrumShort"
				Note Time="50" Value="G#2" Duration="11" Instrument="DrumLong"
				Note Time="61" Value="E3" Duration="9" Instrument="DrumSnare"
				Note Time="70" Value="A3" Duration="5" Instrument="DrumLong"
				Note Time="75" Value="A3" Duration="5" Instrument="DrumLong"
				Note Time="80" Value="A2" Duration="10" Instrument="DrumLong"
				Note Time="90" Value="A3" Duration="5" Instrument="DrumLong"
				Note Time="95" Value="A3" Duration="6" Instrument="DrumLong"
				Note Time="101" Value="E3" Duration="9" Instrument="DrumSnare"
				Note Time="110" Value="A3" Duration="5" Instrument="DrumLong"
				Note Time="115" Value="A3" Duration="6" Instrument="DrumLong"
				Note Time="121" Value="G#2" Duration="10" Instrument="DrumShort"
				Note Time="131" Value="E3" Duration="20" Instrument="DrumSnare"
				Note Time="151" Value="E3" Duration="19" Instrument="DrumSnare"
			Pattern Name="Drum5"
				Note Time="10" Value="G#2" Duration="11" Instrument="DrumLong"
				Note Time="21" Value="E3" Duration="9" Instrument="DrumSnare"
				Note Time="30" Value="G#3" Duration="11" Instrument="DrumLong"
				Note Time="41" Value="G#2" Duration="9" Instrument="DrumShort"
				Note Time="50" Value="G#2" Duration="11" Instrument="DrumLong"
				Note Time="61" Value="E3" Duration="9" Instrument="DrumSnare"
				Note Time="70" Value="A3" Duration="5" Instrument="DrumLong"
				Note Time="75" Value="A3" Duration="5" Instrument="DrumLong"
				Note Time="80" Value="G#2" Duration="10" Instrument="DrumLong"
				Note Time="90" Value="A3" Duration="5" Instrument="DrumLong"
				Note Time="95" Value="A3" Duration="6" Instrument="DrumLong"
				Note Time="101" Value="E3" Duration="9" Instrument="DrumSnare"
				Note Time="110" Value="A3" Duration="5" Instrument="DrumLong"
				Note Time="115" Value="A3" Duration="6" Instrument="DrumLong"
				Note Time="121" Value="G#2" Duration="9" Instrument="DrumShort"
				Note Time="130" Value="G#2" Duration="11" Instrument="DrumLong"
				Note Time="141" Value="E3" Duration="9" Instrument="DrumSnare"
				Note Time="150" Value="G#2" Duration="10" Instrument="DrumLong"
			Pattern Name="Drum6"
				Note Time="0" Value="G#2" Duration="20" Instrument="DrumLong"
				Note Time="20" Value="G#2" Duration="20" Instrument="DrumLong"
				Note Time="40" Value="G#2" Duration="20" Instrument="DrumLong"
				Note Time="60" Value="G#2" Duration="20" Instrument="DrumLong"
				Note Time="80" Value="G#2" Duration="20" Instrument="DrumLong"
				Note Time="100" Value="G#2" Duration="20" Instrument="DrumLong"
				Note Time="120" Value="F3" Duration="5" Instrument="DrumLong"
				Note Time="125" Value="F3" Duration="5" Instrument="DrumLong"
				Note Time="130" Value="D#3" Duration="5" Instrument="DrumLong"
				Note Time="135" Value="D#3" Duration="5" Instrument="DrumLong"
				Note Time="140" Value="C3" Duration="5" Instrument="DrumLong"
				Note Time="145" Value="C3" Duration="5" Instrument="DrumLong"
				Note Time="150" Value="A#2" Duration="5" Instrument="DrumLong"
				Note Time="155" Value="A#2" Duration="5" Instrument="DrumLong"
			PatternInstance Time="0" Pattern="Intro1"
			PatternInstance Time="1" Pattern="Intro1"
			PatternInstance Time="2" Pattern="Intro1"
			PatternInstance Time="3" Pattern="Intro2"
			PatternInstance Time="4" Pattern="Intro3"
			PatternInstance Time="5" Pattern="Drum1"
			PatternInstance Time="6" Pattern="Drum2"
			PatternInstance Time="7" Pattern="Drum3"
			PatternInstance Time="8" Pattern="Drum2"
			PatternInstance Time="9" Pattern="Drum1"
			PatternInstance Time="10" Pattern="Drum2"
			PatternInstance Time="11" Pattern="Drum3"
			PatternInstance Time="12" Pattern="Drum2"
			PatternInstance Time="13" Pattern="Drum1"
			PatternInstance Time="14" Pattern="Drum2"
			PatternInstance Time="15" Pattern="Drum3"
			PatternInstance Time="16" Pattern="Drum2"
			PatternInstance Time="17" Pattern="Drum1"
			PatternInstance Time="18" Pattern="Drum2"
			PatternInstance Time="19" Pattern="Drum3"
			PatternInstance Time="20" Pattern="Drum2"
			PatternInstance Time="21" Pattern="Drum1"
			PatternInstance Time="22" Pattern="Drum2"
			PatternInstance Time="23" Pattern="Drum3"
			PatternInstance Time="24" Pattern="Drum2"
			PatternInstance Time="25" Pattern="Drum1"
			PatternInstance Time="26" Pattern="Drum2"
			PatternInstance Time="27" Pattern="Drum3"
			PatternInstance Time="28" Pattern="Drum2"
			PatternInstance Time="29" Pattern="Drum1"
			PatternInstance Time="30" Pattern="Drum4"
			PatternInstance Time="31" Pattern="Drum3"
			PatternInstance Time="32" Pattern="Drum4"
			PatternInstance Time="33" Pattern="Drum1"
			PatternInstance Time="34" Pattern="Drum4"
			PatternInstance Time="35" Pattern="Drum5"
			PatternInstance Time="36" Pattern="Drum6"
		Channel Type="DPCM"
