Project Version="3.1.1" TempoMode="FamiStudio" Name="silius"
	DPCMSample Name="Sample 1" Data="dd201adadff002fffeaf00000000ffff50a00ffff2f005fd20af5d0ff000efefff001a20ff000aff2fea00000000ffffa5505fffee001ffe00ff52fd0005ffffff0002a0ff000ff01ff10000000ffffd0a00ffffef001ff501fd50ff000dfffff0202a50ff000ffa0ef00000000ffffd1502ffffde002ff10ded20ff000ffffff000aa10ff000ffa0ff0000000ffffa1220dffffaa00dfd02eed11ff000ffffff1000502ff002ff12f50000000ffffd0511affffd002efa15aed0efd000ffffff000121af500efd1ad20000000fffff1105effff2105dd515daa5de500afffffd000025ed102feaad220000005ffffd102affffd102add2aada5aed202deffffa00022aea22aedaad21000000dffff51055fffea502adaaaad55daa505aeffff210022ad512dad5aa50000002ffffd5111afffd522555aaad55ada5252ddfffa501022d52555aadaa2100000aefffd2515afeeeaa2aaaaaad55ada5255aeffed2210255252d5aada510100015efeeea52adeeeea52aaaaaad55ad52555afefda511052525555aad522201002dddeed552daeeed5552aaaaad5aad5255addefad225112525555aad511100105aeeedd555adddaad552aaaaad5ad5525aaeeefaa522522525555aaaa51010112daeedaad5daddaaaaaaaaaad55aad2aaadaefad5252522525555aaa522210125adaedaadadaed5aaaaaaaaad55aaaaaaadddaeaaa52522525555aaa51110222adadad5adaedad5aaaaaaaaad5aaaaaaadadddaaa52551252a5555552250222555adad5addadad5aaaaaaaaad5aaaaaaadaedada552525252a5555525222122aaad5ad5aedadad5aaaaaaaad55aaaaaaadaedad552a525252a55555251111252ad55adadadadad5aaaaaaad555aaaaaadadadad52a5525252aa5552522511255555aadadaedaad5aaaaaaad55aaaaaaadadadaaaaa52a5252aa555251222525555aaadaddadaad5aaaaaad555aaaaaad5adadaaaa55255252aa55252512252aaaaaadadadadaad5aaaaaad555aaaaaadadaadaaa552a52a52aa55252251252aaaaad5adadadaad5aaaaad555aaaaaad5adaad555552a52a52aa52a25225252aaaaadaaddaadad55aaaaad555aaaaaad5adaad55552a552552a5525251252552aaad5adadad5ad55aaaaad555aaaaad5aadaad55552a52a552a552512512a5552ad5aadadadaad55aaaad5555aaaaad5ad5aad5552a552a552a525252252a5555555adadaadaad55aaaad555aaaaaad5ad5aad552aa552552a5525225252a555555aadadad5aad5aaaaad555aaaaad5aad5aaaaaaa552a552a5252525252a555555adad5adaad55aaaad555aaaaaad5aadaaaaaaa5552a552a5252522552a55555aadadaadaad55aaaad555aaaaad55ad5aaaaaaa552a552a52a512525525aa55a555a55aa"
	DPCMSample Name="Sample 2" Data="aed00adaff000fff2ff20001000ffff1110dfff1f005fd00fea2ff000dfffff000a50ff000ff2fd20000000ffff1120afffff001ff10df2afd000dfffff000d50ff000ff50fe0000000fffd21501ffffd002ffa0afaa0ff002fffff050550f5000fff0af0000000ffff21501ffffda00efa05faa0ff000ffffff000d00ff005ff02f5000000efff50501effffa00afe11eea1dfd002fffff500050af500ff25ea0000000ffff5110dffffa00afe22dda55fd001fffffd00010afa00ff52d51000000ffff50215ffffa102ef255da55ee101efffff00010afa01ded2d510000002ffffa105efffe211adaa5ad55dd202deffff200112ed10ddaad520000005ffff5022dfffd510ad55aad55daa115dffff2100255a515adaad21000001efffd2115effed112d555ad55ae522adefffa210115a515ad5ad22000002efffaa252efeee5255555aad5ad5252ddeffd2221125525aad5aa2100002afefda525aefdd52aa555aaadad52555afefd5222252525aaadaa22100015afddd52adaeeeaaaaa55aaaadad2a55aefeed25112512aaaad5551010012aeeeeaaadaeddaaaaaaaaaaadaaaa55aeeefaa51251252aaaad5251010115aeddaaadaddad5aaaaaaaaadaaaaa5addddd552252522aaaaad25110102aaddad5adaddad55aaaaaaaad5aaaaaadddaeaaa5251252aaaaaa5211012555adadadadadad55aaaaaaad5aaaaaadaeedaa552525252aaaaa52221112aaadad5addadad555aaaaaad55aaaaadaddad55525252552aaaa522222252ad5aadadaedaad55aaaaaaad5aaaaaaddaead5525525252aaaa522502515555aadadadadad55aaaaaaad5aaaaaadaedaad2aa5252552aaa525111125555aad5aedadaad55aaaaaad55aaaaadadadaaaa552552552aa525112252a5aaaadaddad5ad555aaaaad55aaaaadadadaaaa552a52552aa525222512aaaaaadadadadaad55aaaaad55aaaaadadad5aaa552a52a552a5252225252aaaaadadadadaad55aaaaad555aaaad5adad555552a52a552a52522512552aaad5adadad5aad55aaaad555aaaad5adad555552a552552a5512512525552ad5adadaadaad55aaaaad55aaaad5ad5ad55552a552a5525522522525555555adad5adaad55aaaaad55aaaaadaadaad5552a552a552a52512252a555555aadadad5aad55aaaad55aaaaadaadaaad552a552a552a525125252a55555aadadad5aad55aaaad55aaaaad5ad5aaaaaaa552a552a525225252a55555aadadad5aad55aaaad555aaaad5ad5aaaaaaa552a552a5252512552a5555ad5adaadaad555aaad555aaaad5aad5aaaaaa552aa5525252522a52aa55aad5adaadaaad55aaad555aaaad5aad5aaaaaa552aa5525252525252aaaaaad5adaad5aad55aaad555aaaa"
	DPCMSample Name="Sample 3" Data="dd500a5f0fff002fff0ff00000000fffff50500ffff1d010dfd205f5d1fe0002ffefff010a1d0ff0002ff2f5f00000000fffff02d00ffffaf001ffa00ff2e0ff000dffffff0000520ff000ff02ffa00001000fffff0d00ffffeaf001fe502fd52fa0a00ffffff0500550fa010affa0ff00000000fffff22d00ffffee500afe10ded50ff0005ffffff0001520ff000eff02fe00000000fffff5510affffda002ff502eed21ff2005ffffff0000500ff100ffe0af200000002fffff5212dffffa2015ef215dad15fd000efffffe000050afd005ff22ea50000000dffffd1112ffffe5101afa52adaa5de5005dfffff1000222ee501dfa55a510000002fffff51115fffee5012dd52ad5a5aed210aeffffe2001115d5215aed5aa50000002afffff1112deffed2115aaaaada5adaa5115dffff5010105ad251adaada520001005dfffea5115affeea512aaaaad555adaa252afeffd5102112aa52aadaad522100010aefffda512aeefed5252aaaaad55adaa5252ddeffaa221112a52aad55ad521100011aefefad2555ddddaaa552aaaad55ad552555aefeed5111125252aad5aad250210012ddeeeeaa55daeedaa55552aad555ad55255addeeeaa251125252aaad5aa52210102aaeeeedaaaaddaed5555552ad555aad52a5aaeeeed55225125252aaad5a5511011055addaed55adaedad555555555555aad52aaadaeeeaaa522525252aad555522221052adadadadadadadaad5555555555aaad2aaaadddadaa52525252552ad555251110252d5adadadadadadaaad555555555aaaaaaaadaddada552525252552ad552a22222525aadad5adaddad5aaad555555555aaaaaaaadaedad552a5252525555552a51222252aad5ad5adaedad5aaad55555555aaaaaaaadadadaad2a52a5252555552a525111255555aadadadadad5aaad55555555aaaaaaaadadadaaaa55252a5255552a551225125555aad5adadadad5aaad55555555aaaaaaad5adadaaa552a5255255552a52512252a55aaad5adaedaad5aaad5555555aaaaaaaadadaad5555525525525552a525251252aaaaad5adadadad5aaaad5555555aaaaaaad5adad555552a52a52a5552a525125252aaaad55adadadad5aaaad555555aaaaaaad5aadad55552a552552a55525252522a552aad55adadad5ad5aaaad555555aaaaaaad5ad5aad552aa52a552a552a5252252a5555555aadadadaad5aaaad55555aaaaaaad5aad5aaaaaaa552a552a5525252525255555555adadaadad55aaaad55555aaaaaaad5aadaaaaaaa552a552a552a52525252a555555aadadad5ad55aaaad5555aaaaaaad55ad5aaaaaaa552a552a55255125252aa55555aadad5adaad5aaaad55555aaaaaaad5aad5aaaaaa552a552aa52a52525252aa5555aad5adad5ad55aa5aa5a5"
	DPCMSample Name="Sample 4" Data="dd500a5e50ff00ffff20ff020000000fffffd0e00fafff2f000ffa10af5d1ef0000fffffff00010e0ff0001ff15fe012000000ffffff0a502ffff2f010efea00ff5a0ff0005ffefff10015250ff000affa0df200005000fffff50e00fffff2f000ffa10df5a1fa2001fffdfff00012a0fa2005fff00ff00000200fffffa1a20affffdaa005fe501fd550ff0002fffffff0000220ff000dffa0df200001000fffffd1502effffaa100ffa10deda11ff2002ffffffa0000a01ff100eff02fd100000001fffffa5215dfffea5005ef505aed22efd000effffff0000121afa00affa2ae510000000fffffe5105affffd2102afa52adad1aee5005dfffff50000225ee211afd5555210000012fffffa502adfffea5022dd552d5aa5dd5102aefffff1000112daa50aeeaad5510000011dffffd2222ddffeea2225ad5555aaaaed2225adfffed1001112da5155adaad5210000112ffffed2225afefed5112aaaaad5a5adaa522addeffd5210111555255ad5aad250100011afffeea5252eefddaa25552aad555aada52555aefefaa222112552555aadaaa511001015afefdd5525addddd552a5552d5555ad5552555ddeeed2511112a5255aaadaaa22210102aeefddad2aadaeedad2aa555555555ad552a55aeeeeea525112525255aaad5a511101025adddddaaaadaddadaaaaa55555555aad552a5adaefad5512252522a55aaad55222211052daeedadaadadadad5aaa555555555ad552aaaaedddaaaa51252512aaaaaad52512110525addadadaadaedad5555555555555aad52aaaadaedd5aa5252522552aaaaad2a25102252adadadadadadadad555555555555aaaaaaaaadadaed555252a512552aaaaaaa5122222555adaadadadadd5ad555555555555aaaaaaaaadaddaad52a525252552aaaaaa52251122aaad5ad5adaedadaad55555555555aaaaaaaaad5aedaaaaa5525252552aaaaa5252225252ad5aadadadadadaad55555555555aaaaaaaaadadadaaaa55255252552aaaa5522512525555aad5adadadadaad5555555555aaaaaaaaad5adad5aa552a52a52552aaa552522512a555aad5aaddadad5aad5555555555aaaaaaaad5ad5ad55552a552552552aaa525251252aaaaaad5adadadad5aad555555555aaaaaaaaad5adaad55552a52a52a552aa5525125252aaaaad5ad5dad5adaaad55555555aaaaaaaaad5aadaad552aa552552a552a55252522a52aaad55aadadadad5aaad55555555aaaaaaaad55ad5aaad2aa552a52a5552a52a51252555555555adadaadad5aaad5555555aaaaaaaaad5aad5aaaaaa552a552a552a55252525255555555aadadadaad5aaad5555555aaaaaaaad55ad5aaaaaa5552a552a552a5252525525555555aadadaadad5aaaad"
	DPCMSample Name="Sample 5" Data="add00adaff001ff2fff0000000fffd0500ffffd002ff00fda0ff005fffff001510ff00df50fa0000000fffa2502fffff00dfa05fa5fd000ffffff000a0ff00f5f0f50000000fff50500effffe00fe50dea2ff000fffff050a50ff00fa02ef1000000fffa1500ffffed00fe10fea1ff000fffff010d20ef00aff0df0000000fffa1205ffffd005fe05ee51ff000fffff010d10ff00afd0ed000000dfff0110affffd00afd0aee52ff001fffff200222fd00ff25aa000000fdff2102dffff201dea2dad2df500afffff100115f202fe5aa50000002fffe102effff102dd555ad5af202dfffff00011ae215ed5aa2000000efffa205dfffd105ad55aad5da505affffd00105ad12aeada51000000fffea212efffa512aad5aaadd522adefffa21012aa52d5ad522000005effea225efeed252aad5aadad5252defff511015252ad5ad52100000afefd5255ddeeaa555555aadad2555affeea22225252ad5aaa50100015eefaaa5aeeedaa555555aadad2555ddfdd522225252ad5aaa2201002aeeedaaadaeed5555555aaadaaa55adefdaa52252252ad5aa511001055daed55addaead555555aaadaaa55aeefad5252522552d55551010112adaeadadaddaad555555aad5aaa5adaefad52525225555555222101155adaadadaedaad55555aaad5aaa5adddaeaaa52522a55555251102125aad5adaddadaaad5555aaad5aaaaadddadaa52a525255552a51101252ad55adaddadaaad555aaaad5aaaaaeddad5552a525255552522221255555aadaedadaaad555aaad55aaaadaddad5552525525552a512111255555aaddadadaaad555aaad55aaaadaedad552a52552555252511112a555aadadadadaaad555aaad55aaaaddadaaaaa552552555252225112aaaaaadadadadaad5555aaad55aaadadadaaaaa55252a552a512225152aaaad5aedaadaad555aaad555aaadadadaaaa552a52a5525251225152aaaadadadad5aad555aaad555aaadadad5aa5552552a5525225122a552aad5adadad5aad555aaad55aaad5adad555552a552a52a5122512a552aadaadadad5aad55aaaad55aaadad5ad555552a55255252512252a5552d5adadaad5aad55aaad555aaadadaad55552a552a55252512252a555555adadaadaaad55aaad55aaad5adaad55552a552a55251251252a55555adaadad5aad555aad555aaad5adaaad552aa552a52525225252a5555aadad5ad5aad55aaad555aaadaadaaad52aa552a552525125252a5555ad5adaad5aad55aaad55aaad5ad5aaaaaaa5552a52a512522552a555aadad5ad5aaad5aaad555aaad5ad5aaaaaaa552a5525252252552a55aad5adaad5aad55aaad55aaaadaad5aaaaaa5552a5525225252552aaaaadaadaad5aad55aaad55aaad5aad5aaaaa5552aa5252525255a55a5"
	DPCMMapping Note="D#2" Sample="Sample 2" Pitch="8" Loop="False"
	DPCMMapping Note="F2" Sample="Sample 1" Pitch="9" Loop="False"
	DPCMMapping Note="G2" Sample="Sample 1" Pitch="10" Loop="False"
	DPCMMapping Note="G#2" Sample="Sample 2" Pitch="10" Loop="False"
	DPCMMapping Note="A2" Sample="Sample 5" Pitch="10" Loop="False"
	DPCMMapping Note="A#2" Sample="Sample 4" Pitch="12" Loop="False"
	DPCMMapping Note="C3" Sample="Sample 1" Pitch="12" Loop="False"
	DPCMMapping Note="D#3" Sample="Sample 3" Pitch="13" Loop="False"
	DPCMMapping Note="F3" Sample="Sample 2" Pitch="13" Loop="False"
	DPCMMapping Note="F#3" Sample="Sample 3" Pitch="14" Loop="False"
	DPCMMapping Note="G3" Sample="Sample 1" Pitch="14" Loop="False"
	DPCMMapping Note="G#3" Sample="Sample 2" Pitch="14" Loop="False"
	DPCMMapping Note="A3" Sample="Sample 5" Pitch="14" Loop="False"
	DPCMMapping Note="A#3" Sample="Sample 4" Pitch="15" Loop="False"
	DPCMMapping Note="C4" Sample="Sample 1" Pitch="15" Loop="False"
	Instrument Name="JTS  TriTomPlain"
	Instrument Name="JTS LeadDuty0Buzz"
		Envelope Type="Volume" Length="11" Loop="4" Release="5" Values="14,11,10,9,9,1,5,4,3,2,1"
		Envelope Type="Pitch" Length="18" Loop="8" Values="0,0,0,0,0,0,0,0,1,3,6,3,1,-1,-3,-6,-3,-1"
	Instrument Name="JTS LeadDuty0Main"
		Envelope Type="Volume" Length="70" Loop="63" Release="64" Values="4,6,9,8,8,8,8,8,8,8,8,8,8,8,8,8,8,8,7,7,7,7,7,7,7,7,7,7,7,7,7,7,7,6,6,6,6,6,6,6,6,6,6,6,6,6,6,6,5,5,5,5,5,5,5,5,5,5,5,5,5,5,5,4,1,5,4,3,2,1"
		Envelope Type="Pitch" Length="18" Loop="8" Values="0,0,0,0,0,0,0,0,1,3,6,3,1,-1,-3,-6,-3,-1"
	Instrument Name="JTS LeadDuty0Outro"
		Envelope Type="Volume" Length="4" Values="5,9,9,8"
	Instrument Name="JTS LeadDuty0Plain"
		Envelope Type="Volume" Length="1" Values="4"
	Instrument Name="JTS LeadDuty1Main"
		Envelope Type="Volume" Length="70" Loop="63" Release="64" Values="4,6,9,8,8,8,8,8,8,8,8,8,8,8,8,8,8,8,7,7,7,7,7,7,7,7,7,7,7,7,7,7,7,6,6,6,6,6,6,6,6,6,6,6,6,6,6,6,5,5,5,5,5,5,5,5,5,5,5,5,5,5,5,4,1,5,4,3,2,1"
		Envelope Type="Pitch" Length="18" Loop="8" Values="0,0,0,0,0,0,0,0,1,3,6,3,1,-1,-3,-6,-3,-1"
		Envelope Type="DutyCycle" Length="1" Values="1"
	Instrument Name="JTS LeadDuty1Plain"
		Envelope Type="Volume" Length="1" Values="3"
		Envelope Type="DutyCycle" Length="1" Values="1"
	Instrument Name="JTS LeadDuty2Main"
		Envelope Type="Volume" Length="17" Loop="10" Release="11" Values="5,6,6,10,11,12,11,10,9,8,7,1,5,4,3,2,1"
		Envelope Type="Pitch" Length="18" Loop="8" Values="0,0,0,0,0,0,0,0,1,3,6,3,1,-1,-3,-6,-3,-1"
		Envelope Type="DutyCycle" Length="1" Values="2"
	Instrument Name="JTS LeadDuty2Plain"
		Envelope Type="Volume" Length="1" Values="4"
		Envelope Type="DutyCycle" Length="1" Values="2"
	Instrument Name="JTS NoiseTom1"
		Envelope Type="Volume" Length="6" Values="12,12,9,5,2,0"
		Envelope Type="Arpeggio" Length="2" Values="0,3"
	Instrument Name="JTS NoiseTom2"
		Envelope Type="Volume" Length="11" Values="13,14,12,8,9,7,6,4,3,1,0"
		Envelope Type="Arpeggio" Length="2" Values="0,6"
	Instrument Name="JTS NoiseTom3"
		Envelope Type="Volume" Length="6" Values="12,12,9,5,2,0"
		Envelope Type="Arpeggio" Length="2" Values="0,6"
	Instrument Name="JTS TriTomArp"
		Envelope Type="Arpeggio" Length="10" Values="0,-1,-2,-3,-4,-5,-6,-7,-8,-9"
	Song Name="Title Screen" Length="30" LoopPoint="1" PatternLength="32" BeatLength="4" NoteLength="5" Groove="5" GroovePaddingMode="Middle"
		PatternCustomSettings Time="0" Length="8" NoteLength="5" Groove="5" GroovePaddingMode="Middle" BeatLength="4"
		Channel Type="Square1"
			Pattern Name="Intro1"
				Note Time="0" Value="Stop"
				Note Time="20" Value="C3" Duration="10" Instrument="JTS LeadDuty1Plain"
				Note Time="30" Value="D#3" Duration="10" Instrument="JTS LeadDuty1Plain"
				Note Time="40" Value="C3" Duration="10" Instrument="JTS LeadDuty1Plain"
				Note Time="50" Value="F3" Duration="1" Instrument="JTS LeadDuty1Plain"
				Note Time="51" Value="F#3" Duration="2" Instrument="JTS LeadDuty1Plain"
				Note Time="53" Value="G3" Duration="17" Instrument="JTS LeadDuty1Plain"
				Note Time="70" Value="F3" Duration="10" Instrument="JTS LeadDuty1Plain"
				Note Time="80" Value="G2" Duration="30" Release="25" Instrument="JTS LeadDuty0Main"
				Note Time="110" Value="A2" Duration="50" Release="45" Instrument="JTS LeadDuty0Main"
			Pattern Name="Intro2"
				Note Time="20" Value="C3" Duration="10" Instrument="JTS LeadDuty1Plain"
				Note Time="30" Value="D#3" Duration="10" Instrument="JTS LeadDuty1Plain"
				Note Time="40" Value="C3" Duration="10" Instrument="JTS LeadDuty1Plain"
				Note Time="50" Value="F3" Duration="1" Instrument="JTS LeadDuty1Plain"
				Note Time="51" Value="F#3" Duration="2" Instrument="JTS LeadDuty1Plain"
				Note Time="53" Value="G3" Duration="17" Instrument="JTS LeadDuty1Plain"
				Note Time="70" Value="F3" Duration="10" Instrument="JTS LeadDuty1Plain"
				Note Time="80" Value="G3" Duration="30" Release="25" Instrument="JTS LeadDuty0Main"
				Note Time="110" Value="F3" Duration="70" Release="45" Instrument="JTS LeadDuty0Main"
			Pattern Name="PreChorus1"
				Note Time="20" Value="A#2" Duration="20" Release="10" Instrument="JTS LeadDuty0Main"
				Note Time="40" Value="A2" Duration="10" Release="5" Instrument="JTS LeadDuty0Main"
				Note Time="50" Value="A#2" Duration="20" Release="10" Instrument="JTS LeadDuty0Main"
				Note Time="70" Value="A#2" Duration="30" Release="20" Instrument="JTS LeadDuty0Main"
				Note Time="100" Value="A2" Duration="20" Release="10" Instrument="JTS LeadDuty0Main"
				Note Time="120" Value="A2" Duration="10" Release="5" Instrument="JTS LeadDuty0Main"
				Note Time="130" Value="A#2" Duration="50" Release="5" Instrument="JTS LeadDuty0Main"
			Pattern Name="PreChorus2"
				Note Time="20" Value="A#2" Duration="20" Release="10" Instrument="JTS LeadDuty0Main"
				Note Time="40" Value="A2" Duration="10" Release="5" Instrument="JTS LeadDuty0Main"
				Note Time="50" Value="A#2" Duration="20" Release="10" Instrument="JTS LeadDuty0Main"
				Note Time="70" Value="G2" Duration="80" Release="75" Instrument="JTS LeadDuty0Main"
				Note Time="150" Value="C3" Duration="20" Release="15" Instrument="JTS LeadDuty2Main"
			Pattern Name="Chorus1"
				Note Time="10" Value="C3" Duration="10" Release="5" Instrument="JTS LeadDuty2Main"
				Note Time="20" Value="D#3" Duration="10" Release="5" Instrument="JTS LeadDuty2Main"
				Note Time="30" Value="C3" Duration="10" Release="5" Instrument="JTS LeadDuty2Main"
				Note Time="40" Value="F3" Duration="10" Release="5" Instrument="JTS LeadDuty2Main"
				Note Time="50" Value="C3" Duration="20" Release="10" Instrument="JTS LeadDuty2Main"
				Note Time="70" Value="G3" Duration="20" Release="15" Instrument="JTS LeadDuty2Main"
				Note Time="90" Value="C3" Duration="10" Release="5" Instrument="JTS LeadDuty2Main"
				Note Time="100" Value="F3" Duration="10" Release="5" Instrument="JTS LeadDuty2Main"
				Note Time="110" Value="C3" Duration="10" Release="5" Instrument="JTS LeadDuty2Main"
				Note Time="120" Value="D#3" Duration="10" Release="5" Instrument="JTS LeadDuty2Main"
				Note Time="130" Value="C3" Duration="20" Release="10" Instrument="JTS LeadDuty2Main"
				Note Time="150" Value="G2" Duration="20" Release="15" Instrument="JTS LeadDuty2Main"
			Pattern Name="Chorus2"
				Note Time="10" Value="G2" Duration="10" Release="5" Instrument="JTS LeadDuty2Main"
				Note Time="20" Value="A#2" Duration="10" Release="5" Instrument="JTS LeadDuty2Main"
				Note Time="30" Value="G2" Duration="10" Release="5" Instrument="JTS LeadDuty2Main"
				Note Time="40" Value="A#2" Duration="10" Release="5" Instrument="JTS LeadDuty2Main"
				Note Time="50" Value="C#3" Duration="1" Instrument="JTS LeadDuty2Main"
				Note Time="51" Value="D3" Duration="2" Instrument="JTS LeadDuty2Main" Attack="False"
				Note Time="53" Value="D#3" Duration="7" Instrument="JTS LeadDuty2Main" Attack="False"
				Note Time="60" Value="D3" Duration="10" Release="5" Instrument="JTS LeadDuty2Main"
				Note Time="70" Value="C3" Duration="80" Release="75" Instrument="JTS LeadDuty2Main"
				Note Time="150" Value="C3" Duration="20" Release="15" Instrument="JTS LeadDuty2Main"
			Pattern Name="Chorus3"
				Note Time="10" Value="C3" Duration="10" Release="5" Instrument="JTS LeadDuty2Main"
				Note Time="20" Value="D#3" Duration="10" Release="5" Instrument="JTS LeadDuty2Main"
				Note Time="30" Value="C3" Duration="10" Release="5" Instrument="JTS LeadDuty2Main"
				Note Time="40" Value="F3" Duration="10" Release="5" Instrument="JTS LeadDuty2Main"
				Note Time="50" Value="C3" Duration="20" Release="10" Instrument="JTS LeadDuty2Main"
				Note Time="70" Value="F3" Duration="1" Instrument="JTS LeadDuty2Main"
				Note Time="71" Value="F#3" Duration="2" Instrument="JTS LeadDuty2Main" Attack="False"
				Note Time="73" Value="G3" Duration="17" Instrument="JTS LeadDuty2Main" Attack="False"
				Note Time="90" Value="C3" Duration="10" Release="5" Instrument="JTS LeadDuty2Main"
				Note Time="100" Value="F3" Duration="10" Release="5" Instrument="JTS LeadDuty2Main"
				Note Time="110" Value="C3" Duration="10" Release="5" Instrument="JTS LeadDuty2Main"
				Note Time="120" Value="D#3" Duration="10" Release="5" Instrument="JTS LeadDuty2Main"
				Note Time="130" Value="C3" Duration="20" Release="10" Instrument="JTS LeadDuty2Main"
				Note Time="150" Value="G2" Duration="20" Release="15" Instrument="JTS LeadDuty2Main"
			Pattern Name="Chorus4"
				Note Time="10" Value="G2" Duration="10" Release="5" Instrument="JTS LeadDuty2Main"
				Note Time="20" Value="A#2" Duration="10" Release="5" Instrument="JTS LeadDuty2Main"
				Note Time="30" Value="C3" Duration="10" Release="5" Instrument="JTS LeadDuty2Main"
				Note Time="40" Value="C#3" Duration="1" Instrument="JTS LeadDuty2Main"
				Note Time="41" Value="D3" Duration="2" Instrument="JTS LeadDuty2Main" Attack="False"
				Note Time="43" Value="D#3" Duration="7" Instrument="JTS LeadDuty2Main" Attack="False"
				Note Time="50" Value="D3" Duration="10" Release="5" Instrument="JTS LeadDuty2Main"
				Note Time="60" Value="A#2" Duration="10" Release="5" Instrument="JTS LeadDuty2Main"
				Note Time="70" Value="C3" Duration="90" Release="85" Instrument="JTS LeadDuty2Main"
			Pattern Name="Chorus5"
				Note Time="0" Value="F3" Duration="2" Instrument="JTS LeadDuty2Main"
				Note Time="2" Value="F#3" Duration="2" Instrument="JTS LeadDuty2Main" Attack="False"
				Note Time="4" Value="G3" Duration="46" Instrument="JTS LeadDuty2Main" Attack="False"
				Note Time="50" Value="F3" Duration="10" Release="5" Instrument="JTS LeadDuty2Main"
				Note Time="60" Value="D#3" Duration="10" Release="5" Instrument="JTS LeadDuty2Main"
				Note Time="70" Value="D3" Duration="50" Release="45" Instrument="JTS LeadDuty2Main"
				Note Time="120" Value="D#3" Duration="15" Release="10" Instrument="JTS LeadDuty2Main"
				Note Time="135" Value="F3" Duration="15" Release="10" Instrument="JTS LeadDuty2Main"
				Note Time="150" Value="F3" Duration="1" Instrument="JTS LeadDuty2Main"
				Note Time="151" Value="F#3" Duration="2" Instrument="JTS LeadDuty2Main" Attack="False"
				Note Time="153" Value="G3" Duration="77" Instrument="JTS LeadDuty2Main" Attack="False"
			Pattern Name="Chorus6"
				Note Time="70" Value="F3" Duration="1" Instrument="JTS LeadDuty1Main"
				Note Time="71" Value="F#3" Duration="2" Instrument="JTS LeadDuty1Main" Attack="False"
				Note Time="73" Value="G3" Duration="17" Instrument="JTS LeadDuty1Main" Attack="False"
				Note Time="90" Value="F3" Duration="1" Instrument="JTS LeadDuty1Main"
				Note Time="91" Value="F#3" Duration="2" Instrument="JTS LeadDuty1Main" Attack="False"
				Note Time="93" Value="G3" Duration="7" Instrument="JTS LeadDuty1Main" Attack="False"
				Note Time="100" Value="A3" Duration="20" Release="10" Instrument="JTS LeadDuty1Main"
				Note Time="120" Value="A#3" Duration="40" Release="15" Instrument="JTS LeadDuty1Main"
			Pattern Name="Chorus7"
				Note Time="0" Value="F3" Duration="2" Instrument="JTS LeadDuty2Main"
				Note Time="2" Value="F#3" Duration="2" Instrument="JTS LeadDuty2Main" Attack="False"
				Note Time="4" Value="G3" Duration="46" Instrument="JTS LeadDuty2Main" Attack="False"
				Note Time="50" Value="F3" Duration="10" Release="5" Instrument="JTS LeadDuty2Main"
				Note Time="60" Value="D#3" Duration="10" Release="5" Instrument="JTS LeadDuty2Main"
				Note Time="70" Value="D3" Duration="50" Release="45" Instrument="JTS LeadDuty2Main"
				Note Time="120" Value="D#3" Duration="15" Release="10" Instrument="JTS LeadDuty2Main"
				Note Time="135" Value="F3" Duration="15" Release="10" Instrument="JTS LeadDuty2Main"
				Note Time="150" Value="C3" Duration="100" Instrument="JTS LeadDuty2Main"
			Pattern Name="Chorus8"
				Note Time="90" Value="C3" Duration="10" Release="5" Instrument="JTS LeadDuty0Buzz"
				Note Time="100" Value="C3" Duration="10" Release="5" Instrument="JTS LeadDuty0Buzz"
				Note Time="110" Value="C3" Duration="10" Release="5" Instrument="JTS LeadDuty0Buzz"
				Note Time="120" Value="C3" Duration="40" Release="5" Instrument="JTS LeadDuty0Buzz"
			Pattern Name="Bridge1"
				Note Time="0" Value="C3" Duration="40" Release="35" Instrument="JTS LeadDuty0Main"
				Note Time="40" Value="C3" Duration="40" Release="35" Instrument="JTS LeadDuty0Main"
				Note Time="80" Value="C3" Duration="30" Release="25" Instrument="JTS LeadDuty0Main"
				Note Time="110" Value="C3" Duration="50" Release="40" Instrument="JTS LeadDuty0Main"
			Pattern Name="Bridge2"
				Note Time="0" Value="D3" Duration="40" Release="35" Instrument="JTS LeadDuty0Main"
				Note Time="40" Value="D3" Duration="40" Release="35" Instrument="JTS LeadDuty0Main"
				Note Time="80" Value="D3" Duration="30" Release="25" Instrument="JTS LeadDuty0Main"
				Note Time="110" Value="D3" Duration="50" Release="40" Instrument="JTS LeadDuty0Main"
			Pattern Name="Bridge3"
				Note Time="0" Value="C3" Duration="20" Release="15" Instrument="JTS LeadDuty0Main"
				Note Time="20" Value="C3" Duration="20" Release="15" Instrument="JTS LeadDuty0Main"
				Note Time="40" Value="C3" Duration="15" Release="10" Instrument="JTS LeadDuty0Main"
				Note Time="55" Value="C3" Duration="15" Release="10" Instrument="JTS LeadDuty0Main"
				Note Time="70" Value="C3" Duration="30" Release="25" Instrument="JTS LeadDuty0Main"
				Note Time="100" Value="C3" Duration="20" Release="15" Instrument="JTS LeadDuty0Main"
				Note Time="120" Value="C3" Duration="15" Release="10" Instrument="JTS LeadDuty0Main"
				Note Time="135" Value="C3" Duration="15" Release="10" Instrument="JTS LeadDuty0Main"
				Note Time="150" Value="C3" Duration="30" Release="25" Instrument="JTS LeadDuty0Main"
			Pattern Name="Bridge4"
				Note Time="20" Value="C3" Duration="20" Release="15" Instrument="JTS LeadDuty0Main"
				Note Time="40" Value="C3" Duration="15" Release="10" Instrument="JTS LeadDuty0Main"
				Note Time="55" Value="C3" Duration="15" Release="10" Instrument="JTS LeadDuty0Main"
				Note Time="70" Value="C3" Duration="40" Release="35" Instrument="JTS LeadDuty0Main"
				Note Time="110" Value="A#2" Duration="40" Release="35" Instrument="JTS LeadDuty0Main"
				Note Time="150" Value="C3" Duration="30" Release="25" Instrument="JTS LeadDuty0Main"
			Pattern Name="Bridge5"
				Note Time="20" Value="C3" Duration="20" Release="15" Instrument="JTS LeadDuty0Main"
				Note Time="40" Value="C3" Duration="15" Release="10" Instrument="JTS LeadDuty0Main"
				Note Time="55" Value="C3" Duration="15" Release="10" Instrument="JTS LeadDuty0Main"
				Note Time="70" Value="C3" Duration="30" Release="25" Instrument="JTS LeadDuty0Main"
				Note Time="100" Value="C3" Duration="20" Release="15" Instrument="JTS LeadDuty0Main"
				Note Time="120" Value="C3" Duration="15" Release="10" Instrument="JTS LeadDuty0Main"
				Note Time="135" Value="C3" Duration="15" Release="10" Instrument="JTS LeadDuty0Main"
				Note Time="150" Value="C3" Duration="30" Release="25" Instrument="JTS LeadDuty0Main"
			Pattern Name="Bridge6"
				Note Time="20" Value="C3" Duration="20" Release="15" Instrument="JTS LeadDuty0Main"
				Note Time="40" Value="D3" Duration="15" Release="10" Instrument="JTS LeadDuty0Main"
				Note Time="55" Value="G3" Duration="15" Release="10" Instrument="JTS LeadDuty0Main"
				Note Time="70" Value="G3" Duration="90" Release="85" Instrument="JTS LeadDuty0Main"
			Pattern Name="Outro1"
				Note Time="20" Value="C3" Duration="10" Instrument="JTS LeadDuty0Plain"
				Note Time="30" Value="D3" Duration="10" Instrument="JTS LeadDuty0Plain"
				Note Time="40" Value="D#3" Duration="10" Instrument="JTS LeadDuty0Plain"
				Note Time="50" Value="F3" Duration="10" Instrument="JTS LeadDuty0Plain"
				Note Time="60" Value="C3" Duration="10" Instrument="JTS LeadDuty0Plain"
				Note Time="70" Value="D3" Duration="10" Instrument="JTS LeadDuty0Plain"
				Note Time="80" Value="D#3" Duration="10" Instrument="JTS LeadDuty0Plain"
				Note Time="90" Value="F3" Duration="10" Instrument="JTS LeadDuty0Plain"
				Note Time="100" Value="C3" Duration="10" Instrument="JTS LeadDuty0Plain"
				Note Time="110" Value="D3" Duration="10" Instrument="JTS LeadDuty0Plain"
				Note Time="120" Value="D#3" Duration="10" Instrument="JTS LeadDuty0Plain"
				Note Time="130" Value="F3" Duration="10" Instrument="JTS LeadDuty0Plain"
				Note Time="140" Value="C3" Duration="10" Instrument="JTS LeadDuty0Plain"
				Note Time="150" Value="D3" Duration="10" Instrument="JTS LeadDuty0Plain"
			Pattern Name="Outro2"
				Note Time="0" Value="D#3" Duration="10" Instrument="JTS LeadDuty0Plain"
				Note Time="10" Value="F3" Duration="10" Instrument="JTS LeadDuty0Plain"
				Note Time="20" Value="C3" Duration="10" Instrument="JTS LeadDuty0Plain"
				Note Time="30" Value="D3" Duration="10" Instrument="JTS LeadDuty0Plain"
				Note Time="40" Value="D#3" Duration="10" Instrument="JTS LeadDuty0Plain"
				Note Time="50" Value="F3" Duration="10" Instrument="JTS LeadDuty0Plain"
				Note Time="60" Value="C3" Duration="10" Instrument="JTS LeadDuty0Plain"
				Note Time="70" Value="D3" Duration="10" Instrument="JTS LeadDuty0Plain"
				Note Time="80" Value="D#3" Duration="10" Instrument="JTS LeadDuty0Plain"
				Note Time="90" Value="F3" Duration="10" Instrument="JTS LeadDuty0Plain"
				Note Time="100" Value="C3" Duration="10" Instrument="JTS LeadDuty0Plain"
				Note Time="110" Value="D3" Duration="10" Instrument="JTS LeadDuty0Plain"
				Note Time="120" Value="D#3" Duration="10" Instrument="JTS LeadDuty0Plain"
				Note Time="130" Value="F3" Duration="10" Instrument="JTS LeadDuty0Plain"
				Note Time="140" Value="C3" Duration="10" Instrument="JTS LeadDuty0Plain"
				Note Time="150" Value="D3" Duration="10" Instrument="JTS LeadDuty0Plain"
			Pattern Name="Outro3"
				Note Time="0" Value="D#3" Duration="10" Instrument="JTS LeadDuty0Plain"
				Note Time="10" Value="F3" Duration="10" Instrument="JTS LeadDuty0Plain"
				Note Time="20" Value="C3" Duration="10" Instrument="JTS LeadDuty0Plain"
				Note Time="30" Value="D3" Duration="10" Instrument="JTS LeadDuty0Plain"
				Note Time="40" Value="D#3" Duration="10" Instrument="JTS LeadDuty0Plain"
				Note Time="50" Value="F3" Duration="10" Instrument="JTS LeadDuty0Plain"
				Note Time="60" Value="C3" Duration="10" Instrument="JTS LeadDuty0Plain"
				Note Time="70" Value="D3" Duration="10" Instrument="JTS LeadDuty0Plain"
				Note Time="80" Value="D#3" Duration="10" Instrument="JTS LeadDuty0Plain"
				Note Time="90" Value="F3" Duration="10" Instrument="JTS LeadDuty0Plain"
				Note Time="100" Value="D3" Duration="10" Instrument="JTS LeadDuty0Plain"
				Note Time="110" Value="D#3" Duration="10" Instrument="JTS LeadDuty0Plain"
				Note Time="120" Value="F3" Duration="10" Instrument="JTS LeadDuty0Plain"
				Note Time="130" Value="G3" Duration="30" Instrument="JTS LeadDuty0Plain"
			Pattern Name="Outro4"
				Note Time="0" Value="A#3" Duration="10" Instrument="JTS LeadDuty0Plain"
				Note Time="10" Value="C4" Duration="20" Instrument="JTS LeadDuty0Plain"
				Note Time="30" Value="D4" Duration="10" Instrument="JTS LeadDuty0Plain"
				Note Time="40" Value="D#4" Duration="10" Instrument="JTS LeadDuty0Plain"
				Note Time="50" Value="F4" Duration="10" Instrument="JTS LeadDuty0Plain"
				Note Time="60" Value="C4" Duration="10" Instrument="JTS LeadDuty0Plain"
				Note Time="70" Value="D4" Duration="10" Instrument="JTS LeadDuty0Plain"
				Note Time="80" Value="D#4" Duration="10" Instrument="JTS LeadDuty0Plain"
				Note Time="90" Value="F4" Duration="20" Instrument="JTS LeadDuty0Plain"
				Note Time="110" Value="G4" Duration="10" Instrument="JTS LeadDuty0Plain"
				Note Time="120" Value="G#4" Duration="10" Instrument="JTS LeadDuty0Plain"
				Note Time="130" Value="A#4" Duration="10" Instrument="JTS LeadDuty0Plain"
				Note Time="140" Value="F4" Duration="10" Instrument="JTS LeadDuty0Plain"
				Note Time="150" Value="G4" Duration="10" Instrument="JTS LeadDuty0Plain"
			Pattern Name="Outro5"
				Note Time="0" Value="G#4" Duration="10" Instrument="JTS LeadDuty0Plain"
				Note Time="10" Value="A#4" Duration="10" Instrument="JTS LeadDuty0Plain"
				Note Time="20" Value="C5" Duration="120" Instrument="JTS LeadDuty0Plain"
				Note Time="140" Value="C5" Duration="20" Instrument="JTS LeadDuty0Plain" SlideTarget="F#4" Attack="False"
			PatternInstance Time="1" Pattern="Intro1"
			PatternInstance Time="2" Pattern="Intro2"
			PatternInstance Time="3" Pattern="Intro1"
			PatternInstance Time="4" Pattern="Intro2"
			PatternInstance Time="5" Pattern="PreChorus1"
			PatternInstance Time="6" Pattern="PreChorus1"
			PatternInstance Time="7" Pattern="PreChorus1"
			PatternInstance Time="8" Pattern="PreChorus2"
			PatternInstance Time="9" Pattern="Chorus1"
			PatternInstance Time="10" Pattern="Chorus2"
			PatternInstance Time="11" Pattern="Chorus3"
			PatternInstance Time="12" Pattern="Chorus4"
			PatternInstance Time="13" Pattern="Chorus5"
			PatternInstance Time="14" Pattern="Chorus6"
			PatternInstance Time="15" Pattern="Chorus7"
			PatternInstance Time="16" Pattern="Chorus8"
			PatternInstance Time="17" Pattern="Bridge1"
			PatternInstance Time="18" Pattern="Bridge1"
			PatternInstance Time="19" Pattern="Bridge1"
			PatternInstance Time="20" Pattern="Bridge2"
			PatternInstance Time="21" Pattern="Bridge3"
			PatternInstance Time="22" Pattern="Bridge4"
			PatternInstance Time="23" Pattern="Bridge5"
			PatternInstance Time="24" Pattern="Bridge6"
			PatternInstance Time="25" Pattern="Outro1"
			PatternInstance Time="26" Pattern="Outro2"
			PatternInstance Time="27" Pattern="Outro3"
			PatternInstance Time="28" Pattern="Outro4"
			PatternInstance Time="29" Pattern="Outro5"
		Channel Type="Square2"
			Pattern Name="Intro1"
				Note Time="0" Value="C3" Duration="10" Release="5" Instrument="JTS LeadDuty1Main"
				Note Time="10" Value="D#3" Duration="10" Release="5" Instrument="JTS LeadDuty1Main"
				Note Time="20" Value="C3" Duration="10" Release="5" Instrument="JTS LeadDuty1Main"
				Note Time="30" Value="F3" Duration="1" Instrument="JTS LeadDuty1Main"
				Note Time="31" Value="F#3" Duration="2" Instrument="JTS LeadDuty1Main" Attack="False"
				Note Time="33" Value="G3" Duration="17" Instrument="JTS LeadDuty1Main" Attack="False"
				Note Time="50" Value="F3" Duration="10" Release="5" Instrument="JTS LeadDuty1Main"
				Note Time="60" Value="D#3" Duration="20" Release="15" Instrument="JTS LeadDuty1Main"
				Note Time="80" Value="A#2" Duration="30" Release="25" Instrument="JTS LeadDuty1Main"
				Note Time="110" Value="C3" Duration="50" Release="45" Instrument="JTS LeadDuty1Main"
			Pattern Name="Intro2"
				Note Time="0" Value="C3" Duration="10" Release="5" Instrument="JTS LeadDuty1Main"
				Note Time="10" Value="D#3" Duration="10" Release="5" Instrument="JTS LeadDuty1Main"
				Note Time="20" Value="C3" Duration="10" Release="5" Instrument="JTS LeadDuty1Main"
				Note Time="30" Value="F3" Duration="1" Instrument="JTS LeadDuty1Main"
				Note Time="31" Value="F#3" Duration="2" Instrument="JTS LeadDuty1Main" Attack="False"
				Note Time="33" Value="G3" Duration="17" Instrument="JTS LeadDuty1Main" Attack="False"
				Note Time="50" Value="F3" Duration="10" Release="5" Instrument="JTS LeadDuty1Main"
				Note Time="60" Value="D#3" Duration="20" Release="15" Instrument="JTS LeadDuty1Main"
				Note Time="80" Value="A#3" Duration="30" Release="25" Instrument="JTS LeadDuty1Main"
				Note Time="110" Value="A3" Duration="70" Release="45" Instrument="JTS LeadDuty1Main"
			Pattern Name="PreChorus1"
				Note Time="20" Value="D#3" Duration="20" Release="10" Instrument="JTS LeadDuty0Main"
				Note Time="40" Value="D3" Duration="10" Release="5" Instrument="JTS LeadDuty0Main"
				Note Time="50" Value="D#3" Duration="20" Release="10" Instrument="JTS LeadDuty0Main"
				Note Time="70" Value="D#3" Duration="30" Release="20" Instrument="JTS LeadDuty0Main"
				Note Time="100" Value="D3" Duration="20" Release="10" Instrument="JTS LeadDuty0Main"
				Note Time="120" Value="D3" Duration="10" Release="5" Instrument="JTS LeadDuty0Main"
				Note Time="130" Value="D#3" Duration="50" Release="5" Instrument="JTS LeadDuty0Main"
			Pattern Name="PreChorus2"
				Note Time="20" Value="D#3" Duration="20" Release="10" Instrument="JTS LeadDuty0Main"
				Note Time="40" Value="D3" Duration="10" Release="5" Instrument="JTS LeadDuty0Main"
				Note Time="50" Value="D#3" Duration="20" Release="10" Instrument="JTS LeadDuty0Main"
				Note Time="70" Value="D3" Duration="100" Release="85" Instrument="JTS LeadDuty0Main"
			Pattern Name="Chorus1"
				Note Time="10" Value="C3" Duration="30" Instrument="JTS LeadDuty2Plain"
				Note Time="40" Value="D#3" Duration="10" Instrument="JTS LeadDuty2Plain"
				Note Time="50" Value="C3" Duration="10" Instrument="JTS LeadDuty2Plain"
				Note Time="60" Value="F3" Duration="10" Instrument="JTS LeadDuty2Plain"
				Note Time="70" Value="C3" Duration="20" Instrument="JTS LeadDuty2Plain"
				Note Time="90" Value="G3" Duration="20" Instrument="JTS LeadDuty2Plain"
				Note Time="110" Value="C3" Duration="10" Instrument="JTS LeadDuty2Plain"
				Note Time="120" Value="F3" Duration="10" Instrument="JTS LeadDuty2Plain"
				Note Time="130" Value="C3" Duration="10" Instrument="JTS LeadDuty2Plain"
				Note Time="140" Value="D#3" Duration="10" Instrument="JTS LeadDuty2Plain"
				Note Time="150" Value="C3" Duration="20" Instrument="JTS LeadDuty2Plain"
			Pattern Name="Chorus2"
				Note Time="10" Value="G2" Duration="30" Instrument="JTS LeadDuty2Plain"
				Note Time="40" Value="A#2" Duration="10" Instrument="JTS LeadDuty2Plain"
				Note Time="50" Value="G2" Duration="10" Instrument="JTS LeadDuty2Plain"
				Note Time="60" Value="A#2" Duration="10" Instrument="JTS LeadDuty2Plain"
				Note Time="70" Value="C#3" Duration="1" Instrument="JTS LeadDuty2Plain"
				Note Time="71" Value="D3" Duration="2" Instrument="JTS LeadDuty2Plain"
				Note Time="73" Value="D#3" Duration="7" Instrument="JTS LeadDuty2Plain"
				Note Time="80" Value="D3" Duration="10" Instrument="JTS LeadDuty2Plain"
				Note Time="90" Value="C3" Duration="110" Instrument="JTS LeadDuty2Plain"
			Pattern Name="Chorus3"
				Note Time="40" Value="D#3" Duration="10" Instrument="JTS LeadDuty2Plain"
				Note Time="50" Value="C3" Duration="10" Instrument="JTS LeadDuty2Plain"
				Note Time="60" Value="F3" Duration="10" Instrument="JTS LeadDuty2Plain"
				Note Time="70" Value="C3" Duration="20" Instrument="JTS LeadDuty2Plain"
				Note Time="90" Value="F3" Duration="1" Instrument="JTS LeadDuty2Plain"
				Note Time="91" Value="F#3" Duration="2" Instrument="JTS LeadDuty2Plain"
				Note Time="93" Value="G3" Duration="17" Instrument="JTS LeadDuty2Plain"
				Note Time="110" Value="C3" Duration="10" Instrument="JTS LeadDuty2Plain"
				Note Time="120" Value="F3" Duration="10" Instrument="JTS LeadDuty2Plain"
				Note Time="130" Value="C3" Duration="10" Instrument="JTS LeadDuty2Plain"
				Note Time="140" Value="D#3" Duration="10" Instrument="JTS LeadDuty2Plain"
				Note Time="150" Value="C3" Duration="20" Instrument="JTS LeadDuty2Plain"
			Pattern Name="Chorus4"
				Note Time="10" Value="G2" Duration="30" Instrument="JTS LeadDuty2Plain"
				Note Time="40" Value="A#2" Duration="10" Instrument="JTS LeadDuty2Plain"
				Note Time="50" Value="C3" Duration="10" Instrument="JTS LeadDuty2Plain"
				Note Time="60" Value="C#3" Duration="1" Instrument="JTS LeadDuty2Plain"
				Note Time="61" Value="D3" Duration="2" Instrument="JTS LeadDuty2Plain"
				Note Time="63" Value="D#3" Duration="7" Instrument="JTS LeadDuty2Plain"
				Note Time="70" Value="D3" Duration="10" Instrument="JTS LeadDuty2Plain"
				Note Time="80" Value="A#2" Duration="10" Instrument="JTS LeadDuty2Plain"
				Note Time="90" Value="C3" Duration="90" Instrument="JTS LeadDuty2Plain"
			Pattern Name="Chorus7"
				Note Time="20" Value="F3" Duration="2" Instrument="JTS LeadDuty2Plain"
				Note Time="22" Value="F#3" Duration="2" Instrument="JTS LeadDuty2Plain"
				Note Time="24" Value="G3" Duration="46" Instrument="JTS LeadDuty2Plain"
				Note Time="70" Value="F3" Duration="10" Instrument="JTS LeadDuty2Plain"
				Note Time="80" Value="D#3" Duration="10" Instrument="JTS LeadDuty2Plain"
				Note Time="90" Value="D3" Duration="50" Instrument="JTS LeadDuty2Plain"
				Note Time="140" Value="D#3" Duration="15" Instrument="JTS LeadDuty2Plain"
				Note Time="155" Value="F3" Duration="16" Instrument="JTS LeadDuty2Plain"
			Pattern Name="Chorus6"
				Note Time="11" Value="F#3" Duration="2" Instrument="JTS LeadDuty2Plain"
				Note Time="13" Value="G3" Duration="57" Instrument="JTS LeadDuty2Plain"
				Note Time="70" Value="D3" Duration="20" Release="15" Instrument="JTS LeadDuty0Main"
				Note Time="90" Value="D3" Duration="10" Release="5" Instrument="JTS LeadDuty0Main"
				Note Time="100" Value="F3" Duration="20" Release="10" Instrument="JTS LeadDuty0Main"
				Note Time="120" Value="G3" Duration="60" Release="15" Instrument="JTS LeadDuty0Main"
			Pattern Name="Chorus8"
				Note Time="10" Value="C3" Duration="80" Instrument="JTS LeadDuty2Plain"
				Note Time="90" Value="G2" Duration="10" Release="5" Instrument="JTS LeadDuty0Buzz"
				Note Time="100" Value="G2" Duration="10" Release="5" Instrument="JTS LeadDuty0Buzz"
				Note Time="110" Value="G2" Duration="10" Release="5" Instrument="JTS LeadDuty0Buzz"
				Note Time="120" Value="G2" Duration="40" Release="5" Instrument="JTS LeadDuty0Buzz"
			Pattern Name="Bridge1"
				Note Time="0" Value="G3" Duration="40" Release="35" Instrument="JTS LeadDuty1Main"
				Note Time="40" Value="F3" Duration="40" Release="35" Instrument="JTS LeadDuty1Main"
				Note Time="80" Value="D#3" Duration="30" Release="25" Instrument="JTS LeadDuty1Main"
				Note Time="110" Value="F3" Duration="50" Release="40" Instrument="JTS LeadDuty1Main"
			Pattern Name="Bridge2"
				Note Time="0" Value="G#3" Duration="40" Release="35" Instrument="JTS LeadDuty1Main"
				Note Time="40" Value="G3" Duration="40" Release="35" Instrument="JTS LeadDuty1Main"
				Note Time="80" Value="F3" Duration="30" Release="25" Instrument="JTS LeadDuty1Main"
				Note Time="110" Value="G3" Duration="50" Release="40" Instrument="JTS LeadDuty1Main"
			Pattern Name="Bridge3"
				Note Time="0" Value="G3" Duration="20" Release="15" Instrument="JTS LeadDuty1Main"
				Note Time="20" Value="F3" Duration="20" Release="15" Instrument="JTS LeadDuty1Main"
				Note Time="40" Value="D#3" Duration="15" Release="10" Instrument="JTS LeadDuty1Main"
				Note Time="55" Value="F3" Duration="15" Release="10" Instrument="JTS LeadDuty1Main"
				Note Time="70" Value="G3" Duration="30" Release="25" Instrument="JTS LeadDuty1Main"
				Note Time="100" Value="F3" Duration="20" Release="15" Instrument="JTS LeadDuty1Main"
				Note Time="120" Value="D#3" Duration="15" Release="10" Instrument="JTS LeadDuty1Main"
				Note Time="135" Value="F3" Duration="15" Release="10" Instrument="JTS LeadDuty1Main"
				Note Time="150" Value="G3" Duration="30" Release="25" Instrument="JTS LeadDuty1Main"
			Pattern Name="Bridge4"
				Note Time="20" Value="F3" Duration="20" Release="15" Instrument="JTS LeadDuty1Main"
				Note Time="40" Value="D#3" Duration="15" Release="10" Instrument="JTS LeadDuty1Main"
				Note Time="55" Value="F3" Duration="15" Release="10" Instrument="JTS LeadDuty1Main"
				Note Time="70" Value="D#3" Duration="40" Release="35" Instrument="JTS LeadDuty1Main"
				Note Time="110" Value="D3" Duration="40" Release="35" Instrument="JTS LeadDuty1Main"
				Note Time="150" Value="G3" Duration="30" Release="25" Instrument="JTS LeadDuty1Main"
			Pattern Name="Bridge5"
				Note Time="20" Value="F3" Duration="20" Release="15" Instrument="JTS LeadDuty1Main"
				Note Time="40" Value="D#3" Duration="15" Release="10" Instrument="JTS LeadDuty1Main"
				Note Time="55" Value="F3" Duration="15" Release="10" Instrument="JTS LeadDuty1Main"
				Note Time="70" Value="G3" Duration="30" Release="25" Instrument="JTS LeadDuty1Main"
				Note Time="100" Value="F3" Duration="20" Release="15" Instrument="JTS LeadDuty1Main"
				Note Time="120" Value="D#3" Duration="15" Release="10" Instrument="JTS LeadDuty1Main"
				Note Time="135" Value="F3" Duration="15" Release="10" Instrument="JTS LeadDuty1Main"
				Note Time="150" Value="G3" Duration="30" Release="25" Instrument="JTS LeadDuty1Main"
			Pattern Name="Bridge6"
				Note Time="20" Value="F3" Duration="20" Release="15" Instrument="JTS LeadDuty1Main"
				Note Time="40" Value="G3" Duration="15" Release="10" Instrument="JTS LeadDuty1Main"
				Note Time="55" Value="A#3" Duration="15" Release="10" Instrument="JTS LeadDuty1Main"
				Note Time="70" Value="C4" Duration="90" Release="85" Instrument="JTS LeadDuty1Main"
			Pattern Name="Outro1"
				Note Time="0" Value="C3" Duration="10" Instrument="JTS LeadDuty0Outro"
				Note Time="10" Value="D3" Duration="10" Instrument="JTS LeadDuty0Outro"
				Note Time="20" Value="D#3" Duration="10" Instrument="JTS LeadDuty0Outro"
				Note Time="30" Value="F3" Duration="10" Instrument="JTS LeadDuty0Outro"
				Note Time="40" Value="C3" Duration="10" Instrument="JTS LeadDuty0Outro"
				Note Time="50" Value="D3" Duration="10" Instrument="JTS LeadDuty0Outro"
				Note Time="60" Value="D#3" Duration="10" Instrument="JTS LeadDuty0Outro"
				Note Time="70" Value="F3" Duration="10" Instrument="JTS LeadDuty0Outro"
				Note Time="80" Value="C3" Duration="10" Instrument="JTS LeadDuty0Outro"
				Note Time="90" Value="D3" Duration="10" Instrument="JTS LeadDuty0Outro"
				Note Time="100" Value="D#3" Duration="10" Instrument="JTS LeadDuty0Outro"
				Note Time="110" Value="F3" Duration="10" Instrument="JTS LeadDuty0Outro"
				Note Time="120" Value="C3" Duration="10" Instrument="JTS LeadDuty0Outro"
				Note Time="130" Value="D3" Duration="10" Instrument="JTS LeadDuty0Outro"
				Note Time="140" Value="D#3" Duration="10" Instrument="JTS LeadDuty0Outro"
				Note Time="150" Value="F3" Duration="10" Instrument="JTS LeadDuty0Outro"
			Pattern Name="Outro2"
				Note Time="0" Value="C3" Duration="10" Instrument="JTS LeadDuty0Outro"
				Note Time="10" Value="D3" Duration="10" Instrument="JTS LeadDuty0Outro"
				Note Time="20" Value="D#3" Duration="10" Instrument="JTS LeadDuty0Outro"
				Note Time="30" Value="F3" Duration="10" Instrument="JTS LeadDuty0Outro"
				Note Time="40" Value="C3" Duration="10" Instrument="JTS LeadDuty0Outro"
				Note Time="50" Value="D3" Duration="10" Instrument="JTS LeadDuty0Outro"
				Note Time="60" Value="D#3" Duration="10" Instrument="JTS LeadDuty0Outro"
				Note Time="70" Value="F3" Duration="10" Instrument="JTS LeadDuty0Outro"
				Note Time="80" Value="D3" Duration="10" Instrument="JTS LeadDuty0Outro"
				Note Time="90" Value="D#3" Duration="10" Instrument="JTS LeadDuty0Outro"
				Note Time="100" Value="F3" Duration="10" Instrument="JTS LeadDuty0Outro"
				Note Time="110" Value="G3" Duration="30" Instrument="JTS LeadDuty0Outro"
				Note Time="140" Value="A#3" Duration="10" Instrument="JTS LeadDuty0Outro"
				Note Time="150" Value="C4" Duration="20" Instrument="JTS LeadDuty0Outro"
			Pattern Name="Outro3"
				Note Time="10" Value="D4" Duration="10" Instrument="JTS LeadDuty0Outro"
				Note Time="20" Value="D#4" Duration="10" Instrument="JTS LeadDuty0Outro"
				Note Time="30" Value="F4" Duration="10" Instrument="JTS LeadDuty0Outro"
				Note Time="40" Value="C4" Duration="10" Instrument="JTS LeadDuty0Outro"
				Note Time="50" Value="D4" Duration="10" Instrument="JTS LeadDuty0Outro"
				Note Time="60" Value="D#4" Duration="10" Instrument="JTS LeadDuty0Outro"
				Note Time="70" Value="F4" Duration="20" Instrument="JTS LeadDuty0Outro"
				Note Time="90" Value="G4" Duration="10" Instrument="JTS LeadDuty0Outro"
				Note Time="100" Value="G#4" Duration="10" Instrument="JTS LeadDuty0Outro"
				Note Time="110" Value="A#4" Duration="10" Instrument="JTS LeadDuty0Outro"
				Note Time="120" Value="F4" Duration="10" Instrument="JTS LeadDuty0Outro"
				Note Time="130" Value="G4" Duration="10" Instrument="JTS LeadDuty0Outro"
				Note Time="140" Value="G#4" Duration="10" Instrument="JTS LeadDuty0Outro"
				Note Time="150" Value="A#4" Duration="10" Instrument="JTS LeadDuty0Outro"
			Pattern Name="Outro4"
				Note Time="0" Value="C5" Duration="120" Instrument="JTS LeadDuty0Outro"
				Note Time="40" VibratoSpeed="6" VibratoDepth="4"
				Note Time="119" VibratoSpeed="0" VibratoDepth="0"
				Note Time="120" Value="C5" Duration="40" Instrument="JTS LeadDuty0Outro" SlideTarget="B3" Attack="False"
			PatternInstance Time="1" Pattern="Intro1"
			PatternInstance Time="2" Pattern="Intro2"
			PatternInstance Time="3" Pattern="Intro1"
			PatternInstance Time="4" Pattern="Intro2"
			PatternInstance Time="5" Pattern="PreChorus1"
			PatternInstance Time="6" Pattern="PreChorus1"
			PatternInstance Time="7" Pattern="PreChorus1"
			PatternInstance Time="8" Pattern="PreChorus2"
			PatternInstance Time="9" Pattern="Chorus1"
			PatternInstance Time="10" Pattern="Chorus2"
			PatternInstance Time="11" Pattern="Chorus3"
			PatternInstance Time="12" Pattern="Chorus4"
			PatternInstance Time="13" Pattern="Chorus7"
			PatternInstance Time="14" Pattern="Chorus6"
			PatternInstance Time="15" Pattern="Chorus7"
			PatternInstance Time="16" Pattern="Chorus8"
			PatternInstance Time="17" Pattern="Bridge1"
			PatternInstance Time="18" Pattern="Bridge1"
			PatternInstance Time="19" Pattern="Bridge1"
			PatternInstance Time="20" Pattern="Bridge2"
			PatternInstance Time="21" Pattern="Bridge3"
			PatternInstance Time="22" Pattern="Bridge4"
			PatternInstance Time="23" Pattern="Bridge5"
			PatternInstance Time="24" Pattern="Bridge6"
			PatternInstance Time="25" Pattern="Outro1"
			PatternInstance Time="26" Pattern="Outro1"
			PatternInstance Time="27" Pattern="Outro2"
			PatternInstance Time="28" Pattern="Outro3"
			PatternInstance Time="29" Pattern="Outro4"
		Channel Type="Triangle"
			Pattern Name="Fill1"
				Note Time="0" Value="C#4" Duration="1" Instrument="JTS  TriTomPlain"
				Note Time="1" Value="C4" Duration="1" Instrument="JTS  TriTomPlain"
				Note Time="2" Value="C#4" Duration="2" Instrument="JTS  TriTomPlain"
				Note Time="4" Value="C4" Duration="1" Instrument="JTS  TriTomPlain"
				Note Time="5" Value="C#4" Duration="1" Instrument="JTS  TriTomPlain"
				Note Time="6" Value="D4" Duration="1" Instrument="JTS  TriTomPlain"
				Note Time="7" Value="C#4" Duration="1" Instrument="JTS  TriTomPlain"
				Note Time="8" Value="C4" Duration="1" Instrument="JTS  TriTomPlain"
				Note Time="9" Value="C#4" Duration="1" Instrument="JTS  TriTomPlain"
				Note Time="10" Value="C#4" Duration="4" Instrument="JTS TriTomArp"
				Note Time="15" Value="C#4" Duration="4" Instrument="JTS TriTomArp"
				Note Time="20" Value="F3" Duration="4" Instrument="JTS TriTomArp"
				Note Time="25" Value="F3" Duration="4" Instrument="JTS TriTomArp"
				Note Time="30" Value="C#3" Duration="9" Instrument="JTS TriTomArp"
			Pattern Name="Drum1"
				Note Time="0" Value="D#3" Duration="3" Instrument="JTS TriTomArp"
				Note Time="10" Value="D#3" Duration="3" Instrument="JTS TriTomArp"
				Note Time="20" Value="A3" Duration="9" Instrument="JTS TriTomArp"
				Note Time="30" Value="D#3" Duration="3" Instrument="JTS TriTomArp"
				Note Time="40" Value="D#3" Duration="3" Instrument="JTS TriTomArp"
				Note Time="50" Value="D#3" Duration="3" Instrument="JTS TriTomArp"
				Note Time="60" Value="A3" Duration="9" Instrument="JTS TriTomArp"
				Note Time="70" Value="D#3" Duration="3" Instrument="JTS TriTomArp"
				Note Time="80" Value="D#3" Duration="3" Instrument="JTS TriTomArp"
				Note Time="90" Value="D#3" Duration="3" Instrument="JTS TriTomArp"
				Note Time="100" Value="A3" Duration="9" Instrument="JTS TriTomArp"
				Note Time="110" Value="D#3" Duration="3" Instrument="JTS TriTomArp"
				Note Time="120" Value="D#3" Duration="3" Instrument="JTS TriTomArp"
				Note Time="130" Value="D#3" Duration="3" Instrument="JTS TriTomArp"
				Note Time="140" Value="A3" Duration="9" Instrument="JTS TriTomArp"
				Note Time="150" Value="D#3" Duration="3" Instrument="JTS TriTomArp"
			Pattern Name="Drum2"
				Note Time="0" Value="D#3" Duration="3" Instrument="JTS TriTomArp"
				Note Time="10" Value="D#3" Duration="3" Instrument="JTS TriTomArp"
				Note Time="20" Value="A3" Duration="9" Instrument="JTS TriTomArp"
				Note Time="30" Value="D#3" Duration="3" Instrument="JTS TriTomArp"
				Note Time="40" Value="D#3" Duration="3" Instrument="JTS TriTomArp"
				Note Time="50" Value="D#3" Duration="3" Instrument="JTS TriTomArp"
				Note Time="60" Value="A3" Duration="9" Instrument="JTS TriTomArp"
				Note Time="70" Value="D#3" Duration="3" Instrument="JTS TriTomArp"
				Note Time="80" Value="C#4" Duration="9" Instrument="JTS TriTomArp"
				Note Time="90" Value="C#4" Duration="9" Instrument="JTS TriTomArp"
				Note Time="100" Value="F3" Duration="9" Instrument="JTS TriTomArp"
				Note Time="110" Value="C#3" Duration="9" Instrument="JTS TriTomArp"
				Note Time="120" Value="C#4" Duration="4" Instrument="JTS TriTomArp"
				Note Time="125" Value="C#4" Duration="4" Instrument="JTS TriTomArp"
				Note Time="135" Value="C#4" Duration="4" Instrument="JTS TriTomArp"
				Note Time="140" Value="F3" Duration="4" Instrument="JTS TriTomArp"
				Note Time="145" Value="F3" Duration="4" Instrument="JTS TriTomArp"
				Note Time="150" Value="C#3" Duration="9" Instrument="JTS TriTomArp"
			Pattern Name="Drum3"
				Note Time="0" Value="D#3" Duration="3" Instrument="JTS TriTomArp"
				Note Time="10" Value="D#3" Duration="3" Instrument="JTS TriTomArp"
				Note Time="20" Value="A3" Duration="9" Instrument="JTS TriTomArp"
				Note Time="30" Value="D#3" Duration="3" Instrument="JTS TriTomArp"
				Note Time="40" Value="D#3" Duration="3" Instrument="JTS TriTomArp"
				Note Time="50" Value="D#3" Duration="3" Instrument="JTS TriTomArp"
				Note Time="60" Value="A3" Duration="9" Instrument="JTS TriTomArp"
				Note Time="70" Value="D#3" Duration="3" Instrument="JTS TriTomArp"
				Note Time="80" Value="C#4" Duration="4" Instrument="JTS TriTomArp"
				Note Time="85" Value="C#4" Duration="4" Instrument="JTS TriTomArp"
				Note Time="90" Value="F3" Duration="4" Instrument="JTS TriTomArp"
				Note Time="95" Value="C#3" Duration="4" Instrument="JTS TriTomArp"
				Note Time="100" Value="C#4" Duration="4" Instrument="JTS TriTomArp"
				Note Time="105" Value="F3" Duration="4" Instrument="JTS TriTomArp"
				Note Time="110" Value="F3" Duration="4" Instrument="JTS TriTomArp"
				Note Time="115" Value="C#3" Duration="4" Instrument="JTS TriTomArp"
				Note Time="120" Value="C#4" Duration="1" Instrument="JTS  TriTomPlain"
				Note Time="121" Value="C4" Duration="1" Instrument="JTS  TriTomPlain"
				Note Time="122" Value="C#4" Duration="2" Instrument="JTS  TriTomPlain"
				Note Time="124" Value="C4" Duration="1" Instrument="JTS  TriTomPlain"
				Note Time="125" Value="C#4" Duration="1" Instrument="JTS  TriTomPlain"
				Note Time="126" Value="D4" Duration="1" Instrument="JTS  TriTomPlain"
				Note Time="127" Value="C#4" Duration="1" Instrument="JTS  TriTomPlain"
				Note Time="128" Value="C4" Duration="1" Instrument="JTS  TriTomPlain"
				Note Time="129" Value="C#4" Duration="1" Instrument="JTS  TriTomPlain"
				Note Time="130" Value="C#4" Duration="4" Instrument="JTS TriTomArp"
				Note Time="135" Value="C#4" Duration="4" Instrument="JTS TriTomArp"
				Note Time="140" Value="F3" Duration="4" Instrument="JTS TriTomArp"
				Note Time="145" Value="F3" Duration="4" Instrument="JTS TriTomArp"
				Note Time="150" Value="C#3" Duration="4" Instrument="JTS TriTomArp"
				Note Time="155" Value="C#3" Duration="4" Instrument="JTS TriTomArp"
			Pattern Name="Drum4"
				Note Time="0" Value="D#3" Duration="3" Instrument="JTS TriTomArp"
				Note Time="10" Value="D#3" Duration="3" Instrument="JTS TriTomArp"
				Note Time="20" Value="A3" Duration="9" Instrument="JTS TriTomArp"
				Note Time="30" Value="D#3" Duration="3" Instrument="JTS TriTomArp"
				Note Time="40" Value="D#3" Duration="3" Instrument="JTS TriTomArp"
				Note Time="50" Value="D#3" Duration="3" Instrument="JTS TriTomArp"
				Note Time="60" Value="A3" Duration="9" Instrument="JTS TriTomArp"
				Note Time="70" Value="D#3" Duration="3" Instrument="JTS TriTomArp"
				Note Time="80" Value="D#3" Duration="3" Instrument="JTS TriTomArp"
				Note Time="90" Value="A3" Duration="9" Instrument="JTS TriTomArp"
				Note Time="100" Value="A3" Duration="9" Instrument="JTS TriTomArp"
				Note Time="110" Value="A3" Duration="9" Instrument="JTS TriTomArp"
				Note Time="120" Value="A3" Duration="9" Instrument="JTS TriTomArp"
				Note Time="141" Value="A3" Duration="3" Instrument="JTS  TriTomPlain"
			Pattern Name="Drum5"
				Note Time="0" Value="D#3" Duration="3" Instrument="JTS TriTomArp"
				Note Time="40" Value="D#3" Duration="3" Instrument="JTS TriTomArp"
				Note Time="80" Value="D#3" Duration="3" Instrument="JTS TriTomArp"
				Note Time="110" Value="D#3" Duration="3" Instrument="JTS TriTomArp"
				Note Time="130" Value="A3" Duration="3" Instrument="JTS  TriTomPlain"
				Note Time="140" Value="D#3" Duration="3" Instrument="JTS TriTomArp"
			Pattern Name="Drum6"
				Note Time="0" Value="D#3" Duration="3" Instrument="JTS TriTomArp"
				Note Time="40" Value="D#3" Duration="3" Instrument="JTS TriTomArp"
				Note Time="80" Value="D#3" Duration="3" Instrument="JTS TriTomArp"
				Note Time="110" Value="D#3" Duration="3" Instrument="JTS TriTomArp"
				Note Time="130" Value="A3" Duration="9" Instrument="JTS TriTomArp"
				Note Time="140" Value="A3" Duration="9" Instrument="JTS TriTomArp"
				Note Time="150" Value="A3" Duration="9" Instrument="JTS TriTomArp"
			PatternInstance Time="0" Pattern="Fill1"
			PatternInstance Time="1" Pattern="Drum1"
			PatternInstance Time="2" Pattern="Drum2"
			PatternInstance Time="3" Pattern="Drum1"
			PatternInstance Time="4" Pattern="Drum3"
			PatternInstance Time="5" Pattern="Drum1"
			PatternInstance Time="6" Pattern="Drum2"
			PatternInstance Time="7" Pattern="Drum1"
			PatternInstance Time="8" Pattern="Drum3"
			PatternInstance Time="9" Pattern="Drum1"
			PatternInstance Time="10" Pattern="Drum2"
			PatternInstance Time="11" Pattern="Drum1"
			PatternInstance Time="12" Pattern="Drum3"
			PatternInstance Time="13" Pattern="Drum1"
			PatternInstance Time="14" Pattern="Drum2"
			PatternInstance Time="15" Pattern="Drum1"
			PatternInstance Time="16" Pattern="Drum4"
			PatternInstance Time="17" Pattern="Drum5"
			PatternInstance Time="18" Pattern="Drum5"
			PatternInstance Time="19" Pattern="Drum5"
			PatternInstance Time="20" Pattern="Drum6"
			PatternInstance Time="21" Pattern="Drum1"
			PatternInstance Time="22" Pattern="Drum2"
			PatternInstance Time="23" Pattern="Drum1"
			PatternInstance Time="24" Pattern="Drum3"
			PatternInstance Time="25" Pattern="Drum1"
			PatternInstance Time="26" Pattern="Drum2"
			PatternInstance Time="27" Pattern="Drum1"
			PatternInstance Time="28" Pattern="Drum3"
			PatternInstance Time="29" Pattern="Drum3"
		Channel Type="Noise"
			Pattern Name="Fill1"
				Note Time="0" Value="C#3" Duration="3" Instrument="JTS NoiseTom2"
				Note Time="3" Value="C#3" Duration="4" Instrument="JTS NoiseTom2"
				Note Time="7" Value="C#3" Duration="3" Instrument="JTS NoiseTom2"
				Note Time="10" Value="C#3" Duration="5" Instrument="JTS NoiseTom2"
				Note Time="15" Value="C#3" Duration="5" Instrument="JTS NoiseTom2"
				Note Time="20" Value="C#3" Duration="5" Instrument="JTS NoiseTom2"
				Note Time="25" Value="C#3" Duration="5" Instrument="JTS NoiseTom2"
				Note Time="30" Value="C#3" Duration="5" Instrument="JTS NoiseTom2"
				Note Time="35" Value="C#3" Duration="5" Instrument="JTS NoiseTom2"
			Pattern Name="Drum1"
				Note Time="0" Value="D#2" Duration="10" Instrument="JTS NoiseTom1"
				Note Time="10" Value="D#2" Duration="10" Instrument="JTS NoiseTom1"
				Note Time="20" Value="C#3" Duration="10" Instrument="JTS NoiseTom2"
				Note Time="30" Value="D#2" Duration="10" Instrument="JTS NoiseTom1"
				Note Time="40" Value="D#2" Duration="10" Instrument="JTS NoiseTom1"
				Note Time="50" Value="D#2" Duration="10" Instrument="JTS NoiseTom1"
				Note Time="60" Value="C#3" Duration="10" Instrument="JTS NoiseTom2"
				Note Time="70" Value="D#2" Duration="10" Instrument="JTS NoiseTom1"
				Note Time="80" Value="D#2" Duration="10" Instrument="JTS NoiseTom1"
				Note Time="90" Value="D#2" Duration="10" Instrument="JTS NoiseTom1"
				Note Time="100" Value="C#3" Duration="10" Instrument="JTS NoiseTom2"
				Note Time="110" Value="D#2" Duration="10" Instrument="JTS NoiseTom1"
				Note Time="120" Value="D#2" Duration="10" Instrument="JTS NoiseTom1"
				Note Time="130" Value="D#2" Duration="10" Instrument="JTS NoiseTom1"
				Note Time="140" Value="C#3" Duration="10" Instrument="JTS NoiseTom2"
				Note Time="150" Value="D#2" Duration="10" Instrument="JTS NoiseTom1"
			Pattern Name="Drum2"
				Note Time="0" Value="D#2" Duration="10" Instrument="JTS NoiseTom1"
				Note Time="10" Value="D#2" Duration="10" Instrument="JTS NoiseTom1"
				Note Time="20" Value="C#3" Duration="10" Instrument="JTS NoiseTom2"
				Note Time="30" Value="D#2" Duration="10" Instrument="JTS NoiseTom1"
				Note Time="40" Value="D#2" Duration="10" Instrument="JTS NoiseTom1"
				Note Time="50" Value="D#2" Duration="10" Instrument="JTS NoiseTom1"
				Note Time="60" Value="C#3" Duration="10" Instrument="JTS NoiseTom2"
				Note Time="70" Value="D#2" Duration="10" Instrument="JTS NoiseTom1"
				Note Time="80" Value="C#3" Duration="10" Instrument="JTS NoiseTom3"
				Note Time="90" Value="C#3" Duration="10" Instrument="JTS NoiseTom3"
				Note Time="100" Value="C#3" Duration="10" Instrument="JTS NoiseTom3"
				Note Time="110" Value="C#3" Duration="10" Instrument="JTS NoiseTom3"
				Note Time="120" Value="C#3" Duration="5" Instrument="JTS NoiseTom3"
				Note Time="125" Value="C#3" Duration="10" Instrument="JTS NoiseTom3"
				Note Time="135" Value="C#3" Duration="5" Instrument="JTS NoiseTom3"
				Note Time="140" Value="C#3" Duration="5" Instrument="JTS NoiseTom3"
				Note Time="145" Value="C#3" Duration="5" Instrument="JTS NoiseTom3"
				Note Time="150" Value="C#3" Duration="10" Instrument="JTS NoiseTom3"
			Pattern Name="Drum3"
				Note Time="0" Value="D#2" Duration="10" Instrument="JTS NoiseTom1"
				Note Time="10" Value="D#2" Duration="10" Instrument="JTS NoiseTom1"
				Note Time="20" Value="C#3" Duration="10" Instrument="JTS NoiseTom2"
				Note Time="30" Value="D#2" Duration="10" Instrument="JTS NoiseTom1"
				Note Time="40" Value="D#2" Duration="10" Instrument="JTS NoiseTom1"
				Note Time="50" Value="D#2" Duration="10" Instrument="JTS NoiseTom1"
				Note Time="60" Value="C#3" Duration="10" Instrument="JTS NoiseTom2"
				Note Time="70" Value="D#2" Duration="10" Instrument="JTS NoiseTom1"
				Note Time="80" Value="C#3" Duration="5" Instrument="JTS NoiseTom3"
				Note Time="85" Value="C#3" Duration="5" Instrument="JTS NoiseTom3"
				Note Time="90" Value="C#3" Duration="5" Instrument="JTS NoiseTom3"
				Note Time="95" Value="C#3" Duration="5" Instrument="JTS NoiseTom3"
				Note Time="100" Value="C#3" Duration="5" Instrument="JTS NoiseTom3"
				Note Time="105" Value="C#3" Duration="5" Instrument="JTS NoiseTom3"
				Note Time="110" Value="C#3" Duration="5" Instrument="JTS NoiseTom3"
				Note Time="115" Value="C#3" Duration="5" Instrument="JTS NoiseTom3"
				Note Time="120" Value="C#3" Duration="5" Instrument="JTS NoiseTom3"
				Note Time="125" Value="C#3" Duration="5" Instrument="JTS NoiseTom3"
				Note Time="130" Value="C#3" Duration="5" Instrument="JTS NoiseTom3"
				Note Time="135" Value="C#3" Duration="5" Instrument="JTS NoiseTom3"
				Note Time="140" Value="C#3" Duration="5" Instrument="JTS NoiseTom3"
				Note Time="145" Value="C#3" Duration="5" Instrument="JTS NoiseTom3"
				Note Time="150" Value="C#3" Duration="5" Instrument="JTS NoiseTom3"
				Note Time="155" Value="C#3" Duration="5" Instrument="JTS NoiseTom3"
			Pattern Name="Drum4"
				Note Time="0" Value="D#2" Duration="10" Instrument="JTS NoiseTom1"
				Note Time="10" Value="D#2" Duration="10" Instrument="JTS NoiseTom1"
				Note Time="20" Value="C#3" Duration="10" Instrument="JTS NoiseTom2"
				Note Time="30" Value="D#2" Duration="10" Instrument="JTS NoiseTom1"
				Note Time="40" Value="D#2" Duration="10" Instrument="JTS NoiseTom1"
				Note Time="50" Value="D#2" Duration="10" Instrument="JTS NoiseTom1"
				Note Time="60" Value="C#3" Duration="10" Instrument="JTS NoiseTom2"
				Note Time="70" Value="D#2" Duration="10" Instrument="JTS NoiseTom1"
				Note Time="80" Value="D#2" Duration="10" Instrument="JTS NoiseTom1"
				Note Time="90" Value="C#3" Duration="10" Instrument="JTS NoiseTom2"
				Note Time="100" Value="C#3" Duration="10" Instrument="JTS NoiseTom2"
				Note Time="110" Value="C#3" Duration="10" Instrument="JTS NoiseTom2"
				Note Time="120" Value="C#3" Duration="21" Instrument="JTS NoiseTom2"
				Note Time="141" Value="C#3" Duration="19" Instrument="JTS NoiseTom2"
			Pattern Name="Drum5"
				Note Time="0" Value="D#2" Duration="40" Instrument="JTS NoiseTom1"
				Note Time="40" Value="D#2" Duration="40" Instrument="JTS NoiseTom1"
				Note Time="80" Value="D#2" Duration="30" Instrument="JTS NoiseTom1"
				Note Time="110" Value="D#2" Duration="20" Instrument="JTS NoiseTom1"
				Note Time="130" Value="C#3" Duration="10" Instrument="JTS NoiseTom2"
				Note Time="140" Value="D#2" Duration="20" Instrument="JTS NoiseTom1"
			Pattern Name="Drum6"
				Note Time="0" Value="D#2" Duration="40" Instrument="JTS NoiseTom1"
				Note Time="40" Value="D#2" Duration="40" Instrument="JTS NoiseTom1"
				Note Time="80" Value="D#2" Duration="30" Instrument="JTS NoiseTom1"
				Note Time="110" Value="D#2" Duration="20" Instrument="JTS NoiseTom1"
				Note Time="130" Value="C#3" Duration="10" Instrument="JTS NoiseTom2"
				Note Time="140" Value="C#3" Duration="10" Instrument="JTS NoiseTom2"
				Note Time="150" Value="C#3" Duration="10" Instrument="JTS NoiseTom2"
			PatternInstance Time="0" Pattern="Fill1"
			PatternInstance Time="1" Pattern="Drum1"
			PatternInstance Time="2" Pattern="Drum2"
			PatternInstance Time="3" Pattern="Drum1"
			PatternInstance Time="4" Pattern="Drum3"
			PatternInstance Time="5" Pattern="Drum1"
			PatternInstance Time="6" Pattern="Drum2"
			PatternInstance Time="7" Pattern="Drum1"
			PatternInstance Time="8" Pattern="Drum3"
			PatternInstance Time="9" Pattern="Drum1"
			PatternInstance Time="10" Pattern="Drum2"
			PatternInstance Time="11" Pattern="Drum1"
			PatternInstance Time="12" Pattern="Drum3"
			PatternInstance Time="13" Pattern="Drum1"
			PatternInstance Time="14" Pattern="Drum2"
			PatternInstance Time="15" Pattern="Drum1"
			PatternInstance Time="16" Pattern="Drum4"
			PatternInstance Time="17" Pattern="Drum5"
			PatternInstance Time="18" Pattern="Drum5"
			PatternInstance Time="19" Pattern="Drum5"
			PatternInstance Time="20" Pattern="Drum6"
			PatternInstance Time="21" Pattern="Drum1"
			PatternInstance Time="22" Pattern="Drum2"
			PatternInstance Time="23" Pattern="Drum1"
			PatternInstance Time="24" Pattern="Drum3"
			PatternInstance Time="25" Pattern="Drum1"
			PatternInstance Time="26" Pattern="Drum2"
			PatternInstance Time="27" Pattern="Drum1"
			PatternInstance Time="28" Pattern="Drum3"
			PatternInstance Time="29" Pattern="Drum3"
		Channel Type="DPCM"
			Pattern Name="Intro3"
				Note Time="0" Value="C3" Duration="10"
				Note Time="10" Value="C3" Duration="10"
				Note Time="20" Value="C3" Duration="10"
				Note Time="30" Value="C3" Duration="10"
				Note Time="40" Value="C3" Duration="10"
				Note Time="50" Value="C3" Duration="10"
				Note Time="60" Value="C3" Duration="10"
				Note Time="70" Value="C3" Duration="10"
				Note Time="80" Value="G2" Duration="10"
				Note Time="90" Value="G2" Duration="10"
				Note Time="100" Value="G3" Duration="10"
				Note Time="110" Value="F2" Duration="10"
				Note Time="120" Value="F2" Duration="10"
				Note Time="130" Value="F3" Duration="10"
				Note Time="140" Value="F2" Duration="10"
				Note Time="150" Value="F3" Duration="10"
			Pattern Name="Intro2"
				Note Time="0" Value="C3" Duration="10"
				Note Time="10" Value="C3" Duration="10"
				Note Time="20" Value="C3" Duration="10"
				Note Time="30" Value="C3" Duration="10"
				Note Time="40" Value="C3" Duration="10"
				Note Time="50" Value="C3" Duration="10"
				Note Time="60" Value="C3" Duration="10"
				Note Time="70" Value="C3" Duration="10"
				Note Time="80" Value="D#2" Duration="10"
				Note Time="90" Value="D#2" Duration="10"
				Note Time="100" Value="D#3" Duration="10"
				Note Time="110" Value="F2" Duration="10"
				Note Time="120" Value="F2" Duration="10"
				Note Time="130" Value="F3" Duration="10"
				Note Time="140" Value="F2" Duration="10"
				Note Time="150" Value="F3" Duration="10"
			Pattern Name="PreChorus1"
				Note Time="0" Value="C3" Duration="10"
				Note Time="10" Value="C3" Duration="10"
				Note Time="20" Value="C3" Duration="10"
				Note Time="30" Value="C3" Duration="10"
				Note Time="40" Value="C3" Duration="10"
				Note Time="50" Value="C3" Duration="10"
				Note Time="60" Value="C3" Duration="10"
				Note Time="70" Value="C3" Duration="10"
				Note Time="80" Value="C3" Duration="10"
				Note Time="90" Value="C3" Duration="10"
				Note Time="100" Value="C3" Duration="10"
				Note Time="110" Value="C3" Duration="10"
				Note Time="120" Value="C3" Duration="10"
				Note Time="130" Value="C3" Duration="10"
				Note Time="140" Value="C3" Duration="10"
				Note Time="150" Value="C3" Duration="10"
			Pattern Name="PreChorus2"
				Note Time="0" Value="C3" Duration="10"
				Note Time="10" Value="C3" Duration="10"
				Note Time="20" Value="C3" Duration="10"
				Note Time="30" Value="C3" Duration="10"
				Note Time="40" Value="C3" Duration="10"
				Note Time="50" Value="C3" Duration="10"
				Note Time="60" Value="C3" Duration="10"
				Note Time="70" Value="G2" Duration="10"
				Note Time="80" Value="G2" Duration="10"
				Note Time="90" Value="G2" Duration="10"
				Note Time="100" Value="G2" Duration="10"
				Note Time="110" Value="G2" Duration="10"
				Note Time="120" Value="G2" Duration="10"
				Note Time="130" Value="G2" Duration="10"
				Note Time="140" Value="G2" Duration="10"
				Note Time="150" Value="G2" Duration="10"
			Pattern Name="Chorus1"
				Note Time="0" Value="C3" Duration="10"
				Note Time="10" Value="C3" Duration="10"
				Note Time="20" Value="C3" Duration="10"
				Note Time="30" Value="C4" Duration="10"
				Note Time="40" Value="C3" Duration="10"
				Note Time="50" Value="C4" Duration="10"
				Note Time="60" Value="C3" Duration="10"
				Note Time="70" Value="C3" Duration="10"
				Note Time="80" Value="A#2" Duration="10"
				Note Time="90" Value="A#3" Duration="10"
				Note Time="100" Value="A#2" Duration="10"
				Note Time="110" Value="A#2" Duration="10"
				Note Time="120" Value="A#2" Duration="10"
				Note Time="130" Value="A#3" Duration="10"
				Note Time="140" Value="A#2" Duration="10"
				Note Time="150" Value="A#2" Duration="10"
			Pattern Name="Chorus2"
				Note Time="0" Value="G2" Duration="10"
				Note Time="10" Value="G2" Duration="10"
				Note Time="20" Value="G2" Duration="10"
				Note Time="30" Value="G3" Duration="10"
				Note Time="40" Value="A#2" Duration="10"
				Note Time="50" Value="A#3" Duration="10"
				Note Time="60" Value="A#2" Duration="10"
				Note Time="70" Value="A#2" Duration="10"
				Note Time="80" Value="C3" Duration="10"
				Note Time="90" Value="C4" Duration="10"
				Note Time="100" Value="C3" Duration="10"
				Note Time="110" Value="C3" Duration="10"
				Note Time="120" Value="C3" Duration="10"
				Note Time="130" Value="C4" Duration="10"
				Note Time="140" Value="C3" Duration="10"
				Note Time="150" Value="C3" Duration="10"
			Pattern Name="Chorus3"
				Note Time="0" Value="F2" Duration="10"
				Note Time="10" Value="F2" Duration="10"
				Note Time="20" Value="F3" Duration="10"
				Note Time="30" Value="F2" Duration="10"
				Note Time="40" Value="F2" Duration="10"
				Note Time="50" Value="F2" Duration="10"
				Note Time="60" Value="F3" Duration="10"
				Note Time="70" Value="F2" Duration="10"
				Note Time="80" Value="G2" Duration="10"
				Note Time="90" Value="G2" Duration="10"
				Note Time="100" Value="G3" Duration="10"
				Note Time="110" Value="G2" Duration="10"
				Note Time="120" Value="G2" Duration="10"
				Note Time="130" Value="G2" Duration="10"
				Note Time="140" Value="G3" Duration="10"
				Note Time="150" Value="G2" Duration="10"
			Pattern Name="Chorus4"
				Note Time="0" Value="C3" Duration="10"
				Note Time="10" Value="C3" Duration="10"
				Note Time="20" Value="C4" Duration="10"
				Note Time="30" Value="C3" Duration="10"
				Note Time="40" Value="C4" Duration="10"
				Note Time="50" Value="C3" Duration="10"
				Note Time="60" Value="C3" Duration="10"
				Note Time="70" Value="C4" Duration="10"
				Note Time="80" Value="C3" Duration="10"
				Note Time="90" Value="C3" Duration="10"
				Note Time="100" Value="C4" Duration="10"
				Note Time="110" Value="C3" Duration="10"
				Note Time="120" Value="C3" Duration="10"
				Note Time="130" Value="C4" Duration="10"
				Note Time="140" Value="C3" Duration="10"
				Note Time="150" Value="C4" Duration="10"
			Pattern Name="Chorus5"
				Note Time="0" Value="C3" Duration="10"
				Note Time="10" Value="C3" Duration="10"
				Note Time="20" Value="C4" Duration="10"
				Note Time="30" Value="C3" Duration="10"
				Note Time="40" Value="C4" Duration="10"
				Note Time="50" Value="C3" Duration="10"
				Note Time="60" Value="C3" Duration="10"
				Note Time="70" Value="C4" Duration="10"
				Note Time="80" Value="C3" Duration="10"
				Note Time="90" Value="C3" Duration="10"
				Note Time="100" Value="C3" Duration="10"
				Note Time="110" Value="C3" Duration="10"
				Note Time="120" Value="C3" Duration="40"
			Pattern Name="Bridge1"
				Note Time="0" Value="C3" Duration="40"
				Note Time="40" Value="C3" Duration="40"
				Note Time="80" Value="C3" Duration="30"
				Note Time="110" Value="C3" Duration="20"
				Note Time="130" Value="C3" Duration="10"
				Note Time="140" Value="C4" Duration="10"
				Note Time="150" Value="C3" Duration="10"
			Pattern Name="Bridge2"
				Note Time="0" Value="A#2" Duration="40"
				Note Time="40" Value="A#2" Duration="40"
				Note Time="80" Value="A#2" Duration="30"
				Note Time="110" Value="A#2" Duration="20"
				Note Time="130" Value="A#2" Duration="10"
				Note Time="140" Value="A#3" Duration="10"
				Note Time="150" Value="A#2" Duration="10"
			Pattern Name="Bridge3"
				Note Time="0" Value="G#2" Duration="40"
				Note Time="40" Value="G#2" Duration="40"
				Note Time="80" Value="G#2" Duration="30"
				Note Time="110" Value="G#2" Duration="20"
				Note Time="130" Value="G#2" Duration="10"
				Note Time="140" Value="A#3" Duration="10"
				Note Time="150" Value="G#2" Duration="10"
			Pattern Name="Bridge4"
				Note Time="0" Value="A#2" Duration="40"
				Note Time="40" Value="A#2" Duration="40"
				Note Time="80" Value="A#2" Duration="30"
				Note Time="110" Value="A#2" Duration="20"
				Note Time="130" Value="A#3" Duration="10"
				Note Time="140" Value="A#2" Duration="10"
				Note Time="150" Value="A#3" Duration="10"
			Pattern Name="Bridge7"
				Note Time="0" Value="C3" Duration="10"
				Note Time="10" Value="C3" Duration="10"
				Note Time="20" Value="C4" Duration="10"
				Note Time="30" Value="C3" Duration="10"
				Note Time="40" Value="C3" Duration="10"
				Note Time="50" Value="C4" Duration="10"
				Note Time="60" Value="C3" Duration="10"
				Note Time="70" Value="C4" Duration="10"
				Note Time="80" Value="A#2" Duration="10"
				Note Time="90" Value="A#2" Duration="10"
				Note Time="100" Value="A#3" Duration="10"
				Note Time="110" Value="A#2" Duration="10"
				Note Time="120" Value="A#2" Duration="10"
				Note Time="130" Value="A#3" Duration="10"
				Note Time="140" Value="A#2" Duration="10"
				Note Time="150" Value="A#3" Duration="10"
			Pattern Name="Bridge6"
				Note Time="0" Value="G#2" Duration="10"
				Note Time="10" Value="G#2" Duration="10"
				Note Time="20" Value="G#3" Duration="10"
				Note Time="30" Value="G#2" Duration="10"
				Note Time="40" Value="G#2" Duration="10"
				Note Time="50" Value="G#3" Duration="10"
				Note Time="60" Value="G#2" Duration="10"
				Note Time="70" Value="G#3" Duration="10"
				Note Time="80" Value="A#2" Duration="10"
				Note Time="90" Value="A#2" Duration="10"
				Note Time="100" Value="A#3" Duration="10"
				Note Time="110" Value="A#2" Duration="10"
				Note Time="120" Value="A#2" Duration="10"
				Note Time="130" Value="A#3" Duration="10"
				Note Time="140" Value="A#2" Duration="10"
				Note Time="150" Value="A#3" Duration="10"
			Pattern Name="Bridge8"
				Note Time="0" Value="G#2" Duration="10"
				Note Time="10" Value="G#2" Duration="10"
				Note Time="20" Value="G#3" Duration="10"
				Note Time="30" Value="G#2" Duration="10"
				Note Time="40" Value="G#2" Duration="10"
				Note Time="50" Value="G#3" Duration="10"
				Note Time="60" Value="G#2" Duration="10"
				Note Time="70" Value="G#3" Duration="10"
				Note Time="80" Value="C3" Duration="10"
				Note Time="90" Value="C3" Duration="10"
				Note Time="100" Value="C4" Duration="10"
				Note Time="110" Value="C3" Duration="10"
				Note Time="120" Value="C3" Duration="10"
				Note Time="130" Value="C4" Duration="10"
				Note Time="140" Value="C3" Duration="10"
				Note Time="150" Value="C4" Duration="10"
			Pattern Name="Outro1"
				Note Time="0" Value="C3" Duration="10"
				Note Time="10" Value="C3" Duration="10"
				Note Time="20" Value="C3" Duration="10"
				Note Time="30" Value="C4" Duration="10"
				Note Time="40" Value="C3" Duration="10"
				Note Time="50" Value="C3" Duration="10"
				Note Time="60" Value="A#3" Duration="10"
				Note Time="70" Value="C4" Duration="10"
				Note Time="80" Value="A#2" Duration="10"
				Note Time="90" Value="A#2" Duration="10"
				Note Time="100" Value="A#2" Duration="10"
				Note Time="110" Value="A#3" Duration="10"
				Note Time="120" Value="A#2" Duration="10"
				Note Time="130" Value="A#2" Duration="10"
				Note Time="140" Value="G#3" Duration="10"
				Note Time="150" Value="A#3" Duration="10"
			Pattern Name="Outro2"
				Note Time="0" Value="A2" Duration="10"
				Note Time="10" Value="A2" Duration="10"
				Note Time="20" Value="A2" Duration="10"
				Note Time="30" Value="A3" Duration="10"
				Note Time="40" Value="A2" Duration="10"
				Note Time="50" Value="A2" Duration="10"
				Note Time="60" Value="G2" Duration="10"
				Note Time="70" Value="A3" Duration="10"
				Note Time="80" Value="G#2" Duration="10"
				Note Time="90" Value="G#2" Duration="10"
				Note Time="100" Value="G#2" Duration="10"
				Note Time="110" Value="G#3" Duration="10"
				Note Time="120" Value="G#2" Duration="10"
				Note Time="130" Value="G#2" Duration="10"
				Note Time="140" Value="F#3" Duration="10"
				Note Time="150" Value="G#3" Duration="10"
			Pattern Name="Outro3"
				Note Time="0" Value="C3" Duration="10"
				Note Time="10" Value="C3" Duration="10"
				Note Time="20" Value="C3" Duration="10"
				Note Time="30" Value="C4" Duration="10"
				Note Time="40" Value="C3" Duration="10"
				Note Time="50" Value="C3" Duration="10"
				Note Time="60" Value="A#3" Duration="10"
				Note Time="70" Value="C4" Duration="10"
				Note Time="80" Value="C3" Duration="10"
				Note Time="90" Value="C3" Duration="10"
				Note Time="100" Value="C4" Duration="10"
				Note Time="110" Value="C3" Duration="10"
				Note Time="120" Value="C3" Duration="10"
				Note Time="130" Value="C4" Duration="10"
				Note Time="140" Value="C3" Duration="10"
				Note Time="150" Value="C4" Duration="10"
			PatternInstance Time="1" Pattern="Intro3"
			PatternInstance Time="2" Pattern="Intro2"
			PatternInstance Time="3" Pattern="Intro3"
			PatternInstance Time="4" Pattern="Intro2"
			PatternInstance Time="5" Pattern="PreChorus1"
			PatternInstance Time="6" Pattern="PreChorus1"
			PatternInstance Time="7" Pattern="PreChorus1"
			PatternInstance Time="8" Pattern="PreChorus2"
			PatternInstance Time="9" Pattern="Chorus1"
			PatternInstance Time="10" Pattern="Chorus2"
			PatternInstance Time="11" Pattern="Chorus1"
			PatternInstance Time="12" Pattern="Chorus2"
			PatternInstance Time="13" Pattern="Chorus3"
			PatternInstance Time="14" Pattern="Chorus4"
			PatternInstance Time="15" Pattern="Chorus3"
			PatternInstance Time="16" Pattern="Chorus5"
			PatternInstance Time="17" Pattern="Bridge1"
			PatternInstance Time="18" Pattern="Bridge2"
			PatternInstance Time="19" Pattern="Bridge3"
			PatternInstance Time="20" Pattern="Bridge4"
			PatternInstance Time="21" Pattern="Bridge7"
			PatternInstance Time="22" Pattern="Bridge6"
			PatternInstance Time="23" Pattern="Bridge7"
			PatternInstance Time="24" Pattern="Bridge8"
			PatternInstance Time="25" Pattern="Outro1"
			PatternInstance Time="26" Pattern="Outro2"
			PatternInstance Time="27" Pattern="Outro1"
			PatternInstance Time="28" Pattern="Outro2"
			PatternInstance Time="29" Pattern="Outro3"
