Project Version="3.1.1" TempoMode="FamiStudio" Name="surfer"
	Instrument Name="SS NoiseBassDrumLong"
		Envelope Type="Volume" Length="10" Values="5,4,4,3,3,3,2,2,2,1"
		Envelope Type="Arpeggio" Length="2" Values="0,2"
	Instrument Name="SS NoiseBassDrumShort"
		Envelope Type="Volume" Length="5" Values="5,3,2,1,0"
		Envelope Type="Arpeggio" Length="2" Values="0,5"
	Instrument Name="SS NoiseHiHat2"
		Envelope Type="Volume" Length="5" Values="3,3,2,1,0"
		Envelope Type="Arpeggio" Length="2" Values="0,2"
	Instrument Name="SS NoiseHitHat1"
		Envelope Type="Volume" Length="10" Values="4,4,4,3,3,3,2,2,2,1"
		Envelope Type="Arpeggio" Length="2" Values="0,2"
	Instrument Name="SS NoiseIntroCrash1"
		Envelope Type="Volume" Length="33" Loop="30" Release="31" Values="7,3,3,3,3,3,3,3,3,3,3,3,3,3,3,3,3,3,2,2,2,2,2,2,1,1,1,1,1,1,0,1,2"
		Envelope Type="Arpeggio" Length="14" Values="0,4,4,4,5,5,5,5,6,6,6,6,6,7"
	Instrument Name="SS NoiseIntroCrash2"
		Envelope Type="Volume" Length="11" Values="5,4,4,4,4,3,3,3,3,3,2"
		Envelope Type="Arpeggio" Length="2" Values="0,6"
	Instrument Name="SS NoiseIntroCrash3"
		Envelope Type="Volume" Length="14" Values="5,4,4,4,3,3,3,3,2,2,2,2,2,1"
		Envelope Type="Arpeggio" Length="2" Values="0,4"
	Instrument Name="SS NoiseIntroCrash4"
		Envelope Type="Volume" Length="9" Values="4,4,4,4,3,3,3,3,2"
		Envelope Type="Arpeggio" Length="2" Values="0,2"
	Instrument Name="SS NoiseSnare"
		Envelope Type="Volume" Length="12" Values="7,5,5,4,4,3,3,2,2,1,1,0"
		Envelope Type="Arpeggio" Length="2" Values="0,3"
	Instrument Name="SS NoiseWeirdIntro1"
		Envelope Type="Arpeggio" Length="12" Loop="0" Values="0,-1,-2,-3,-4,-5,-6,-7,-8,-9,-10,-11"
		Envelope Type="DutyCycle" Length="1" Values="1"
	Instrument Name="SS NoiseWeirdIntro2"
		Envelope Type="DutyCycle" Length="6" Loop="0" Values="0,0,1,1,0,0"
	Instrument Name="SS PlainDuty0"
	Instrument Name="SS PlainDuty2"
		Envelope Type="DutyCycle" Length="1" Values="2"
	Instrument Name="SS PlainDuty3"
		Envelope Type="DutyCycle" Length="1" Values="3"
	Instrument Name="SS SqGuitarOctave"
		Envelope Type="Volume" Length="1" Values="4"
		Envelope Type="Arpeggio" Length="3" Values="0,12,0"
		Envelope Type="Pitch" Length="3" Values="0,0,1"
	Instrument Name="SS SqGuitarOctaveAlt"
		Envelope Type="Volume" Length="1" Values="4"
		Envelope Type="Arpeggio" Length="3" Values="0,19,0"
		Envelope Type="Pitch" Length="2" Values="0,1"
		Envelope Type="DutyCycle" Length="1" Values="3"
	Instrument Name="SS SqGuitarOctaveAltFast"
		Envelope Type="Volume" Length="6" Values="4,3,4,4,2,1"
		Envelope Type="Arpeggio" Length="3" Values="0,19,0"
		Envelope Type="Pitch" Length="2" Values="0,1"
		Envelope Type="DutyCycle" Length="1" Values="3"
	Instrument Name="SS SqHighPitchNoise"
		Envelope Type="Volume" Length="48" Loop="0" Values="8,7,6,5,4,3,2,1,1,1,1,2,4,3,2,1,1,2,4,3,2,1,1,2,6,5,4,3,2,1,4,3,2,1,1,1,3,2,1,1,1,2,4,3,2,1,1,4"
		Envelope Type="Pitch" Length="2" Values="-1,0"
		Envelope Type="DutyCycle" Length="1" Values="2"
	Instrument Name="SS SqIntroArpeggio"
		Envelope Type="Volume" Length="10" Loop="0" Release="1" Values="5,4,4,4,4,3,3,3,3,2"
	Instrument Name="SS SqIntroSlide"
		Envelope Type="Volume" Length="1" Values="3"
		Envelope Type="Pitch" Length="6" Loop="0" Values="-11,4,19,34,49,63"
		Envelope Type="DutyCycle" Length="1" Values="2"
	Instrument Name="SS SqOutroOctave"
		Envelope Type="Volume" Length="4" Loop="0" Values="5,5,4,4"
		Envelope Type="Arpeggio" Length="3" Values="0,0,12"
		Envelope Type="DutyCycle" Length="1" Values="3"
	Instrument Name="SS SqVerseAArpeggio"
		Envelope Type="Volume" Length="6" Values="5,5,4,4,4,3"
		Envelope Type="DutyCycle" Length="1" Values="1"
	Instrument Name="SS SqVerseABleepOctave"
		Envelope Type="Arpeggio" Length="5" Values="0,0,0,0,-12"
	Instrument Name="SS SqVerseABleeps"
		Envelope Type="Volume" Length="4" Values="1,2,3,4"
		Envelope Type="DutyCycle" Length="1" Values="2"
	Instrument Name="SS SqVerseAMelodyDuty0"
		Envelope Type="Volume" Length="5" Values="2,4,5,6,4"
		Envelope Type="Pitch" Length="18" Loop="10" Values="0,0,0,0,0,0,0,0,0,0,0,-2,-4,-2,0,2,4,2"
	Instrument Name="SS SqVerseAMelodyDuty0Oct"
		Envelope Type="Volume" Length="5" Values="2,4,5,6,4"
		Envelope Type="Arpeggio" Length="6" Loop="0" Values="0,0,-12,-12,0,0"
	Instrument Name="SS SqVerseAMelodyDuty1"
		Envelope Type="Volume" Length="5" Values="2,4,5,6,4"
		Envelope Type="Pitch" Length="18" Loop="10" Values="0,0,0,0,0,0,0,0,0,0,0,-2,-4,-2,0,2,4,2"
		Envelope Type="DutyCycle" Length="1" Values="1"
	Instrument Name="SS SqVerseAMelodyDuty2"
		Envelope Type="Volume" Length="5" Values="2,4,5,6,4"
		Envelope Type="Pitch" Length="18" Loop="10" Values="0,0,0,0,0,0,0,0,0,0,0,-2,-4,-2,0,2,4,2"
		Envelope Type="DutyCycle" Length="1" Values="2"
	Instrument Name="SS SqVerseBArpeggio"
		Envelope Type="Volume" Length="4" Loop="0" Values="5,5,4,4"
	Instrument Name="SS SqVerseBMelodyDuty2"
		Envelope Type="Volume" Length="3" Loop="0" Release="1" Values="4,2,1"
		Envelope Type="Pitch" Length="16" Loop="4" Values="0,0,0,0,0,-1,-2,-3,-2,-1,0,1,2,3,2,1"
		Envelope Type="DutyCycle" Length="1" Values="2"
	Instrument Name="SS SqVerseBMelodyDuty3"
		Envelope Type="Volume" Length="3" Loop="0" Release="1" Values="5,3,1"
		Envelope Type="Pitch" Length="21" Loop="9" Values="0,0,0,0,0,0,0,0,0,0,-1,-2,-3,-2,-1,0,1,2,3,2,1"
		Envelope Type="DutyCycle" Length="1" Values="3"
	Instrument Name="SS TriBassDrum"
		Envelope Type="Volume" Length="7" Values="15,15,15,15,15,15,0"
		Envelope Type="Arpeggio" Length="6" Values="0,-2,-6,-10,-12,-14"
	Instrument Name="SS TriSnare"
		Envelope Type="Volume" Length="3" Values="15,15,0"
		Envelope Type="Arpeggio" Length="2" Values="0,-1"
	Arpeggio Name="Intro-0-3-7-12-Fast" Length="12" Loop="0" Values="0,12,3,15,7,19,12,24,7,12,15,19"
	Arpeggio Name="Intro-0-4-6-9-Slow" Length="16" Loop="0" Values="0,0,12,12,4,4,16,16,6,6,18,18,9,9,21,21"
	Arpeggio Name="Intro-0-4-7-12-Fast" Length="12" Loop="0" Values="0,12,4,16,7,19,12,24,7,12,15,19"
	Arpeggio Name="Intro-0-4-7-12-Slow" Length="24" Loop="0" Values="0,0,12,12,4,4,15,15,7,7,19,19,12,12,24,24,7,7,12,12,15,15,19,19"
	Arpeggio Name="Outro-0-4-7-11-Slow" Length="16" Loop="0" Values="0,0,12,12,4,4,16,16,7,7,19,19,11,11,23,23"
	Arpeggio Name="Outro-0-4-7-Slow" Length="12" Loop="0" Values="0,0,12,12,4,4,16,16,7,7,19,19"
	Arpeggio Name="Verse-0-4-7" Length="12" Loop="0" Values="0,0,0,4,4,4,7,7,7,4,4,4"
	Arpeggio Name="Verse-0-4-9" Length="12" Loop="0" Values="0,0,0,4,4,4,9,9,9,4,4,4"
	Arpeggio Name="Verse-0-5-7" Length="12" Loop="0" Values="0,0,0,5,5,5,7,7,7,5,5,5"
	Arpeggio Name="Verse-0-5-8" Length="12" Loop="0" Values="0,0,0,5,5,5,8,8,8,5,5,5"
	Arpeggio Name="Verse-0-5-9" Length="12" Loop="0" Values="0,0,0,5,5,5,9,9,9,5,5,5"
	Song Name="BGM2" Length="32" LoopPoint="1" PatternLength="32" BeatLength="4" NoteLength="6" Groove="6" GroovePaddingMode="Middle"
		PatternCustomSettings Time="0" Length="30" NoteLength="6" Groove="6" GroovePaddingMode="Middle" BeatLength="4"
		PatternCustomSettings Time="3" Length="34" NoteLength="6" Groove="6" GroovePaddingMode="Middle" BeatLength="4"
		PatternCustomSettings Time="31" Length="30" NoteLength="6" Groove="6" GroovePaddingMode="Middle" BeatLength="4"
		Channel Type="Square1"
			Pattern Name="Slide1"
				Note Time="0" Value="D4" Duration="6" Instrument="SS PlainDuty0" Volume="2"
				Note Time="6" Value="A3" Duration="6" Instrument="SS PlainDuty0"
				Note Time="12" Value="D4" Duration="6" Instrument="SS PlainDuty0"
				Note Time="18" Value="A3" Duration="6" Instrument="SS PlainDuty0"
				Note Time="24" Value="D4" Duration="6" Instrument="SS PlainDuty0"
				Note Time="30" Value="A3" Duration="6" Instrument="SS PlainDuty0"
				Note Time="36" Value="D4" Duration="6" Instrument="SS PlainDuty0"
				Note Time="42" Value="A3" Duration="6" Instrument="SS PlainDuty0"
				Note Time="48" Value="D4" Duration="6" Instrument="SS PlainDuty0"
				Note Time="54" Value="A3" Duration="6" Instrument="SS PlainDuty0"
				Note Time="60" Value="D4" Duration="6" Instrument="SS PlainDuty0"
				Note Time="66" Value="A3" Duration="6" Instrument="SS PlainDuty0"
				Note Time="72" Value="D4" Duration="6" Instrument="SS PlainDuty0"
				Note Time="78" Value="A3" Duration="6" Instrument="SS PlainDuty0"
				Note Time="84" Value="D4" Duration="6" Instrument="SS PlainDuty0"
				Note Time="90" Value="A3" Duration="6" Instrument="SS PlainDuty0"
				Note Time="96" Value="D4" Duration="6" Instrument="SS PlainDuty0"
				Note Time="102" Value="A3" Duration="6" Instrument="SS PlainDuty0"
				Note Time="108" Value="D4" Duration="6" Instrument="SS PlainDuty0"
				Note Time="114" Value="A3" Duration="6" Instrument="SS PlainDuty0"
				Note Time="120" Value="D4" Duration="6" Instrument="SS PlainDuty0"
				Note Time="126" Value="A3" Duration="6" Instrument="SS PlainDuty0"
				Note Time="132" Value="D4" Duration="6" Instrument="SS PlainDuty0"
				Note Time="138" Value="A3" Duration="6" Instrument="SS PlainDuty0"
				Note Time="144" Value="D4" Duration="6" Instrument="SS PlainDuty0"
				Note Time="150" Value="A3" Duration="6" Instrument="SS PlainDuty0"
				Note Time="156" Value="D4" Duration="6" Instrument="SS PlainDuty0"
				Note Time="162" Value="A3" Duration="6" Instrument="SS PlainDuty0"
				Note Time="168" Value="D4" Duration="6" Instrument="SS PlainDuty0"
				Note Time="174" Value="A3" Duration="6" Instrument="SS PlainDuty0"
			Pattern Name="Intro1"
				Note Time="0" Value="C3" Duration="36" Instrument="SS SqIntroArpeggio" Arpeggio="Intro-0-4-7-12-Fast" Volume="15"
				Note Time="36" Value="D3" Duration="36" Release="26" Instrument="SS SqIntroArpeggio" Arpeggio="Intro-0-3-7-12-Fast" Attack="False"
				Note Time="72" Value="F3" Duration="24" Instrument="SS SqIntroArpeggio" Arpeggio="Intro-0-4-7-12-Fast"
				Note Time="96" Value="G3" Duration="96" Release="86" Instrument="SS SqIntroArpeggio" Arpeggio="Intro-0-4-7-12-Fast" Attack="False"
			Pattern Name="Intro2"
				Note Time="0" Value="C3" Duration="36" Instrument="SS SqIntroArpeggio" Arpeggio="Intro-0-4-7-12-Fast"
				Note Time="36" Value="D3" Duration="36" Release="26" Instrument="SS SqIntroArpeggio" Arpeggio="Intro-0-3-7-12-Fast" Attack="False"
				Note Time="72" Value="F3" Duration="24" Instrument="SS SqIntroArpeggio" Arpeggio="Intro-0-4-7-12-Fast"
				Note Time="96" Value="G3" Duration="96" Release="86" Instrument="SS SqIntroArpeggio" Arpeggio="Intro-0-4-7-12-Fast" Attack="False"
			Pattern Name="Intro3"
				Note Time="0" Value="C3" Duration="36" Instrument="SS SqIntroArpeggio" Arpeggio="Intro-0-4-7-12-Fast"
				Note Time="36" Value="D3" Duration="36" Release="26" Instrument="SS SqIntroArpeggio" Arpeggio="Intro-0-3-7-12-Fast" Attack="False"
				Note Time="72" Value="F3" Duration="24" Instrument="SS SqIntroArpeggio" Arpeggio="Intro-0-4-7-12-Fast"
				Note Time="96" Value="G3" Duration="96" Release="86" Instrument="SS SqIntroArpeggio" Arpeggio="Intro-0-4-7-12-Fast" Attack="False"
				Note Time="192" Value="G3" Duration="12" Instrument="SS SqIntroArpeggio" Arpeggio="Intro-0-4-7-12-Fast"
			Pattern Name="Intro4"
				Note Time="0" Value="D#3" Duration="96" Instrument="SS PlainDuty0" Arpeggio="Intro-0-4-7-12-Slow" Volume="4"
				Note Time="96" Value="D#3" Duration="96" Instrument="SS PlainDuty0" Arpeggio="Intro-0-4-6-9-Slow"
			Pattern Name="VerseA1"
				Note Time="0" Value="B2" Duration="4" Instrument="SS SqGuitarOctave" Volume="15"
				Note Time="6" Value="B1" Duration="4" Instrument="SS SqGuitarOctave"
				Note Time="12" Value="B1" Duration="4" Instrument="SS SqGuitarOctave"
				Note Time="18" Value="B1" Duration="4" Instrument="SS SqGuitarOctave"
				Note Time="24" Value="B1" Duration="4" Instrument="SS SqGuitarOctave"
				Note Time="30" Value="B1" Duration="4" Instrument="SS SqGuitarOctave"
				Note Time="36" Value="B1" Duration="4" Instrument="SS SqGuitarOctave"
				Note Time="42" Value="E2" Duration="16" Instrument="SS SqGuitarOctave"
				Note Time="60" Value="D2" Duration="10" Instrument="SS SqGuitarOctave"
				Note Time="72" Value="C#2" Duration="10" Instrument="SS SqGuitarOctave"
				Note Time="84" Value="D2" Duration="10" Instrument="SS SqGuitarOctave"
				Note Time="96" Value="B2" Duration="4" Instrument="SS SqGuitarOctave"
				Note Time="102" Value="B1" Duration="4" Instrument="SS SqGuitarOctave"
				Note Time="108" Value="B1" Duration="4" Instrument="SS SqGuitarOctave"
				Note Time="114" Value="B1" Duration="4" Instrument="SS SqGuitarOctave"
				Note Time="120" Value="B1" Duration="4" Instrument="SS SqGuitarOctave"
				Note Time="126" Value="B1" Duration="4" Instrument="SS SqGuitarOctave"
				Note Time="132" Value="B1" Duration="4" Instrument="SS SqGuitarOctave"
				Note Time="138" Value="E2" Duration="16" Instrument="SS SqGuitarOctave"
				Note Time="156" Value="F#2" Duration="10" Instrument="SS SqGuitarOctave"
				Note Time="168" Value="A2" Duration="10" Instrument="SS SqGuitarOctave"
				Note Time="180" Value="B2" Duration="10" Instrument="SS SqGuitarOctave"
			Pattern Name="VerseA2"
				Note Time="0" Value="B2" Duration="4" Instrument="SS SqGuitarOctave"
				Note Time="6" Value="B1" Duration="4" Instrument="SS SqGuitarOctave"
				Note Time="12" Value="B1" Duration="4" Instrument="SS SqGuitarOctave"
				Note Time="18" Value="B1" Duration="4" Instrument="SS SqGuitarOctave"
				Note Time="24" Value="B1" Duration="4" Instrument="SS SqGuitarOctave"
				Note Time="30" Value="B1" Duration="4" Instrument="SS SqGuitarOctave"
				Note Time="36" Value="B1" Duration="4" Instrument="SS SqGuitarOctave"
				Note Time="42" Value="E2" Duration="16" Instrument="SS SqGuitarOctave"
				Note Time="60" Value="D2" Duration="10" Instrument="SS SqGuitarOctave"
				Note Time="72" Value="C#2" Duration="10" Instrument="SS SqGuitarOctave"
				Note Time="84" Value="D2" Duration="10" Instrument="SS SqGuitarOctave"
				Note Time="96" Value="B2" Duration="4" Instrument="SS SqGuitarOctave"
				Note Time="102" Value="B1" Duration="4" Instrument="SS SqGuitarOctave"
				Note Time="108" Value="B1" Duration="4" Instrument="SS SqGuitarOctave"
				Note Time="114" Value="B1" Duration="4" Instrument="SS SqGuitarOctave"
				Note Time="120" Value="B1" Duration="4" Instrument="SS SqGuitarOctave"
				Note Time="126" Value="B1" Duration="4" Instrument="SS SqGuitarOctave"
				Note Time="132" Value="B1" Duration="4" Instrument="SS SqGuitarOctave"
				Note Time="138" Value="E2" Duration="16" Instrument="SS SqGuitarOctave"
				Note Time="156" Value="F#2" Duration="10" Instrument="SS SqGuitarOctave"
				Note Time="168" Value="A2" Duration="10" Instrument="SS SqGuitarOctave"
				Note Time="180" Value="B2" Duration="10" Instrument="SS SqGuitarOctave"
			Pattern Name="VerseA3"
				Note Time="0" Value="F#3" Duration="48" Instrument="SS SqVerseAArpeggio" Arpeggio="Verse-0-5-8"
				Note Time="48" Value="G3" Duration="48" Instrument="SS SqVerseAArpeggio" Arpeggio="Verse-0-4-9"
				Note Time="96" Value="E3" Duration="48" Instrument="SS SqVerseAArpeggio" Arpeggio="Verse-0-5-9"
				Note Time="144" Value="F#3" Duration="24" Instrument="SS SqVerseAArpeggio" Arpeggio="Verse-0-5-7"
				Note Time="168" Value="F#3" Duration="24" Instrument="SS SqVerseAArpeggio" Arpeggio="Verse-0-4-7"
			Pattern Name="VerseA4"
				Note Time="0" Value="F#3" Duration="48" Instrument="SS SqVerseAArpeggio" Arpeggio="Verse-0-5-8" Attack="False"
				Note Time="48" Value="G3" Duration="48" Instrument="SS SqVerseAArpeggio" Arpeggio="Verse-0-4-9"
				Note Time="96" Value="E3" Duration="48" Instrument="SS SqVerseAArpeggio" Arpeggio="Verse-0-5-9"
				Note Time="144" Value="F#3" Duration="24" Instrument="SS SqVerseAArpeggio" Arpeggio="Verse-0-5-7"
				Note Time="168" Value="F#3" Duration="24" Instrument="SS SqVerseAArpeggio" Arpeggio="Verse-0-4-7"
			Pattern Name="HighPitch1"
				Note Time="0" Value="B3" Duration="24" Instrument="SS PlainDuty2" Volume="3"
				Note Time="24" Value="B3" Duration="168" Instrument="SS PlainDuty2" SlideTarget="B5" Attack="False"
			Pattern Name="HighPitch2"
				Note Time="0" Value="D7" Duration="48" Instrument="SS SqHighPitchNoise" Volume="15"
				Note Time="48" Value="D7" Duration="48" Instrument="SS SqHighPitchNoise"
				Note Time="96" Value="D7" Duration="48" Instrument="SS SqHighPitchNoise"
				Note Time="144" Value="D7" Duration="48" Instrument="SS SqHighPitchNoise"
			Pattern Name="HighPitch3"
				Note Time="0" Value="D7" Duration="48" Instrument="SS SqHighPitchNoise"
				Note Time="48" Value="D7" Duration="48" Instrument="SS SqHighPitchNoise"
				Note Time="96" Value="D7" Duration="48" Instrument="SS SqHighPitchNoise"
				Note Time="144" Value="D7" Duration="48" Instrument="SS SqHighPitchNoise"
			Pattern Name="Bridge1"
				Note Time="0" Value="A#2" Duration="12" Instrument="SS SqGuitarOctaveAlt"
				Note Time="12" Value="A#1" Duration="12" Instrument="SS SqGuitarOctaveAlt"
				Note Time="24" Value="A#2" Duration="12" Instrument="SS SqGuitarOctaveAlt"
				Note Time="36" Value="A#1" Duration="12" Instrument="SS SqGuitarOctaveAlt"
				Note Time="48" Value="A#2" Duration="12" Instrument="SS SqGuitarOctaveAlt"
				Note Time="60" Value="A#1" Duration="12" Instrument="SS SqGuitarOctaveAlt"
				Note Time="72" Value="A#2" Duration="12" Instrument="SS SqGuitarOctaveAlt"
				Note Time="84" Value="A#1" Duration="12" Instrument="SS SqGuitarOctaveAlt"
				Note Time="96" Value="G#2" Duration="12" Instrument="SS SqGuitarOctaveAlt"
				Note Time="108" Value="A#1" Duration="6" Instrument="SS SqGuitarOctaveAltFast"
				Note Time="114" Value="G#2" Duration="6" Instrument="SS SqGuitarOctaveAltFast"
				Note Time="120" Value="A#1" Duration="6" Instrument="SS SqGuitarOctaveAltFast"
				Note Time="126" Value="A#1" Duration="6" Instrument="SS SqGuitarOctaveAltFast"
				Note Time="132" Value="G#2" Duration="6" Instrument="SS SqGuitarOctaveAltFast"
				Note Time="138" Value="A#1" Duration="6" Instrument="SS SqGuitarOctaveAltFast"
				Note Time="144" Value="A#1" Duration="6" Instrument="SS SqGuitarOctaveAltFast"
				Note Time="150" Value="G#2" Duration="6" Instrument="SS SqGuitarOctaveAltFast"
				Note Time="156" Value="A#1" Duration="6" Instrument="SS SqGuitarOctaveAltFast"
				Note Time="162" Value="A#1" Duration="6" Instrument="SS SqGuitarOctaveAltFast"
				Note Time="168" Value="G#2" Duration="6" Instrument="SS SqGuitarOctaveAltFast"
				Note Time="174" Value="A#1" Duration="6" Instrument="SS SqGuitarOctaveAltFast"
				Note Time="180" Value="A#1" Duration="6" Instrument="SS SqGuitarOctaveAltFast"
				Note Time="186" Value="G#2" Duration="6" Instrument="SS SqGuitarOctaveAltFast"
			Pattern Name="VerseB1"
				Note Time="0" Value="B2" Duration="96" Instrument="SS SqVerseBArpeggio" Arpeggio="Outro-0-4-7-Slow"
				Note Time="96" Value="A2" Duration="96" Instrument="SS SqVerseBArpeggio" Arpeggio="Outro-0-4-7-11-Slow"
			Pattern Name="VerseB2"
				Note Time="0" Value="G#2" Duration="96" Instrument="SS SqVerseBArpeggio" Arpeggio="Outro-0-4-7-Slow"
				Note Time="96" Value="F#2" Duration="96" Instrument="SS SqVerseBArpeggio" Arpeggio="Outro-0-4-7-11-Slow"
			Pattern Name="Outro1"
				Note Time="0" Value="A#1" Duration="4" Instrument="SS SqOutroOctave"
				Note Time="4" Value="C2" Duration="4" Instrument="SS SqOutroOctave"
				Note Time="8" Value="D2" Duration="4" Instrument="SS SqOutroOctave"
				Note Time="12" Value="F2" Duration="4" Instrument="SS SqOutroOctave"
				Note Time="16" Value="A#2" Duration="4" Instrument="SS SqOutroOctave"
				Note Time="20" Value="C3" Duration="4" Instrument="SS SqOutroOctave"
				Note Time="24" Value="D3" Duration="4" Instrument="SS SqOutroOctave"
				Note Time="28" Value="F3" Duration="4" Instrument="SS SqOutroOctave"
				Note Time="32" Value="A#3" Duration="4" Instrument="SS SqOutroOctave"
				Note Time="36" Value="C4" Duration="4" Instrument="SS SqOutroOctave"
				Note Time="40" Value="D4" Duration="4" Instrument="SS SqOutroOctave"
				Note Time="44" Value="F4" Duration="4" Instrument="SS SqOutroOctave"
				Note Time="48" Value="D4" Duration="4" Instrument="SS SqOutroOctave"
				Note Time="52" Value="C4" Duration="4" Instrument="SS SqOutroOctave"
				Note Time="56" Value="A#3" Duration="4" Instrument="SS SqOutroOctave"
				Note Time="60" Value="F3" Duration="4" Instrument="SS SqOutroOctave"
				Note Time="64" Value="D3" Duration="4" Instrument="SS SqOutroOctave"
				Note Time="68" Value="C3" Duration="4" Instrument="SS SqOutroOctave"
				Note Time="72" Value="A#2" Duration="4" Instrument="SS SqOutroOctave"
				Note Time="76" Value="F2" Duration="4" Instrument="SS SqOutroOctave"
				Note Time="80" Value="D2" Duration="4" Instrument="SS SqOutroOctave"
				Note Time="84" Value="C2" Duration="4" Instrument="SS SqOutroOctave"
				Note Time="88" Value="A#1" Duration="4" Instrument="SS SqOutroOctave"
				Note Time="92" Value="F1" Duration="4" Instrument="SS SqOutroOctave"
				Note Time="96" Value="C2" Duration="4" Instrument="SS SqOutroOctave"
				Note Time="100" Value="D2" Duration="4" Instrument="SS SqOutroOctave"
				Note Time="104" Value="E2" Duration="4" Instrument="SS SqOutroOctave"
				Note Time="108" Value="G2" Duration="4" Instrument="SS SqOutroOctave"
				Note Time="112" Value="C3" Duration="4" Instrument="SS SqOutroOctave"
				Note Time="116" Value="D3" Duration="4" Instrument="SS SqOutroOctave"
				Note Time="120" Value="E3" Duration="4" Instrument="SS SqOutroOctave"
				Note Time="124" Value="G3" Duration="4" Instrument="SS SqOutroOctave"
				Note Time="128" Value="C4" Duration="4" Instrument="SS SqOutroOctave"
				Note Time="132" Value="D4" Duration="4" Instrument="SS SqOutroOctave"
				Note Time="136" Value="E4" Duration="4" Instrument="SS SqOutroOctave"
				Note Time="140" Value="G4" Duration="4" Instrument="SS SqOutroOctave"
				Note Time="144" Value="E4" Duration="4" Instrument="SS SqOutroOctave"
				Note Time="148" Value="D4" Duration="4" Instrument="SS SqOutroOctave"
				Note Time="152" Value="C4" Duration="4" Instrument="SS SqOutroOctave"
				Note Time="156" Value="G3" Duration="4" Instrument="SS SqOutroOctave"
				Note Time="160" Value="E3" Duration="4" Instrument="SS SqOutroOctave"
				Note Time="164" Value="D3" Duration="4" Instrument="SS SqOutroOctave"
				Note Time="168" Value="C3" Duration="4" Instrument="SS SqOutroOctave"
				Note Time="172" Value="G2" Duration="4" Instrument="SS SqOutroOctave"
				Note Time="176" Value="E2" Duration="4" Instrument="SS SqOutroOctave"
				Note Time="180" Value="D2" Duration="4" Instrument="SS SqOutroOctave"
				Note Time="184" Value="C2" Duration="4" Instrument="SS SqOutroOctave"
				Note Time="188" Value="G1" Duration="4" Instrument="SS SqOutroOctave"
			Pattern Name="Outro2"
				Note Time="0" Value="A#1" Duration="4" Instrument="SS SqOutroOctave"
				Note Time="4" Value="C2" Duration="4" Instrument="SS SqOutroOctave"
				Note Time="8" Value="D2" Duration="4" Instrument="SS SqOutroOctave"
				Note Time="12" Value="F2" Duration="4" Instrument="SS SqOutroOctave"
				Note Time="16" Value="A#2" Duration="4" Instrument="SS SqOutroOctave"
				Note Time="20" Value="C3" Duration="4" Instrument="SS SqOutroOctave"
				Note Time="24" Value="D3" Duration="4" Instrument="SS SqOutroOctave"
				Note Time="28" Value="F3" Duration="4" Instrument="SS SqOutroOctave"
				Note Time="32" Value="A#3" Duration="4" Instrument="SS SqOutroOctave"
				Note Time="36" Value="C4" Duration="4" Instrument="SS SqOutroOctave"
				Note Time="40" Value="D4" Duration="4" Instrument="SS SqOutroOctave"
				Note Time="44" Value="F4" Duration="4" Instrument="SS SqOutroOctave"
				Note Time="48" Value="D4" Duration="4" Instrument="SS SqOutroOctave"
				Note Time="52" Value="C4" Duration="4" Instrument="SS SqOutroOctave"
				Note Time="56" Value="A#3" Duration="4" Instrument="SS SqOutroOctave"
				Note Time="60" Value="F3" Duration="4" Instrument="SS SqOutroOctave"
				Note Time="64" Value="D3" Duration="4" Instrument="SS SqOutroOctave"
				Note Time="68" Value="C3" Duration="4" Instrument="SS SqOutroOctave"
				Note Time="72" Value="A#2" Duration="4" Instrument="SS SqOutroOctave"
				Note Time="76" Value="F2" Duration="4" Instrument="SS SqOutroOctave"
				Note Time="80" Value="D2" Duration="4" Instrument="SS SqOutroOctave"
				Note Time="84" Value="C2" Duration="4" Instrument="SS SqOutroOctave"
				Note Time="88" Value="A#1" Duration="4" Instrument="SS SqOutroOctave"
				Note Time="92" Value="F1" Duration="4" Instrument="SS SqOutroOctave"
				Note Time="96" Value="A#1" Duration="4" Instrument="SS SqOutroOctave"
				Note Time="100" Value="C2" Duration="4" Instrument="SS SqOutroOctave"
				Note Time="104" Value="D2" Duration="4" Instrument="SS SqOutroOctave"
				Note Time="108" Value="F2" Duration="4" Instrument="SS SqOutroOctave"
				Note Time="112" Value="A#2" Duration="4" Instrument="SS SqOutroOctave"
				Note Time="116" Value="C3" Duration="4" Instrument="SS SqOutroOctave"
				Note Time="120" Value="D3" Duration="4" Instrument="SS SqOutroOctave"
				Note Time="124" Value="F3" Duration="4" Instrument="SS SqOutroOctave"
				Note Time="128" Value="A#3" Duration="4" Instrument="SS SqOutroOctave"
				Note Time="132" Value="C4" Duration="4" Instrument="SS SqOutroOctave"
				Note Time="136" Value="D4" Duration="4" Instrument="SS SqOutroOctave"
				Note Time="140" Value="F4" Duration="4" Instrument="SS SqOutroOctave"
				Note Time="144" Value="D4" Duration="4" Instrument="SS SqOutroOctave"
				Note Time="148" Value="C4" Duration="4" Instrument="SS SqOutroOctave"
				Note Time="152" Value="A#3" Duration="4" Instrument="SS SqOutroOctave"
				Note Time="156" Value="F3" Duration="4" Instrument="SS SqOutroOctave"
				Note Time="160" Value="D3" Duration="4" Instrument="SS SqOutroOctave"
				Note Time="164" Value="C3" Duration="4" Instrument="SS SqOutroOctave"
				Note Time="168" Value="A#2" Duration="4" Instrument="SS SqOutroOctave"
				Note Time="172" Value="F2" Duration="4" Instrument="SS SqOutroOctave"
				Note Time="176" Value="D2" Duration="4" Instrument="SS SqOutroOctave"
				Note Time="180" Value="C2" Duration="4" Instrument="SS SqOutroOctave"
				Note Time="184" Value="A#1" Duration="4" Instrument="SS SqOutroOctave"
				Note Time="188" Value="F1" Duration="4" Instrument="SS SqOutroOctave"
			Pattern Name="Outro3"
				Note Time="0" Value="A#1" Duration="4" Instrument="SS SqOutroOctave"
				Note Time="4" Value="D2" Duration="4" Instrument="SS SqOutroOctave"
				Note Time="8" Value="E2" Duration="4" Instrument="SS SqOutroOctave"
				Note Time="12" Value="G2" Duration="4" Instrument="SS SqOutroOctave"
				Note Time="16" Value="A#2" Duration="4" Instrument="SS SqOutroOctave"
				Note Time="20" Value="D3" Duration="4" Instrument="SS SqOutroOctave"
				Note Time="24" Value="E3" Duration="4" Instrument="SS SqOutroOctave"
				Note Time="28" Value="G3" Duration="4" Instrument="SS SqOutroOctave"
				Note Time="32" Value="A#3" Duration="4" Instrument="SS SqOutroOctave"
				Note Time="36" Value="D4" Duration="4" Instrument="SS SqOutroOctave"
				Note Time="40" Value="E4" Duration="4" Instrument="SS SqOutroOctave"
				Note Time="44" Value="G4" Duration="4" Instrument="SS SqOutroOctave"
				Note Time="48" Value="E4" Duration="4" Instrument="SS SqOutroOctave"
				Note Time="52" Value="D4" Duration="4" Instrument="SS SqOutroOctave"
				Note Time="56" Value="A#3" Duration="4" Instrument="SS SqOutroOctave"
				Note Time="60" Value="G3" Duration="4" Instrument="SS SqOutroOctave"
				Note Time="64" Value="E3" Duration="4" Instrument="SS SqOutroOctave"
				Note Time="68" Value="D3" Duration="4" Instrument="SS SqOutroOctave"
				Note Time="72" Value="A#2" Duration="4" Instrument="SS SqOutroOctave"
				Note Time="76" Value="G2" Duration="4" Instrument="SS SqOutroOctave"
				Note Time="80" Value="E2" Duration="4" Instrument="SS SqOutroOctave"
				Note Time="84" Value="D2" Duration="4" Instrument="SS SqOutroOctave"
				Note Time="88" Value="A#1" Duration="4" Instrument="SS SqOutroOctave"
				Note Time="92" Value="G1" Duration="4" Instrument="SS SqOutroOctave"
				Note Time="96" Value="A#1" Duration="4" Instrument="SS SqOutroOctave"
				Note Time="100" Value="D2" Duration="4" Instrument="SS SqOutroOctave"
				Note Time="104" Value="E2" Duration="4" Instrument="SS SqOutroOctave"
				Note Time="108" Value="G2" Duration="4" Instrument="SS SqOutroOctave"
				Note Time="112" Value="A#2" Duration="4" Instrument="SS SqOutroOctave"
				Note Time="116" Value="D3" Duration="4" Instrument="SS SqOutroOctave"
				Note Time="120" Value="E3" Duration="4" Instrument="SS SqOutroOctave"
				Note Time="124" Value="G3" Duration="4" Instrument="SS SqOutroOctave"
				Note Time="128" Value="A#3" Duration="4" Instrument="SS SqOutroOctave"
				Note Time="132" Value="D4" Duration="4" Instrument="SS SqOutroOctave"
				Note Time="136" Value="E4" Duration="4" Instrument="SS SqOutroOctave"
				Note Time="140" Value="G4" Duration="4" Instrument="SS SqOutroOctave"
				Note Time="144" Value="E4" Duration="4" Instrument="SS SqOutroOctave"
				Note Time="148" Value="D4" Duration="4" Instrument="SS SqOutroOctave"
				Note Time="152" Value="A#3" Duration="4" Instrument="SS SqOutroOctave"
				Note Time="156" Value="G3" Duration="4" Instrument="SS SqOutroOctave"
				Note Time="160" Value="E3" Duration="4" Instrument="SS SqOutroOctave"
				Note Time="164" Value="D3" Duration="4" Instrument="SS SqOutroOctave"
				Note Time="168" Value="A#2" Duration="4" Instrument="SS SqOutroOctave"
				Note Time="172" Value="G2" Duration="4" Instrument="SS SqOutroOctave"
				Note Time="176" Value="E2" Duration="4" Instrument="SS SqOutroOctave"
				Note Time="180" Value="D2" Duration="4" Instrument="SS SqOutroOctave"
				Note Time="184" Value="A#1" Duration="4" Instrument="SS SqOutroOctave"
				Note Time="188" Value="G1" Duration="4" Instrument="SS SqOutroOctave"
			PatternInstance Time="0" Pattern="Slide1"
			PatternInstance Time="1" Pattern="Intro1"
			PatternInstance Time="2" Pattern="Intro2"
			PatternInstance Time="3" Pattern="Intro3"
			PatternInstance Time="4" Pattern="Intro4"
			PatternInstance Time="5" Pattern="VerseA1"
			PatternInstance Time="6" Pattern="VerseA2"
			PatternInstance Time="7" Pattern="VerseA2"
			PatternInstance Time="8" Pattern="VerseA2"
			PatternInstance Time="9" Pattern="VerseA2"
			PatternInstance Time="10" Pattern="VerseA2"
			PatternInstance Time="11" Pattern="VerseA2"
			PatternInstance Time="12" Pattern="VerseA3"
			PatternInstance Time="13" Pattern="VerseA4"
			PatternInstance Time="14" Pattern="VerseA4"
			PatternInstance Time="15" Pattern="VerseA4"
			PatternInstance Time="16" Pattern="HighPitch1"
			PatternInstance Time="17" Pattern="HighPitch2"
			PatternInstance Time="18" Pattern="HighPitch3"
			PatternInstance Time="19" Pattern="Bridge1"
			PatternInstance Time="20" Pattern="Bridge1"
			PatternInstance Time="21" Pattern="Bridge1"
			PatternInstance Time="22" Pattern="Bridge1"
			PatternInstance Time="23" Pattern="VerseB1"
			PatternInstance Time="24" Pattern="VerseB1"
			PatternInstance Time="25" Pattern="VerseB2"
			PatternInstance Time="26" Pattern="VerseB2"
			PatternInstance Time="27" Pattern="Outro1"
			PatternInstance Time="28" Pattern="Outro1"
			PatternInstance Time="29" Pattern="Outro2"
			PatternInstance Time="30" Pattern="Outro3"
			PatternInstance Time="31" Pattern="Slide1"
		Channel Type="Square2"
			Pattern Name="Slide1"
				Note Time="0" Value="A#3" Duration="180" Instrument="SS SqIntroSlide" SlideTarget="G5" Volume="15"
			Pattern Name="Intro1"
				Note Time="0" Value="B3" Duration="1" Instrument="SS PlainDuty2" Volume="4"
				Note Time="1" Value="C4" Duration="15" Instrument="SS PlainDuty2"
				Note Time="16" Value="C4" Duration="10" Instrument="SS PlainDuty2" SlideTarget="G3"
				Note Time="26" Value="C4" Duration="10" Instrument="SS PlainDuty2" SlideTarget="G3" Volume="2"
				Note Time="36" Value="C#4" Duration="1" Instrument="SS PlainDuty2" Volume="4"
				Note Time="37" Value="D4" Duration="15" Instrument="SS PlainDuty2"
				Note Time="52" Value="D4" Duration="10" Instrument="SS PlainDuty2" SlideTarget="G3"
				Note Time="62" Value="D4" Duration="10" Instrument="SS PlainDuty2" SlideTarget="G3" Volume="2"
				Note Time="72" Value="D#4" Duration="1" Instrument="SS PlainDuty2" Volume="4"
				Note Time="73" Value="E4" Duration="1" Instrument="SS PlainDuty2"
				Note Time="74" Value="F4" Duration="22" Instrument="SS PlainDuty2"
				Note Time="80" VibratoSpeed="6" VibratoDepth="2"
				Note Time="95" VibratoSpeed="0" VibratoDepth="0"
				Note Time="96" Value="F#4" Duration="1" Instrument="SS PlainDuty2"
				Note Time="97" Value="G4" Duration="75" Instrument="SS PlainDuty2"
				Note Time="105" VibratoSpeed="6" VibratoDepth="2"
				Note Time="171" VibratoSpeed="0" VibratoDepth="0"
				Note Time="172" Value="G4" Duration="10" Instrument="SS PlainDuty2" SlideTarget="C#4"
				Note Time="182" Value="G4" Duration="10" Instrument="SS PlainDuty2" SlideTarget="C#4" Volume="2"
			Pattern Name="Intro2"
				Note Time="0" Value="B4" Duration="1" Instrument="SS PlainDuty3" Volume="4"
				Note Time="1" Value="C5" Duration="15" Instrument="SS PlainDuty3"
				Note Time="16" Value="C5" Duration="10" Instrument="SS PlainDuty3" SlideTarget="D#4"
				Note Time="26" Value="C5" Duration="10" Instrument="SS PlainDuty3" SlideTarget="D#4" Volume="2"
				Note Time="36" Value="C#5" Duration="1" Instrument="SS PlainDuty3" Volume="4"
				Note Time="37" Value="D5" Duration="15" Instrument="SS PlainDuty3"
				Note Time="52" Value="D5" Duration="10" Instrument="SS PlainDuty3" SlideTarget="C#4"
				Note Time="62" Value="D5" Duration="10" Instrument="SS PlainDuty3" SlideTarget="C#4" Volume="2"
				Note Time="72" Value="D#5" Duration="1" Instrument="SS PlainDuty3" Volume="4"
				Note Time="73" Value="E5" Duration="1" Instrument="SS PlainDuty3"
				Note Time="74" Value="F5" Duration="22" Instrument="SS PlainDuty3"
				Note Time="80" VibratoSpeed="6" VibratoDepth="2"
				Note Time="95" VibratoSpeed="0" VibratoDepth="0"
				Note Time="96" Value="F#5" Duration="1" Instrument="SS PlainDuty3"
				Note Time="97" Value="G5" Duration="75" Instrument="SS PlainDuty3"
				Note Time="105" VibratoSpeed="6" VibratoDepth="2"
				Note Time="171" VibratoSpeed="0" VibratoDepth="0"
				Note Time="172" Value="G5" Duration="10" Instrument="SS PlainDuty3" SlideTarget="G#4"
				Note Time="182" Value="G5" Duration="10" Instrument="SS PlainDuty3" SlideTarget="G#4" Volume="2"
			Pattern Name="Intro3"
				Note Time="0" Value="F#5" Duration="1" Instrument="SS PlainDuty2" Volume="4"
				Note Time="1" Value="G5" Duration="15" Instrument="SS PlainDuty2"
				Note Time="16" Value="G5" Duration="10" Instrument="SS PlainDuty2" SlideTarget="G4"
				Note Time="26" Value="G5" Duration="10" Instrument="SS PlainDuty2" SlideTarget="G4" Volume="2"
				Note Time="36" Value="G#5" Duration="1" Instrument="SS PlainDuty2" Volume="4"
				Note Time="37" Value="A5" Duration="15" Instrument="SS PlainDuty2"
				Note Time="52" Value="A5" Duration="10" Instrument="SS PlainDuty2" SlideTarget="F4"
				Note Time="62" Value="A5" Duration="10" Instrument="SS PlainDuty2" SlideTarget="F4" Volume="2"
				Note Time="72" Value="A#5" Duration="1" Instrument="SS PlainDuty2" Volume="4"
				Note Time="73" Value="B5" Duration="1" Instrument="SS PlainDuty2"
				Note Time="74" Value="C6" Duration="22" Instrument="SS PlainDuty2"
				Note Time="79" VibratoSpeed="6" VibratoDepth="2"
				Note Time="95" VibratoSpeed="0" VibratoDepth="0"
				Note Time="96" Value="C#6" Duration="1" Instrument="SS PlainDuty2"
				Note Time="97" Value="D6" Duration="75" Instrument="SS PlainDuty2"
				Note Time="105" VibratoSpeed="6" VibratoDepth="2"
				Note Time="171" VibratoSpeed="0" VibratoDepth="0"
				Note Time="172" Value="D6" Duration="10" Instrument="SS PlainDuty2" SlideTarget="C5"
				Note Time="182" Value="D6" Duration="10" Instrument="SS PlainDuty2" SlideTarget="C5" Volume="2"
			Pattern Name="Intro4"
				Note Time="0" Value="A5" Duration="1" Instrument="SS PlainDuty2" Volume="4"
				Note Time="1" Value="A#5" Duration="75" Instrument="SS PlainDuty2"
				Note Time="14" VibratoSpeed="6" VibratoDepth="2"
				Note Time="75" VibratoSpeed="0" VibratoDepth="0"
				Note Time="76" Value="A#5" Duration="10" Instrument="SS PlainDuty2" SlideTarget="A#4"
				Note Time="86" Value="A#5" Duration="10" Instrument="SS PlainDuty2" SlideTarget="A#4" Volume="2"
				Note Time="96" Value="B5" Duration="1" Instrument="SS PlainDuty2" Volume="4"
				Note Time="97" Value="C6" Duration="74" Instrument="SS PlainDuty2"
				Note Time="105" VibratoSpeed="6" VibratoDepth="2"
				Note Time="170" VibratoSpeed="0" VibratoDepth="0"
				Note Time="171" Value="C6" Duration="11" Instrument="SS PlainDuty2" SlideTarget="B4"
				Note Time="182" Value="C6" Duration="10" Instrument="SS PlainDuty2" SlideTarget="B4" Volume="2"
			Pattern Name="VerseA1"
				Note Time="0" Value="A3" Duration="4" Instrument="SS SqVerseABleeps" Volume="15"
				Note Time="4" Value="E4" Duration="2" Instrument="SS SqVerseABleeps"
				Note Time="6" Value="D4" Duration="4" Instrument="SS SqVerseABleeps"
				Note Time="10" Value="A3" Duration="2" Instrument="SS SqVerseABleeps"
				Note Time="12" Value="F#4" Duration="4" Instrument="SS SqVerseABleeps"
				Note Time="16" Value="D4" Duration="2" Instrument="SS SqVerseABleeps"
				Note Time="18" Value="A3" Duration="4" Instrument="SS SqVerseABleeps"
				Note Time="22" Value="F#4" Duration="2" Instrument="SS SqVerseABleeps"
				Note Time="24" Value="D4" Duration="4" Instrument="SS SqVerseABleeps"
				Note Time="28" Value="A3" Duration="2" Instrument="SS SqVerseABleeps"
				Note Time="30" Value="F#4" Duration="4" Instrument="SS SqVerseABleeps"
				Note Time="34" Value="D4" Duration="2" Instrument="SS SqVerseABleeps"
				Note Time="36" Value="D4" Duration="4" Instrument="SS SqVerseABleeps"
				Note Time="40" Value="F#4" Duration="2" Instrument="SS SqVerseABleeps"
				Note Time="42" Value="F#4" Duration="4" Instrument="SS SqVerseABleeps"
				Note Time="46" Value="D4" Duration="2" Instrument="SS SqVerseABleeps"
				Note Time="48" Value="A3" Duration="4" Instrument="SS SqVerseABleeps"
				Note Time="52" Value="F#4" Duration="2" Instrument="SS SqVerseABleeps"
				Note Time="54" Value="D4" Duration="4" Instrument="SS SqVerseABleeps"
				Note Time="58" Value="A3" Duration="2" Instrument="SS SqVerseABleeps"
				Note Time="60" Value="F#4" Duration="4" Instrument="SS SqVerseABleeps"
				Note Time="64" Value="D4" Duration="2" Instrument="SS SqVerseABleeps"
				Note Time="66" Value="A3" Duration="4" Instrument="SS SqVerseABleeps"
				Note Time="70" Value="F#4" Duration="2" Instrument="SS SqVerseABleeps"
				Note Time="72" Value="G#4" Duration="4" Instrument="SS SqVerseABleeps"
				Note Time="76" Value="A3" Duration="2" Instrument="SS SqVerseABleeps"
				Note Time="78" Value="E4" Duration="4" Instrument="SS SqVerseABleeps"
				Note Time="82" Value="G#4" Duration="2" Instrument="SS SqVerseABleeps"
				Note Time="84" Value="B4" Duration="4" Instrument="SS SqVerseABleeps"
				Note Time="88" Value="E4" Duration="2" Instrument="SS SqVerseABleeps"
				Note Time="90" Value="E4" Duration="4" Instrument="SS SqVerseABleeps"
				Note Time="94" Value="B4" Duration="2" Instrument="SS SqVerseABleeps"
				Note Time="96" Value="A3" Duration="4" Instrument="SS SqVerseABleeps"
				Note Time="100" Value="E4" Duration="2" Instrument="SS SqVerseABleeps"
				Note Time="102" Value="D4" Duration="4" Instrument="SS SqVerseABleeps"
				Note Time="106" Value="A3" Duration="2" Instrument="SS SqVerseABleeps"
				Note Time="108" Value="F#4" Duration="4" Instrument="SS SqVerseABleeps"
				Note Time="112" Value="D4" Duration="2" Instrument="SS SqVerseABleeps"
				Note Time="114" Value="A3" Duration="4" Instrument="SS SqVerseABleeps"
				Note Time="118" Value="F#4" Duration="2" Instrument="SS SqVerseABleeps"
				Note Time="120" Value="D4" Duration="4" Instrument="SS SqVerseABleeps"
				Note Time="124" Value="A3" Duration="2" Instrument="SS SqVerseABleeps"
				Note Time="126" Value="F#4" Duration="4" Instrument="SS SqVerseABleeps"
				Note Time="130" Value="D4" Duration="2" Instrument="SS SqVerseABleeps"
				Note Time="132" Value="D4" Duration="4" Instrument="SS SqVerseABleeps"
				Note Time="136" Value="F#4" Duration="2" Instrument="SS SqVerseABleeps"
				Note Time="138" Value="F#4" Duration="4" Instrument="SS SqVerseABleeps"
				Note Time="142" Value="D4" Duration="2" Instrument="SS SqVerseABleeps"
				Note Time="144" Value="A3" Duration="4" Instrument="SS SqVerseABleeps"
				Note Time="148" Value="F#4" Duration="2" Instrument="SS SqVerseABleeps"
				Note Time="150" Value="D4" Duration="4" Instrument="SS SqVerseABleeps"
				Note Time="154" Value="A3" Duration="2" Instrument="SS SqVerseABleeps"
				Note Time="156" Value="F#4" Duration="4" Instrument="SS SqVerseABleeps"
				Note Time="160" Value="D4" Duration="2" Instrument="SS SqVerseABleeps"
				Note Time="162" Value="A3" Duration="4" Instrument="SS SqVerseABleeps"
				Note Time="166" Value="F#4" Duration="2" Instrument="SS SqVerseABleeps"
				Note Time="168" Value="G#4" Duration="4" Instrument="SS SqVerseABleeps"
				Note Time="172" Value="A3" Duration="2" Instrument="SS SqVerseABleeps"
				Note Time="174" Value="E4" Duration="4" Instrument="SS SqVerseABleeps"
				Note Time="178" Value="G#4" Duration="2" Instrument="SS SqVerseABleeps"
				Note Time="180" Value="B4" Duration="4" Instrument="SS SqVerseABleeps"
				Note Time="184" Value="E4" Duration="2" Instrument="SS SqVerseABleeps"
				Note Time="186" Value="E4" Duration="4" Instrument="SS SqVerseABleeps"
				Note Time="190" Value="B4" Duration="2" Instrument="SS SqVerseABleeps"
			Pattern Name="VerseA2"
				Note Time="0" Volume="0"
				Note Time="12" Value="B3" Duration="6" Instrument="SS SqVerseABleepOctave"
				Note Time="15" Volume="1"
				Note Time="18" Value="E4" Duration="6" Instrument="SS SqVerseABleepOctave"
				Note Time="24" Value="F#4" Duration="6" Instrument="SS SqVerseABleepOctave"
				Note Time="30" Value="C#4" Duration="6" Instrument="SS SqVerseABleepOctave"
				Note Time="31" Volume="2"
				Note Time="36" Value="D4" Duration="6" Instrument="SS SqVerseABleepOctave"
				Note Time="42" Value="E4" Duration="6" Instrument="SS SqVerseABleepOctave"
				Note Time="47" Volume="3"
				Note Time="48" Value="A3" Duration="6" Instrument="SS SqVerseABleepOctave"
				Note Time="54" Value="D4" Duration="6" Instrument="SS SqVerseABleepOctave"
				Note Time="60" Value="B3" Duration="6" Instrument="SS SqVerseABleepOctave"
				Note Time="63" Volume="4"
				Note Time="66" Value="E4" Duration="6" Instrument="SS SqVerseABleepOctave"
				Note Time="72" Value="F#4" Duration="6" Instrument="SS SqVerseABleepOctave"
				Note Time="78" Value="C#4" Duration="6" Instrument="SS SqVerseABleepOctave"
				Note Time="79" Volume="5"
				Note Time="84" Value="D4" Duration="6" Instrument="SS SqVerseABleepOctave"
				Note Time="90" Value="E4" Duration="6" Instrument="SS SqVerseABleepOctave"
				Note Time="95" Volume="6"
				Note Time="96" Volume="0"
				Note Time="108" Value="B4" Duration="6" Instrument="SS SqVerseABleepOctave"
				Note Time="111" Volume="1"
				Note Time="114" Value="E5" Duration="6" Instrument="SS SqVerseABleepOctave"
				Note Time="120" Value="F#5" Duration="6" Instrument="SS SqVerseABleepOctave"
				Note Time="126" Value="C#5" Duration="6" Instrument="SS SqVerseABleepOctave"
				Note Time="127" Volume="2"
				Note Time="132" Value="D5" Duration="6" Instrument="SS SqVerseABleepOctave"
				Note Time="138" Value="E5" Duration="6" Instrument="SS SqVerseABleepOctave"
				Note Time="143" Volume="3"
				Note Time="144" Value="A4" Duration="6" Instrument="SS SqVerseABleepOctave"
				Note Time="150" Value="D5" Duration="6" Instrument="SS SqVerseABleepOctave"
				Note Time="156" Value="B4" Duration="6" Instrument="SS SqVerseABleepOctave"
				Note Time="159" Volume="4"
				Note Time="162" Value="E5" Duration="6" Instrument="SS SqVerseABleepOctave"
				Note Time="168" Value="F#5" Duration="6" Instrument="SS SqVerseABleepOctave"
				Note Time="174" Value="C#5" Duration="6" Instrument="SS SqVerseABleepOctave"
				Note Time="175" Volume="5"
				Note Time="180" Value="D5" Duration="6" Instrument="SS SqVerseABleepOctave"
				Note Time="186" Value="E5" Duration="6" Instrument="SS SqVerseABleepOctave"
				Note Time="191" Volume="6"
			Pattern Name="VerseA3"
				Note Time="0" Value="C#5" Duration="6" Instrument="SS SqVerseAMelodyDuty0" Volume="15"
				Note Time="6" Value="C#5" Duration="6" Instrument="SS SqVerseAMelodyDuty0"
				Note Time="12" Value="C#5" Duration="6" Instrument="SS SqVerseAMelodyDuty0"
				Note Time="18" Value="C#5" Duration="16" Instrument="SS SqVerseAMelodyDuty0"
				Note Time="36" Value="C#5" Duration="6" Instrument="SS SqVerseAMelodyDuty0"
				Note Time="42" Value="D5" Duration="6" Instrument="SS SqVerseAMelodyDuty0"
				Note Time="48" Value="E5" Duration="10" Instrument="SS SqVerseAMelodyDuty0"
				Note Time="60" Value="C#5" Duration="6" Instrument="SS SqVerseAMelodyDuty0"
				Note Time="66" Value="D5" Duration="10" Instrument="SS SqVerseAMelodyDuty0"
				Note Time="78" Value="B4" Duration="6" Instrument="SS SqVerseAMelodyDuty0"
				Note Time="84" Value="C#5" Duration="10" Instrument="SS SqVerseAMelodyDuty0"
				Note Time="96" Value="A4" Duration="6" Instrument="SS SqVerseAMelodyDuty0"
				Note Time="102" Value="A4" Duration="6" Instrument="SS SqVerseAMelodyDuty0"
				Note Time="108" Value="A4" Duration="6" Instrument="SS SqVerseAMelodyDuty0"
				Note Time="114" Value="B4" Duration="6" Instrument="SS SqVerseAMelodyDuty0"
				Note Time="120" Value="F#4" Duration="6" Instrument="SS SqVerseAMelodyDuty0"
				Note Time="126" Value="B4" Duration="6" Instrument="SS SqVerseAMelodyDuty0"
				Note Time="132" Value="C#5" Duration="6" Instrument="SS SqVerseAMelodyDuty0"
				Note Time="138" Value="D5" Duration="6" Instrument="SS SqVerseAMelodyDuty0"
				Note Time="144" Value="F#5" Duration="22" Instrument="SS SqVerseAMelodyDuty0"
				Note Time="168" Value="E5" Duration="22" Instrument="SS SqVerseAMelodyDuty0"
			Pattern Name="VerseA4"
				Note Time="0" Value="C#5" Duration="6" Instrument="SS SqVerseAMelodyDuty0Oct"
				Note Time="6" Value="C#5" Duration="6" Instrument="SS SqVerseAMelodyDuty0Oct"
				Note Time="12" Value="C#5" Duration="6" Instrument="SS SqVerseAMelodyDuty0Oct"
				Note Time="18" Value="C#5" Duration="16" Instrument="SS SqVerseAMelodyDuty0Oct"
				Note Time="36" Value="C#5" Duration="6" Instrument="SS SqVerseAMelodyDuty0Oct"
				Note Time="42" Value="D5" Duration="6" Instrument="SS SqVerseAMelodyDuty0Oct"
				Note Time="48" Value="E5" Duration="10" Instrument="SS SqVerseAMelodyDuty0Oct"
				Note Time="60" Value="C#5" Duration="6" Instrument="SS SqVerseAMelodyDuty0Oct"
				Note Time="66" Value="D5" Duration="10" Instrument="SS SqVerseAMelodyDuty0Oct"
				Note Time="78" Value="B4" Duration="6" Instrument="SS SqVerseAMelodyDuty0Oct"
				Note Time="84" Value="C#5" Duration="10" Instrument="SS SqVerseAMelodyDuty0Oct"
				Note Time="96" Value="A4" Duration="6" Instrument="SS SqVerseAMelodyDuty0Oct"
				Note Time="102" Value="A4" Duration="6" Instrument="SS SqVerseAMelodyDuty0Oct"
				Note Time="108" Value="A4" Duration="6" Instrument="SS SqVerseAMelodyDuty0Oct"
				Note Time="114" Value="B4" Duration="6" Instrument="SS SqVerseAMelodyDuty0Oct"
				Note Time="120" Value="F#4" Duration="6" Instrument="SS SqVerseAMelodyDuty0Oct"
				Note Time="126" Value="B4" Duration="6" Instrument="SS SqVerseAMelodyDuty0Oct"
				Note Time="132" Value="C#5" Duration="6" Instrument="SS SqVerseAMelodyDuty0Oct"
				Note Time="138" Value="D5" Duration="6" Instrument="SS SqVerseAMelodyDuty0Oct"
				Note Time="144" Value="F#5" Duration="22" Instrument="SS SqVerseAMelodyDuty0Oct"
				Note Time="168" Value="E5" Duration="22" Instrument="SS SqVerseAMelodyDuty0Oct"
			Pattern Name="VerseA5"
				Note Time="0" Value="F#5" Duration="34" Instrument="SS SqVerseAMelodyDuty2"
				Note Time="36" Value="E5" Duration="6" Instrument="SS SqVerseAMelodyDuty2"
				Note Time="42" Value="D5" Duration="6" Instrument="SS SqVerseAMelodyDuty2"
				Note Time="48" Value="C#5" Duration="34" Instrument="SS SqVerseAMelodyDuty2"
				Note Time="84" Value="D5" Duration="6" Instrument="SS SqVerseAMelodyDuty2"
				Note Time="90" Value="E5" Duration="6" Instrument="SS SqVerseAMelodyDuty2"
				Note Time="96" Value="C#5" Duration="34" Instrument="SS SqVerseAMelodyDuty2"
				Note Time="132" Value="D5" Duration="6" Instrument="SS SqVerseAMelodyDuty2"
				Note Time="138" Value="E5" Duration="6" Instrument="SS SqVerseAMelodyDuty2"
				Note Time="144" Value="B4" Duration="1" Instrument="SS SqVerseAMelodyDuty2"
				Note Time="145" Value="C5" Duration="2" Instrument="SS SqVerseAMelodyDuty2" Attack="False"
				Note Time="147" Value="C#5" Duration="7" Instrument="SS SqVerseAMelodyDuty2"
				Note Time="156" Value="C5" Duration="1" Instrument="SS SqVerseAMelodyDuty2"
				Note Time="157" Value="B4" Duration="1" Instrument="SS SqVerseAMelodyDuty2" Attack="False"
				Note Time="158" Value="A#4" Duration="8" Instrument="SS SqVerseAMelodyDuty2" Attack="False"
				Note Time="168" Value="A4" Duration="1" Instrument="SS SqVerseAMelodyDuty2"
				Note Time="169" Value="G#4" Duration="1" Instrument="SS SqVerseAMelodyDuty2" Attack="False"
				Note Time="170" Value="G4" Duration="1" Instrument="SS SqVerseAMelodyDuty2" Attack="False"
				Note Time="171" Value="F#4" Duration="7" Instrument="SS SqVerseAMelodyDuty2" Attack="False"
				Note Time="180" Value="G4" Duration="1" Instrument="SS SqVerseAMelodyDuty2"
				Note Time="181" Value="G#4" Duration="1" Instrument="SS SqVerseAMelodyDuty2" Attack="False"
				Note Time="182" Value="A4" Duration="1" Instrument="SS SqVerseAMelodyDuty2" Attack="False"
				Note Time="183" Value="A#4" Duration="1" Instrument="SS SqVerseAMelodyDuty2" Attack="False"
				Note Time="184" Value="B4" Duration="1" Instrument="SS SqVerseAMelodyDuty2" Attack="False"
				Note Time="185" Value="C5" Duration="1" Instrument="SS SqVerseAMelodyDuty2" Attack="False"
				Note Time="186" Value="C#5" Duration="4" Instrument="SS SqVerseAMelodyDuty2" Attack="False"
			Pattern Name="VerseA6"
				Note Time="0" Value="D5" Duration="34" Instrument="SS SqVerseAMelodyDuty2"
				Note Time="36" Value="C#5" Duration="6" Instrument="SS SqVerseAMelodyDuty2"
				Note Time="42" Value="B4" Duration="6" Instrument="SS SqVerseAMelodyDuty2"
				Note Time="48" Value="C#5" Duration="34" Instrument="SS SqVerseAMelodyDuty2"
				Note Time="84" Value="B4" Duration="6" Instrument="SS SqVerseAMelodyDuty2"
				Note Time="90" Value="F#4" Duration="6" Instrument="SS SqVerseAMelodyDuty2"
				Note Time="96" Value="A4" Duration="46" Instrument="SS SqVerseAMelodyDuty2"
				Note Time="144" Value="B4" Duration="22" Instrument="SS SqVerseAMelodyDuty2"
				Note Time="168" Value="C#5" Duration="22" Instrument="SS SqVerseAMelodyDuty2"
			Pattern Name="VerseA7"
				Note Time="0" Value="F#3" Duration="34" Instrument="SS SqVerseAMelodyDuty1"
				Note Time="36" Value="E3" Duration="6" Instrument="SS SqVerseAMelodyDuty1"
				Note Time="42" Value="D3" Duration="6" Instrument="SS SqVerseAMelodyDuty1"
				Note Time="48" Value="C#3" Duration="34" Instrument="SS SqVerseAMelodyDuty1"
				Note Time="84" Value="D3" Duration="6" Instrument="SS SqVerseAMelodyDuty1"
				Note Time="90" Value="E3" Duration="6" Instrument="SS SqVerseAMelodyDuty1"
				Note Time="96" Value="C#3" Duration="34" Instrument="SS SqVerseAMelodyDuty1"
				Note Time="132" Value="D3" Duration="6" Instrument="SS SqVerseAMelodyDuty1"
				Note Time="138" Value="E3" Duration="6" Instrument="SS SqVerseAMelodyDuty1"
				Note Time="144" Value="B2" Duration="1" Instrument="SS SqVerseAMelodyDuty1"
				Note Time="145" Value="C3" Duration="2" Instrument="SS SqVerseAMelodyDuty1" Attack="False"
				Note Time="147" Value="C#3" Duration="7" Instrument="SS SqVerseAMelodyDuty1"
				Note Time="156" Value="C3" Duration="1" Instrument="SS SqVerseAMelodyDuty1"
				Note Time="157" Value="B2" Duration="1" Instrument="SS SqVerseAMelodyDuty1" Attack="False"
				Note Time="158" Value="A#2" Duration="8" Instrument="SS SqVerseAMelodyDuty1" Attack="False"
				Note Time="168" Value="A2" Duration="1" Instrument="SS SqVerseAMelodyDuty1"
				Note Time="169" Value="G#2" Duration="1" Instrument="SS SqVerseAMelodyDuty1" Attack="False"
				Note Time="170" Value="G2" Duration="1" Instrument="SS SqVerseAMelodyDuty1" Attack="False"
				Note Time="171" Value="F#2" Duration="7" Instrument="SS SqVerseAMelodyDuty1" Attack="False"
				Note Time="180" Value="G2" Duration="1" Instrument="SS SqVerseAMelodyDuty1"
				Note Time="181" Value="G#2" Duration="1" Instrument="SS SqVerseAMelodyDuty1" Attack="False"
				Note Time="182" Value="A2" Duration="1" Instrument="SS SqVerseAMelodyDuty1" Attack="False"
				Note Time="183" Value="A#2" Duration="1" Instrument="SS SqVerseAMelodyDuty1" Attack="False"
				Note Time="184" Value="B2" Duration="1" Instrument="SS SqVerseAMelodyDuty1" Attack="False"
				Note Time="185" Value="C3" Duration="1" Instrument="SS SqVerseAMelodyDuty1" Attack="False"
				Note Time="186" Value="C#3" Duration="4" Instrument="SS SqVerseAMelodyDuty1" Attack="False"
			Pattern Name="VerseA8"
				Note Time="0" Value="D3" Duration="34" Instrument="SS SqVerseAMelodyDuty1"
				Note Time="36" Value="C#3" Duration="6" Instrument="SS SqVerseAMelodyDuty1"
				Note Time="42" Value="B2" Duration="6" Instrument="SS SqVerseAMelodyDuty1"
				Note Time="48" Value="C#3" Duration="34" Instrument="SS SqVerseAMelodyDuty1"
				Note Time="84" Value="B2" Duration="6" Instrument="SS SqVerseAMelodyDuty1"
				Note Time="90" Value="F#2" Duration="6" Instrument="SS SqVerseAMelodyDuty1"
				Note Time="96" Value="A2" Duration="46" Instrument="SS SqVerseAMelodyDuty1"
				Note Time="144" Value="B2" Duration="22" Instrument="SS SqVerseAMelodyDuty1"
				Note Time="168" Value="C#3" Duration="22" Instrument="SS SqVerseAMelodyDuty1"
			Pattern Name="VerseA9"
				Note Time="0" Value="F#4" Duration="34" Instrument="SS SqVerseAMelodyDuty0"
				Note Time="36" Value="E4" Duration="6" Instrument="SS SqVerseAMelodyDuty0"
				Note Time="42" Value="D4" Duration="6" Instrument="SS SqVerseAMelodyDuty0"
				Note Time="48" Value="C#4" Duration="34" Instrument="SS SqVerseAMelodyDuty0"
				Note Time="84" Value="D4" Duration="6" Instrument="SS SqVerseAMelodyDuty0"
				Note Time="90" Value="E4" Duration="6" Instrument="SS SqVerseAMelodyDuty0"
				Note Time="96" Value="C#4" Duration="34" Instrument="SS SqVerseAMelodyDuty0"
				Note Time="132" Value="D4" Duration="6" Instrument="SS SqVerseAMelodyDuty0"
				Note Time="138" Value="E4" Duration="6" Instrument="SS SqVerseAMelodyDuty0"
				Note Time="144" Value="B3" Duration="1" Instrument="SS SqVerseAMelodyDuty0"
				Note Time="145" Value="C4" Duration="2" Instrument="SS SqVerseAMelodyDuty0" Attack="False"
				Note Time="147" Value="C#4" Duration="7" Instrument="SS SqVerseAMelodyDuty0"
				Note Time="156" Value="C4" Duration="1" Instrument="SS SqVerseAMelodyDuty0"
				Note Time="157" Value="B3" Duration="1" Instrument="SS SqVerseAMelodyDuty0" Attack="False"
				Note Time="158" Value="A#3" Duration="8" Instrument="SS SqVerseAMelodyDuty0" Attack="False"
				Note Time="168" Value="A3" Duration="1" Instrument="SS SqVerseAMelodyDuty0"
				Note Time="169" Value="G#3" Duration="1" Instrument="SS SqVerseAMelodyDuty0" Attack="False"
				Note Time="170" Value="G3" Duration="1" Instrument="SS SqVerseAMelodyDuty0" Attack="False"
				Note Time="171" Value="F#3" Duration="7" Instrument="SS SqVerseAMelodyDuty0" Attack="False"
				Note Time="180" Value="G3" Duration="1" Instrument="SS SqVerseAMelodyDuty0"
				Note Time="181" Value="G#3" Duration="1" Instrument="SS SqVerseAMelodyDuty0" Attack="False"
				Note Time="182" Value="A3" Duration="1" Instrument="SS SqVerseAMelodyDuty0" Attack="False"
				Note Time="183" Value="A#3" Duration="1" Instrument="SS SqVerseAMelodyDuty0" Attack="False"
				Note Time="184" Value="B3" Duration="1" Instrument="SS SqVerseAMelodyDuty0" Attack="False"
				Note Time="185" Value="C4" Duration="1" Instrument="SS SqVerseAMelodyDuty0" Attack="False"
				Note Time="186" Value="C#4" Duration="4" Instrument="SS SqVerseAMelodyDuty0" Attack="False"
			Pattern Name="VerseA10"
				Note Time="0" Value="D4" Duration="34" Instrument="SS SqVerseAMelodyDuty0"
				Note Time="36" Value="C#4" Duration="6" Instrument="SS SqVerseAMelodyDuty0"
				Note Time="42" Value="B3" Duration="6" Instrument="SS SqVerseAMelodyDuty0"
				Note Time="48" Value="C#4" Duration="34" Instrument="SS SqVerseAMelodyDuty0"
				Note Time="84" Value="B3" Duration="6" Instrument="SS SqVerseAMelodyDuty0"
				Note Time="90" Value="F#3" Duration="6" Instrument="SS SqVerseAMelodyDuty0"
				Note Time="96" Value="A3" Duration="46" Instrument="SS SqVerseAMelodyDuty0"
				Note Time="144" Value="B3" Duration="22" Instrument="SS SqVerseAMelodyDuty0"
				Note Time="168" Value="C#4" Duration="22" Instrument="SS SqVerseAMelodyDuty0"
			Pattern Name="HighPitch1"
				Note Time="0" Value="F#4" Duration="48" Instrument="SS PlainDuty2" Volume="3" FinePitch="0"
				Note Time="48" Value="F#4" Duration="143" Instrument="SS PlainDuty2" SlideTarget="B7" Attack="False"
			Pattern Name="HighPitch2"
				Note Time="0" Value="B7" Duration="48" Instrument="SS SqHighPitchNoise" Volume="15"
				Note Time="48" Value="B7" Duration="48" Instrument="SS SqHighPitchNoise"
				Note Time="96" Value="B7" Duration="48" Instrument="SS SqHighPitchNoise"
				Note Time="144" Value="B7" Duration="48" Instrument="SS SqHighPitchNoise"
			Pattern Name="HighPitch3"
				Note Time="0" Value="B7" Duration="96" Instrument="SS SqHighPitchNoise"
				Note Time="96" Value="B7" Duration="48" Instrument="SS SqHighPitchNoise"
				Note Time="144" Value="B7" Duration="48" Instrument="SS SqHighPitchNoise"
			Pattern Name="Bridge1"
				Note Time="0" Value="D#3" Duration="12" Instrument="SS SqGuitarOctaveAlt"
				Note Time="12" Value="D#2" Duration="12" Instrument="SS SqGuitarOctaveAlt"
				Note Time="24" Value="D#3" Duration="12" Instrument="SS SqGuitarOctaveAlt"
				Note Time="36" Value="D#2" Duration="12" Instrument="SS SqGuitarOctaveAlt"
				Note Time="48" Value="D#3" Duration="12" Instrument="SS SqGuitarOctaveAlt"
				Note Time="60" Value="D#2" Duration="12" Instrument="SS SqGuitarOctaveAlt"
				Note Time="72" Value="D#3" Duration="12" Instrument="SS SqGuitarOctaveAlt"
				Note Time="84" Value="D#2" Duration="12" Instrument="SS SqGuitarOctaveAlt"
				Note Time="96" Value="C#3" Duration="12" Instrument="SS SqGuitarOctaveAlt"
				Note Time="108" Value="D#2" Duration="6" Instrument="SS SqGuitarOctaveAltFast"
				Note Time="114" Value="C#3" Duration="6" Instrument="SS SqGuitarOctaveAltFast"
				Note Time="120" Value="D#2" Duration="6" Instrument="SS SqGuitarOctaveAltFast"
				Note Time="126" Value="D#2" Duration="6" Instrument="SS SqGuitarOctaveAltFast"
				Note Time="132" Value="C#3" Duration="6" Instrument="SS SqGuitarOctaveAltFast"
				Note Time="138" Value="D#2" Duration="6" Instrument="SS SqGuitarOctaveAltFast"
				Note Time="144" Value="D#2" Duration="6" Instrument="SS SqGuitarOctaveAltFast"
				Note Time="150" Value="C#3" Duration="6" Instrument="SS SqGuitarOctaveAltFast"
				Note Time="156" Value="D#2" Duration="6" Instrument="SS SqGuitarOctaveAltFast"
				Note Time="162" Value="D#2" Duration="6" Instrument="SS SqGuitarOctaveAltFast"
				Note Time="168" Value="C#3" Duration="6" Instrument="SS SqGuitarOctaveAltFast"
				Note Time="174" Value="D#2" Duration="6" Instrument="SS SqGuitarOctaveAltFast"
				Note Time="180" Value="D#2" Duration="6" Instrument="SS SqGuitarOctaveAltFast"
				Note Time="186" Value="C#3" Duration="6" Instrument="SS SqGuitarOctaveAltFast"
			Pattern Name="Bridge2"
				Note Time="0" Value="F3" Duration="12" Instrument="SS SqGuitarOctaveAlt"
				Note Time="12" Value="F2" Duration="12" Instrument="SS SqGuitarOctaveAlt"
				Note Time="24" Value="F3" Duration="12" Instrument="SS SqGuitarOctaveAlt"
				Note Time="36" Value="F2" Duration="12" Instrument="SS SqGuitarOctaveAlt"
				Note Time="48" Value="F3" Duration="12" Instrument="SS SqGuitarOctaveAlt"
				Note Time="60" Value="F2" Duration="12" Instrument="SS SqGuitarOctaveAlt"
				Note Time="72" Value="F3" Duration="12" Instrument="SS SqGuitarOctaveAlt"
				Note Time="84" Value="F2" Duration="12" Instrument="SS SqGuitarOctaveAlt"
				Note Time="96" Value="D#3" Duration="12" Instrument="SS SqGuitarOctaveAlt"
				Note Time="108" Value="F2" Duration="6" Instrument="SS SqGuitarOctaveAltFast"
				Note Time="114" Value="D#3" Duration="6" Instrument="SS SqGuitarOctaveAltFast"
				Note Time="120" Value="F2" Duration="6" Instrument="SS SqGuitarOctaveAltFast"
				Note Time="126" Value="F2" Duration="6" Instrument="SS SqGuitarOctaveAltFast"
				Note Time="132" Value="D#3" Duration="6" Instrument="SS SqGuitarOctaveAltFast"
				Note Time="138" Value="F2" Duration="6" Instrument="SS SqGuitarOctaveAltFast"
				Note Time="144" Value="F2" Duration="6" Instrument="SS SqGuitarOctaveAltFast"
				Note Time="150" Value="D#3" Duration="6" Instrument="SS SqGuitarOctaveAltFast"
				Note Time="156" Value="F2" Duration="6" Instrument="SS SqGuitarOctaveAltFast"
				Note Time="162" Value="F2" Duration="6" Instrument="SS SqGuitarOctaveAltFast"
				Note Time="168" Value="D#3" Duration="6" Instrument="SS SqGuitarOctaveAltFast"
				Note Time="174" Value="F2" Duration="6" Instrument="SS SqGuitarOctaveAltFast"
				Note Time="180" Value="F2" Duration="6" Instrument="SS SqGuitarOctaveAltFast"
				Note Time="186" Value="D#3" Duration="6" Instrument="SS SqGuitarOctaveAltFast"
			Pattern Name="VerseB1"
				Note Time="0" Value="B3" Duration="6" Instrument="SS SqVerseBMelodyDuty3"
				Note Time="6" Value="G#3" Duration="1" Instrument="SS SqVerseBMelodyDuty3"
				Note Time="7" Value="F#3" Duration="4" Release="2" Instrument="SS SqVerseBMelodyDuty3"
				Note Time="12" Value="A3" Duration="1" Instrument="SS SqVerseBMelodyDuty3"
				Note Time="13" Value="B3" Duration="4" Release="2" Instrument="SS SqVerseBMelodyDuty3"
				Note Time="18" Value="D4" Duration="1" Instrument="SS SqVerseBMelodyDuty3"
				Note Time="19" Value="D#4" Duration="4" Release="2" Instrument="SS SqVerseBMelodyDuty3"
				Note Time="24" Value="F#4" Duration="6" Instrument="SS SqVerseBMelodyDuty3"
				Note Time="30" Value="D#4" Duration="1" Instrument="SS SqVerseBMelodyDuty3"
				Note Time="31" Value="C4" Duration="1" Instrument="SS SqVerseBMelodyDuty3"
				Note Time="32" Value="B3" Duration="3" Release="1" Instrument="SS SqVerseBMelodyDuty3"
				Note Time="36" Value="D4" Duration="1" Instrument="SS SqVerseBMelodyDuty3"
				Note Time="37" Value="D#4" Duration="4" Release="2" Instrument="SS SqVerseBMelodyDuty3"
				Note Time="42" Value="F#4" Duration="5" Release="3" Instrument="SS SqVerseBMelodyDuty3"
				Note Time="48" Value="A4" Duration="1" Instrument="SS SqVerseBMelodyDuty3"
				Note Time="49" Value="B4" Duration="5" Instrument="SS SqVerseBMelodyDuty3"
				Note Time="54" Value="G#4" Duration="1" Instrument="SS SqVerseBMelodyDuty3"
				Note Time="55" Value="F#4" Duration="4" Release="2" Instrument="SS SqVerseBMelodyDuty3"
				Note Time="60" Value="D#4" Duration="5" Release="3" Instrument="SS SqVerseBMelodyDuty3"
				Note Time="66" Value="E4" Duration="6" Instrument="SS SqVerseBMelodyDuty3"
				Note Time="72" Value="C#4" Duration="5" Release="3" Instrument="SS SqVerseBMelodyDuty3"
				Note Time="78" Value="D#4" Duration="5" Release="3" Instrument="SS SqVerseBMelodyDuty3"
				Note Time="84" Value="C4" Duration="1" Instrument="SS SqVerseBMelodyDuty3"
				Note Time="85" Value="B3" Duration="5" Instrument="SS SqVerseBMelodyDuty3"
				Note Time="90" Value="G#3" Duration="1" Instrument="SS SqVerseBMelodyDuty3"
				Note Time="91" Value="F#3" Duration="4" Release="2" Instrument="SS SqVerseBMelodyDuty3"
				Note Time="96" Value="A3" Duration="12" Instrument="SS SqVerseBMelodyDuty3"
				Note Time="108" Value="C4" Duration="1" Instrument="SS SqVerseBMelodyDuty3"
				Note Time="109" Value="C#4" Duration="4" Release="2" Instrument="SS SqVerseBMelodyDuty3"
				Note Time="114" Value="B3" Duration="18" Instrument="SS SqVerseBMelodyDuty3"
				Note Time="132" Value="C#4" Duration="18" Instrument="SS SqVerseBMelodyDuty3"
				Note Time="150" Value="D#4" Duration="18" Instrument="SS SqVerseBMelodyDuty3"
				Note Time="168" Value="E4" Duration="12" Instrument="SS SqVerseBMelodyDuty3"
				Note Time="180" Value="G4" Duration="1" Instrument="SS SqVerseBMelodyDuty3"
				Note Time="181" Value="G#4" Duration="10" Release="8" Instrument="SS SqVerseBMelodyDuty3"
			Pattern Name="VerseB2"
				Note Time="0" Value="F4" Duration="1" Instrument="SS SqVerseBMelodyDuty3"
				Note Time="1" Value="D4" Duration="1" Instrument="SS SqVerseBMelodyDuty3"
				Note Time="2" Value="B3" Duration="3" Release="1" Instrument="SS SqVerseBMelodyDuty3" Attack="False"
				Note Time="6" Value="G#3" Duration="1" Instrument="SS SqVerseBMelodyDuty3"
				Note Time="7" Value="F#3" Duration="4" Release="2" Instrument="SS SqVerseBMelodyDuty3"
				Note Time="12" Value="A3" Duration="1" Instrument="SS SqVerseBMelodyDuty3"
				Note Time="13" Value="B3" Duration="4" Release="2" Instrument="SS SqVerseBMelodyDuty3"
				Note Time="18" Value="D4" Duration="1" Instrument="SS SqVerseBMelodyDuty3"
				Note Time="19" Value="D#4" Duration="4" Release="2" Instrument="SS SqVerseBMelodyDuty3"
				Note Time="24" Value="F#4" Duration="6" Instrument="SS SqVerseBMelodyDuty3"
				Note Time="30" Value="D#4" Duration="1" Instrument="SS SqVerseBMelodyDuty3"
				Note Time="31" Value="C4" Duration="1" Instrument="SS SqVerseBMelodyDuty3"
				Note Time="32" Value="B3" Duration="3" Release="1" Instrument="SS SqVerseBMelodyDuty3"
				Note Time="36" Value="D4" Duration="1" Instrument="SS SqVerseBMelodyDuty3"
				Note Time="37" Value="D#4" Duration="4" Release="2" Instrument="SS SqVerseBMelodyDuty3"
				Note Time="42" Value="F#4" Duration="5" Release="3" Instrument="SS SqVerseBMelodyDuty3"
				Note Time="48" Value="A4" Duration="1" Instrument="SS SqVerseBMelodyDuty3"
				Note Time="49" Value="B4" Duration="5" Instrument="SS SqVerseBMelodyDuty3"
				Note Time="54" Value="G#4" Duration="1" Instrument="SS SqVerseBMelodyDuty3"
				Note Time="55" Value="F#4" Duration="4" Release="2" Instrument="SS SqVerseBMelodyDuty3"
				Note Time="60" Value="D#4" Duration="5" Release="3" Instrument="SS SqVerseBMelodyDuty3"
				Note Time="66" Value="E4" Duration="6" Instrument="SS SqVerseBMelodyDuty3"
				Note Time="72" Value="C#4" Duration="5" Release="3" Instrument="SS SqVerseBMelodyDuty3"
				Note Time="78" Value="D#4" Duration="5" Release="3" Instrument="SS SqVerseBMelodyDuty3"
				Note Time="84" Value="C4" Duration="1" Instrument="SS SqVerseBMelodyDuty3"
				Note Time="85" Value="B3" Duration="5" Instrument="SS SqVerseBMelodyDuty3"
				Note Time="90" Value="G#3" Duration="1" Instrument="SS SqVerseBMelodyDuty3"
				Note Time="91" Value="F#3" Duration="4" Release="2" Instrument="SS SqVerseBMelodyDuty3"
				Note Time="96" Value="A3" Duration="12" Instrument="SS SqVerseBMelodyDuty3"
				Note Time="108" Value="C4" Duration="1" Instrument="SS SqVerseBMelodyDuty3"
				Note Time="109" Value="C#4" Duration="4" Release="2" Instrument="SS SqVerseBMelodyDuty3"
				Note Time="114" Value="B3" Duration="18" Instrument="SS SqVerseBMelodyDuty3"
				Note Time="132" Value="C#4" Duration="18" Instrument="SS SqVerseBMelodyDuty3"
				Note Time="150" Value="D#4" Duration="18" Instrument="SS SqVerseBMelodyDuty3"
				Note Time="168" Value="E4" Duration="12" Instrument="SS SqVerseBMelodyDuty3"
				Note Time="180" Value="G4" Duration="1" Instrument="SS SqVerseBMelodyDuty3"
				Note Time="181" Value="G#4" Duration="10" Release="8" Instrument="SS SqVerseBMelodyDuty3"
			Pattern Name="VerseB3"
				Note Time="0" Value="G#4" Duration="1" Instrument="SS PlainDuty2" Volume="4"
				Note Time="1" Value="F4" Duration="1" Instrument="SS PlainDuty2"
				Note Time="2" Value="D4" Duration="1" Instrument="SS PlainDuty2"
				Note Time="3" Value="C4" Duration="13" Instrument="SS PlainDuty2"
				Note Time="16" Value="C4" Duration="10" Instrument="SS PlainDuty2" SlideTarget="G3"
				Note Time="26" Value="C4" Duration="10" Instrument="SS PlainDuty2" SlideTarget="G3" Volume="2"
				Note Time="36" Value="C4" Duration="1" Instrument="SS PlainDuty2" Volume="4"
				Note Time="37" Value="C#4" Duration="15" Instrument="SS PlainDuty2"
				Note Time="52" Value="C#4" Duration="10" Instrument="SS PlainDuty2" SlideTarget="G#3"
				Note Time="62" Value="C#4" Duration="10" Instrument="SS PlainDuty2" SlideTarget="G#3" Volume="2"
				Note Time="72" Value="C#4" Duration="1" Instrument="SS PlainDuty2" Volume="4"
				Note Time="73" Value="D#4" Duration="15" Instrument="SS PlainDuty2"
				Note Time="88" Value="D#4" Duration="10" Instrument="SS PlainDuty2" SlideTarget="A3"
				Note Time="98" Value="D#4" Duration="10" Instrument="SS PlainDuty2" SlideTarget="A3" Volume="2"
				Note Time="108" Value="D#4" Duration="1" Instrument="SS PlainDuty2" Volume="4"
				Note Time="109" Value="F4" Duration="15" Instrument="SS PlainDuty2"
				Note Time="124" Value="F4" Duration="10" Instrument="SS PlainDuty2" SlideTarget="B3"
				Note Time="134" Value="F4" Duration="10" Instrument="SS PlainDuty2" SlideTarget="B3" Volume="2"
				Note Time="144" Value="F4" Duration="1" Instrument="SS PlainDuty2" Volume="4"
				Note Time="145" Value="F#4" Duration="15" Instrument="SS PlainDuty2"
				Note Time="160" Value="F#4" Duration="8" Instrument="SS PlainDuty2" SlideTarget="C4"
				Note Time="168" Value="F#4" Duration="1" Instrument="SS PlainDuty2"
				Note Time="169" Value="G#4" Duration="15" Instrument="SS PlainDuty2"
				Note Time="184" Value="G#4" Duration="8" Instrument="SS PlainDuty2" SlideTarget="D4"
			Pattern Name="VerseB4"
				Note Time="0" Value="G4" Duration="12" Instrument="SS SqVerseBMelodyDuty2" Volume="15"
				Note Time="12" Value="F4" Duration="1" Instrument="SS SqVerseBMelodyDuty2"
				Note Time="13" Value="D#4" Duration="10" Release="8" Instrument="SS SqVerseBMelodyDuty2"
				Note Time="24" Value="C#4" Duration="1" Instrument="SS SqVerseBMelodyDuty2"
				Note Time="25" Value="C4" Duration="10" Release="8" Instrument="SS SqVerseBMelodyDuty2"
				Note Time="36" Value="D4" Duration="1" Instrument="SS SqVerseBMelodyDuty2"
				Note Time="37" Value="E4" Duration="1" Instrument="SS SqVerseBMelodyDuty2"
				Note Time="38" Value="F4" Duration="10" Instrument="SS SqVerseBMelodyDuty2"
				Note Time="48" Value="D#4" Duration="12" Instrument="SS SqVerseBMelodyDuty2"
				Note Time="60" Value="C#4" Duration="1" Instrument="SS SqVerseBMelodyDuty2"
				Note Time="61" Value="C4" Duration="10" Release="8" Instrument="SS SqVerseBMelodyDuty2"
				Note Time="72" Value="A#3" Duration="1" Instrument="SS SqVerseBMelodyDuty2"
				Note Time="73" Value="G#3" Duration="10" Release="8" Instrument="SS SqVerseBMelodyDuty2"
				Note Time="84" Value="A#3" Duration="1" Instrument="SS SqVerseBMelodyDuty2"
				Note Time="85" Value="C4" Duration="10" Release="8" Instrument="SS SqVerseBMelodyDuty2"
				Note Time="96" Value="C#4" Duration="12" Instrument="SS SqVerseBMelodyDuty2"
				Note Time="108" Value="B3" Duration="1" Instrument="SS SqVerseBMelodyDuty2"
				Note Time="109" Value="A#3" Duration="11" Instrument="SS SqVerseBMelodyDuty2"
				Note Time="120" Value="G#3" Duration="1" Instrument="SS SqVerseBMelodyDuty2"
				Note Time="121" Value="F#3" Duration="10" Release="8" Instrument="SS SqVerseBMelodyDuty2"
				Note Time="132" Value="G#3" Duration="1" Instrument="SS SqVerseBMelodyDuty2"
				Note Time="133" Value="A#3" Duration="1" Instrument="SS SqVerseBMelodyDuty2"
				Note Time="134" Value="C4" Duration="1" Instrument="SS SqVerseBMelodyDuty2"
				Note Time="135" Value="D4" Duration="1" Instrument="SS SqVerseBMelodyDuty2"
				Note Time="136" Value="D#4" Duration="8" Instrument="SS SqVerseBMelodyDuty2"
				Note Time="144" Value="C#4" Duration="1" Instrument="SS SqVerseBMelodyDuty2"
				Note Time="145" Value="C4" Duration="11" Instrument="SS SqVerseBMelodyDuty2"
				Note Time="156" Value="A#3" Duration="1" Instrument="SS SqVerseBMelodyDuty2"
				Note Time="157" Value="G#3" Duration="10" Release="8" Instrument="SS SqVerseBMelodyDuty2"
				Note Time="168" Value="A#3" Duration="1" Instrument="SS SqVerseBMelodyDuty2"
				Note Time="169" Value="C4" Duration="1" Instrument="SS SqVerseBMelodyDuty2"
				Note Time="170" Value="D4" Duration="1" Instrument="SS SqVerseBMelodyDuty2"
				Note Time="171" Value="E4" Duration="1" Instrument="SS SqVerseBMelodyDuty2"
				Note Time="172" Value="F4" Duration="8" Release="6" Instrument="SS SqVerseBMelodyDuty2"
				Note Time="180" Value="D#4" Duration="1" Instrument="SS SqVerseBMelodyDuty2"
				Note Time="181" Value="C#4" Duration="11" Release="9" Instrument="SS SqVerseBMelodyDuty2"
			Pattern Name="Outro1"
				Note Time="0" Value="D#4" Duration="1" Instrument="SS SqVerseBMelodyDuty2"
				Note Time="1" Value="F4" Duration="47" Release="45" Instrument="SS SqVerseBMelodyDuty2"
				Note Time="48" Value="G4" Duration="1" Instrument="SS SqVerseBMelodyDuty2"
				Note Time="49" Value="A4" Duration="1" Instrument="SS SqVerseBMelodyDuty2"
				Note Time="50" Value="A#4" Duration="46" Release="44" Instrument="SS SqVerseBMelodyDuty2"
				Note Time="96" Value="C5" Duration="24" Release="22" Instrument="SS SqVerseBMelodyDuty2"
				Note Time="120" Value="A#4" Duration="1" Instrument="SS SqVerseBMelodyDuty2"
				Note Time="121" Value="G#4" Duration="1" Instrument="SS SqVerseBMelodyDuty2"
				Note Time="122" Value="G4" Duration="22" Release="20" Instrument="SS SqVerseBMelodyDuty2"
				Note Time="144" Value="F4" Duration="24" Release="22" Instrument="SS SqVerseBMelodyDuty2"
				Note Time="168" Value="E4" Duration="24" Release="22" Instrument="SS SqVerseBMelodyDuty2"
			Pattern Name="Outro2"
				Note Time="0" Value="F4" Duration="24" Release="22" Instrument="SS SqVerseBMelodyDuty2"
				Note Time="24" Value="D#4" Duration="1" Instrument="SS SqVerseBMelodyDuty2"
				Note Time="25" Value="D4" Duration="23" Release="21" Instrument="SS SqVerseBMelodyDuty2"
				Note Time="48" Value="E4" Duration="1" Instrument="SS SqVerseBMelodyDuty2"
				Note Time="49" Value="F#4" Duration="1" Instrument="SS SqVerseBMelodyDuty2"
				Note Time="50" Value="G#4" Duration="1" Instrument="SS SqVerseBMelodyDuty2"
				Note Time="51" Value="A#4" Duration="21" Release="19" Instrument="SS SqVerseBMelodyDuty2"
				Note Time="72" Value="C5" Duration="1" Instrument="SS SqVerseBMelodyDuty2"
				Note Time="73" Value="D5" Duration="22" Release="21" Instrument="SS SqVerseBMelodyDuty2"
				Note Time="95" Value="C#5" Duration="1" Instrument="SS SqVerseBMelodyDuty2" Attack="False"
				Note Time="96" Value="C5" Duration="48" Release="46" Instrument="SS SqVerseBMelodyDuty2"
				Note Time="144" Value="D5" Duration="1" Instrument="SS SqVerseBMelodyDuty2"
				Note Time="145" Value="E5" Duration="47" Release="45" Instrument="SS SqVerseBMelodyDuty2"
			Pattern Name="Outro3"
				Note Time="0" Value="F4" Duration="16" Instrument="SS PlainDuty2" Volume="4"
				Note Time="16" Value="F4" Duration="10" Instrument="SS PlainDuty2" SlideTarget="B3"
				Note Time="26" Value="F4" Duration="10" Instrument="SS PlainDuty2" SlideTarget="B3" Volume="2"
				Note Time="36" Value="E4" Duration="16" Instrument="SS PlainDuty2" Volume="4"
				Note Time="52" Value="E4" Duration="10" Instrument="SS PlainDuty2" SlideTarget="A#3"
				Note Time="62" Value="E4" Duration="10" Instrument="SS PlainDuty2" SlideTarget="A#3" Volume="2"
				Note Time="72" Value="C4" Duration="16" Instrument="SS PlainDuty2" Volume="4"
				Note Time="88" Value="C4" Duration="8" Instrument="SS PlainDuty2" SlideTarget="G#3"
				Note Time="96" Value="D4" Duration="48" Instrument="SS PlainDuty2"
				Note Time="144" Value="E4" Duration="24" Instrument="SS PlainDuty2"
				Note Time="168" Value="F4" Duration="24" Instrument="SS PlainDuty2"
			Pattern Name="Outro4"
				Note Time="0" Value="G4" Duration="48" Instrument="SS PlainDuty2"
				Note Time="48" Value="A4" Duration="1" Instrument="SS PlainDuty2"
				Note Time="49" Value="B4" Duration="1" Instrument="SS PlainDuty2"
				Note Time="50" Value="C#5" Duration="1" Instrument="SS PlainDuty2"
				Note Time="51" Value="D#5" Duration="1" Instrument="SS PlainDuty2"
				Note Time="52" Value="E5" Duration="45" Instrument="SS PlainDuty2"
				Note Time="97" Value="F#5" Duration="1" Instrument="SS PlainDuty2"
				Note Time="98" Value="G5" Duration="5" Instrument="SS PlainDuty2"
				Note Time="103" Value="F5" Duration="1" Instrument="SS PlainDuty2"
				Note Time="104" Value="E5" Duration="5" Instrument="SS PlainDuty2"
				Note Time="109" Value="D5" Duration="6" Instrument="SS PlainDuty2"
				Note Time="115" Value="C5" Duration="1" Instrument="SS PlainDuty2"
				Note Time="116" Value="A#4" Duration="5" Instrument="SS PlainDuty2"
				Note Time="121" Value="A4" Duration="6" Instrument="SS PlainDuty2"
				Note Time="127" Value="G4" Duration="6" Instrument="SS PlainDuty2"
				Note Time="133" Value="F4" Duration="1" Instrument="SS PlainDuty2"
				Note Time="134" Value="E4" Duration="5" Instrument="SS PlainDuty2"
				Note Time="139" Value="D4" Duration="6" Instrument="SS PlainDuty2"
				Note Time="145" Value="C4" Duration="1" Instrument="SS PlainDuty2"
				Note Time="146" Value="A#3" Duration="5" Instrument="SS PlainDuty2"
				Note Time="151" Value="A3" Duration="6" Instrument="SS PlainDuty2"
				Note Time="157" Value="G3" Duration="6" Instrument="SS PlainDuty2"
				Note Time="163" Value="F3" Duration="1" Instrument="SS PlainDuty2"
				Note Time="164" Value="E3" Duration="5" Instrument="SS PlainDuty2"
				Note Time="169" Value="D3" Duration="6" Instrument="SS PlainDuty2"
				Note Time="175" Value="C3" Duration="1" Instrument="SS PlainDuty2"
				Note Time="176" Value="A#2" Duration="5" Instrument="SS PlainDuty2"
				Note Time="181" Value="A2" Duration="6" Instrument="SS PlainDuty2"
				Note Time="187" Value="G2" Duration="5" Instrument="SS PlainDuty2"
			PatternInstance Time="0" Pattern="Slide1"
			PatternInstance Time="1" Pattern="Intro1"
			PatternInstance Time="2" Pattern="Intro2"
			PatternInstance Time="3" Pattern="Intro3"
			PatternInstance Time="4" Pattern="Intro4"
			PatternInstance Time="5" Pattern="VerseA1"
			PatternInstance Time="6" Pattern="VerseA1"
			PatternInstance Time="7" Pattern="VerseA2"
			PatternInstance Time="8" Pattern="VerseA3"
			PatternInstance Time="9" Pattern="VerseA4"
			PatternInstance Time="10" Pattern="VerseA5"
			PatternInstance Time="11" Pattern="VerseA6"
			PatternInstance Time="12" Pattern="VerseA7"
			PatternInstance Time="13" Pattern="VerseA8"
			PatternInstance Time="14" Pattern="VerseA9"
			PatternInstance Time="15" Pattern="VerseA10"
			PatternInstance Time="16" Pattern="HighPitch1"
			PatternInstance Time="17" Pattern="HighPitch2"
			PatternInstance Time="18" Pattern="HighPitch3"
			PatternInstance Time="19" Pattern="Bridge1"
			PatternInstance Time="20" Pattern="Bridge1"
			PatternInstance Time="21" Pattern="Bridge2"
			PatternInstance Time="22" Pattern="Bridge2"
			PatternInstance Time="23" Pattern="VerseB1"
			PatternInstance Time="24" Pattern="VerseB2"
			PatternInstance Time="25" Pattern="VerseB3"
			PatternInstance Time="26" Pattern="VerseB4"
			PatternInstance Time="27" Pattern="Outro1"
			PatternInstance Time="28" Pattern="Outro2"
			PatternInstance Time="29" Pattern="Outro3"
			PatternInstance Time="30" Pattern="Outro4"
			PatternInstance Time="31" Pattern="Slide1"
		Channel Type="Triangle"
			Pattern Name="Slide1"
				Note Time="156" Value="A3" Duration="6" Instrument="SS TriSnare"
				Note Time="162" Value="A3" Duration="6" Instrument="SS TriSnare"
				Note Time="168" Value="A3" Duration="12" Instrument="SS TriSnare"
			Pattern Name="Intro1"
				Note Time="0" Value="C3" Duration="6" Instrument="SS TriBassDrum"
				Note Time="6" Value="C2" Duration="30" Instrument="SS PlainDuty0"
				Note Time="36" Value="C3" Duration="6" Instrument="SS TriBassDrum"
				Note Time="42" Value="D2" Duration="6" Instrument="SS PlainDuty0"
				Note Time="72" Value="C3" Duration="6" Instrument="SS TriBassDrum"
				Note Time="78" Value="F2" Duration="18" Instrument="SS PlainDuty0"
				Note Time="96" Value="C3" Duration="6" Instrument="SS TriBassDrum"
				Note Time="102" Value="G2" Duration="6" Instrument="SS PlainDuty0"
				Note Time="108" Value="F2" Duration="6" Instrument="SS PlainDuty0"
				Note Time="114" Value="G2" Duration="6" Instrument="SS PlainDuty0"
				Note Time="120" Value="C3" Duration="6" Instrument="SS TriBassDrum"
				Note Time="126" Value="F2" Duration="6" Instrument="SS PlainDuty0"
				Note Time="132" Value="A3" Duration="2" Instrument="SS TriSnare"
				Note Time="134" Value="G2" Duration="22" Instrument="SS PlainDuty0"
				Note Time="156" Value="C3" Duration="6" Instrument="SS TriBassDrum"
				Note Time="162" Value="F2" Duration="6" Instrument="SS PlainDuty0"
				Note Time="168" Value="A3" Duration="2" Instrument="SS TriSnare"
				Note Time="170" Value="G2" Duration="4" Instrument="SS PlainDuty0"
				Note Time="174" Value="A3" Duration="2" Instrument="SS TriSnare"
				Note Time="176" Value="G2" Duration="4" Instrument="SS PlainDuty0"
				Note Time="180" Value="A3" Duration="2" Instrument="SS TriSnare"
				Note Time="182" Value="G2" Duration="10" Instrument="SS PlainDuty0"
			Pattern Name="Intro2"
				Note Time="0" Value="C3" Duration="6" Instrument="SS TriBassDrum"
				Note Time="6" Value="C2" Duration="30" Instrument="SS PlainDuty0"
				Note Time="36" Value="C3" Duration="6" Instrument="SS TriBassDrum"
				Note Time="42" Value="D2" Duration="6" Instrument="SS PlainDuty0"
				Note Time="72" Value="C3" Duration="6" Instrument="SS TriBassDrum"
				Note Time="78" Value="F2" Duration="18" Instrument="SS PlainDuty0"
				Note Time="96" Value="C3" Duration="6" Instrument="SS TriBassDrum"
				Note Time="102" Value="G2" Duration="6" Instrument="SS PlainDuty0"
				Note Time="108" Value="F2" Duration="6" Instrument="SS PlainDuty0"
				Note Time="114" Value="G2" Duration="6" Instrument="SS PlainDuty0"
				Note Time="120" Value="C3" Duration="6" Instrument="SS TriBassDrum"
				Note Time="126" Value="F2" Duration="6" Instrument="SS PlainDuty0"
				Note Time="132" Value="A3" Duration="2" Instrument="SS TriSnare"
				Note Time="134" Value="G2" Duration="22" Instrument="SS PlainDuty0"
				Note Time="156" Value="C3" Duration="6" Instrument="SS TriBassDrum"
				Note Time="162" Value="F2" Duration="6" Instrument="SS PlainDuty0"
				Note Time="168" Value="A3" Duration="2" Instrument="SS TriSnare"
				Note Time="170" Value="G2" Duration="4" Instrument="SS PlainDuty0"
				Note Time="174" Value="A3" Duration="2" Instrument="SS TriSnare"
				Note Time="176" Value="G2" Duration="4" Instrument="SS PlainDuty0"
				Note Time="180" Value="A3" Duration="2" Instrument="SS TriSnare"
				Note Time="182" Value="G2" Duration="10" Instrument="SS PlainDuty0"
				Note Time="192" Value="C3" Duration="6" Instrument="SS TriBassDrum"
				Note Time="198" Value="G2" Duration="6" Instrument="SS PlainDuty0"
			Pattern Name="Intro3"
				Note Time="0" Value="C3" Duration="6" Instrument="SS TriBassDrum"
				Note Time="6" Value="D#2" Duration="6" Instrument="SS PlainDuty0"
				Note Time="12" Value="C#2" Duration="1" Instrument="SS PlainDuty0"
				Note Time="13" Value="D2" Duration="1" Instrument="SS PlainDuty0"
				Note Time="14" Value="D#2" Duration="10" Instrument="SS PlainDuty0"
				Note Time="24" Value="A#3" Duration="2" Instrument="SS TriSnare"
				Note Time="26" Value="A#2" Duration="10" Instrument="SS PlainDuty0"
				Note Time="36" Value="C#2" Duration="1" Instrument="SS PlainDuty0"
				Note Time="37" Value="D2" Duration="1" Instrument="SS PlainDuty0"
				Note Time="38" Value="D#2" Duration="10" Instrument="SS PlainDuty0"
				Note Time="48" Value="C3" Duration="6" Instrument="SS TriBassDrum"
				Note Time="54" Value="D#2" Duration="6" Instrument="SS PlainDuty0"
				Note Time="60" Value="D2" Duration="1" Instrument="SS PlainDuty0"
				Note Time="61" Value="D#2" Duration="5" Instrument="SS PlainDuty0"
				Note Time="66" Value="C3" Duration="6" Instrument="SS TriBassDrum"
				Note Time="72" Value="D#2" Duration="6" Instrument="SS PlainDuty0"
				Note Time="78" Value="D2" Duration="1" Instrument="SS PlainDuty0"
				Note Time="79" Value="D#2" Duration="5" Instrument="SS PlainDuty0"
				Note Time="84" Value="C3" Duration="6" Instrument="SS TriBassDrum"
				Note Time="90" Value="D2" Duration="6" Instrument="SS PlainDuty0"
				Note Time="96" Value="C3" Duration="6" Instrument="SS TriBassDrum"
				Note Time="102" Value="C2" Duration="6" Instrument="SS PlainDuty0"
				Note Time="108" Value="A#1" Duration="1" Instrument="SS PlainDuty0"
				Note Time="109" Value="B1" Duration="1" Instrument="SS PlainDuty0"
				Note Time="110" Value="C2" Duration="10" Instrument="SS PlainDuty0"
				Note Time="120" Value="G3" Duration="2" Instrument="SS TriSnare"
				Note Time="122" Value="G2" Duration="10" Instrument="SS PlainDuty0"
				Note Time="132" Value="A#1" Duration="1" Instrument="SS PlainDuty0"
				Note Time="133" Value="B1" Duration="1" Instrument="SS PlainDuty0"
				Note Time="134" Value="C2" Duration="10" Instrument="SS PlainDuty0"
				Note Time="144" Value="C3" Duration="6" Instrument="SS TriBassDrum"
				Note Time="150" Value="C2" Duration="6" Instrument="SS PlainDuty0"
				Note Time="156" Value="B1" Duration="1" Instrument="SS PlainDuty0"
				Note Time="157" Value="C2" Duration="5" Instrument="SS PlainDuty0"
				Note Time="162" Value="C3" Duration="6" Instrument="SS TriBassDrum"
				Note Time="168" Value="C2" Duration="6" Instrument="SS PlainDuty0"
				Note Time="174" Value="B1" Duration="1" Instrument="SS PlainDuty0"
				Note Time="175" Value="C2" Duration="5" Instrument="SS PlainDuty0"
				Note Time="180" Value="C3" Duration="6" Instrument="SS TriBassDrum"
				Note Time="186" Value="D2" Duration="6" Instrument="SS PlainDuty0"
			Pattern Name="Bass1"
				Note Time="0" Value="C3" Duration="6" Instrument="SS TriBassDrum"
				Note Time="6" Value="B1" Duration="4" Instrument="SS PlainDuty0"
				Note Time="12" Value="B1" Duration="10" Instrument="SS PlainDuty0"
				Note Time="24" Value="A3" Duration="2" Instrument="SS TriSnare"
				Note Time="26" Value="B2" Duration="4" Instrument="SS PlainDuty0"
				Note Time="30" Value="B1" Duration="4" Instrument="SS PlainDuty0"
				Note Time="36" Value="B1" Duration="6" Instrument="SS PlainDuty0"
				Note Time="42" Value="C3" Duration="6" Instrument="SS TriBassDrum"
				Note Time="48" Value="E2" Duration="10" Instrument="SS PlainDuty0"
				Note Time="60" Value="C3" Duration="6" Instrument="SS TriBassDrum"
				Note Time="66" Value="D2" Duration="6" Instrument="SS PlainDuty0"
				Note Time="72" Value="A3" Duration="2" Instrument="SS TriSnare"
				Note Time="74" Value="C#2" Duration="10" Instrument="SS PlainDuty0"
				Note Time="84" Value="D2" Duration="6" Instrument="SS PlainDuty0"
				Note Time="90" Value="A3" Duration="2" Instrument="SS TriSnare"
				Note Time="92" Value="D2" Duration="4" Instrument="SS PlainDuty0"
				Note Time="96" Value="C3" Duration="6" Instrument="SS TriBassDrum"
				Note Time="102" Value="B1" Duration="4" Instrument="SS PlainDuty0"
				Note Time="108" Value="B1" Duration="10" Instrument="SS PlainDuty0"
				Note Time="120" Value="A3" Duration="2" Instrument="SS TriSnare"
				Note Time="122" Value="B2" Duration="4" Instrument="SS PlainDuty0"
				Note Time="126" Value="B1" Duration="4" Instrument="SS PlainDuty0"
				Note Time="132" Value="B1" Duration="6" Instrument="SS PlainDuty0"
				Note Time="138" Value="C3" Duration="6" Instrument="SS TriBassDrum"
				Note Time="144" Value="E2" Duration="10" Instrument="SS PlainDuty0"
				Note Time="156" Value="C3" Duration="6" Instrument="SS TriBassDrum"
				Note Time="162" Value="D2" Duration="6" Instrument="SS PlainDuty0"
				Note Time="168" Value="A3" Duration="2" Instrument="SS TriSnare"
				Note Time="170" Value="A2" Duration="4" Instrument="SS PlainDuty0"
				Note Time="174" Value="A3" Duration="2" Instrument="SS TriSnare"
				Note Time="176" Value="A2" Duration="4" Instrument="SS PlainDuty0"
				Note Time="180" Value="A3" Duration="2" Instrument="SS TriSnare"
				Note Time="182" Value="B2" Duration="4" Instrument="SS PlainDuty0"
				Note Time="186" Value="A3" Duration="2" Instrument="SS TriSnare"
				Note Time="188" Value="B2" Duration="4" Instrument="SS PlainDuty0"
			Pattern Name="Bass2"
				Note Time="0" Value="C3" Duration="192" Instrument="SS TriBassDrum"
			Pattern Name="Bass3"
				Note Time="0" Value="C3" Duration="6" Instrument="SS TriBassDrum"
				Note Time="24" Value="A3" Duration="18" Instrument="SS TriSnare"
				Note Time="42" Value="C3" Duration="18" Instrument="SS TriBassDrum"
				Note Time="60" Value="C3" Duration="12" Instrument="SS TriBassDrum"
				Note Time="72" Value="A3" Duration="18" Instrument="SS TriSnare"
				Note Time="90" Value="A3" Duration="6" Instrument="SS TriSnare"
				Note Time="96" Value="C3" Duration="24" Instrument="SS TriBassDrum"
				Note Time="120" Value="A3" Duration="18" Instrument="SS TriSnare"
				Note Time="138" Value="C3" Duration="18" Instrument="SS TriBassDrum"
				Note Time="156" Value="C3" Duration="12" Instrument="SS TriBassDrum"
				Note Time="168" Value="A3" Duration="6" Instrument="SS TriSnare"
				Note Time="174" Value="A3" Duration="6" Instrument="SS TriSnare"
				Note Time="180" Value="A3" Duration="6" Instrument="SS TriSnare"
				Note Time="186" Value="A3" Duration="6" Instrument="SS TriSnare"
			Pattern Name="Bass4"
				Note Time="0" Value="C3" Duration="24" Instrument="SS TriBassDrum"
				Note Time="24" Value="A3" Duration="18" Instrument="SS TriSnare"
				Note Time="42" Value="C3" Duration="18" Instrument="SS TriBassDrum"
				Note Time="60" Value="C3" Duration="12" Instrument="SS TriBassDrum"
				Note Time="72" Value="A3" Duration="18" Instrument="SS TriSnare"
				Note Time="90" Value="A3" Duration="6" Instrument="SS TriSnare"
				Note Time="96" Value="C3" Duration="24" Instrument="SS TriBassDrum"
				Note Time="120" Value="A3" Duration="18" Instrument="SS TriSnare"
				Note Time="138" Value="C3" Duration="18" Instrument="SS TriBassDrum"
				Note Time="156" Value="C3" Duration="12" Instrument="SS TriBassDrum"
				Note Time="168" Value="A3" Duration="6" Instrument="SS TriSnare"
				Note Time="174" Value="A3" Duration="6" Instrument="SS TriSnare"
				Note Time="180" Value="A3" Duration="6" Instrument="SS TriSnare"
				Note Time="186" Value="A3" Duration="6" Instrument="SS TriSnare"
			Pattern Name="Bass5"
				Note Time="0" Value="C3" Duration="6" Instrument="SS TriBassDrum"
				Note Time="6" Value="B1" Duration="18" Instrument="SS PlainDuty0"
				Note Time="24" Value="A3" Duration="2" Instrument="SS TriSnare"
				Note Time="26" Value="B1" Duration="16" Instrument="SS PlainDuty0"
				Note Time="42" Value="C3" Duration="6" Instrument="SS TriBassDrum"
				Note Time="48" Value="B1" Duration="12" Instrument="SS PlainDuty0"
				Note Time="60" Value="C3" Duration="6" Instrument="SS TriBassDrum"
				Note Time="66" Value="B1" Duration="6" Instrument="SS PlainDuty0"
				Note Time="72" Value="A3" Duration="2" Instrument="SS TriSnare"
				Note Time="74" Value="A2" Duration="4" Instrument="SS PlainDuty0"
				Note Time="78" Value="B2" Duration="6" Instrument="SS PlainDuty0"
				Note Time="84" Value="F#2" Duration="6" Instrument="SS PlainDuty0"
				Note Time="90" Value="A3" Duration="2" Instrument="SS TriSnare"
				Note Time="92" Value="F#2" Duration="4" Instrument="SS PlainDuty0"
				Note Time="96" Value="C3" Duration="6" Instrument="SS TriBassDrum"
				Note Time="102" Value="B1" Duration="18" Instrument="SS PlainDuty0"
				Note Time="120" Value="A3" Duration="2" Instrument="SS TriSnare"
				Note Time="122" Value="B1" Duration="16" Instrument="SS PlainDuty0"
				Note Time="138" Value="C3" Duration="6" Instrument="SS TriBassDrum"
				Note Time="144" Value="B1" Duration="12" Instrument="SS PlainDuty0"
				Note Time="156" Value="C3" Duration="6" Instrument="SS TriBassDrum"
				Note Time="162" Value="B1" Duration="6" Instrument="SS PlainDuty0"
				Note Time="168" Value="A3" Duration="2" Instrument="SS TriSnare"
				Note Time="170" Value="B2" Duration="4" Instrument="SS PlainDuty0"
				Note Time="174" Value="A3" Duration="2" Instrument="SS TriSnare"
				Note Time="176" Value="B2" Duration="4" Instrument="SS PlainDuty0"
				Note Time="180" Value="A3" Duration="2" Instrument="SS TriSnare"
				Note Time="182" Value="B2" Duration="4" Instrument="SS PlainDuty0"
				Note Time="186" Value="A3" Duration="2" Instrument="SS TriSnare"
				Note Time="188" Value="B2" Duration="4" Instrument="SS PlainDuty0"
			Pattern Name="Bass6"
				Note Time="0" Value="C3" Duration="6" Instrument="SS TriBassDrum"
				Note Time="6" Value="G#1" Duration="18" Instrument="SS PlainDuty0"
				Note Time="24" Value="A3" Duration="2" Instrument="SS TriSnare"
				Note Time="26" Value="G#1" Duration="16" Instrument="SS PlainDuty0"
				Note Time="42" Value="C3" Duration="6" Instrument="SS TriBassDrum"
				Note Time="48" Value="G#1" Duration="12" Instrument="SS PlainDuty0"
				Note Time="60" Value="C3" Duration="6" Instrument="SS TriBassDrum"
				Note Time="66" Value="G#1" Duration="6" Instrument="SS PlainDuty0"
				Note Time="72" Value="A3" Duration="2" Instrument="SS TriSnare"
				Note Time="74" Value="F#2" Duration="4" Instrument="SS PlainDuty0"
				Note Time="78" Value="G#2" Duration="6" Instrument="SS PlainDuty0"
				Note Time="84" Value="D#2" Duration="6" Instrument="SS PlainDuty0"
				Note Time="90" Value="A3" Duration="2" Instrument="SS TriSnare"
				Note Time="92" Value="D#2" Duration="4" Instrument="SS PlainDuty0"
				Note Time="96" Value="C3" Duration="6" Instrument="SS TriBassDrum"
				Note Time="102" Value="G#1" Duration="18" Instrument="SS PlainDuty0"
				Note Time="120" Value="A3" Duration="2" Instrument="SS TriSnare"
				Note Time="122" Value="G#1" Duration="16" Instrument="SS PlainDuty0"
				Note Time="138" Value="C3" Duration="6" Instrument="SS TriBassDrum"
				Note Time="144" Value="G#1" Duration="12" Instrument="SS PlainDuty0"
				Note Time="156" Value="C3" Duration="6" Instrument="SS TriBassDrum"
				Note Time="162" Value="G#1" Duration="6" Instrument="SS PlainDuty0"
				Note Time="168" Value="A3" Duration="2" Instrument="SS TriSnare"
				Note Time="170" Value="G#2" Duration="4" Instrument="SS PlainDuty0"
				Note Time="174" Value="A3" Duration="2" Instrument="SS TriSnare"
				Note Time="176" Value="G#2" Duration="4" Instrument="SS PlainDuty0"
				Note Time="180" Value="A3" Duration="2" Instrument="SS TriSnare"
				Note Time="182" Value="G#2" Duration="4" Instrument="SS PlainDuty0"
				Note Time="186" Value="A3" Duration="2" Instrument="SS TriSnare"
				Note Time="188" Value="G#2" Duration="4" Instrument="SS PlainDuty0"
			Pattern Name="Bass7"
				Note Time="0" Value="C3" Duration="6" Instrument="SS TriBassDrum"
				Note Time="6" Value="F2" Duration="18" Instrument="SS PlainDuty0"
				Note Time="24" Value="A3" Duration="2" Instrument="SS TriSnare"
				Note Time="26" Value="F2" Duration="16" Instrument="SS PlainDuty0"
				Note Time="42" Value="C3" Duration="6" Instrument="SS TriBassDrum"
				Note Time="48" Value="F2" Duration="12" Instrument="SS PlainDuty0"
				Note Time="60" Value="C3" Duration="6" Instrument="SS TriBassDrum"
				Note Time="66" Value="F2" Duration="6" Instrument="SS PlainDuty0"
				Note Time="72" Value="A3" Duration="2" Instrument="SS TriSnare"
				Note Time="74" Value="D#3" Duration="4" Instrument="SS PlainDuty0"
				Note Time="78" Value="F3" Duration="6" Instrument="SS PlainDuty0"
				Note Time="84" Value="C3" Duration="6" Instrument="SS PlainDuty0"
				Note Time="90" Value="A3" Duration="2" Instrument="SS TriSnare"
				Note Time="92" Value="C3" Duration="4" Instrument="SS PlainDuty0"
				Note Time="96" Value="C3" Duration="6" Instrument="SS TriBassDrum"
				Note Time="102" Value="F2" Duration="18" Instrument="SS PlainDuty0"
				Note Time="120" Value="A3" Duration="2" Instrument="SS TriSnare"
				Note Time="122" Value="F2" Duration="16" Instrument="SS PlainDuty0"
				Note Time="138" Value="C3" Duration="6" Instrument="SS TriBassDrum"
				Note Time="144" Value="F2" Duration="12" Instrument="SS PlainDuty0"
				Note Time="156" Value="C3" Duration="6" Instrument="SS TriBassDrum"
				Note Time="162" Value="F2" Duration="6" Instrument="SS PlainDuty0"
				Note Time="168" Value="A3" Duration="2" Instrument="SS TriSnare"
				Note Time="170" Value="F3" Duration="4" Instrument="SS PlainDuty0"
				Note Time="174" Value="A3" Duration="2" Instrument="SS TriSnare"
				Note Time="176" Value="F3" Duration="4" Instrument="SS PlainDuty0"
				Note Time="180" Value="A3" Duration="2" Instrument="SS TriSnare"
				Note Time="182" Value="F3" Duration="4" Instrument="SS PlainDuty0"
				Note Time="186" Value="A3" Duration="2" Instrument="SS TriSnare"
				Note Time="188" Value="F3" Duration="4" Instrument="SS PlainDuty0"
			Pattern Name="Bass8"
				Note Time="0" Value="C3" Duration="6" Instrument="SS TriBassDrum"
				Note Time="6" Value="E2" Duration="18" Instrument="SS PlainDuty0"
				Note Time="24" Value="A3" Duration="2" Instrument="SS TriSnare"
				Note Time="26" Value="E2" Duration="16" Instrument="SS PlainDuty0"
				Note Time="42" Value="C3" Duration="6" Instrument="SS TriBassDrum"
				Note Time="48" Value="E2" Duration="12" Instrument="SS PlainDuty0"
				Note Time="60" Value="C3" Duration="6" Instrument="SS TriBassDrum"
				Note Time="66" Value="E2" Duration="6" Instrument="SS PlainDuty0"
				Note Time="72" Value="A3" Duration="2" Instrument="SS TriSnare"
				Note Time="74" Value="D3" Duration="4" Instrument="SS PlainDuty0"
				Note Time="78" Value="E3" Duration="6" Instrument="SS PlainDuty0"
				Note Time="84" Value="B2" Duration="6" Instrument="SS PlainDuty0"
				Note Time="90" Value="A3" Duration="2" Instrument="SS TriSnare"
				Note Time="92" Value="B2" Duration="4" Instrument="SS PlainDuty0"
				Note Time="96" Value="C3" Duration="6" Instrument="SS TriBassDrum"
				Note Time="102" Value="E2" Duration="18" Instrument="SS PlainDuty0"
				Note Time="120" Value="A3" Duration="2" Instrument="SS TriSnare"
				Note Time="122" Value="E2" Duration="16" Instrument="SS PlainDuty0"
				Note Time="138" Value="C3" Duration="6" Instrument="SS TriBassDrum"
				Note Time="144" Value="E2" Duration="12" Instrument="SS PlainDuty0"
				Note Time="156" Value="C3" Duration="6" Instrument="SS TriBassDrum"
				Note Time="162" Value="E2" Duration="6" Instrument="SS PlainDuty0"
				Note Time="168" Value="A3" Duration="2" Instrument="SS TriSnare"
				Note Time="170" Value="E3" Duration="4" Instrument="SS PlainDuty0"
				Note Time="174" Value="A3" Duration="2" Instrument="SS TriSnare"
				Note Time="176" Value="E3" Duration="4" Instrument="SS PlainDuty0"
				Note Time="180" Value="A3" Duration="2" Instrument="SS TriSnare"
				Note Time="182" Value="E3" Duration="4" Instrument="SS PlainDuty0"
				Note Time="186" Value="A3" Duration="2" Instrument="SS TriSnare"
				Note Time="188" Value="E3" Duration="4" Instrument="SS PlainDuty0"
			Pattern Name="Bass9"
				Note Time="0" Value="C3" Duration="6" Instrument="SS TriBassDrum"
				Note Time="6" Value="D2" Duration="6" Instrument="SS PlainDuty0"
				Note Time="156" Value="A3" Duration="6" Instrument="SS TriSnare"
				Note Time="162" Value="A3" Duration="6" Instrument="SS TriSnare"
				Note Time="168" Value="A3" Duration="12" Instrument="SS TriSnare"
			PatternInstance Time="0" Pattern="Slide1"
			PatternInstance Time="1" Pattern="Intro1"
			PatternInstance Time="2" Pattern="Intro1"
			PatternInstance Time="3" Pattern="Intro2"
			PatternInstance Time="4" Pattern="Intro3"
			PatternInstance Time="5" Pattern="Bass1"
			PatternInstance Time="6" Pattern="Bass1"
			PatternInstance Time="7" Pattern="Bass1"
			PatternInstance Time="8" Pattern="Bass1"
			PatternInstance Time="9" Pattern="Bass1"
			PatternInstance Time="10" Pattern="Bass1"
			PatternInstance Time="11" Pattern="Bass1"
			PatternInstance Time="12" Pattern="Bass1"
			PatternInstance Time="13" Pattern="Bass1"
			PatternInstance Time="14" Pattern="Bass1"
			PatternInstance Time="15" Pattern="Bass1"
			PatternInstance Time="16" Pattern="Bass1"
			PatternInstance Time="17" Pattern="Bass2"
			PatternInstance Time="18" Pattern="Bass3"
			PatternInstance Time="19" Pattern="Bass4"
			PatternInstance Time="20" Pattern="Bass4"
			PatternInstance Time="21" Pattern="Bass4"
			PatternInstance Time="22" Pattern="Bass4"
			PatternInstance Time="23" Pattern="Bass5"
			PatternInstance Time="24" Pattern="Bass5"
			PatternInstance Time="25" Pattern="Bass6"
			PatternInstance Time="26" Pattern="Bass6"
			PatternInstance Time="27" Pattern="Bass7"
			PatternInstance Time="28" Pattern="Bass7"
			PatternInstance Time="29" Pattern="Bass7"
			PatternInstance Time="30" Pattern="Bass8"
			PatternInstance Time="31" Pattern="Bass9"
		Channel Type="Noise"
			Pattern Name="Slide1"
				Note Time="0" Value="G3" Duration="49" Instrument="SS NoiseWeirdIntro1" Volume="3"
				Note Time="23" Volume="2"
				Note Time="36" Volume="1"
				Note Time="96" Value="A#2" Duration="6" Instrument="SS NoiseWeirdIntro2" Volume="1"
				Note Time="102" Value="B2" Duration="6" Instrument="SS NoiseWeirdIntro2"
				Note Time="105" Volume="2"
				Note Time="108" Value="C3" Duration="6" Instrument="SS NoiseWeirdIntro2"
				Note Time="114" Value="C#3" Duration="6" Instrument="SS NoiseWeirdIntro2"
				Note Time="115" Volume="3"
				Note Time="120" Value="D3" Duration="6" Instrument="SS NoiseWeirdIntro2"
				Note Time="125" Volume="4"
				Note Time="126" Value="D#3" Duration="6" Instrument="SS NoiseWeirdIntro2"
				Note Time="132" Value="E3" Duration="6" Instrument="SS NoiseWeirdIntro2"
				Note Time="135" Volume="5"
				Note Time="138" Value="F3" Duration="6" Instrument="SS NoiseWeirdIntro2"
				Note Time="144" Value="F#3" Duration="6" Instrument="SS NoiseWeirdIntro2"
				Note Time="150" Value="G3" Duration="6" Instrument="SS NoiseWeirdIntro2"
				Note Time="155" Volume="7"
				Note Time="156" Value="C#3" Duration="6" Instrument="SS NoiseSnare" Volume="15"
				Note Time="162" Value="C#3" Duration="6" Instrument="SS NoiseSnare"
				Note Time="168" Value="C#3" Duration="12" Instrument="SS NoiseSnare"
			Pattern Name="Intro1"
				Note Time="0" Value="C3" Duration="36" Release="34" Instrument="SS NoiseIntroCrash1"
				Note Time="36" Value="C3" Duration="36" Release="34" Instrument="SS NoiseIntroCrash1"
				Note Time="72" Value="C3" Duration="24" Release="22" Instrument="SS NoiseIntroCrash1"
				Note Time="96" Value="C3" Duration="12" Instrument="SS NoiseIntroCrash1"
				Note Time="108" Value="F#3" Duration="6" Instrument="SS NoiseHiHat2"
				Note Time="114" Value="F#3" Duration="6" Instrument="SS NoiseHiHat2"
				Note Time="120" Value="D3" Duration="6" Instrument="SS NoiseBassDrumShort"
				Note Time="126" Value="F#3" Duration="6" Instrument="SS NoiseHiHat2"
				Note Time="132" Value="C#3" Duration="12" Instrument="SS NoiseSnare"
				Note Time="144" Value="F#3" Duration="6" Instrument="SS NoiseHiHat2"
				Note Time="150" Value="F#3" Duration="6" Instrument="SS NoiseHiHat2"
				Note Time="156" Value="D3" Duration="6" Instrument="SS NoiseBassDrumShort"
				Note Time="162" Value="F#3" Duration="6" Instrument="SS NoiseHiHat2"
				Note Time="168" Value="C#3" Duration="6" Instrument="SS NoiseSnare"
				Note Time="174" Value="C#3" Duration="6" Instrument="SS NoiseSnare"
				Note Time="180" Value="C#3" Duration="12" Instrument="SS NoiseSnare"
			Pattern Name="Intro2"
				Note Time="0" Value="C3" Duration="36" Release="34" Instrument="SS NoiseIntroCrash1"
				Note Time="36" Value="C3" Duration="36" Release="34" Instrument="SS NoiseIntroCrash1"
				Note Time="72" Value="C3" Duration="24" Release="22" Instrument="SS NoiseIntroCrash1"
				Note Time="96" Value="C3" Duration="12" Instrument="SS NoiseIntroCrash1"
				Note Time="108" Value="F#3" Duration="6" Instrument="SS NoiseHiHat2"
				Note Time="114" Value="F#3" Duration="6" Instrument="SS NoiseHiHat2"
				Note Time="120" Value="D3" Duration="6" Instrument="SS NoiseBassDrumShort"
				Note Time="126" Value="F#3" Duration="6" Instrument="SS NoiseHiHat2"
				Note Time="132" Value="C#3" Duration="12" Instrument="SS NoiseSnare"
				Note Time="144" Value="F#3" Duration="6" Instrument="SS NoiseHiHat2"
				Note Time="150" Value="F#3" Duration="6" Instrument="SS NoiseHiHat2"
				Note Time="156" Value="D3" Duration="6" Instrument="SS NoiseBassDrumShort"
				Note Time="162" Value="F#3" Duration="6" Instrument="SS NoiseHiHat2"
				Note Time="168" Value="C#3" Duration="6" Instrument="SS NoiseSnare"
				Note Time="174" Value="C#3" Duration="6" Instrument="SS NoiseSnare"
				Note Time="180" Value="C#3" Duration="12" Instrument="SS NoiseSnare"
				Note Time="192" Value="D3" Duration="12" Instrument="SS NoiseIntroCrash2"
			Pattern Name="Intro3"
				Note Time="0" Value="E3" Duration="12" Instrument="SS NoiseIntroCrash3"
				Note Time="12" Value="F#3" Duration="12" Instrument="SS NoiseIntroCrash4"
				Note Time="24" Value="C#3" Duration="12" Instrument="SS NoiseSnare"
				Note Time="36" Value="F#3" Duration="12" Instrument="SS NoiseIntroCrash4"
				Note Time="48" Value="E3" Duration="18" Instrument="SS NoiseIntroCrash3"
				Note Time="66" Value="E3" Duration="18" Instrument="SS NoiseIntroCrash3"
				Note Time="84" Value="E3" Duration="12" Instrument="SS NoiseIntroCrash3"
				Note Time="96" Value="E3" Duration="12" Instrument="SS NoiseIntroCrash3"
				Note Time="108" Value="F#3" Duration="12" Instrument="SS NoiseIntroCrash4"
				Note Time="120" Value="C#3" Duration="12" Instrument="SS NoiseSnare"
				Note Time="132" Value="F#3" Duration="12" Instrument="SS NoiseIntroCrash4"
				Note Time="144" Value="E3" Duration="18" Instrument="SS NoiseIntroCrash3"
				Note Time="162" Value="E3" Duration="18" Instrument="SS NoiseIntroCrash3"
				Note Time="180" Value="E3" Duration="12" Instrument="SS NoiseIntroCrash3"
			Pattern Name="Drum1"
				Note Time="0" Value="D3" Duration="12" Instrument="SS NoiseBassDrumLong" Volume="15"
				Note Time="12" Value="F#3" Duration="12" Instrument="SS NoiseHitHat1"
				Note Time="24" Value="C#3" Duration="12" Instrument="SS NoiseSnare"
				Note Time="36" Value="F#3" Duration="6" Instrument="SS NoiseHitHat1"
				Note Time="42" Value="D3" Duration="6" Instrument="SS NoiseBassDrumShort"
				Note Time="48" Value="F#3" Duration="6" Instrument="SS NoiseHitHat1"
				Note Time="54" Value="F#3" Duration="6" Instrument="SS NoiseHiHat2"
				Note Time="60" Value="D3" Duration="6" Instrument="SS NoiseBassDrumShort"
				Note Time="66" Value="F#3" Duration="6" Instrument="SS NoiseHiHat2"
				Note Time="72" Value="C#3" Duration="12" Instrument="SS NoiseSnare"
				Note Time="84" Value="F#3" Duration="6" Instrument="SS NoiseHiHat2"
				Note Time="90" Value="C#3" Duration="6" Instrument="SS NoiseSnare"
				Note Time="96" Value="D3" Duration="12" Instrument="SS NoiseBassDrumLong"
				Note Time="108" Value="F#3" Duration="12" Instrument="SS NoiseHitHat1"
				Note Time="120" Value="C#3" Duration="12" Instrument="SS NoiseSnare"
				Note Time="132" Value="F#3" Duration="6" Instrument="SS NoiseHitHat1"
				Note Time="138" Value="D3" Duration="6" Instrument="SS NoiseBassDrumShort"
				Note Time="144" Value="F#3" Duration="6" Instrument="SS NoiseHitHat1"
				Note Time="150" Value="F#3" Duration="6" Instrument="SS NoiseHiHat2"
				Note Time="156" Value="D3" Duration="6" Instrument="SS NoiseBassDrumShort"
				Note Time="162" Value="F#3" Duration="6" Instrument="SS NoiseHiHat2"
				Note Time="168" Value="C#3" Duration="6" Instrument="SS NoiseSnare"
				Note Time="174" Value="C#3" Duration="6" Instrument="SS NoiseSnare"
				Note Time="180" Value="C#3" Duration="6" Instrument="SS NoiseSnare"
				Note Time="186" Value="C#3" Duration="6" Instrument="SS NoiseSnare"
			Pattern Name="Drum2"
				Note Time="0" Value="D3" Duration="1" Instrument="SS PlainDuty0" Volume="5"
				Note Time="1" Value="A2" Duration="63" Instrument="SS PlainDuty0" Volume="4"
				Note Time="16" Volume="3"
				Note Time="32" Volume="2"
				Note Time="48" Volume="1"
				Note Time="162" Value="A2" Duration="3" Instrument="SS PlainDuty0" Volume="1"
				Note Time="165" Value="A#2" Duration="3" Instrument="SS PlainDuty0"
				Note Time="166" Volume="2"
				Note Time="168" Value="B2" Duration="3" Instrument="SS PlainDuty0"
				Note Time="171" Value="C3" Duration="3" Instrument="SS PlainDuty0" Volume="3"
				Note Time="174" Value="C#3" Duration="3" Instrument="SS PlainDuty0"
				Note Time="176" Volume="4"
				Note Time="177" Value="D3" Duration="3" Instrument="SS PlainDuty0"
				Note Time="180" Value="D#3" Duration="3" Instrument="SS PlainDuty0"
				Note Time="181" Volume="5"
				Note Time="183" Value="E3" Duration="3" Instrument="SS PlainDuty0"
				Note Time="186" Value="F3" Duration="3" Instrument="SS PlainDuty0" Volume="6"
				Note Time="189" Value="F#3" Duration="3" Instrument="SS PlainDuty0"
				Note Time="191" Volume="7"
			PatternInstance Time="0" Pattern="Slide1"
			PatternInstance Time="1" Pattern="Intro1"
			PatternInstance Time="2" Pattern="Intro1"
			PatternInstance Time="3" Pattern="Intro2"
			PatternInstance Time="4" Pattern="Intro3"
			PatternInstance Time="5" Pattern="Drum1"
			PatternInstance Time="6" Pattern="Drum1"
			PatternInstance Time="7" Pattern="Drum1"
			PatternInstance Time="8" Pattern="Drum1"
			PatternInstance Time="9" Pattern="Drum1"
			PatternInstance Time="10" Pattern="Drum1"
			PatternInstance Time="11" Pattern="Drum1"
			PatternInstance Time="12" Pattern="Drum1"
			PatternInstance Time="13" Pattern="Drum1"
			PatternInstance Time="14" Pattern="Drum1"
			PatternInstance Time="15" Pattern="Drum1"
			PatternInstance Time="16" Pattern="Drum1"
			PatternInstance Time="17" Pattern="Drum2"
			PatternInstance Time="18" Pattern="Drum1"
			PatternInstance Time="19" Pattern="Drum1"
			PatternInstance Time="20" Pattern="Drum1"
			PatternInstance Time="21" Pattern="Drum1"
			PatternInstance Time="22" Pattern="Drum1"
			PatternInstance Time="23" Pattern="Drum1"
			PatternInstance Time="24" Pattern="Drum1"
			PatternInstance Time="25" Pattern="Drum1"
			PatternInstance Time="26" Pattern="Drum1"
			PatternInstance Time="27" Pattern="Drum1"
			PatternInstance Time="28" Pattern="Drum1"
			PatternInstance Time="29" Pattern="Drum1"
			PatternInstance Time="30" Pattern="Drum1"
			PatternInstance Time="31" Pattern="Slide1"
		Channel Type="DPCM"
